<svg id="Capa_1" data-name="Capa 1" xmlns="http://www.w3.org/2000/svg" viewBox="0 0 128 128"><defs><style>.cls-1{fill:#d4c3a4;}</style></defs><title>icon-</title><path class="cls-1" d="M109.48,20.53h-91a6.4,6.4,0,0,0-6.39,6.39V88.64A6.4,6.4,0,0,0,18.52,95H49.28L48,105H42.88a1.52,1.52,0,0,0,0,3H85.12a1.52,1.52,0,0,0,0-3H80L78.72,95h30.76a6.4,6.4,0,0,0,6.39-6.4V26.92A6.4,6.4,0,0,0,109.48,20.53ZM51.1,105,52.35,95h5.59l.55,2.19a5.68,5.68,0,0,0,11,0L70.06,95h5.59L76.9,105Zm10-9.95h5.86l-.37,1.45a2.64,2.64,0,0,1-5.12,0Zm51.76-6.4h0A3.36,3.36,0,0,1,109.48,92h-91a3.36,3.36,0,0,1-3.35-3.36V26.92a3.35,3.35,0,0,1,3.35-3.35h91a3.35,3.35,0,0,1,3.35,3.35V88.64Z"/><path class="cls-1" d="M98.11,27h-78a1.52,1.52,0,0,0-1.52,1.52V87a1.52,1.52,0,0,0,1.52,1.52h3.25a1.52,1.52,0,1,0,0-3H21.66V30.06H98.11a1.52,1.52,0,0,0,0-3Z"/><path class="cls-1" d="M107.86,27h-3.25a1.52,1.52,0,1,0,0,3h1.73V85.5H29.89a1.52,1.52,0,1,0,0,3h78A1.52,1.52,0,0,0,109.38,87V28.54A1.52,1.52,0,0,0,107.86,27Z"/><path class="cls-1" d="M84.69,43.85a1.52,1.52,0,0,0-1.13-.58L47.83,41.64h-.09a3.2,3.2,0,0,0-1.26-1.7L42.1,37a1.51,1.51,0,0,0-1.68,2.52l4.37,2.92a.15.15,0,0,1,.05.06L50.41,62a4.75,4.75,0,0,0,.83,1.63l-2,4.07a3.12,3.12,0,0,0,.14,3.06,3.06,3.06,0,0,0,.78.86,4.76,4.76,0,1,0,8.58.63H72.55a4.77,4.77,0,1,0,8.71-.39,1.52,1.52,0,0,0-1-2.64H52a.09.09,0,0,1-.09-.05.1.1,0,0,1,0-.11l1.87-3.75A4.79,4.79,0,0,0,55,65.5a3.64,3.64,0,0,0,.57,0L76.91,63a6.38,6.38,0,0,0,5.52-5.09L85,45.08A1.51,1.51,0,0,0,84.69,43.85ZM77,72.3A1.73,1.73,0,1,1,75.27,74,1.72,1.72,0,0,1,77,72.3Zm-22.74,0A1.73,1.73,0,1,1,52.53,74,1.72,1.72,0,0,1,54.25,72.3ZM50.53,51.39l-1.91-6.67L54.7,45l1,6.39ZM55.2,62.45a1.73,1.73,0,0,1-1.87-1.25L51.4,54.43h4.85l1.28,7.74Zm8.9-1.05-3.55.42-1.22-7.39H64.1Zm0-10H58.83l-1-6.25,6.3.29Zm7.7,9.1L67.14,61V54.43h5.21Zm.83-9.1H67.14V45.57l6,.27Zm6.82,5.87a3.35,3.35,0,0,1-2.9,2.67l-1.66.2.51-5.7H80Zm1.17-5.87H75.68L76.17,46l5.48.24Z"/></svg>