<svg id="Capa_1" data-name="Capa 1" xmlns="http://www.w3.org/2000/svg" viewBox="0 0 128 128"><defs><style>.cls-1{fill:#d4c3a4;}</style></defs><title>icon-</title><path class="cls-1" d="M110.38,62.14a4.69,4.69,0,0,0-4.77,0l-11,6.45a1.82,1.82,0,0,0-.78.95H90.08v-4a6.23,6.23,0,0,0-6.22-6.22H81.59a21.59,21.59,0,1,0-33-22.89A16.46,16.46,0,1,0,25.24,59.33a6.24,6.24,0,0,0-6.14,6.22v36.58a6.23,6.23,0,0,0,6.22,6.22h21a1.83,1.83,0,0,0,0-3.66h-21a2.56,2.56,0,0,1-2.56-2.56V65.55A2.56,2.56,0,0,1,25.32,63H83.86a2.55,2.55,0,0,1,2.56,2.56v36.58a2.55,2.55,0,0,1-2.56,2.56h-21a1.83,1.83,0,0,0,0,3.66h21a6.23,6.23,0,0,0,6.22-6.22v-4h3.78a1.82,1.82,0,0,0,.78,1l11,6.45a4.75,4.75,0,0,0,7.16-4.09V66.26a4.69,4.69,0,0,0-2.39-4.12ZM69.58,23.47A17.93,17.93,0,1,1,51.66,41.4,17.95,17.95,0,0,1,69.58,23.47ZM22.76,46.52A12.81,12.81,0,1,1,35.57,59.33,12.82,12.82,0,0,1,22.76,46.52ZM45.9,59.33a16.52,16.52,0,0,0,5.07-7,21.86,21.86,0,0,0,6.6,7Zm44.18,13.9h3.66V94.45H90.08Zm19,28.19a1.09,1.09,0,0,1-1.64.94L97.4,96.43V71.25l10.07-5.93a1.09,1.09,0,0,1,1.64.94Z"/><path class="cls-1" d="M75.08,80.55a6.22,6.22,0,1,0-6.22-6.22A6.23,6.23,0,0,0,75.08,80.55Zm0-8.78a2.56,2.56,0,1,1-2.56,2.56A2.56,2.56,0,0,1,75.08,71.77Z"/><path class="cls-1" d="M54.59,104.69a1.83,1.83,0,1,0,1.3.54A1.87,1.87,0,0,0,54.59,104.69Z"/><path class="cls-1" d="M69.58,55.67A14.27,14.27,0,1,0,55.31,41.4,14.28,14.28,0,0,0,69.58,55.67Zm0-24.88A10.61,10.61,0,1,1,59,41.4,10.62,10.62,0,0,1,69.58,30.79Z"/><path class="cls-1" d="M69.58,38.23a1.87,1.87,0,0,0,1.3-.54,1.83,1.83,0,0,0,0-2.58,1.84,1.84,0,0,0-3.13,1.29,1.84,1.84,0,0,0,1.83,1.83Z"/><path class="cls-1" d="M69.58,48.23a1.87,1.87,0,0,0,1.3-.54,1.83,1.83,0,0,0,.53-1.29,1.87,1.87,0,0,0-.53-1.3,1.85,1.85,0,0,0-2.59,0,1.88,1.88,0,0,0-.54,1.3,1.84,1.84,0,0,0,1.83,1.83Z"/><path class="cls-1" d="M74.58,43.23a1.83,1.83,0,0,0,1.3-3.12,1.82,1.82,0,0,0-2.59,0,1.83,1.83,0,0,0,1.29,3.12Z"/><path class="cls-1" d="M64.58,43.23a1.87,1.87,0,0,0,1.3-.54,1.83,1.83,0,0,0-1.3-3.12,1.8,1.8,0,0,0-1.29.54,1.83,1.83,0,0,0,1.29,3.12Z"/><path class="cls-1" d="M35.57,54.94a8.42,8.42,0,1,0-8.42-8.42A8.42,8.42,0,0,0,35.57,54.94Zm0-13.18a4.76,4.76,0,1,1-4.76,4.76A4.76,4.76,0,0,1,35.57,41.76Z"/><path class="cls-1" d="M64.47,97.74V80.18a1.83,1.83,0,0,0-1.83-1.83H30.81A1.83,1.83,0,0,0,29,80.18V97.74a1.83,1.83,0,0,0,1.83,1.83H62.64A1.83,1.83,0,0,0,64.47,97.74Zm-3.66-1.83H32.64V82H60.81Z"/><path class="cls-1" d="M68.86,96.28a1.83,1.83,0,0,0,1.83,1.83h8.78a1.83,1.83,0,0,0,1.83-1.83V87.5a1.83,1.83,0,0,0-1.83-1.83H70.69a1.83,1.83,0,0,0-1.83,1.83Zm3.66-7h5.12v5.12H72.52Z"/></svg>