<svg id="Capa_1" data-name="Capa 1" xmlns="http://www.w3.org/2000/svg" viewBox="0 0 128 128"><defs><style>.cls-1{fill:#d4c3a4;}</style></defs><title>icon-</title><path class="cls-1" d="M84.27,13.4H47.06a8.47,8.47,0,0,0-8.46,8.46v84.56a8.48,8.48,0,0,0,8.46,8.46H84.27a8.48,8.48,0,0,0,8.46-8.46V21.86A8.47,8.47,0,0,0,84.27,13.4ZM58.94,111.49H47.06A5.07,5.07,0,0,1,42,106.42v-5.07H58.94A8.28,8.28,0,0,0,58.94,111.49Zm6.73,0a5.07,5.07,0,1,1,5.07-5.07A5.07,5.07,0,0,1,65.67,111.49Zm23.67-5.07a5.07,5.07,0,0,1-5.07,5.07H72.39a8.28,8.28,0,0,0,0-10.14h17Zm0-8.46H42V32H89.34Zm0-69.34H42V21.86a5.07,5.07,0,0,1,5.07-5.08H84.27a5.07,5.07,0,0,1,5.07,5.08Z"/><rect class="cls-1" x="53.83" y="21.86" width="16.91" height="3.38"/><path class="cls-1" d="M58.9,47.23H52.13a5.07,5.07,0,0,0-5.07,5.07v6.76a5.07,5.07,0,0,0,5.07,5.08H58.9A5.07,5.07,0,0,0,64,59.06V52.3A5.07,5.07,0,0,0,58.9,47.23Zm1.69,11.83a1.7,1.7,0,0,1-1.69,1.7H52.13a1.7,1.7,0,0,1-1.69-1.7V52.3a1.69,1.69,0,0,1,1.69-1.69H58.9a1.69,1.69,0,0,1,1.69,1.69Z"/><path class="cls-1" d="M79.2,47.23H72.43a5.07,5.07,0,0,0-5.07,5.07v6.76a5.07,5.07,0,0,0,5.07,5.08H79.2a5.07,5.07,0,0,0,5.07-5.08V52.3A5.07,5.07,0,0,0,79.2,47.23Zm1.69,11.83a1.7,1.7,0,0,1-1.69,1.7H72.43a1.7,1.7,0,0,1-1.69-1.7V52.3a1.69,1.69,0,0,1,1.69-1.69H79.2a1.69,1.69,0,0,1,1.69,1.69Z"/><path class="cls-1" d="M58.9,67.52H52.13a5.07,5.07,0,0,0-5.07,5.07v6.77a5.07,5.07,0,0,0,5.07,5.07H58.9A5.07,5.07,0,0,0,64,79.36V72.59A5.07,5.07,0,0,0,58.9,67.52Zm1.69,11.84a1.69,1.69,0,0,1-1.69,1.69H52.13a1.69,1.69,0,0,1-1.69-1.69V72.59a1.69,1.69,0,0,1,1.69-1.69H58.9a1.69,1.69,0,0,1,1.69,1.69Z"/><path class="cls-1" d="M79.2,67.52H72.43a5.07,5.07,0,0,0-5.07,5.07v6.77a5.07,5.07,0,0,0,5.07,5.07H79.2a5.07,5.07,0,0,0,5.07-5.07V72.59A5.07,5.07,0,0,0,79.2,67.52Zm1.69,11.84a1.69,1.69,0,0,1-1.69,1.69H72.43a1.69,1.69,0,0,1-1.69-1.69V72.59a1.69,1.69,0,0,1,1.69-1.69H79.2a1.69,1.69,0,0,1,1.69,1.69Z"/><path class="cls-1" d="M52.13,35.39H47.06a1.69,1.69,0,0,0-1.69,1.69v5.07a1.69,1.69,0,0,0,3.38,0V38.77h3.38a1.69,1.69,0,1,0,0-3.38Z"/><path class="cls-1" d="M62.28,35.39H58.9a1.69,1.69,0,1,0,0,3.38h3.38a1.69,1.69,0,0,0,0-3.38Z"/><rect class="cls-1" x="74.12" y="21.86" width="3.38" height="3.38"/></svg>