<svg id="Capa_1" data-name="Capa 1" xmlns="http://www.w3.org/2000/svg" viewBox="0 0 128 128"><defs><style>.cls-1{fill:#d4c3a4;}</style></defs><title>icon-</title><path class="cls-1" d="M72.93,98.56H69.76V83a1.59,1.59,0,0,0-3.18,0V98.56H25.3V66.8H38.51a1.59,1.59,0,1,0,0-3.18H23.71a1.59,1.59,0,0,0-1.59,1.59V98.56H19a1.59,1.59,0,0,0-1.59,1.59v3.17a7.93,7.93,0,0,0,7.94,7.94H66.58a7.93,7.93,0,0,0,7.94-7.94v-3.17A1.59,1.59,0,0,0,72.93,98.56Zm-1.58,4.76a4.78,4.78,0,0,1-4.77,4.77H63.41V106.5a1.59,1.59,0,1,0-3.18,0v1.59H31.65V106.5a1.59,1.59,0,1,0-3.18,0v1.59H25.3a4.78,4.78,0,0,1-4.77-4.77v-1.59H71.35Z"/><path class="cls-1" d="M99.93,25.51h3.17a1.59,1.59,0,1,0,0-3.17H99.93a4.76,4.76,0,0,0-4.76,4.76v1.59H93.58a1.59,1.59,0,0,0,0,3.18h1.59v4.76a1.59,1.59,0,1,0,3.17,0V31.87h1.59a1.59,1.59,0,0,0,0-3.18H98.34V27.1A1.59,1.59,0,0,1,99.93,25.51Z"/><path class="cls-1" d="M107.87,16H88.81a4.76,4.76,0,0,0-4.76,4.76v3.18a1.59,1.59,0,0,0,3.18,0V20.75a1.59,1.59,0,0,1,1.58-1.59h19.06a1.59,1.59,0,0,1,1.59,1.59V39.81a1.59,1.59,0,0,1-1.59,1.58H88.81a1.58,1.58,0,0,1-1.58-1.58V30.28a1.59,1.59,0,0,0-3.18,0v9.53a4.76,4.76,0,0,0,4.76,4.76h19.06a4.76,4.76,0,0,0,4.76-4.76V20.75A4.76,4.76,0,0,0,107.87,16Z"/><path class="cls-1" d="M92,79.5a6.35,6.35,0,1,0,6.35-6.35A6.35,6.35,0,0,0,92,79.5Zm9.53,0a3.18,3.18,0,1,1-3.18-3.17A3.18,3.18,0,0,1,101.52,79.5Z"/><path class="cls-1" d="M107.87,65.21H88.81A4.76,4.76,0,0,0,84.05,70V89a4.76,4.76,0,0,0,4.76,4.76h19.06A4.76,4.76,0,0,0,112.63,89V85.85a1.59,1.59,0,0,0-3.17,0V89a1.59,1.59,0,0,1-1.59,1.59H88.81A1.59,1.59,0,0,1,87.23,89V70a1.59,1.59,0,0,1,1.58-1.59h19.06A1.59,1.59,0,0,1,109.46,70V79.5a1.59,1.59,0,1,0,3.17,0V70A4.76,4.76,0,0,0,107.87,65.21Z"/><path class="cls-1" d="M53,34.8a1.55,1.55,0,0,0,.84.24,1.58,1.58,0,0,0,.71-.17l9.53-4.77A1.58,1.58,0,0,0,64.81,28a1.54,1.54,0,0,0-.69-.69l-9.53-4.77a1.59,1.59,0,0,0-2.3,1.42v9.52A1.58,1.58,0,0,0,53,34.8Zm2.43-8.3,4.38,2.19-4.38,2.19Z"/><path class="cls-1" d="M57.06,43a14.29,14.29,0,1,0-14.3-14.29A14.29,14.29,0,0,0,57.06,43Zm0-25.41A11.12,11.12,0,1,1,45.94,28.69,11.12,11.12,0,0,1,57.06,17.57Z"/><path class="cls-1" d="M72.93,49.33a1.6,1.6,0,0,0,1.28-.63L79,42.35a1.59,1.59,0,1,0-2.54-1.91l-4.77,6.35A1.6,1.6,0,0,0,72,49,1.63,1.63,0,0,0,72.93,49.33Z"/><path class="cls-1" d="M76.43,55.05a1.58,1.58,0,0,0,1.27.63,1.61,1.61,0,0,0,1-.31L85,50.6a1.59,1.59,0,0,0-1.9-2.54l-6.35,4.77a1.57,1.57,0,0,0-.32,2.22Z"/><path class="cls-1" d="M92,58.54a1.59,1.59,0,0,0-1.84-1.28h-.07l-7.94,1.59A1.6,1.6,0,0,0,82.46,62h.32l7.94-1.59A1.59,1.59,0,0,0,92,58.6S92,58.56,92,58.54Z"/><path class="cls-1" d="M19,58.86H38a1.59,1.59,0,0,0,1.59-1.59V31.87A1.59,1.59,0,0,0,38,30.28H19a1.59,1.59,0,0,0-1.59,1.59v25.4A1.59,1.59,0,0,0,19,58.86Zm1.58-25.41H36.41V55.68H20.53Z"/><path class="cls-1" d="M31.65,36.63H28.47a1.59,1.59,0,0,0,0,3.18h3.18a1.59,1.59,0,1,0,0-3.18Z"/><path class="cls-1" d="M31.65,43H25.3a1.59,1.59,0,0,0,0,3.18h6.35a1.59,1.59,0,1,0,0-3.18Z"/><path class="cls-1" d="M31.65,49.33H25.3a1.59,1.59,0,0,0,0,3.18h6.35a1.59,1.59,0,1,0,0-3.18Z"/><path class="cls-1" d="M71.54,58.38A1.6,1.6,0,0,0,68.77,60l7,12.12L50.37,81.61h-.24L46,84l-2.74,1.58a3.15,3.15,0,0,1-2.42.32,3.19,3.19,0,0,1-1.92-1.47l-3.17-5.5a3.16,3.16,0,0,1,1.19-4.19l5.49-3.18,4,6.88a1.6,1.6,0,0,0,3-.79,1.6,1.6,0,0,0-.22-.8l-4.09-7.08L65,53.33l.65,1.13a1.59,1.59,0,1,0,2.76-1.59l-1.59-2.74a1.58,1.58,0,0,0-1.09-.77,1.63,1.63,0,0,0-1.31.34L42.19,68l-6.76,3.91a6.34,6.34,0,0,0-2.92,7.19L30.92,80a4.76,4.76,0,1,0,4.76,8.25l1.59-.9A6.08,6.08,0,0,0,40.05,89a5.85,5.85,0,0,0,1.67.22,6.2,6.2,0,0,0,3.17-.85l1.38-.8,3.18,5.51a4.76,4.76,0,1,0,8.24-4.76h0l-2.89-5,23.82-8.94a1.58,1.58,0,0,0,.94-1,1.65,1.65,0,0,0-.11-1.32ZM34,85.52A1.59,1.59,0,0,1,31.86,85a1.56,1.56,0,0,1-.16-1.21,1.61,1.61,0,0,1,.74-1L33.83,82l1.58,2.75ZM54.93,90a1.58,1.58,0,0,1,.16,1.2,1.6,1.6,0,0,1-2.91.39L49,86.05l2.63-1.51h.13Z"/></svg>