<svg id="Capa_1" data-name="Capa 1" xmlns="http://www.w3.org/2000/svg" viewBox="0 0 128 128"><defs><style>.cls-1{fill:#d4c3a4;}</style></defs><title>icon-</title><path class="cls-1" d="M103.55,10.51H98.94a1.57,1.57,0,0,0,0,3.14h4.61a8.63,8.63,0,0,1,8.63,8.61V58.63a8.63,8.63,0,0,1-8.63,8.61H98.32a1.58,1.58,0,0,0-1,.32l-9.6,7.34V68.81a1.57,1.57,0,0,0-1.57-1.57H67.07a8.63,8.63,0,0,1-4.4-1.2V48.4a9.62,9.62,0,0,0-4.24-8V22.26a8.63,8.63,0,0,1,8.64-8.61h22a1.57,1.57,0,0,0,0-3.14h-22A11.77,11.77,0,0,0,55.29,22.26v16.8A9.76,9.76,0,0,0,53,38.8H24.28a9.62,9.62,0,0,0-9.63,9.6v3.39a1.58,1.58,0,0,0,3.15,0V48.4a6.47,6.47,0,0,1,6.48-6.46H53a6.47,6.47,0,0,1,6.48,6.46V66.66a2.94,2.94,0,0,0,0,.42v10c0,.19,0,.39,0,.59H56.25a7.28,7.28,0,0,0-7.16,6,1.53,1.53,0,0,0-.41.23l-7,5.42V85.1a1.57,1.57,0,0,0-1.57-1.57H24.28a6.47,6.47,0,0,1-6.48-6.45V61.22a1.58,1.58,0,0,0-3.15,0V77.08a9.62,9.62,0,0,0,9.63,9.59H38.51v5.81A1.6,1.6,0,0,0,41,93.73L49,87.61v17.68a7.28,7.28,0,0,0,7.28,7.26H65.9v3.67a1.59,1.59,0,0,0,2.53,1.24l6.36-4.91h1.88A7.28,7.28,0,0,0,84,105.29V102.5a1.57,1.57,0,0,0-3.14,0v2.79a4.14,4.14,0,0,1-4.14,4.12H74.25a1.62,1.62,0,0,0-1,.33L69,113v-2a1.57,1.57,0,0,0-1.57-1.57H56.25a4.14,4.14,0,0,1-4.14-4.12V84.93a4.14,4.14,0,0,1,4.14-4.12H76.67a4.14,4.14,0,0,1,4.14,4.12v7.72a1.57,1.57,0,0,0,3.14,0V84.93a7.28,7.28,0,0,0-7.28-7.26h-14c0-.2,0-8.14,0-8.14a11.68,11.68,0,0,0,4.4.85H84.62v7.7a1.6,1.6,0,0,0,2.53,1.25l11.7-9h4.7a11.78,11.78,0,0,0,11.78-11.75V22.26a11.78,11.78,0,0,0-11.78-11.75Z"/><path class="cls-1" d="M89.23,22.12a3.28,3.28,0,0,0-4,3.13,9.23,9.23,0,0,1-2.31,6.11l-4.33,4.9a1.56,1.56,0,0,0-1.31-.71H68.8a1.57,1.57,0,0,0-1.58,1.57v19a1.58,1.58,0,0,0,1.58,1.57h8.45a1.58,1.58,0,0,0,1.43-.92,11,11,0,0,0,5.71,1.61H99.33a4.12,4.12,0,0,0,4.06-4.26c0-1,0-14.54,0-14.85a4.06,4.06,0,0,0-4.06-4.06l-7.77,0,.32-.76a12.29,12.29,0,0,0-.64-10.8,3.2,3.2,0,0,0-2-1.53ZM75.68,54.56H70.37V38.69h5.31ZM99.33,38.37a.93.93,0,0,1,.92.92c0,.3,0,1.11,0,2.22,0,6.07,0,11.82,0,12.78A1,1,0,0,1,100,55a.88.88,0,0,1-.66.29H84.39a7.85,7.85,0,0,1-4.91-1.74L78.82,53V40.72l6.43-7.28a12.35,12.35,0,0,0,3.1-8.19.09.09,0,0,1,.16,0,9.1,9.1,0,0,1,.48,8l-1.24,2.94a1.57,1.57,0,0,0,1.44,2.18Z"/><path class="cls-1" d="M28.11,65.09a1.58,1.58,0,0,0,0,3.15h4.63l-.86,5.23a1.57,1.57,0,0,0,1.29,1.81l.26,0A1.58,1.58,0,0,0,35,74l1-5.74h3.79l-.87,5.23a1.57,1.57,0,0,0,1.3,1.81l.26,0A1.58,1.58,0,0,0,42,74l.95-5.74h6.3a1.58,1.58,0,0,0,0-3.15H43.42l.64-3.83h5.15a1.57,1.57,0,1,0,0-3.14H44.58l.86-5.24a1.57,1.57,0,0,0-3.1-.51l-1,5.75H37.6l.87-5.24a1.57,1.57,0,0,0-1.3-1.8,1.55,1.55,0,0,0-1.8,1.29l-.95,5.75H28.11a1.57,1.57,0,0,0,0,3.14H33.9l-.64,3.83Zm9-3.83h3.79l-.63,3.83H36.45Z"/><path class="cls-1" d="M66.44,88.92a5.27,5.27,0,0,0-4.65-1,5.85,5.85,0,0,0-4.36,5.9,7.71,7.71,0,0,0,2.32,5.52,22.9,22.9,0,0,0,6,4.12,1.47,1.47,0,0,0,.73.19,1.51,1.51,0,0,0,.74-.19c5-2.64,8.29-5.29,8.29-9.64A5.82,5.82,0,0,0,71,87.9a5.3,5.3,0,0,0-4.54,1Zm5.91,4.85c0,2.35-1.56,4.09-5.89,6.47-4.33-2.38-5.89-4.12-5.89-6.47a2.69,2.69,0,0,1,2-2.84,2,2,0,0,1,.56-.07,2.16,2.16,0,0,1,2,1.26,1.59,1.59,0,0,0,1.43.86,1.61,1.61,0,0,0,1.4-.91,2,2,0,0,1,2.4-1.1A2.66,2.66,0,0,1,72.35,93.77Z"/></svg>