<?xml version="1.0" encoding="utf-8"?>
<!-- Generator: Adobe Illustrator 24.0.0, SVG Export Plug-In . SVG Version: 6.00 Build 0)  -->
<svg version="1.1" id="Capa_1" xmlns="http://www.w3.org/2000/svg" xmlns:xlink="http://www.w3.org/1999/xlink" x="0px" y="0px"
	 viewBox="0 0 128 128" style="enable-background:new 0 0 128 128;" xml:space="preserve">
<style type="text/css">
	.st0{fill:#D4C3A4;}
</style>
<title>icon-</title>
<path class="st0" d="M47.3,73.6c0.3,0.5,0.9,0.8,1.5,0.8h34.9c0.9,0,1.7-0.7,1.7-1.7v0c0-0.3-0.1-0.6-0.2-0.8L75,55.3
	c-0.5-0.8-1.5-1-2.3-0.6c-0.2,0.1-0.4,0.3-0.6,0.6l-1.9,3.2l-6-10.1c-0.5-0.8-1.5-1-2.3-0.6c0,0,0,0,0,0c-0.2,0.1-0.4,0.3-0.6,0.6
	L47.3,71.9C47,72.5,47,73.1,47.3,73.6z M73.6,59.4l7,11.7h-2.7l-5.6-9.4L73.6,59.4z M62.8,52.5L74,71.1H51.7L62.8,52.5z"/>
<path class="st0" d="M81.1,52.9c3.2,0,5.8-2.6,5.8-5.8c0-3.2-2.6-5.8-5.8-5.8c-3.2,0-5.8,2.6-5.8,5.8l0,0l0,0
	C75.3,50.3,77.9,52.9,81.1,52.9z M81.1,44.6c1.4,0,2.5,1.1,2.5,2.5c0,1.4-1.1,2.5-2.5,2.5c-1.4,0-2.5-1.1-2.5-2.5l0,0
	C78.6,45.7,79.7,44.6,81.1,44.6C81.1,44.6,81.1,44.6,81.1,44.6z"/>
<path class="st0" d="M42.1,37.9c0-0.9-0.7-1.7-1.7-1.7h-8.3c-0.9,0-1.7,0.7-1.7,1.7c0,0.9,0.7,1.7,1.7,1.7h8.3
	C41.3,39.6,42.1,38.8,42.1,37.9z"/>
<path class="st0" d="M45.4,39.6h1.7c0.9,0,1.7-0.7,1.7-1.7s-0.7-1.7-1.7-1.7c0,0,0,0,0,0h-1.7c-0.9,0-1.7,0.7-1.7,1.7
	S44.5,39.6,45.4,39.6C45.4,39.6,45.4,39.6,45.4,39.6z"/>
<path class="st0" d="M110.2,102.7H98.6V86.1h10c0.9,0,1.7-0.7,1.7-1.7v0V31.3c0-0.9-0.7-1.7-1.7-1.7l0,0h-8.3v-3.3h5
	c0.9,0,1.7-0.7,1.7-1.7c0,0,0,0,0,0v-5c0-0.9-0.8-1.7-1.7-1.6c0,0,0,0,0,0H91.9c-0.9,0-1.7,0.7-1.7,1.7c0,0,0,0,0,0v5
	c0,0.9,0.7,1.7,1.7,1.7l0,0h5v3.3H68.7v-3.3h5c0.9,0,1.7-0.7,1.7-1.7c0,0,0,0,0,0v-5c0-0.9-0.8-1.7-1.7-1.6c0,0,0,0,0,0H60.4
	c-0.9,0-1.7,0.7-1.7,1.7v5c0,0.9,0.7,1.7,1.7,1.7h5v3.3H37.1v-3.3h5c0.9,0,1.7-0.7,1.7-1.7v-5c0-0.9-0.8-1.7-1.7-1.6c0,0,0,0,0,0
	H28.8c-0.9,0-1.7,0.7-1.7,1.7v5c0,0.9,0.7,1.7,1.7,1.7h5v3.3h-8.3c-0.9,0-1.7,0.7-1.7,1.7v53.1c0,0.9,0.7,1.7,1.7,1.7c0,0,0,0,0,0
	h10v16.6H17.2c-0.9,0-1.7,0.7-1.7,1.7c0,0.9,0.7,1.7,1.7,1.7h93c0.9,0,1.7-0.7,1.7-1.7C111.8,103.4,111.1,102.7,110.2,102.7
	L110.2,102.7z M93.6,23v-1.7h10V23H93.6z M62,23v-1.7h10V23H62z M30.5,23v-1.7h10V23H30.5z M27.1,33h79.7v49.8H27.1V33z M88.6,86.1
	v16.6H45.4V86.1H88.6z M38.8,102.7V86.1h3.3v16.6H38.8z M91.9,102.7V86.1h3.3v16.6H91.9z"/>
<path class="st0" d="M116.8,102.7h-1.7c-0.9,0-1.7,0.7-1.7,1.7c0,0.9,0.7,1.7,1.7,1.7h1.7c0.9,0,1.7-0.7,1.7-1.7
	C118.5,103.4,117.7,102.7,116.8,102.7z"/>
</svg>
