<svg id="Capa_1" data-name="Capa 1" xmlns="http://www.w3.org/2000/svg" viewBox="0 0 128 128"><defs><style>.cls-1{fill:#d4c3a4;}</style></defs><title>icon-</title><path class="cls-1" d="M107.38,18.21H22.62a4.83,4.83,0,0,0-4.71,4.93V108.7a4.83,4.83,0,0,0,4.71,4.93h84.76a4.83,4.83,0,0,0,4.71-4.93V23.14A4.83,4.83,0,0,0,107.38,18.21ZM22.62,21.5h84.76A1.61,1.61,0,0,1,109,23.14v8.23H21.05V23.14A1.61,1.61,0,0,1,22.62,21.5Zm84.76,88.84H22.62a1.61,1.61,0,0,1-1.57-1.64v-74H109v74A1.61,1.61,0,0,1,107.38,110.34Z"/><ellipse class="cls-1" cx="38.32" cy="26.43" rx="1.57" ry="1.65"/><ellipse class="cls-1" cx="32.04" cy="26.43" rx="1.57" ry="1.65"/><ellipse class="cls-1" cx="25.76" cy="26.43" rx="1.57" ry="1.65"/><path class="cls-1" d="M101.1,41.24H28.9a1.61,1.61,0,0,0-1.57,1.65V69.21a1.61,1.61,0,0,0,1.57,1.65h72.2a1.61,1.61,0,0,0,1.57-1.65V42.89A1.61,1.61,0,0,0,101.1,41.24ZM75.37,65.6l3.76-3.93,5.62,5.89h-8Zm-2.52,2H60.29l6.28-8.77Zm-16.48,0H44.47l8-11.93,6,9Zm43.16,0H89.19l-9-9.39a1.52,1.52,0,0,0-2.22,0h0l-4.55,4.77-5.64-7.88a1.53,1.53,0,0,0-2.2-.33,2,2,0,0,0-.32.33l-4.87,6.81L53.73,51.81a1.53,1.53,0,0,0-2.19-.4,1.6,1.6,0,0,0-.38.4L40.64,67.56H30.47v-23H99.53Z"/><ellipse class="cls-1" cx="74.42" cy="52.76" rx="1.57" ry="1.65"/><ellipse class="cls-1" cx="71.28" cy="75.79" rx="1.57" ry="1.65"/><ellipse class="cls-1" cx="65" cy="75.79" rx="1.57" ry="1.65"/><ellipse class="cls-1" cx="58.72" cy="75.79" rx="1.57" ry="1.65"/><path class="cls-1" d="M47.74,80.73H28.9a1.6,1.6,0,0,0-1.57,1.64V95.54a1.61,1.61,0,0,0,1.57,1.64H47.74a1.61,1.61,0,0,0,1.56-1.64V82.37A1.6,1.6,0,0,0,47.74,80.73ZM46.17,84v9.41L39.3,87.67a1.51,1.51,0,0,0-2,0l-6.87,5.76V84Zm-4.48,9.87H35l3.37-2.83Z"/><path class="cls-1" d="M74.42,80.73H55.58A1.61,1.61,0,0,0,54,82.37V95.54a1.61,1.61,0,0,0,1.57,1.64H74.42A1.61,1.61,0,0,0,76,95.54V82.37A1.61,1.61,0,0,0,74.42,80.73ZM72.85,84v9.41L66,87.67a1.51,1.51,0,0,0-2,0l-6.87,5.76V84Zm-4.48,9.87H61.63L65,91.06Z"/><path class="cls-1" d="M101.1,80.73H82.26a1.6,1.6,0,0,0-1.56,1.64V95.54a1.61,1.61,0,0,0,1.56,1.64H101.1a1.61,1.61,0,0,0,1.57-1.64V82.37A1.6,1.6,0,0,0,101.1,80.73ZM99.53,84v9.41l-6.87-5.76a1.51,1.51,0,0,0-2,0l-6.87,5.76V84Zm-4.48,9.87H88.31l3.37-2.83Z"/><path class="cls-1" d="M44.6,100.47H32a1.65,1.65,0,0,0,0,3.29H44.6a1.65,1.65,0,0,0,0-3.29Z"/><path class="cls-1" d="M71.28,100.47H58.72a1.65,1.65,0,0,0,0,3.29H71.28a1.65,1.65,0,0,0,0-3.29Z"/><path class="cls-1" d="M98,100.47H85.4a1.65,1.65,0,0,0,0,3.29H98a1.65,1.65,0,0,0,0-3.29Z"/></svg>