<svg id="Capa_1" data-name="Capa 1" xmlns="http://www.w3.org/2000/svg" viewBox="0 0 128 128"><defs><style>.cls-1{fill:#d4c3a4;}</style></defs><title>icon-</title><path class="cls-1" d="M109.51,13.89H60.75a4.89,4.89,0,0,0-4.88,4.88v4.88H20.12a6.5,6.5,0,0,0-6.5,6.5V88.66a6.51,6.51,0,0,0,6.5,6.5H45.49l-2.16,6.5H39.62a8.14,8.14,0,0,0-8.13,8.13v4.87H86.75v-4.87a8.13,8.13,0,0,0-8.12-8.13H74.92l-2.16-6.5H98.13a6.51,6.51,0,0,0,6.5-6.5V65.9h4.88A4.87,4.87,0,0,0,114.38,61V18.77A4.88,4.88,0,0,0,109.51,13.89ZM60.75,17.14h48.76a1.62,1.62,0,0,1,1.62,1.63V49.65h-52V18.77A1.63,1.63,0,0,1,60.75,17.14Zm0,48.76H91.63v13h-65V36.65H55.87V61A4.88,4.88,0,0,0,60.75,65.9ZM83.5,109.79v1.62H34.74v-1.62a4.89,4.89,0,0,1,4.88-4.88h39A4.88,4.88,0,0,1,83.5,109.79Zm-12-8.13H46.75l2.17-6.5H69.33Zm29.88-13a3.26,3.26,0,0,1-3.25,3.25h-78a3.25,3.25,0,0,1-3.25-3.25V30.15a3.24,3.24,0,0,1,3.25-3.25H55.87v6.5H26.62a3.26,3.26,0,0,0-3.25,3.25V78.91a3.26,3.26,0,0,0,3.25,3.25h65a3.26,3.26,0,0,0,3.25-3.25v-13h6.5Zm8.13-26H60.75A1.63,1.63,0,0,1,59.12,61V52.9h52V61A1.62,1.62,0,0,1,109.51,62.65Z"/><path class="cls-1" d="M65.63,56.15h39V59.4h-39Z"/><path class="cls-1" d="M75.38,21V45.78L100.14,33.4Zm3.25,5.26L92.87,33.4,78.63,40.52Z"/><path class="cls-1" d="M33.12,65.9h19.5V49.65h-6.5V39.9H29.87V56.15h3.25Zm16.25-13v9.75h-13v-6.5h9.75V52.9ZM33.12,43.15h9.75V52.9H33.12Z"/><path class="cls-1" d="M29.87,72.4h52v3.26h-52Z"/><path class="cls-1" d="M85.13,72.4h3.25v3.26H85.13Z"/><path class="cls-1" d="M81.88,85.41h3.25v3.25H81.88Z"/><path class="cls-1" d="M75.38,85.41h3.25v3.25H75.38Z"/><path class="cls-1" d="M68.88,85.41h3.25v3.25H68.88Z"/></svg>