<svg id="Capa_1" data-name="Capa 1" xmlns="http://www.w3.org/2000/svg" viewBox="0 0 128 128"><defs><style>.cls-1{fill:#d4c3a4;}</style></defs><title>icon-</title><path class="cls-1" d="M104.74,71.05a1.87,1.87,0,1,0,1.87,1.87A1.87,1.87,0,0,0,104.74,71.05Z"/><path class="cls-1" d="M66.2,63.57a1.87,1.87,0,1,0,1.87,1.87A1.87,1.87,0,0,0,66.2,63.57Z"/><path class="cls-1" d="M66.2,56.08A24.33,24.33,0,1,0,90.52,80.41,24.35,24.35,0,0,0,66.2,56.08Zm0,44.91A20.58,20.58,0,1,1,86.78,80.41,20.61,20.61,0,0,1,66.2,101Z"/><path class="cls-1" d="M74.35,65.68A1.87,1.87,0,1,0,72.54,69,13.11,13.11,0,0,1,79.3,80.41a1.87,1.87,0,0,0,3.74,0A16.85,16.85,0,0,0,74.35,65.68Z"/><path class="cls-1" d="M108.48,52.34h-1.87V46.73a1.87,1.87,0,0,0-1.87-1.87H97.26a1.87,1.87,0,0,0-1.87,1.87v5.61H81.17A32.06,32.06,0,0,0,75.55,50V44.86h5.62a5.62,5.62,0,0,0,5.61-5.61V28a5.61,5.61,0,0,0-5.61-5.61H51.23A5.61,5.61,0,0,0,45.62,28V39.25a5.62,5.62,0,0,0,5.61,5.61h5.62V50a32.06,32.06,0,0,0-5.62,2.34H37V46.73a1.87,1.87,0,0,0-1.87-1.87H27.66a1.87,1.87,0,0,0-1.87,1.87v5.61H23.92A5.62,5.62,0,0,0,18.3,58v44.91a5.62,5.62,0,0,0,5.62,5.61H51.23a31.83,31.83,0,0,0,29.94,0h27.31a5.62,5.62,0,0,0,5.62-5.61V58A5.62,5.62,0,0,0,108.48,52.34ZM99.13,48.6h3.74v3.74H99.13Zm-47.9-7.48a1.87,1.87,0,0,1-1.87-1.87V28a1.87,1.87,0,0,1,1.87-1.87H81.17A1.87,1.87,0,0,1,83,28V39.25a1.87,1.87,0,0,1-1.87,1.87Zm20.58,3.74V49.1a31.72,31.72,0,0,0-11.22,0V44.86ZM29.53,48.6h3.74v3.74H29.53ZM22.05,58a1.89,1.89,0,0,1,1.87-1.89H45.71a32,32,0,0,0-6.5,7.51H22.05Zm0,9.34H37.21a31.86,31.86,0,0,0,0,26.21H22.05Zm1.87,37.44a1.87,1.87,0,0,1-1.87-1.87V97.24H39.21a31.91,31.91,0,0,0,6.5,7.49Zm42.28,3.74A28.07,28.07,0,1,1,94.26,80.41,28.06,28.06,0,0,1,66.2,108.47Zm44.15-5.61a1.87,1.87,0,0,1-1.87,1.87H86.69a31.91,31.91,0,0,0,6.5-7.49h17.16Zm0-9.36H95.19a31.81,31.81,0,0,0,0-26.19h15.16Zm0-29.93H93.19a31.91,31.91,0,0,0-6.5-7.49h21.79A1.87,1.87,0,0,1,110.35,58Z"/><path class="cls-1" d="M77.43,29.89a1.88,1.88,0,0,0-1.88,1.87V35.5a1.88,1.88,0,0,0,3.75,0V31.76A1.87,1.87,0,0,0,77.43,29.89Z"/></svg>