<svg id="Capa_1" data-name="Capa 1" xmlns="http://www.w3.org/2000/svg" viewBox="0 0 128 128"><defs><style>.cls-1{fill:#d4c3a4;}</style></defs><title>icon-</title><path class="cls-1" d="M57.27,73.24a1.85,1.85,0,1,0,1.85,1.85A1.85,1.85,0,0,0,57.27,73.24Z"/><path class="cls-1" d="M57.27,84.34a1.86,1.86,0,1,0,1.85,1.85A1.85,1.85,0,0,0,57.27,84.34Z"/><path class="cls-1" d="M89.11,73.24H64.67a1.85,1.85,0,0,0,0,3.7H89.11a1.85,1.85,0,0,0,0-3.7Z"/><path class="cls-1" d="M89.11,84.34H64.67a1.86,1.86,0,0,0,0,3.71H89.11a1.86,1.86,0,0,0,0-3.71Z"/><path class="cls-1" d="M23.94,105.32v3.09a1.86,1.86,0,0,0,3.71,0v-3.09l.74-1A24.25,24.25,0,0,0,33.2,89.9V37.69h1.85a1.85,1.85,0,0,1,1.85,1.85v17a1.86,1.86,0,0,0,3.71,0v-17A5.57,5.57,0,0,0,35.05,34H33.2v-3.7a7.36,7.36,0,0,0-1.85-4.9V21a5.56,5.56,0,0,0-11.11,0V25.4a7.41,7.41,0,0,0-1.85,4.89V89.9a24.25,24.25,0,0,0,4.81,14.44ZM29.5,88.05H22.09V37.69H29.5ZM22.09,34v-3.7a3.71,3.71,0,0,1,7.41,0V34ZM25.8,19.18A1.85,1.85,0,0,1,27.65,21v2.09a7.17,7.17,0,0,0-1.85-.24,7.24,7.24,0,0,0-1.86.24V21A1.86,1.86,0,0,1,25.8,19.18Zm3.61,72.57a20.47,20.47,0,0,1-3.61,9.85,20.49,20.49,0,0,1-3.62-9.85Z"/><path class="cls-1" d="M113.17,45.47V36.21a7.41,7.41,0,0,0-7.4-7.4H53.56a9.26,9.26,0,0,0-9.25,9.25V95.45H38.75A1.85,1.85,0,0,0,36.9,97.3a13,13,0,0,0,13,13h43a9.44,9.44,0,0,0,9.26-9.65V47.32h9.25A1.85,1.85,0,0,0,113.17,45.47ZM49.86,106.56a9.28,9.28,0,0,1-9.07-7.41H83.55V101a9.25,9.25,0,0,0,1.86,5.56Zm48.5-70.35v64.4a5.73,5.73,0,0,1-5.55,6A5.56,5.56,0,0,1,87.26,101V97.3a1.85,1.85,0,0,0-1.85-1.85H48V38.06a5.57,5.57,0,0,1,5.55-5.57H99.35A7.52,7.52,0,0,0,98.36,36.21Zm11.11,7.41h-7.4V36.21a3.7,3.7,0,0,1,7.4,0Z"/><path class="cls-1" d="M58,63.24H89.11L80.22,48.42l-3.58,6L69.85,42.5Zm20.6-5.43,1.62-2.71L83,59.8h-3.3Zm-14.68,2,5.93-10.37L75.78,59.8Z"/></svg>