<svg id="Capa_1" data-name="Capa 1" xmlns="http://www.w3.org/2000/svg" viewBox="0 0 128 128"><defs><style>.cls-1{fill:#d4c3a4;}</style></defs><title>icon-</title><path class="cls-1" d="M108.35,16.94h-88a4.89,4.89,0,0,0-4.89,4.89v84.71a4.9,4.9,0,0,0,4.89,4.89h88a4.9,4.9,0,0,0,4.88-4.89V21.83A4.89,4.89,0,0,0,108.35,16.94Zm-88,3.26h88A1.64,1.64,0,0,1,110,21.83V30H18.75V21.83A1.63,1.63,0,0,1,20.38,20.2Zm88,88h-88a1.63,1.63,0,0,1-1.63-1.63V33.23H110v73.31A1.64,1.64,0,0,1,108.35,108.17Z"/><circle class="cls-1" cx="36.67" cy="25.08" r="1.63"/><circle class="cls-1" cx="30.15" cy="25.08" r="1.63"/><circle class="cls-1" cx="23.63" cy="25.08" r="1.63"/><path class="cls-1" d="M101.83,39.75H26.89a1.63,1.63,0,0,0-1.63,1.63V100a1.63,1.63,0,0,0,1.63,1.63h74.94a1.63,1.63,0,0,0,1.63-1.63V41.38A1.63,1.63,0,0,0,101.83,39.75ZM100.2,98.39H28.52V43H100.2Z"/><path class="cls-1" d="M87.53,51.91a3.35,3.35,0,0,0-3.17-3.16,33.16,33.16,0,0,0-16.67,3.34A32.72,32.72,0,0,0,58.14,60l-.1.12-6.31.49a3.32,3.32,0,0,0-2.54,1.49l-4.3,6.51a2.3,2.3,0,0,0,1.57,3.55l5.31.83a2.87,2.87,0,0,0-.05.31,3.33,3.33,0,0,0,.94,2.91l7.4,7.4a3.36,3.36,0,0,0,2.37,1,3.27,3.27,0,0,0,.54,0l.31-.06.82,5.32a2.3,2.3,0,0,0,1.35,1.75,2.2,2.2,0,0,0,.93.2,2.31,2.31,0,0,0,1.27-.38l6.51-4.31a3.34,3.34,0,0,0,1.5-2.53l.48-6.31.13-.1a32.62,32.62,0,0,0,7.92-9.56,33.36,33.36,0,0,0,3.34-16.67ZM72.77,85,66.54,89.1l-.8-5.18a28.53,28.53,0,0,0,7.72-3.68l-.32,4.11a.83.83,0,0,1-.37.63ZM61.84,81.83l-7.4-7.4a.79.79,0,0,1-.23-.71,22.16,22.16,0,0,1,1-3.75L66.3,81.08a22,22,0,0,1-3.75,1,.83.83,0,0,1-.71-.24ZM51.92,63.14,56,62.82a28.15,28.15,0,0,0-3.67,7.71l-5.18-.8L51.3,63.5A.82.82,0,0,1,51.92,63.14ZM74.65,76.2A29.09,29.09,0,0,1,68.81,80L56.25,67.47a29.09,29.09,0,0,1,3.83-5.84,30,30,0,0,1,8.77-7.3,30.72,30.72,0,0,1,15.37-3.06.83.83,0,0,1,.79.78A30.81,30.81,0,0,1,82,67.42a30.19,30.19,0,0,1-7.3,8.78Z"/><path class="cls-1" d="M74,68.57a6.3,6.3,0,1,0-4.46-1.84A6.29,6.29,0,0,0,74,68.57Zm-2.68-9A3.78,3.78,0,0,1,74,58.48a3.78,3.78,0,0,1,2.67,6.46,3.78,3.78,0,1,1-5.35-5.35Z"/><path class="cls-1" d="M45.79,84.19a1.26,1.26,0,0,0,.89-.36l4.12-4.12A1.26,1.26,0,0,0,49,77.92L44.9,82a1.26,1.26,0,0,0,.89,2.15Z"/><path class="cls-1" d="M54.58,81.7a1.26,1.26,0,0,0-1.79,0l-7.92,7.92a1.26,1.26,0,0,0,1.79,1.78l7.92-7.92a1.26,1.26,0,0,0,0-1.78Z"/><path class="cls-1" d="M56.57,85.47l-4.12,4.12a1.27,1.27,0,0,0,0,1.79,1.29,1.29,0,0,0,.89.37,1.27,1.27,0,0,0,.89-.37l4.12-4.12a1.26,1.26,0,0,0-1.78-1.79Z"/></svg>