<svg id="Capa_1" data-name="Capa 1" xmlns="http://www.w3.org/2000/svg" viewBox="0 0 128 128"><defs><style>.cls-1{fill:#d4c3a4;}</style></defs><title>icon-</title><path class="cls-1" d="M25.69,105.3h3.15v3.15H25.69Z"/><path class="cls-1" d="M32,105.3h3.15v3.15H32Z"/><path class="cls-1" d="M38.31,105.3h3.15v3.15H38.31Z"/><path class="cls-1" d="M92,105.3h12.62v3.15H92Z"/><path class="cls-1" d="M110.88,99V46.92A7.9,7.9,0,0,0,103,39H98.26a22.09,22.09,0,0,0-44.17,0H27.26a7.89,7.89,0,0,0-7.88,7.89V99H16.22v7.89a7.9,7.9,0,0,0,7.89,7.89h82a7.9,7.9,0,0,0,7.89-7.89V99ZM103,42.19a4.74,4.74,0,0,1,4.74,4.73V99h-3.16V48.5a3.15,3.15,0,0,0-3.15-3.15H97.33A23.66,23.66,0,0,0,98,42.19ZM58.16,33.24l16.74,7,5.74,17.19A18.89,18.89,0,0,1,58.16,33.24ZM83.63,56.43,78,39.46,90.62,26.82a18.9,18.9,0,0,1-7,29.61ZM76.17,20.1a18.87,18.87,0,0,1,12.22,4.49L75.81,37.17,59.38,30.33A18.93,18.93,0,0,1,76.17,20.1ZM22.53,46.92a4.73,4.73,0,0,1,4.73-4.73H54.34A20.89,20.89,0,0,0,55,45.35H28.84a3.15,3.15,0,0,0-3.15,3.15V99H22.53Zm88.35,60a4.73,4.73,0,0,1-4.73,4.73h-82a4.73,4.73,0,0,1-4.73-4.73v-4.74h32.5a12.27,12.27,0,0,0,8.25,3.16h10a12.27,12.27,0,0,0,8.25-3.16H98.26V99H77.1l-.46.46a9.14,9.14,0,0,1-6.51,2.69h-10a9.13,9.13,0,0,1-6.5-2.69L53.16,99H28.84V48.5H56.25a22,22,0,0,0,39.85,0h5.32v53.64h9.46Z"/><path class="cls-1" d="M93.53,83.21a4.71,4.71,0,0,0-2.62.8L85.4,79.88a4.67,4.67,0,0,0,.24-1.4,4.74,4.74,0,1,0-9.47,0A4.67,4.67,0,0,0,76.45,80l-8.83,7.07a4.66,4.66,0,0,0-5.31.23L55.5,82.79a4.45,4.45,0,0,0,.16-1.16,4.73,4.73,0,0,0-9.46,0,4.45,4.45,0,0,0,.16,1.16l-6.81,4.53a4.72,4.72,0,1,0,1.91,3.78A4.37,4.37,0,0,0,41.3,90l6.81-4.54a4.62,4.62,0,0,0,5.64,0L60.56,90a4.37,4.37,0,0,0-.16,1.15,4.73,4.73,0,0,0,9.46,0,4.62,4.62,0,0,0-.28-1.54l8.84-7.07a4.68,4.68,0,0,0,5.11-.08L89,86.54a4.67,4.67,0,0,0-.24,1.4,4.74,4.74,0,1,0,4.74-4.73Zm-56.8,9.47a1.58,1.58,0,1,1,1.58-1.58A1.58,1.58,0,0,1,36.73,92.68Zm14.2-9.47a1.58,1.58,0,1,1,1.58-1.58A1.58,1.58,0,0,1,50.93,83.21Zm14.2,9.47a1.58,1.58,0,1,1,1.58-1.58A1.58,1.58,0,0,1,65.13,92.68ZM80.91,80.06a1.58,1.58,0,1,1,1.57-1.58A1.58,1.58,0,0,1,80.91,80.06Zm12.62,9.46a1.58,1.58,0,1,1,1.58-1.58A1.58,1.58,0,0,1,93.53,89.52Z"/><path class="cls-1" d="M57.24,51.66H32V73.74H57.24ZM54.09,70.59H35.15V54.81H54.09Z"/><path class="cls-1" d="M38.31,58H50.93v3.15H38.31Z"/><path class="cls-1" d="M38.31,64.28H50.93v3.15H38.31Z"/><path class="cls-1" d="M60.4,67.43h3.15v3.16H60.4Z"/><path class="cls-1" d="M66.71,67.43H98.26v3.16H66.71Z"/></svg>