<svg id="Capa_1" data-name="Capa 1" xmlns="http://www.w3.org/2000/svg" viewBox="0 0 128 128"><defs><style>.cls-1{fill:#d4c3a4;}</style></defs><title>icon-</title><path class="cls-1" d="M113.07,63.47a1.88,1.88,0,0,0-1.67,1.1l-1.56,3.91L106,54.25a1.75,1.75,0,0,0-3.26-.32l-4.77,9.54H95.25a35,35,0,1,0-62.53,0h-.23a1.87,1.87,0,0,0-1.67,1.1l-1.56,3.91L25.38,54.25A1.74,1.74,0,0,0,23.87,53a1.71,1.71,0,0,0-1.74,1l-4.78,9.54H11.43V67h7A1.77,1.77,0,0,0,20,66l3.2-6.41,4.05,14.84a1.75,1.75,0,0,0,1.59,1.29H29a1.77,1.77,0,0,0,1.63-1.11L33.63,67l1.17,0a34.79,34.79,0,0,0,3,3.9,1.81,1.81,0,0,0,.24.53c5.75,8.63,6.09,10.41,7.08,15.72.19,1,.39,2,.65,3.3a7.89,7.89,0,0,0,3.43,5,5.23,5.23,0,0,0,1.51,7.42,5.18,5.18,0,0,0,1.75,7A5.23,5.23,0,0,0,57,117.78H71a5.26,5.26,0,0,0,5.25-5.26,5.16,5.16,0,0,0-.7-2.58A5.24,5.24,0,0,0,78,105.51a5.11,5.11,0,0,0-.71-2.57,5.25,5.25,0,0,0,2.46-4.43,5.16,5.16,0,0,0-1-3,7.82,7.82,0,0,0,3.43-5c.26-1.25.47-2.33.65-3.3,1-5.31,1.33-7.09,7.08-15.72a1.81,1.81,0,0,0,.24-.53,35.21,35.21,0,0,0,3-3.94H99a1.75,1.75,0,0,0,1.56-1l3.21-6.41,4,14.85a1.73,1.73,0,0,0,1.59,1.28h.1a1.75,1.75,0,0,0,1.62-1.1L114.21,67l2.29,0,.07-3.51ZM71,114.27H57a1.75,1.75,0,1,1,0-3.5H71a1.75,1.75,0,0,1,0,3.5Zm1.75-7H55.22a1.76,1.76,0,0,1,0-3.51H72.74a1.76,1.76,0,0,1,0,3.51Zm1.75-7h-21a1.75,1.75,0,0,1,0-3.5h21a1.75,1.75,0,0,1,0,3.5ZM87,69.28a1.69,1.69,0,0,0-.47,1.09c-5.61,8.51-6,10.81-7,16.15-.18,1-.38,2-.64,3.25a4.25,4.25,0,0,1-4.15,3.48H71.32L76,67h2a5.26,5.26,0,0,0,5.25-5.26v-7h5.26A1.76,1.76,0,0,0,90.26,53V44.2A5.26,5.26,0,0,0,85,39V33.69a5.26,5.26,0,0,0-5.25-5.25H78a5.27,5.27,0,0,0-5.26-5.26H67.49a1.76,1.76,0,0,0-1.76,1.76V65.23A1.76,1.76,0,0,0,67.49,67h4.92L67.77,93.25H60.2L55.56,67h4.92a1.75,1.75,0,0,0,1.75-1.75V24.94a1.75,1.75,0,0,0-1.75-1.76H55.22A5.26,5.26,0,0,0,50,28.44H48.22A5.26,5.26,0,0,0,43,33.69V39a5.26,5.26,0,0,0-5.25,5.25V56.47a1.75,1.75,0,0,0,1.75,1.75h5.25v3.5A5.27,5.27,0,0,0,50,67h2l4.64,26.27H53.31a4.25,4.25,0,0,1-4.15-3.49c-.25-1.22-.45-2.29-.63-3.24-1-5.34-1.44-7.64-7-16.15A1.75,1.75,0,0,0,41,69.28a31.53,31.53,0,1,1,45.94,0ZM76.24,42.45V37.2a1.75,1.75,0,0,0-1.75-1.75H69.24V26.69h3.5a1.75,1.75,0,0,1,1.75,1.75v1.75a1.75,1.75,0,0,0,1.75,1.75h3.51a1.76,1.76,0,0,1,1.75,1.75v7a1.75,1.75,0,0,0,1.75,1.75H85a1.75,1.75,0,0,1,1.75,1.75v7H74.49A1.75,1.75,0,0,0,72.74,53v3.51h3.5V54.72h3.51v7A1.75,1.75,0,0,1,78,63.47H69.24V39h3.5v3.5ZM46.47,47.71a1.75,1.75,0,0,0-1.76,1.75v5.26h-3.5V44.2A1.76,1.76,0,0,1,43,42.45h1.75a1.75,1.75,0,0,0,1.76-1.75v-7a1.75,1.75,0,0,1,1.75-1.75H50v3.51h3.5v-7a1.75,1.75,0,0,1,1.75-1.75h3.51V63.47H50a1.75,1.75,0,0,1-1.75-1.75V51.21h3.5v-3.5Z"/></svg>