<svg id="Capa_1" data-name="Capa 1" xmlns="http://www.w3.org/2000/svg" viewBox="0 0 128 128"><defs><style>.cls-1{fill:#d4c3a4;}</style></defs><title>icon-</title><path class="cls-1" d="M71.85,95.52H69.16l-27-65.58a1.83,1.83,0,0,0-1.7-1.14,1.85,1.85,0,0,0-1.7,1.14l-27,65.58H9.06a1.84,1.84,0,1,0,0,3.68h7.85a1.84,1.84,0,0,0,0-3.68H15.73l6.56-15.94H48.8l6.57,15.94H54.19a1.84,1.84,0,1,0,0,3.68H71.85a1.84,1.84,0,0,0,0-3.68Zm-48-19.62L35.55,47.39,47.29,75.9ZM59.35,95.52l-21.81-53,2.91-7.09L65.18,95.52Z"/><path class="cls-1" d="M118.94,95.52h-2a2.09,2.09,0,0,1-2.08-2.09V69.89A15.6,15.6,0,0,0,99.32,54.31H91.47A15.59,15.59,0,0,0,75.9,69.89a1.84,1.84,0,0,0,1.84,1.84h7.84a1.84,1.84,0,0,0,1.84-1.84,11.91,11.91,0,0,1,8-11.23,11.91,11.91,0,0,1,8,11.23v2.64a56.67,56.67,0,0,1-9.66,2.17c-5.7.93-11.09,1.81-14.87,6.42A10.89,10.89,0,0,0,77,92.68c.93,2,4,6.52,12.52,6.52h3.92a21.44,21.44,0,0,0,10.66-3,5.78,5.78,0,0,0,5,3h9.81a1.84,1.84,0,0,0,0-3.68ZM83.85,68.05H79.72A11.94,11.94,0,0,1,89,58.25,15.6,15.6,0,0,0,83.85,68.05Zm3,13a11.77,11.77,0,0,0-2,12.5A9.3,9.3,0,0,0,85.59,95a7.64,7.64,0,0,1-5.27-3.94c-1.13-2.37-.61-5.23,1.37-7.65a12.39,12.39,0,0,1,6.77-4A16.5,16.5,0,0,0,86.81,81.05Zm16.56,11.36a18.88,18.88,0,0,1-9.94,3.11,5.55,5.55,0,0,1-5.3-3.47,8,8,0,0,1,1.41-8.53c3.08-3.42,8.8-5.37,13.83-6.89V92.41Zm5.76,3.11a2.09,2.09,0,0,1-2.08-2.09V69.89a15.59,15.59,0,0,0-5.23-11.64,11.93,11.93,0,0,1,9.4,11.64V93.43a5.59,5.59,0,0,0,.39,2.09Z"/></svg>