<svg id="Capa_1" data-name="Capa 1" xmlns="http://www.w3.org/2000/svg" viewBox="0 0 128 128"><defs><style>.cls-1{fill:#d4c3a4;}</style></defs><title>icon-</title><path class="cls-1" d="M44.53,49.77h40.4L73.39,30.53l-4.65,7.74L59.92,22.83Zm26.75-7.05,2.11-3.52,3.66,6.1H72.76ZM52.22,45.3l7.7-13.47,7.7,13.47Z"/><path class="cls-1" d="M75.89,96.64H53.57a2.23,2.23,0,0,0,0,4.46H75.89a2.23,2.23,0,0,0,0-4.46Z"/><path class="cls-1" d="M87.05,87.71H42.41a2.23,2.23,0,1,0,0,4.46H87.05a2.23,2.23,0,0,0,0-4.46Z"/><path class="cls-1" d="M104.9,11.83H24.56a2.23,2.23,0,0,0-2.23,2.23V60.93a2.23,2.23,0,0,0,2.23,2.23H104.9a2.23,2.23,0,0,0,2.24-2.23V14.06A2.23,2.23,0,0,0,104.9,11.83ZM102.68,58.7H26.79V16.29h75.89Z"/><path class="cls-1" d="M104.9,67.62H24.56a2.23,2.23,0,0,0-2.23,2.23v46.87A2.23,2.23,0,0,0,24.56,119H104.9a2.24,2.24,0,0,0,2.24-2.24V69.85A2.23,2.23,0,0,0,104.9,67.62Zm-2.22,46.87H26.79V72.09h75.89Z"/></svg>