<svg id="Capa_1" data-name="Capa 1" xmlns="http://www.w3.org/2000/svg" viewBox="0 0 128 128"><defs><style>.cls-1{fill:#d4c3a4;}</style></defs><title>icon-</title><g id="outline"><path class="cls-1" d="M90.71,22.14a1.54,1.54,0,0,0-1.28-1.54l-25-4.7a1.88,1.88,0,0,0-.58,0l-25,4.71a1.53,1.53,0,0,0-1.27,1.53v4.69H17.16V92.55H45.33V96L23.16,100.4c-2.57.43-6,1.54-6,6.24v1.56a1.57,1.57,0,0,0,1.57,1.57l.26,0,28-4.68H81.19l28,4.68.26,0a1.57,1.57,0,0,0,1.57-1.57v-1.56c0-4.68-3.41-5.8-6-6.24L82.89,96V92.55h28.17V26.83H90.71ZM64.11,19l17.71,3.32L64.11,26.78,46.4,22.35Zm23.47,5.11V49.22L65.67,57.43V29.62Zm-46.94,0,21.91,5.48V57.43L40.64,49.22ZM38.52,51.77l25,9.39a1.56,1.56,0,0,0,1.1,0l25-9.39a1.56,1.56,0,0,0,1-1.47V36.22h11v47H26.55V36.22h11V50.3A1.56,1.56,0,0,0,38.52,51.77Zm66,51.71h0c2.72.45,3.33,1.3,3.39,2.87L81.58,102l-.26,0H46.9a1.09,1.09,0,0,0-.26,0l-26.35,4.39c.06-1.57.67-2.42,3.44-2.88l23.32-4.67H81.17Zm-56-7.8V92.55h31.3v3.13ZM107.93,30V89.43H20.29V30H37.51v3.13H23.42V86.3H104.8V33.09H90.71V30Z"/><path class="cls-1" d="M39.76,64.66A1.55,1.55,0,0,0,39.07,66v9.39a1.56,1.56,0,0,0,1,1.45l7.83,3.13a2.85,2.85,0,0,0,.58.12,2.85,2.85,0,0,0,.58-.12l7.83-3.13a1.56,1.56,0,0,0,1-1.45V66a1.55,1.55,0,0,0-.69-1.29,2.69,2.69,0,0,0-.29-.16L49,61.37a1.55,1.55,0,0,0-1.16,0L40.05,64.5a2.69,2.69,0,0,0-.29.16Zm15,9.62L50,76.16v-6l4.69-1.88Zm-6.26-9.77L52.07,66,48.46,67.4,44.85,66ZM42.2,68.26l4.7,1.88v6l-4.7-1.88Z"/><path class="cls-1" d="M75.93,70.49l6.26,3.13a1.57,1.57,0,0,0,1.4,0l6.26-3.13a1.56,1.56,0,0,0,.86-1.41V62.82A1.57,1.57,0,0,0,90,61.49l-.12-.07-6.26-3.13a1.57,1.57,0,0,0-1.4,0l-6.26,3.13-.12.07a1.56,1.56,0,0,0-.75,1.33v6.26a1.58,1.58,0,0,0,.87,1.41Zm11.65-2.38-3.13,1.57V66.92l3.13-1.57Zm-4.69-6.67,2.76,1.38L82.89,64.2l-2.76-1.38Zm-4.7,3.91,3.13,1.57v2.76l-3.13-1.57Z"/><path class="cls-1" d="M95.41,76.91H89.15V80h9.39V67.52H95.41Z"/><path class="cls-1" d="M97,54.49V45.61H93.84v6.76L87,55.11,88.17,58Z"/><path class="cls-1" d="M34.38,39.35H31.25V54.46l11.9,5.11,1.23-2.88-10-4.29Z"/><path class="cls-1" d="M62.55,66h3.12v3.13H62.55Z"/><path class="cls-1" d="M32.81,75.34h3.13v3.13H32.81Z"/><path class="cls-1" d="M67.24,72.21h3.13v3.13H67.24Z"/></g></svg>