<svg xmlns="http://www.w3.org/2000/svg">
<defs>
<font id="IbarraRealNova-Bold" horiz-adv-x="0" >
  <font-face 
    font-family="Ibarra Real Nova"
    font-weight="700"
    font-stretch="normal"
    units-per-em="1000"
    panose-1="0 0 8 0 0 0 0 0 0 0"
    ascent="800"
    descent="-200"
    x-height="441"
    cap-height="673"
    bbox="-596 -282 1137 895"
    underline-thickness="50"
    underline-position="-100"
    unicode-range="U+000D-FB06"
  />
<missing-glyph horiz-adv-x="773" 
d="M220.5 589.5q-7.5 1.5 -6.5 4.5v1q0 5 3 7q1 2 5.5 1.5t3.5 -2.5q1 1 1 3q0 3 -3.5 5.5t-4.5 3.5q-2 4 -2 5q0 5 3.5 7.5t7.5 -0.5q4 0 4.5 -8t1.5 -10q2 3 4 5l3 3h2q4 0 6.5 -4t0.5 -7q-1 -4 -3 -9.5t-2 -8.5t3 -8q3 3 6.5 10t5.5 8l4 2q4 0 4 -9l2 1v1q0 2 5.5 1
t2.5 -3q0 -1 1 -2.5t1 -2.5q-1 -2 -3 -2.5t-3 -1.5q3 -1 4 -4.5t-3 -5.5q-1 -1 -3.5 -1t-4.5 1q-12 3 -13 3q-6 0 1 -8q12 -14 22 -14q7 0 9.5 3.5t3 8.5t1.5 7q2 0 4 -4t4 -6q11 -8 15 -4q0 1 2.5 2t3.5 1q4 4 4 18q0 2 -1 10.5t-6 6.5q-4 -1 -5.5 -6.5t-3.5 -7.5t-5 -2
t-4.5 4t0.5 5l-6 -2q-3 2 -5 5v2q0 5 8 5q0 1 -4 5q1 1 2 4t5 3q2 -1 9.5 -6t10.5 -1q-3 10 -15 15q-6 4 -7 6t0 9q1 2 6.5 2h6.5q-1 2 -3 4t-4 3l2 1l-0.5 0.5l-0.5 0.5q-1 1 0 1t2 1q0 1 -1.5 1.5t-2.5 1.5q-1 2 1 3t1 2q2 0 1.5 2t0.5 2q2 0 4.5 -1t3.5 -2q3 -2 2 -9
t0 -9q1 -1 4.5 2t4.5 3q1 1 3 1q3 0 4 -5t0 -8q-1 -2 -3 -5.5t-4 -7.5q-1 -3 -1 -7q0 -5 3 -5t7 4t3 7q4 8 8 6t3 -5t-1 -5q2 0 5 1.5t5 -0.5l2 -4q0 -3 -3.5 -4.5t-4.5 -2.5v0q0 -2 2.5 -5.5t-4.5 -4.5q-1 0 -12 5t-11 0q0 -1 1 -2.5t1 -3.5q2 -2 3 -5t2 -5q4 -13 10 -16
q4 -2 6 -2q6 0 14 13l1 10q2 0 4 -4.5t3 -6.5q10 -14 19 -6q6 4 9 20q3 12 2 15q0 3 -3 3q-2 0 -6.5 -4.5t-6.5 -5.5q-4 -2 -6 -2q-6 0 -3 9q-7 0 -8 6q-1 2 1.5 4.5t5.5 0.5q0 7 1 9q-1 3 4 2t5 -3q2 -3 7 -7t9 -4q-2 10 -7 17q-1 1 -6.5 5.5t-3.5 7.5q1 5 3 6h5q8 0 9 -2
l-4 12q-1 1 -1 3t3.5 5t6.5 3q5 -5 5 -7q1 -2 0.5 -4t-1.5 -3q0 -1 -2 -4t-1 -5q1 0 6.5 2.5t8.5 -2.5t-1 -9q-1 -3 -8 -10t-6 -15q3 2 12 8.5t11 5.5q3 0 3 -4q0 -3 -1 -5t-1 -3q2 0 4.5 1t4.5 -3v-2q0 -3 -2.5 -5.5t-4.5 -1.5q-1 0 -1 2q-1 -1 -0.5 -3t1.5 -3

<glyph glyph-name="f_b" unicode="fb" horiz-adv-x="854" 
d="M377 -9v615q0 40 -14 59t-49 19q-59 0 -83.5 -61.5t-24.5 -145.5v-36h115l-10 -33h-105v-346q0 -25 31 -33l43 -12v-17h-250v17l33 12q15 6 21 15t6 25v339h-65v33h65v26q0 79 33.5 134t91 82.5t129.5 27.5q148 0 148 -129v-189l80 45q20 11 38 11q72 0 121.5 -30
t73.5 -80t24 -110q0 -61 -26.5 -115.5t-79.5 -88.5t-130 -34q-42 0 -83.5 16t-68.5 41q-21 -22 -44 -60zM675 74q28 48 28 117q0 79 -31.5 133.5t-92.5 54.5q-40 0 -63.5 -25t-23.5 -62v-137q0 -34 14 -64t37 -47.5t50 -17.5q54 0 82 48z" />
    <glyph glyph-name="f_f" unicode="ff" horiz-adv-x="636" 
d="M671.5 688.5q35.5 -22.5 35.5 -60.5q0 -28 -15.5 -44t-38.5 -16q-26 0 -43 14.5t-17 40.5q0 14 9 27q1 2 4.5 6.5t3.5 10.5q0 9 -10.5 13t-26.5 4q-45 0 -65.5 -46.5t-20.5 -153.5v-43h116l-10 -32h-106v-347q0 -25 32 -33l43 -12v-17h-250v17l32 12q15 6 21 15t6 25v339
h-165v-346q0 -25 31 -33l43 -12v-17h-250v17l33 12q15 6 21 15t6 25v339h-65v33h65v8q0 242 239 242q54 0 105 -24q51 44 146 44q56 0 91.5 -22.5zM206 441h165v48q0 85 29 137q-15 17 -36 26t-44 9q-114 0 -114 -174v-46z" />
    <glyph glyph-name="f_f_i" unicode="ffi" horiz-adv-x="855" 
d="M840 17v-17h-234v17l33 12q27 11 27 40v293q0 18 -5.5 26t-21.5 12l-33 8h-119v-346q0 -25 32 -33l43 -12v-17h-250v17l32 12q15 6 21 15t6 25v339h-165v-346q0 -25 31 -33l43 -12v-17h-250v17l33 12q15 6 21 15t6 25v339h-65v33h65v8q0 242 239 242q62 0 117 -30
q60 50 164 50q64 0 104.5 -22.5t40.5 -60.5q0 -32 -18 -50t-46 -18q-30 0 -49.5 17t-19.5 48q0 11 7 25q1 2 4.5 6.5t3.5 10.5q0 9 -13 13t-32 4q-54 0 -79.5 -53.5t-25.5 -162.5v-27h251l47 15l10 -8q-14 -21 -14 -84v-302q0 -13 8 -21t19 -12zM371 463q0 94 37 153
q-15 21 -38.5 33t-49.5 12q-114 0 -114 -174v-46h165v22z" />
    <glyph glyph-name="f_f_l" unicode="ffl" horiz-adv-x="848" 
d="M832 17v-17h-233v17l32 12q27 11 27 40v537q0 40 -14 59t-48 19q-60 0 -84.5 -61.5t-24.5 -145.5v-36h116l-10 -33h-106v-346q0 -25 32 -33l43 -12v-17h-250v17l32 12q15 6 21 15t6 25v339h-165v-346q0 -25 31 -33l43 -12v-17h-250v17l33 12q15 6 21 15t6 25v339h-65v33
h65v8q0 242 239 242q34 0 66 -9.5t58 -24.5q68 54 172 54q148 0 148 -129v-520q0 -13 8 -21t19 -12zM371 467q0 85 40 144q-14 23 -38.5 36.5t-52.5 13.5q-114 0 -114 -174v-46h165v26z" />
    <glyph glyph-name="f_h" unicode="fh" horiz-adv-x="856" 
d="M845 17v-17h-233v17l32 12q27 11 27 40v213q0 44 -23 68t-66 24q-42 0 -66 -25t-24 -67v-220q0 -13 8 -21t19 -12l32 -12v-17h-234v17l33 12q27 11 27 40v537q0 40 -14 59t-49 19q-59 0 -83.5 -61.5t-24.5 -145.5v-36h115l-10 -33h-105v-346q0 -25 31 -33l43 -12v-17
h-250v17l33 12q15 6 21 15t6 25v339h-65v33h65v26q0 79 33.5 134t91 82.5t129.5 27.5q148 0 148 -129v-207q42 16 129 70q8 5 16 5q71 0 110 -36t39 -103v-249q0 -13 8 -21t19 -12z" />
    <glyph glyph-name="f_j" unicode="fj" horiz-adv-x="569" 
d="M245 -242.5q-22 17.5 -22 45.5t18.5 45t43.5 17q26 0 43 -16.5t17 -42.5q0 -5 -1.5 -9.5t-1.5 -8.5q0 -9 6 -9q14 0 25 25.5t11 88.5v469q0 18 -5.5 26t-21.5 12l-32 8h-119v-346q0 -25 31 -33l43 -12v-17h-250v17l33 12q15 6 21 15t6 25v339h-65v33h65v22q0 126 63 187
t176 61q64 0 104.5 -22.5t40.5 -60.5q0 -32 -18 -50t-46 -18q-31 0 -50 17t-19 48q0 10 7 24q1 2 4 7.5t3 10.5q0 17 -44 17q-54 0 -79.5 -53.5t-25.5 -162.5v-27h249l48 15l10 -8q-7 -11 -10.5 -33.5t-3.5 -50.5v-460q-6 0 -11.5 -3.5t-7.5 -10.5q-33 -76 -71.5 -113
t-101.5 -37q-40 0 -62 17.5z" />
    <glyph glyph-name="f_t" unicode="ft" horiz-adv-x="649" 
d="M401.5 22q-24.5 30 -24.5 91v295h-171v-346q0 -25 31 -33l43 -12v-17h-250v17l33 12q15 6 21 15t6 25v339h-65v33h65v26q0 79 33.5 134t91 82.5t129.5 27.5q148 0 148 -129v-141h115l-10 -33h-105v-287q0 -36 11 -50t32 -14q28 0 70 25l14 -25q-40 -32 -77.5 -48.5
t-65.5 -16.5q-50 0 -74.5 30zM377 441v165q0 39 -14 58.5t-49 19.5q-59 0 -83.5 -61.5t-24.5 -145.5v-36h171z" />
    <glyph glyph-name="fi" unicode="fi" horiz-adv-x="574" 
d="M30 17l33 12q15 6 21 15t6 25v339h-65v33h65v22q0 126 63 187t176 61q64 0 104.5 -22.5t40.5 -60.5q0 -32 -18 -50t-46 -18q-31 0 -50 17t-19 48q0 11 7 25q7 11 7 17q0 17 -44 17q-54 0 -79.5 -53.5t-25.5 -162.5v-27h250l47 15l10 -8q-7 -11 -10.5 -33.5t-3.5 -50.5
v-302q0 -13 8 -21t19 -12l33 -12v-17h-234v17l32 12q27 11 27 40v293q0 18 -5.5 26t-21.5 12l-32 8h-119v-346q0 -25 31 -33l43 -12v-17h-250v17z" />
    <glyph glyph-name="fl" unicode="fl" horiz-adv-x="567" 
d="M30 17l33 12q15 6 21 15t6 25v339h-65v33h65v26q0 79 33.5 134t91 82.5t129.5 27.5q148 0 148 -129v-520q0 -13 8 -21t19 -12l32 -12v-17h-234v17l33 12q27 11 27 40v537q0 40 -14 59t-49 19q-59 0 -83.5 -61.5t-24.5 -145.5v-36h115l-10 -33h-105v-346q0 -25 31 -33
l43 -12v-17h-250v17z" />
    <glyph glyph-name=".notdef" horiz-adv-x="773" 
d="M220.5 589.5q-7.5 1.5 -6.5 4.5v1q0 5 3 7q1 2 5.5 1.5t3.5 -2.5q1 1 1 3q0 3 -3.5 5.5t-4.5 3.5q-2 4 -2 5q0 5 3.5 7.5t7.5 -0.5q4 0 4.5 -8t1.5 -10q2 3 4 5l3 3h2q4 0 6.5 -4t0.5 -7q-1 -4 -3 -9.5t-2 -8.5t3 -8q3 3 6.5 10t5.5 8l4 2q4 0 4 -9l2 1v1q0 2 5.5 1
t2.5 -3q0 -1 1 -2.5t1 -2.5q-1 -2 -3 -2.5t-3 -1.5q3 -1 4 -4.5t-3 -5.5q-1 -1 -3.5 -1t-4.5 1q-12 3 -13 3q-6 0 1 -8q12 -14 22 -14q7 0 9.5 3.5t3 8.5t1.5 7q2 0 4 -4t4 -6q11 -8 15 -4q0 1 2.5 2t3.5 1q4 4 4 18q0 2 -1 10.5t-6 6.5q-4 -1 -5.5 -6.5t-3.5 -7.5t-5 -2
t-4.5 4t0.5 5l-6 -2q-3 2 -5 5v2q0 5 8 5q0 1 -4 5q1 1 2 4t5 3q2 -1 9.5 -6t10.5 -1q-3 10 -15 15q-6 4 -7 6t0 9q1 2 6.5 2h6.5q-1 2 -3 4t-4 3l2 1l-0.5 0.5l-0.5 0.5q-1 1 0 1t2 1q0 1 -1.5 1.5t-2.5 1.5q-1 2 1 3t1 2q2 0 1.5 2t0.5 2q2 0 4.5 -1t3.5 -2q3 -2 2 -9
t0 -9q1 -1 4.5 2t4.5 3q1 1 3 1q3 0 4 -5t0 -8q-1 -2 -3 -5.5t-4 -7.5q-1 -3 -1 -7q0 -5 3 -5t7 4t3 7q4 8 8 6t3 -5t-1 -5q2 0 5 1.5t5 -0.5l2 -4q0 -3 -3.5 -4.5t-4.5 -2.5v0q0 -2 2.5 -5.5t-4.5 -4.5q-1 0 -12 5t-11 0q0 -1 1 -2.5t1 -3.5q2 -2 3 -5t2 -5q4 -13 10 -16
q4 -2 6 -2q6 0 14 13l1 10q2 0 4 -4.5t3 -6.5q10 -14 19 -6q6 4 9 20q3 12 2 15q0 3 -3 3q-2 0 -6.5 -4.5t-6.5 -5.5q-4 -2 -6 -2q-6 0 -3 9q-7 0 -8 6q-1 2 1.5 4.5t5.5 0.5q0 7 1 9q-1 3 4 2t5 -3q2 -3 7 -7t9 -4q-2 10 -7 17q-1 1 -6.5 5.5t-3.5 7.5q1 5 3 6h5q8 0 9 -2
l-4 12q-1 1 -1 3t3.5 5t6.5 3q5 -5 5 -7q1 -2 0.5 -4t-1.5 -3q0 -1 -2 -4t-1 -5q1 0 6.5 2.5t8.5 -2.5t-1 -9q-1 -3 -8 -10t-6 -15q3 2 12 8.5t11 5.5q3 0 3 -4q0 -3 -1 -5t-1 -3q2 0 4.5 1t4.5 -3v-2q0 -3 -2.5 -5.5t-4.5 -1.5q-1 0 -1 2q-1 -1 -0.5 -3t1.5 -3
q0 -1 -0.5 -2t0.5 -2l-6 -1q-3 1 -3 2t-1 2l-6 4l-10 4q1 -1 0 -7l1 -10q3 -16 7 -20t8 -4q7 0 11.5 6.5t6.5 13.5q3 -2 3 -3.5t1 -3.5q0 -4 4 -10q5 -8 12 -5q5 1 10 8q3 6 7 18q1 1 1.5 4.5t1.5 4.5q-11 -2 -13 -3q-5 -4 -8 -4.5t-6 4.5v2.5t4 4.5q-6 1 -7 3.5t-2 4.5
q2 3 5 3.5t7 -1.5q0 1 -1.5 2.5t0.5 3.5q-2 2 3 4q2 0 4 -1.5t3 -2.5q-1 -1 5 -7t7 -8q1 2 1 6q0 5 -4 12.5t-4 12.5v1q0 4 4.5 6t8.5 -1l4 -4v6l-1 3q0 1 -0.5 3t1.5 4q1 1 4 3q1 1 3 0t3 0q4 -3 4 -5t-2 -5t-3 -5q-3 -5 -1.5 -5t6.5 -1q4 0 5.5 -3.5t-1.5 -7.5
q-2 -3 -7.5 -6t-9.5 -6.5t-4 -9.5q2 3 2.5 1.5t2.5 -1.5l6 3q1 0 5.5 3t6.5 1q2 2 3 -3q1 -3 -1.5 -4.5t-2.5 -3.5l2 1q2 0 4.5 -3.5t1.5 -5.5q-1 -3 -4 -3.5t-6 1.5q2 -2 2 -3q0 -3 -3.5 -4.5t-7.5 0.5q-4 4 -6 10v1q0 1 -3 2.5t-4 2.5q-1 -3 -2 -9.5t-1 -11.5q0 -15 8 -20
l4 -1q7 0 12.5 8t6.5 9q1 0 2 -2.5t1 -4.5q2 -6 4 -10q4 -4 9 -3t6 1l2 2l2 -1q2 0 9.5 9t6.5 11l-2 1q-3 0 -7 -1.5t-6 -1.5q-1 0 -5.5 -1.5t-6.5 3.5q-1 1 -0.5 2t0.5 2q1 2 2 2t2 1t-4 3q-2 2 -2 6q0 3 5 3q4 0 7 -3q0 1 -0.5 3t-0.5 3q1 1 2 2.5t4 0.5q2 0 5 -3
q1 -2 2 -5.5t2 -5.5l3 -3l3 -3q2 8 2 10t-2 10q-5 9 -2 14q1 2 3.5 3t4.5 0q1 -1 4.5 -3.5t3.5 -3.5l3 9h-1l-1 1q0 4 5.5 8t8.5 -3q0 -1 1 -1h1v-2q0 -4 -2 -6q-1 -1 -4.5 -3.5t-3.5 -5.5q6 0 9.5 -2t2.5 -7q0 -5 -5 -6t-7 -2q-6 -2 -11 -7q-4 -3 -6.5 -9t-3.5 -9l-12 -19
l-4 -7h-11q-6 0 -11.5 3.5t-7.5 9.5q-2 1 -5.5 -2t-5.5 -4q-7 -3 -14 0q-4 2 -5 3q-2 1 -4 4t-3 4l-1 2l-2 -1q-3 -1 -6.5 -3.5t-6.5 -3.5q-2 -1 -5 -1q-6 0 -9.5 6t-5.5 9q-2 -1 -9 -5.5t-9 -4.5q-3 0 -10.5 4t-6.5 6l-7 -4q-8 -4 -12 -4l-12 3t-7 5q-1 -2 -1 0
q-1 -5 -5.5 -10t-8.5 -5l-4 1q-3 0 -8 2.5t-4 3.5q-2 -1 -2.5 1t-0.5 3q0 -3 -6.5 -8t-7.5 -6q-6 -2 -12 -1l-6 3t-6.5 2t-3.5 -4q-12 -8 -14 -8q-2 -1 -5 -1q-9 0 -12 6q-7 8 -15 26q-5 12 -17 20q-1 1 -8.5 2.5zM376 612.5l1 0.5h-2q0 -1 1 -0.5zM341 607l2 2z
M432.5 601.5q0.5 0.5 0.5 -0.5l-0.5 -0.5l-0.5 -0.5q0 1 0.5 1.5zM304 597l-1 -1q1 0 1 1zM262 584l4 2zM366 584v1q1 -1 0 -1zM505.5 577h-0.5h1h-0.5zM512 548l2 1q0 -1 -2 -1zM540.5 511q-4.5 -4 -6.5 -5q-3 -4 -3 -9q0 -2 1 -6t0 -6q0 -1 1 -2t2 -1q1 -2 1 -5.5t-1 -5.5
l-2.5 -1t-2.5 -3v2q-3 -2 -3 0h1q-5 1 -16.5 1.5t-17.5 0.5q-18 2 -41 3t-32 1q-58 0 -86 -2q-8 -1 -20 -1t-20 -1l-6 -2l-3 1h-2.5t-2.5 -2q0 1 -1 1h-1h-1q-5 0 -5 5q0 4 2.5 10.5t2.5 9.5q0 11 -7 16l-3.5 3.5l-5.5 5.5q4 2 3 3h-2q2 2 6 3.5t6 2.5q14 4 21 4q24 4 53 4
h46h14q2 0 3 1t3 1q3 0 5.5 -1t5.5 -1q4 1 12 1q9 -1 16 -0.5t12 0.5q11 0 16 -1q1 0 3 -1t4 -1h7q12 0 18 -1q27 -3 31 -13q0 -5 -4.5 -9zM530 514q0 1 -1 1t-1 1h-1v1l-0.5 0.5l-0.5 0.5v-2q-4 5 -12 6.5t-9 1.5q-3 0 -6 1t-5 1q-1 0 -3.5 -1t-3.5 0q-1 0 -2 1t-3 1
q-7 1 -15 0.5t-16 0.5q-7 0 -16.5 -1t-15.5 0h-3l-12 -1q-5 0 -10 1t-10 1l-39 -1q-12 0 -34 -2q-2 0 -15.5 -2t-13.5 -7q0 2 -1 2q1 0 0.5 -1t-1.5 -2q2 -2 5.5 -4.5t4.5 -4.5v-3l1 -5l-1 -4q0 -2 -1.5 -6.5t-0.5 -7.5q1 0 3 -0.5t3 -1.5v1q0 -1 7 -1l21 1q1 1 4 1l8 -1
l19 1q28 2 41 2t19 -1q14 -1 24.5 -0.5t18.5 0.5t16.5 -1t17.5 -1q2 0 13 -1.5t12 0.5q1 1 2.5 0t2.5 0q3 3 1 9q-1 3 -2 6.5t-1 7.5q0 8 10 12q0 -2 2 1zM526.5 517.5l-0.5 0.5l1 -1zM418 501q-7 0 -9 5q1 3 4.5 5t4.5 3q4 0 6.5 -3.5t0.5 -6.5q-1 -3 -7 -3zM357 506v2v2v0
l4 2q3 0 4 1q0 1 1.5 0.5t3.5 -1.5l1.5 -1.5t-0.5 -0.5h2t1 -1q1 -1 0 -2t-1 -2l-6 -3l-0.5 -0.5l-0.5 -0.5l-1 1q0 -1 -1 -1.5t-1 0.5q-1 1 -2.5 1.5t-1.5 -0.5q-1 1 0 1q-2 1 -2 3zM382.5 509q1.5 2 2.5 3q0 2 6 1.5t6 -2.5q2 -1 2.5 -3t-1.5 -4q-3 -3 -5 -3q-3 0 -10 5
h-1q-1 1 0.5 3zM442 513q3 0 5 -1l4 -2l1 -2q0 -2 -3 -4t-7 -2q-5 0 -6 5q-1 -1 -0.5 0.5t1.5 2.5q-1 0 1 1.5l2 1.5h2zM337 501q-6 0 -9 5q0 5 2 5q1 0 8 1.5t7 -4.5q-2 -5 -4 -6q-1 -1 -4 -1zM467 511q2 0 5 -1t4 0q0 -2 1.5 -3t-0.5 -3t-6 -2.5t-6 0.5q-4 2 -3 6q2 3 5 3
zM495 510q5 0 9 -4q0 -3 -3 -5t-6 -2q-2 0 -4.5 1.5t-2.5 3.5q0 6 7 6zM309 498q-6 0 -7 4l1 4q1 2 4 3t5 0q1 -1 3 0q5 -5 5 -6l-4 -3q-2 -2 -7 -2zM366.5 500q-0.5 0 -0.5 1h1q0 -1 -0.5 -1zM441.5 488.5q1.5 0.5 0.5 -0.5q1 0 2 -1t3 -1q-8 -1 -21 0t-21 1h-57h-32h-6
q-13 0 -18 2h5l19 1q6 0 7 1q1 0 4 -0.5t4 1.5h17q13 0 21 -1q12 -1 38 -1q4 -1 11.5 -2t13.5 -1l8 1zM744 180.5q5 -12.5 4 -22.5q0 -4 -0.5 -14t-2.5 -17q-6 -18 -28 -38q-2 -2 -3 -3.5t-2 -2.5t-4 -1.5t-4 -1.5q-4 -3 -5 -10q-3 -10 -8 -23q-5 -16 -8 -17q1 -1 5 4t5 6
q17 10 24 12l8 1q8 0 8 -3q0 -1 -2.5 -2t-4.5 -2q-6 -2 -12 -7t-9 -7q-12 -9 -25.5 -23t-19.5 -20q-4 -4 -12 -11.5t-15 -12.5l-18 -11q0 -1 -1 -1q6 0 18 2.5t19 4.5q36 0 38 -11h-8q-11 2 -16 1q-20 0 -34 -5q-6 -2 -28 -14q-17 -10 -20 -11q-49 -19 -69 -25
q-7 -2 -17 -3.5t-15 -2.5q-6 -2 -16 -4q-3 -1 -6.5 -1.5t-6.5 -1.5q-1 -2 -6 -2.5t-6 -2.5q2 -1 2 -3q-1 1 -1.5 0.5t0.5 -1.5q0 -1 0.5 -1.5t1.5 -0.5t0 -0.5t0 -1.5q0 -1 -0.5 -1.5t-0.5 -1.5l2 -1q3 -1 6.5 -1t6.5 -1q14 -2 16 -3q2 0 3.5 -1.5t2.5 -1.5l4 1q2 0 2 -1
q0 5 6 10t12 7t10 2q9 0 13 -7q2 -4 3 -8.5t2 -6.5q-1 0 -1.5 -1.5t-0.5 -3.5l-2 -2l-1 -1q4 -2 16 -5t11 -4q2 2 2 8q0 5 -1 9t-1 8q0 10 5 15q1 2 2 2t2 1t0.5 2t0.5 1l5 2q2 0 5.5 -1.5t5.5 -2.5q4 -1 10 -1h4q8 0 14 -7q3 -3 3 -8q0 -4 -6.5 -7.5t-5.5 -5.5q0 -4 4 -4
q5 0 13 4t9 4q8 3 12 -2q1 -2 0.5 -6t0.5 -6l-0.5 -0.5l-0.5 -0.5q1 -1 0 -2q-2 2 -4 5t-2 5l-18 -7q-2 -1 -5 -2t-6 -1q-6 0 -9 7v3q0 4 1.5 9t0.5 7q-2 5 -9.5 4.5t-8.5 -0.5q-10 2 -13 0q-2 -2 -2 -4q0 -8 2 -20q0 -2 -1 -5.5t0 -4.5t5.5 -3.5t6.5 -3.5q12 -4 18 -7
q1 -1 6.5 -3t6.5 -3v-1q0 -2 -2.5 -5t-2.5 -4l-17 8.5t-19 8.5l-2.5 1t-4.5 2l-10 -11q-2 0 0 -2q-2 0 -2 1q0 -1 -2 -1h-1.5t-0.5 1q-2 -1 -8.5 3.5t-7.5 4.5h-2t-2 1t-1.5 0.5t-1.5 0.5q1 1 -1 1q0 -2 -3 2q-1 2 -1 3.5v2.5l3 6q-2 0 -10 2t-10 4q3 -8 -5 -16t-17 -10
q-8 -2 -12 -2q-14 0 -30 6q-13 4 -14 12v1q0 4 4 16q1 0 1 2t1 3q-1 1 0 1.5t0 0.5q1 0 1.5 1.5t0.5 2.5q-1 -1 -2.5 0t-3.5 2l-10 2q-17 0 -20 -3q-1 -2 -0.5 -3.5t0.5 -2.5q2 -7 0 -5v-2l-9 3l-5 3q-1 1 -1 2.5t-1 1.5q-3 1 -10 1t-8 -1q1 0 1 -1l-2 1l1 -3q0 -3 3 -9
q2 -8 2 -14q-1 -22 -40 -19q-15 0 -21 2q-7 2 -7 12v9q0 5 -1 8q0 1 1 2t0 2l-2 1q-3 0 -5 -1t-4 -1q-3 -1 -11.5 -2.5t-9.5 -2.5q0 -4 -1 -4l1 -1l-1 -2l1 -1q0 -1 -1 -3.5t0 -2.5h-1q-1 0 -2.5 -1.5t-1.5 -2.5h-7q-2 0 -4 -0.5t-5 0.5q-2 0 -4.5 2.5t-4.5 3.5h-1
q-3 0 -7.5 -2.5t-7.5 -3.5q-12 -4 -18 -7q-7 -5 -16 -7l-3 3q7 3 13.5 7.5t13.5 7.5q4 2 10.5 5t10.5 4q0 3 -2 3l-6 27q-3 4 -9.5 5t-11.5 -1q-5 -1 -11 -6.5t-10 -8.5q-1 0 -3 -1.5t-2 -3.5q-1 -2 -1 -3t-1 -3q0 -2 -2 -4.5t-1 -4.5l-13 9q1 1 1.5 7t1.5 8q4 8 12 10
q11 2 16 5q12 6 19 6q17 0 25 -15q2 -3 3.5 -9t3.5 -10q-1 0 -0.5 -1t1.5 -2l-0.5 -0.5l-0.5 -0.5h1v-3l0.5 0.5l1.5 1.5q0 1 0.5 0.5l1.5 -1.5v0.5v0.5q2 0 7 3t7 2q-1 4 -2.5 9t-1.5 9q0 6 7 10q6 3 12 3t14 -4q9 -6 12 -10q1 -1 2 -2.5t3 -1.5q4 0 12.5 3t11.5 0q1 0 5 1
t5 0q-1 1 2 1l1.5 0.5t1.5 -1.5q9 3 7 4h-0.5h-0.5q-1 -1 -1 1t1 0v1v1v3q0 1 -9 1q-15 0 -32 5q-25 7 -49 19q-26 11 -45 25l-27 16l-14 7q-6 6 -8 6q-1 -1 -9 3.5t-11 5.5q-14 5 -25 3q-2 -1 -8 -2t-9 -2q0 -2 1 -2q-1 -1 -2 -0.5t-2 -0.5q1 -3 -3 1q11 10 20 14.5t21 2.5
q7 -1 21 -5q4 0 5 -1t2.5 -0.5t2.5 1.5q-2 1 -4 4.5t-3 4.5q-1 2 -12 13q-17 17 -27 25q-22 15 -43 24q2 2 6 2q7 0 19 -4q1 -1 2.5 -1t3.5 -1q-5 3 -8 13.5t-4 12.5l-6 16q-2 5 -4 6t-3 2q-14 6 -22.5 11t-15.5 14q-19 25 -19 55q0 11 3 21q8 23 22 34q14 14 36 14
q13 0 26 -8t19 -20q4 -8 4 -16q0 -16 -10 -20q-4 -2 -8 -2q-6 0 -10 3.5t-3 9.5q0 3 4 10.5t1 14.5q-2 3 -5.5 5t-5.5 3l-13 1q-17 0 -27 -10q-15 -13 -17 -37l-1 -10l1 -10q0 -4 3 -10q1 -2 5 -12.5t11 -18.5q11 -11 25 -16q-4 7 -4 18q0 17 8 33q3 5 12 12q4 1 9 3t9 3
l1 -2q-8 -1 -15.5 -11t-9.5 -19q-1 -3 -1 -9t2 -14q4 -15 3 -18h1l9 -2l0.5 0.5l0.5 0.5q0 -1 1.5 -1.5t1.5 0.5q1 1 0 2t-2 1q-4 0 0 16t10 18q2 2 6 4.5t6 3.5t7 2.5t8 1.5q3 1 10 1q3 0 24 -3q10 -2 25 -10q1 -1 3 -2.5t4 -1.5t4 2q6 4 14 15q18 22 28 41q16 38 13 86
q-2 21 -7 34q-1 8 -7 19l-4 4t-2 6q-1 -2 -3 1h-1q1 0 0 1.5l-1 1.5q0 1 -1 1t-1 1q-2 0 -1.5 1l0.5 1l-12 5l-10 1q-10 0 -15 -4q-6 -6 -6 -16q0 -9 5.5 -16.5t13.5 -8.5q2 -2 1.5 -2.5t-0.5 -1.5h-2q-1 1 -5 2t-7 3q-7 5 -11 18q-1 3 -1 9q0 8 3 15q2 5 4 7q0 1 1 3t2 3
q10 10 27 10q20 0 27 -12q2 -3 5.5 -6t6.5 -8q8 -12 10 -18q6 -18 7 -27l2 -18q4 -7 1 -8q1 0 3 5t3 4v1q0 3 4 10t5 9q7 10 13 25q8 14 11 21q2 3 6 7.5t3 5.5q-10 -1 -9 0q-1 -1 -3 -1q-8 2 -14 2q-10 0 -15 -5q-3 -3 -4.5 -9.5t-2.5 -9.5l-3 -3q1 3 -1 2t-2 -2v4
q0 6 4 18q4 10 11 17q2 3 7 6t7 2h-1q3 -3 17.5 1.5t18.5 7.5q3 3 6.5 7.5t6.5 7.5l4 2l2 -2l1 -1q0 -1 -0.5 -1.5t0.5 -1.5q-1 1 -3 -4q-1 0 -1 -2l-3 -2v-1q-4 -1 -9 -13.5t-7 -15.5q-3 -7 -7 -13t-7 -13q-24 -50 -35 -75q-4 -9 -6 -22t-3 -20q-6 -24 -13 -39
q-15 -29 -54 -61q4 -4 11 -10.5t11 -9.5q1 -1 13.5 6.5t14.5 8.5l8 6q5 5 8 5q3 2 9 7t9 7q7 5 16.5 14.5t17.5 15.5q6 5 16.5 15t16.5 18q3 4 10 10.5t8 9.5q-2 1 -2 8.5t-1 9.5q-4 6 -6 7.5t-7 -0.5q-2 -1 -4.5 -2.5t-4.5 -1.5q-12 -4 -27 -4q-30 0 -31 20v2q0 9 14 14
q8 2 14 2q14 0 24 -5q2 -1 10.5 -7.5t12.5 -5.5q2 0 5 4.5t5 3.5l3 3l0.5 -0.5l0.5 -0.5q0 1 -0.5 1.5t0.5 0.5l3 2v2l2 3q-1 -1 -7.5 3t-7.5 5q-16 12 -18 39q-3 27 12 53q8 15 30 37h-6.5t-3.5 -1l-3 2q-2 -2 -4 -2h-4q-18 0 -20 1q-15 2 -18 3t-6 4.5t-6 5.5q1 1 0.5 2
t0.5 2q-8 1 -7 2q-14 -2 -10 -6h-1q-4 0 -7.5 -2t-6.5 -2q-2 0 -5.5 1t-6.5 1q-2 1 -5 2t-6 1t-8 -3q-1 1 -3 -0.5t0 -2.5l-2 -7h-1l-3 -6t-3 -3q-3 -6 -13 -11t-15 -8q-4 -2 -13 -5.5t-15 -7.5q0 2 -2 0l-3 -3h-3v-1q-1 0 -1 1l-1 -2h-1h-1h-1q1 -1 -5 -3.5t-7 -3.5
l-25 -22q1 -1 5.5 -2.5t6.5 -4t3 -6.5v-4q0 -11 -3 -19q-1 -3 -1 -9q0 -15 13 -10q0 1 4 2.5t6 1.5q7 -1 7 -9q0 -6 -5 -9t-12 -3q-5 0 -9 2q-13 7 -13 19q0 5 3 17t2 18q0 3 -2.5 5.5t-5.5 2.5q-7 0 -9 -12t-2 -17q0 -27 19 -47q6 -7 15.5 -11t19.5 -4q4 0 12 2q15 5 11 19
q-2 8 -2 10q0 9 11 9q13 0 13 -17q0 -12 -6 -18q-11 -11 -33 -11q-8 0 -20 2q-22 5 -36 23.5t-14 40.5q0 14 4 23q8 21 35 39q6 4 7 6q1 1 0.5 3.5t-0.5 3.5q0 3 2 11q1 3 3 6.5t3 6.5q-19 -8 -29 -8q-13 0 -18 9q-2 4 -2 6q0 6 6 7h1q5 0 8 -6t5 -7q3 -3 8 -3q9 0 26 11
q6 3 11 7t10 7q4 2 11 6t10 7h3q0 1 1.5 2.5t2.5 -0.5v1q0 1 2 1.5t4 -0.5q-2 1 1 0l0.5 0.5l0.5 0.5q10 -2 10 0l10 -9l-1 -1q2 0 6.5 1.5t8.5 2.5q8 6 9 8q10 4 15 4q6 -1 11 -4l4 -2q1 -1 5 -1l11 1l1 -1h2q2 0 14 4l7 1q8 0 8 -2q5 0 8 -1l5 -3q11 -3 18 -10q0 -2 1 -2
q6 0 11 -1l7.5 -2.5t7.5 -1.5q4 0 8 3q-4 4 -6.5 8.5t-1.5 8.5q1 3 2.5 4.5t4.5 1.5q3 1 4.5 0t3.5 -1v-2t2 0l-5 -10q1 0 2.5 -3t3.5 -4l5 -1q8 0 18 4q5 1 18.5 4t23.5 4q19 0 28 -7q1 -1 2 -4t3 -5l-1 -2l2 -1h1q9 0 13 -2q2 0 10 -1t13 -5q7 -4 15 -17q1 -2 3.5 -8.5
t6.5 -7.5q1 0 5.5 -0.5t5.5 0.5q1 -2 3 -1.5t3 0.5q1 -1 3 -2.5t5 -2.5q7 -4 12 -17q8 -14 8 -32q0 -9 -3 -18q-2 -15 -3 -16q-2 -9 -10 -20q-14 -29 -35 -41q2 -2 3 -2q1 -1 2.5 -4t3.5 -6q8 -15 9 -20q5 -20 5 -38q0 -29 -10 -55q-5 -13 -13 -24q-2 -2 -7.5 -7t-5.5 -8
q1 1 30 1q2 7 4 8q2 2 6.5 3t5.5 -2q3 -2 5 -4.5t7 -1.5l26 7q-1 2 -0.5 6.5t-0.5 6.5l-4 14q-1 6 -3 9q-4 4 -3 7q1 -1 3 -1.5t3 -0.5q2 -1 4 -3.5t3 -3.5q1 -2 3 -5.5t4 -8.5q3 9 3 18q0 13 -7 29q0 -1 -1 -0.5t-2 1.5q0 1 0.5 1.5t-0.5 0.5q-1 2 -3.5 3.5t-3.5 3.5l1 2
q0 -1 6 -6t8 -6q7 -11 9 -17q7 -16 7 -30q0 -4 -2 -10q2 2 13.5 11t15.5 21q0 2 1 4t1 3l3 1q0 1 -1 2.5t0 2.5q1 5 2.5 12t1.5 12q-1 24 -16 39.5t-39 14.5q-9 0 -14.5 -4t-5.5 -11q0 -4 1.5 -7.5t1.5 -8.5q0 -7 -5.5 -10t-12.5 -2q-11 3 -11 18q0 11 6 21q7 8 18 13t21 5
q30 0 50 -20q7 -8 12 -20.5zM378 429q-1 4 1 5l-4 -1q-3 0 -7 1t-7 1q-7 0 -6 -7q0 -6 13 -11q2 -1 6 -1t5 7q0 2 -1 6zM496.5 418.5l-0.5 -0.5q0 -1 4.5 -3.5t7.5 -3.5q8 -4 14 -4h2q7 0 11.5 5t2.5 11q-3 1 -5.5 3.5t-4.5 3.5q-4 1 -14 1q-14 -2 -16 -12q-1 0 -1.5 -0.5z
M261 421.5q-7 1.5 -11 1.5q-14 0 -20 -4q-5 -6 -6 -5v-1q0 -4 -4 -8q0 -2 -2 -6l-6 -2l-11 -14q-6 -6 -6 -12q1 -1 4 1t4 4q1 0 3.5 0.5t5.5 2.5q9 5 11 5q15 6 25 13q4 2 9 7l7 7q0 2 2 2l1 6q1 1 -6 2.5zM394.5 237q4.5 -5 4.5 -7l7 7q2 2 4.5 5.5t4.5 5.5q4 5 8.5 10.5
t8.5 10.5q33 36 32 35l16 16t20 18q4 4 7.5 6.5t6.5 5.5l12 8q0 1 7 5t8 5q3 1 9.5 4t11.5 4q2 1 6 1l7 2q2 -2 4 -4.5t3 -3.5q-1 -2 -4 -4.5t-5 -4.5q-3 -2 -5.5 -6.5t-5.5 -7.5q1 1 -22 -25l-6 -9l-10 -10l-18 -24q-12 -16 -42 -61q-5 -8 -14 -23.5t-16 -24.5v-1.5
t-1 -0.5q-1 -2 0 -1v-1v-3q1 1 4 -5.5t4 -6.5l0.5 0.5l0.5 0.5q0 -1 1.5 -1.5t3.5 -0.5q1 -1 4 -1l9 1q11 -3 19 -12q4 -3 7 -7.5t4 -6.5t1.5 -4.5t1.5 -4.5h1v-0.5v-0.5l2 -3q-2 0 1 -4q1 -2 1.5 -3.5t0.5 -2.5q2 0 1 -2l5 -6q-1 -5 9 -9t12 -5q23 -7 32 -6q10 1 18.5 12
t3.5 20q-2 3 -9 6.5t-9 6.5l-2 5q0 5 5.5 7t11.5 0q12 -5 14 -25q0 -3 -2 -9t-2 -10q0 -2 -3.5 -5t-4.5 -5l11 -5q0 -1 1 -1l3 3t3 4q7 7 8 9q14 25 16 42q2 18 2 26q0 17 -4 30q-4 16 -8 24q-2 2 -5 8t-5 7q-3 0 -9.5 -5t-9.5 -6l-14 -3q-18 -4 -30 -4q-16 0 -29 7
q-14 6 -17 20v3q0 12 12 19q11 7 27 7q12 0 28 -4q17 -5 29 -13q2 -2 8 -7.5t9 -4.5q2 0 6.5 5.5t6.5 7.5t5 6t4 6q2 0 12 20q0 2 1 3.5t1 4.5q-1 2 -2.5 2.5t-1.5 1.5q0 2 -1 2q-3 0 -4 1q0 1 -1 3.5t-2 3.5q-2 -3 -3 -9.5t-3 -9.5q-9 -13 -28 -13q-7 1 -15 6q-3 2 -5.5 8
t1.5 7q1 0 2 0.5t3 -0.5l5 -1l8 -8q5 -3 10 -3q10 0 14 9q3 6 3 11q0 11 -10 27q-12 18 -10 24l-2 1q0 2 -0.5 6t0.5 6h1q-1 0 -1 1q1 -1 0 3q-1 1 0.5 0.5t1.5 1.5l-1 2q0 1 1.5 1t1.5 2q0 1 -4 9q-1 1 -3 4t-5 4t-7 0.5t-5 -0.5q-4 1 -7 7t-6 7q-3 2 -10 3t-10 3
q-6 -6 -8 -6q-6 -3 -13 -3q-3 0 -11 2q-6 2 -14 6q-1 1 -4 1t-6 2l-5 3q-7 2 -8 3l-2 -1q-2 -4 -6 -6q-11 -13 -14 -20q-4 -10 -4 -15q0 -6 5 -14l6 -6q0 -6 1 -8q2 -2 -2 -2q-7 0 -9 2q-7 4 -7 21q-1 16 9 33l10 13q4 -1 3 0v1q1 1 2 1t1 1q0 2 -1 2l-1 -2v0.5v0.5
q-2 0 -3 1q-3 -1 -6.5 -0.5t-7.5 -0.5q-7 -1 -16 -4t-14 -5q1 -4 3.5 -8t4.5 -9q1 -2 3 -8.5t2 -9.5l-1 -1q2 -14 2 -23q0 -8 -2 -22l-6 -22q-1 -4 -4 -10t-4 -10q1 0 -1 -2t-3 -4v-1q23 2 29 17v2q-15 18 -9 20l1 2l2 1q4 0 10 -3q2 -2 3 -5.5t3 -6.5q-1 0 -2 -4.5t-1 -6.5
q-1 -3 -8 -10q-8 -8 -14 -9h-4q-2 0 -7 0.5t-7 -1.5q1 -2 0 -3h-2l-10 -12q-2 -1 -4 -3t-5 -4t-3 -3.5t2 -4.5l0.5 -0.5l0.5 -0.5q0 -2 4.5 -7zM396 284.5q4 -1.5 6 -3.5q1 0 1 -1h4q1 2 4 7t5 8q3 6 6 15.5t1 13.5q4 11 4 27q0 28 -12 55q-2 -4 -9 -8t-9 -7t-9 -14.5
t-10 -24.5q-2 -8 -2 -11q0 -4 3 -9q1 -1 2.5 -3.5t4.5 -4.5l13 -10l-2 -3h-2q-2 -2 -3 -2q-2 0 -8 3.5t-7 2.5v2q-2 6 -2 11q-1 0 -1 -3q0 -5 1.5 -11t3.5 -9q3 -9 11 -17q2 -2 6 -3.5zM208 371h-1q1 1 1 0zM598 365h1q0 -1 -1 0zM615 346q0 -1 1 -4t0 -4q2 -1 4 -5.5
t5 -6.5q1 -1 4 -6t5 -6q-1 0 -1 -2q1 -1 5 -4t5 -5q0 1 3 8t1 8q-1 1 -0.5 5t0.5 5q0 3 -1.5 7t-1.5 6q-4 16 -8 16q1 2 -3.5 2.5t-6.5 -0.5q-9 -3 -11 -14zM457.5 241q0.5 0 0 0.5t0.5 1.5q3 2 5 5t3 4q9 16 19 28l6 10l3 4q1 2 2 0l3 6l7 8l14 20q4 3 12 12t7 10h-1l-3 2
q-1 1 -5 -2.5t-6 -5.5q-2 0 -2 -1l-2 -2q0 -1 -1.5 -1h-2.5q-1 -1 -3 -3.5t-3 -2.5q-4 -4 -14.5 -11.5t-14.5 -11.5q-3 -3 -3 -5l-8 -6q-1 -1 -4.5 -4t-3.5 -6q-2 2 -8 -6t-7 -9l-12 -13q-12 -16 -20 -24h1q2 0 6.5 2t6.5 3q3 1 9 1t9 -1q5 -3 7 -2h3.5zM150 323
q-1 -1 -1 -3zM636 316v2q2 -2 0 -2zM375 252q-2 2 -8 6t-10 6q-15 5 -24 5q-10 0 -15 -5v-2h-3q-1 -1 -1 -3q0 -4 6 -10q4 -3 15 -3l13 -1q16 0 22 5l0.5 0.5l0.5 0.5zM597 228q0 4 -7 8.5t-9 5.5q-13 9 -33 12q-10 2 -18 2q-4 0 -14 -2q-1 -1 -7.5 -4t-8.5 -6
q-7 -10 3.5 -15.5t22.5 -6.5q18 -3 38 -3q3 0 13.5 0.5t15.5 5.5v0.5v0.5h1q-1 1 3 2zM431 197q3 5 10 17.5t13 20.5h-2q-5 0 -10 1.5t-10 1.5q-6 -1 -13.5 -4.5t-10.5 -8.5q-2 -3 -1.5 -5t2.5 -5l6 -12l2 -6l2 -6l3 -3t1 -5q2 2 4 7t3 6zM673.5 57.5q0.5 5.5 2.5 6.5l-1 1
q-3 -2 -21 -5l-6 -1q-2 1 -3.5 0t-1.5 -3q-2 -1 -4.5 -2.5t-5.5 -1.5q-1 0 -4 2t-5 2q-5 1 -12 0.5t-11 -0.5h-10q-11 0 -14 -4l-1 -1q-9 -5 -16.5 -9.5t-9.5 -6.5l1 -1l-3 -3t-1 -5q0 -1 1 -2t2 1q1 1 1.5 0.5t0.5 0.5h1l-1 -1h1v1h1v1l2 -1v2h1q4 0 16 4q15 3 18 3
q9 0 14 -5t5 -12q0 -5 -3 -10q-2 -4 -4 -5.5t-6 -2.5q-2 -1 -5 -1q-2 0 -4 1t-5 2q-2 2 -2 4q0 3 5 5.5t6 2.5q12 3 4 11q-4 4 -9 3l-3 -1q-1 -1 -2.5 0t-3.5 0q-4 -1 -10 -3.5t-10 -1.5q0 -1 -2 -2.5t-3 -1.5l-0.5 0.5l-0.5 0.5v1q-1 -3 -12 -7.5t-17 -6.5
q-12 -6 -27 -12.5t-27 -6.5t-20 7q-4 -1 -13.5 -2t-18.5 -1q-8 0 -8 1l-4 2l-0.5 -0.5l-0.5 -0.5l1 -1l-1 1v-1q0 1 -0.5 1t-0.5 -1l-2 3l1 1l-2 2q-2 -2 -1 0v2q2 -2 2 0t-2 2q2 0 2 1h-2v3l1.5 1.5t-0.5 0.5q1 1 0.5 1.5t-0.5 -0.5l0.5 0.5l0.5 0.5v1l0.5 0.5l0.5 0.5h1
q-1 1 3 2.5t7 1.5v-0.5v-0.5h3.5t4.5 -2q2 -1 5 -3t5 -3t5.5 -1t6.5 2q1 1 4 6t6 7l5 2q8 1 17 5q30 4 45 8q20 5 26 8l10 5q1 1 1 0t1 0l-1 1q13 6 15 6q-1 1 -3 1h-1q-3 1 -6.5 1.5t-7.5 1.5q-17 3 -33 10q-15 7 -36 21l-2 1q0 1 -2 2t-3 2l-10 8v0.5v0.5q-1 1 -2.5 3.5
t-3.5 3.5q0 2 -1 3.5t-1 2.5q-1 0 -2.5 1t-2.5 3h-1q1 1 -2.5 5t-4.5 6v1l-2 1q0 2 -4 2v2v2q-3 0 -2 1q-2 2 -5 2.5t-5 2.5h2q-1 1 -2.5 1.5t-2.5 1.5q1 -2 -1 -1q0 1 -0.5 1t-1.5 -1q1 0 1.5 -0.5t0.5 -1.5h-2v-1t-1 0l1 -3h-4q0 -2 1 -3l-5 -15q-2 -8 -2 -17q0 -10 4 -14
q5 -5 12 -2l11 6l3 3t2 3l2 -1l1 1v2q0 1 2.5 0.5t1.5 0.5l6 5l1 -4q1 -1 0.5 -1.5t-1.5 -0.5q-2 -4 -4 -5l1 -1q-2 0 -2.5 -1.5t-1.5 -2.5q-1 1 -5 -3.5t-5 -4.5q0 -2 -1 -2q-3 -3 -11 -7t-9 -3l-2 -1q-2 2 -2 0q-1 -2 -3.5 -1t-3.5 1l-3 -1q-3 0 -7 4t-6 8q0 2 -1 9.5
t0 8.5q-2 0 4 17q9 26 15 36q1 0 0.5 1t0.5 1l-1.5 1.5t0.5 0.5l1 3l-1 1q-2 3 -4.5 6t-4.5 8q-8 17 -11 32q-2 -1 -6 -7.5t-6 -7.5l-16 -19l-30 -32q-12 -14 -29 -27q-3 -2 -8.5 -5.5t-7.5 -5.5q0 -2 -5.5 -5t-6.5 -4q-15 -8 -16 -12h-6q6 -3 14 -15q8 -15 18 -15l21 1
q15 0 28 -3q38 -7 46 -26q1 -3 1 -7q0 -6 5 -7q1 0 5 0.5t5 -0.5q0 -2 -2 -2h2v-4l-0.5 -0.5l-0.5 -0.5l2 -3q-1 1 -1 -0.5t-1 -1.5h-1l-2 1h-3q-5 0 -10.5 1.5t-10.5 1.5q-4 0 -7.5 -1.5t-8.5 -1.5q-12 0 -25.5 5t-23.5 14l-18 17q-4 7 -8 9q-3 1 -3.5 0.5t-2.5 -0.5
q-6 -1 -8.5 -5t-4.5 -13t-9 -11l-4 -1q-9 0 -9 13q0 5 2 9q2 5 8 7.5t8 3.5t8 1.5t8 2.5q-5 10 -19 24q-2 2 -2 0l-1.5 1t-0.5 2q-16 -10 -48 -14q-16 -3 -32 -3q-2 0 -10 1t-9 0v2q-4 -1 -3.5 -4t0.5 -4l-1 -1q0 -8 4 -18q2 -7 7 -17q1 -2 3 -4t3 -4q-1 1 3.5 13t5.5 11
q1 2 1 -9q0 -10 1 -15q3 -15 10 -26q4 -7 16 -19q4 -3 11 -7t10 -7v1q0 3 -2.5 7.5t-3.5 7.5q-6 16 -7 27q-1 5 -1 17q0 22 11 31q1 -1 0 -2h1q-2 -4 -2 -14q0 -28 8 -47q4 -9 6 -9q3 0 3 15q0 16 1 16q1 1 3 -3.5t2 -7.5q1 -10 8 -24q12 -27 31 -42q13 -10 26.5 -16
t35.5 -14h1q3 0 7 -1t5 0q0 1 -2 4t-1 4q-2 3 -7.5 4t-7.5 1q-7 1 -19 7q-13 6 -13 21q0 11 7.5 17t18.5 5q6 -1 10 -2.5t7 -2.5q2 -1 6 -1t10 1.5t10 0.5q1 -1 4 -2t5 -3t4 -6t2 -7q1 1 2 -1.5t1 -4.5q1 -1 0.5 -2.5t-1.5 -0.5q0 -2 -4 -6l-2 -5q-2 -1 -5.5 -4t-4.5 -6
q0 -2 3.5 -8t2.5 -9l5 5q5 5 9 6h2q6 0 14 -3.5t12 -7.5q1 0 3 1t3 2q-2 7 -12 15t-13 12t-3 9q0 6 3 12q6 13 17 11q1 -1 8 -3.5t8 -4.5q2 1 3.5 0.5t2.5 -0.5v2h2q13 7 11 9q1 -1 7.5 0t10.5 -1q3 -2 8 -7t6 -8v-3q0 -4 -2.5 -6.5l-3.5 -3.5q-2 -2 -2.5 -7.5t2.5 -6.5
q5 -3 17 8t17 19q19 20 26 49l2 1q2 -4 2 -7q0 -2 -3 -14l-5 -14q5 0 9.5 6.5t5.5 7.5q6 9 8 25q0 4 -2 12t-3 7q0 1 0.5 0.5t1.5 -0.5q13 -9 13 -29q0 -10 -3 -17q-3 -12 -13 -24q-5 -7 -10 -10q-1 -1 -4.5 -3t-4.5 -4q15 4 28.5 13.5t26 20t18.5 15.5q17 17 18 37v18
q0 2 -1.5 6.5t-0.5 5.5h1q3 0 6 -5t4 -9q3 -5 5 -20q0 -2 -0.5 -5t2.5 -3q1 0 5 4.5t5 5.5q10 12 14 18q4 8 8 20q0 2 0.5 7.5zM430.5 196.5l-0.5 -0.5q0 1 0.5 1.5t0.5 -0.5zM418 175.5q0 1.5 -2 3.5l-11 9q3 -3 6.5 -9t5.5 -8l1 2v2.5zM118.5 172h-1.5h2h-0.5zM429 161
q-1 -1 0.5 -2t1.5 -2zM470 112q16 -16 18 -4v4q0 2 -1 3t-1 2q-2 5 -6 9q-3 3 -7 7.5t-8 5.5q-3 1 -9 1.5t-7 2.5v-1l-2 1q1 -1 3 -5t2 -5zM122 109q0 -2 1 -9.5t6 -9.5h4q12 0 14 2h1q3 0 24 7q7 2 19 8q14 10 17 11q-5 2 -13.5 7t-13.5 6q-14 4 -26 2q-13 0 -23 -7
q-7 -5 -9 -9zM145 84q1 0 0 -2l14 -4l13 -1l13 1q9 2 35 8l9 4.5t9 2.5q-2 2 -12.5 11t-11.5 8q-2 -4 -12 -9t-18 -7l-18 -6q-3 -1 -9.5 -2t-9.5 -2q-5 -2 -6 -1l1 -1l-3 1v-1l4 -2l1 2q1 -1 1 0zM141 64.5q0 2.5 -2 4.5t-5.5 3t-6.5 2q-2 2 -5 5.5t-5 4.5l-8 -1q-5 3 -8 2
q1 -8 6.5 -17.5t7.5 -13.5q6 -10 10 -15q1 -1 5.5 -3.5t4.5 -4.5q3 8 5 30q1 1 1 3.5zM287.5 46.5q2.5 -3.5 4.5 -5.5q1 -1 3.5 -2.5t3.5 -2.5l5 -6l16 -12q15 -9 24 -9q5 0 8 3t3 7q0 7 -4 16t-8 11q-13 7 -36 7q-10 0 -14 -1h-3h-6q1 -2 3.5 -5.5zM537 20q0 6 -9 6
q-7 0 -11 -2q-3 -2 -10 -3.5t-9 -1.5q-2 -1 -11 -2.5t-14 -7.5q-1 -2 -1 -5q0 -5 5 -7h2q4 0 13 3l22 9q12 4 13 6l7 3q1 -1 1.5 -0.5t1.5 0.5v2zM394 17h1q0 -1 -1 0zM376 -69q-1 11 -2 9q-3 3 -1 4q-2 -1 -3 0t-2 0q-2 -1 -7 -1.5t-9 -1.5h-2q-4 0 -9 2t-4 4q-1 0 -2 2
t-2 2q-3 0 -6.5 2t-6.5 -3q-3 -4 -4.5 -10.5t1.5 -10.5q4 -5 15 -6.5t15 -5.5q2 -1 6 -5t6 -9q0 -1 -0.5 -3.5t0.5 -3.5l7 -1q1 1 1 4t-2 7.5t-1 8.5q4 8 7 8q3 1 5 8zM468 -84.5q-2 5.5 -2 9.5q1 3 4 8.5t4 5.5q-1 2 -3 5.5t-3 2.5q-2 1 -3 2t-3 0q-3 -1 -8 -6
q-7 -6 -13 -6q-3 0 -6 1t-5 2l-1 1l-7 2q-2 0 -7 -3.5t-4 -4.5l1 -3q-1 -1 -1 -3.5t1 -3.5t1 0t1 1q1 -1 0 -2q1 -1 1 -2t1 -1q1 -1 1.5 -0.5t1.5 -0.5l2 -3q2 -2 5.5 -4.5t4.5 -5.5q1 -2 2.5 -4.5t3.5 -3.5q2 0 6 2t6 2q5 0 14 1.5t10 4.5q-3 1 -5 6.5zM385.5 -75h0.5h-1
h0.5zM411 -113q-1 5 -6 5q-3 0 -6 -3.5t-2 -7.5zM398.5 -116.5q1.5 0.5 0.5 -1.5l-2 -1q0 2 1.5 2.5zM366 -124l-2 2l-10 -2q1 -1 0.5 -4t-0.5 -4l2 1q0 -1 -0.5 -2t0.5 -1q1 2 2 1t3 0t3 2v4t1 2zM429 -128l1 2l-8 -2q5 0 7 -2v2zM291 -141q-6 9 -18 9q-8 0 -9.5 -3.5
t-1.5 -10.5q0 3 3 2.5t1 -2.5l-4 -2zM359 -133h-1q0 1 1 0zM496 -146q4 -1 14 -4t11 -2q2 1 -1 8q-4 9 -10 9q-3 0 -6.5 -4t-5.5 -4q-2 -1 -2 -3zM448.5 -144q-5.5 1 -7.5 2l-2 1q-3 0 -6 -9.5t-3 -10.5q2 -6 15 -9t15 -4h4q12 0 20 13q1 1 2.5 3.5t-0.5 4.5q-4 3 -14 3
q-6 2 -16 4q-2 1 -7.5 2zM338 -164q7 1 10.5 4t3.5 8l-0.5 0.5l-0.5 0.5q-1 2 -1 5.5t-3 5.5h-2q-3 0 -6.5 -1t-5.5 -1l-18 -3q-1 0 -5.5 0.5t-6.5 -1.5q5 -4 9 -9v-2q0 -3 -2 -8.5t0 -7.5l0.5 0.5l0.5 0.5q3 -2 9 0q2 1 4 3t5 3q2 1 9 2zM594 -142l-0.5 0.5l-0.5 0.5z
M351 -152v1l1 -1q0 -3 -1 0zM235 -154v-1v1zM638.5 -158.5l0.5 -0.5l-1 1zM254.5 -161q0.5 1 1.5 2h-1q-3 0 -4.5 -1.5t-3.5 -1.5q-2 -2 -7 -2h2q0 -2 2 -2q3 0 9 3q0 1 2 1q-1 0 -0.5 1zM524.5 -163.5q-1.5 -0.5 -2.5 0.5l-1 -2q0 -5 9.5 -9t14.5 0q3 3 1 3t-4 1t-7 3t-9 3
q0 1 -1.5 0.5zM261 -165h-1h1zM174.5 -175h0.5h-1h0.5z" />
    <glyph glyph-name="NULL" horiz-adv-x="600" 
 />
    <glyph glyph-name="nonmarkingreturn" unicode="&#xd;" horiz-adv-x="600" 
 />
    <glyph glyph-name="space" unicode=" " horiz-adv-x="284" 
 />
    <glyph glyph-name="A" unicode="A" horiz-adv-x="769" 
d="M764 22v-22h-349v22l51 11q43 9 43 33q0 7 -5 22l-55 138h-231l-64 -152q-3 -6 -3 -11q0 -20 31 -26l85 -15v-22h-262v22l58 13q21 5 33.5 14.5t19.5 25.5l204 484l-31 76q29 1 51 11.5t34 25.5t12 26h13l262 -634q5 -13 16 -19.5t36 -11.5zM436 259l-99 248l-105 -248
h204z" />
    <glyph glyph-name="Aacute" unicode="&#xc1;" horiz-adv-x="769" 
d="M764 22v-22h-349v22l51 11q43 9 43 33q0 7 -5 22l-55 138h-231l-64 -152q-3 -6 -3 -11q0 -20 31 -26l85 -15v-22h-262v22l58 13q21 5 33.5 14.5t19.5 25.5l204 484l-31 76q29 1 51 11.5t34 25.5t12 26h13l262 -634q5 -13 16 -19.5t36 -11.5zM436 259l-99 248l-105 -248
h204zM302 754l159 103q17 11 32 11q10 0 18 -4q14 -6 21 -16.5t7 -22.5q0 -8 -3 -16q-10 -24 -38 -30l-185 -47z" />
    <glyph glyph-name="Abreve" unicode="&#x102;" horiz-adv-x="769" 
d="M764 22v-22h-349v22l51 11q43 9 43 33q0 7 -5 22l-55 138h-231l-64 -152q-3 -6 -3 -11q0 -20 31 -26l85 -15v-22h-262v22l58 13q21 5 33.5 14.5t19.5 25.5l204 484l-31 76q29 1 51 11.5t34 25.5t12 26h13l262 -634q5 -13 16 -19.5t36 -11.5zM436 259l-99 248l-105 -248
h204zM265 763q-43 46 -44 119h35q4 -40 38.5 -66.5t81.5 -26.5t81 26.5t39 66.5h35q-1 -74 -43.5 -119.5t-111.5 -45.5q-68 0 -111 46z" />
    <glyph glyph-name="Acircumflex" unicode="&#xc2;" horiz-adv-x="769" 
d="M764 22v-22h-349v22l51 11q43 9 43 33q0 7 -5 22l-55 138h-231l-64 -152q-3 -6 -3 -11q0 -20 31 -26l85 -15v-22h-262v22l58 13q21 5 33.5 14.5t19.5 25.5l204 484l-31 76q29 1 51 11.5t34 25.5t12 26h13l262 -634q5 -13 16 -19.5t36 -11.5zM436 259l-99 248l-105 -248
h204zM397 876l134 -144l-14 -21l-141 75l-140 -75l-15 21l135 144h41z" />
    <glyph glyph-name="Adieresis" unicode="&#xc4;" horiz-adv-x="769" 
d="M764 22v-22h-349v22l51 11q43 9 43 33q0 7 -5 22l-55 138h-231l-64 -152q-3 -6 -3 -11q0 -20 31 -26l85 -15v-22h-262v22l58 13q21 5 33.5 14.5t19.5 25.5l204 484l-31 76q29 1 51 11.5t34 25.5t12 26h13l262 -634q5 -13 16 -19.5t36 -11.5zM436 259l-99 248l-105 -248
h204zM219.5 753.5q-19.5 19.5 -19.5 45.5q0 27 19.5 46t46.5 19q26 0 45.5 -19.5t19.5 -45.5q0 -27 -19.5 -46t-45.5 -19q-27 0 -46.5 19.5zM440.5 753.5q-19.5 19.5 -19.5 45.5q0 27 19.5 46t46.5 19q26 0 45.5 -19.5t19.5 -45.5q0 -27 -19.5 -46t-45.5 -19
q-27 0 -46.5 19.5z" />
    <glyph glyph-name="Agrave" unicode="&#xc0;" horiz-adv-x="769" 
d="M764 22v-22h-349v22l51 11q43 9 43 33q0 7 -5 22l-55 138h-231l-64 -152q-3 -6 -3 -11q0 -20 31 -26l85 -15v-22h-262v22l58 13q21 5 33.5 14.5t19.5 25.5l204 484l-31 76q29 1 51 11.5t34 25.5t12 26h13l262 -634q5 -13 16 -19.5t36 -11.5zM436 259l-99 248l-105 -248
h204zM278 779q-14 3 -23.5 11t-13.5 19q-3 8 -3 16q0 13 7 23.5t20 15.5q9 4 19 4q14 0 31 -11l160 -103l-11 -22z" />
    <glyph glyph-name="Amacron" unicode="&#x100;" horiz-adv-x="769" 
d="M764 22v-22h-349v22l51 11q43 9 43 33q0 7 -5 22l-55 138h-231l-64 -152q-3 -6 -3 -11q0 -20 31 -26l85 -15v-22h-262v22l58 13q21 5 33.5 14.5t19.5 25.5l204 484l-31 76q29 1 51 11.5t34 25.5t12 26h13l262 -634q5 -13 16 -19.5t36 -11.5zM436 259l-99 248l-105 -248
h204zM210 837h334v-55h-334v55z" />
    <glyph glyph-name="Aogonek" unicode="&#x104;" horiz-adv-x="769" 
d="M634.5 -37.5q-23.5 -25.5 -23.5 -58.5q0 -36 13.5 -53t36.5 -17q30 0 71 30l19 -22q-29 -31 -62.5 -50t-61.5 -19q-32 0 -61 17.5t-46.5 45.5t-17.5 59q0 30 37 58t88 47h-212v22l51 11q43 9 43 33q0 7 -5 22l-55 138h-231l-64 -152q-3 -6 -3 -11q0 -20 31 -26l85 -15
v-22h-262v22l58 13q21 5 33.5 14.5t19.5 25.5l204 484l-31 76q29 1 51 11.5t34 25.5t12 26h13l262 -634q5 -13 16 -19.5t36 -11.5l51 -11v-22h-76q-30 -12 -53.5 -37.5zM436 259l-99 248l-105 -248h204z" />
    <glyph glyph-name="Aring" unicode="&#xc5;" horiz-adv-x="769" 
d="M764 22v-22h-349v22l51 11q43 9 43 33q0 7 -5 22l-55 138h-231l-64 -152q-3 -6 -3 -11q0 -20 31 -26l85 -15v-22h-262v22l58 13q21 5 33.5 14.5t19.5 25.5l204 484l-31 76q36 1 60.5 16.5t33.5 33.5h-7q-42 0 -71.5 30t-29.5 72q0 41 29.5 70.5t71.5 29.5t72 -29.5
t30 -70.5q0 -35 -21 -62t-54 -36l258 -625q5 -13 16 -19.5t36 -11.5zM332.5 742.5q18.5 -18.5 44.5 -18.5t44 18.5t18 44.5q0 25 -18.5 43.5t-43.5 18.5q-26 0 -44.5 -18.5t-18.5 -43.5q0 -26 18.5 -44.5zM436 259l-99 248l-105 -248h204z" />
    <glyph glyph-name="Atilde" unicode="&#xc3;" horiz-adv-x="769" 
d="M764 22v-22h-349v22l51 11q43 9 43 33q0 7 -5 22l-55 138h-231l-64 -152q-3 -6 -3 -11q0 -20 31 -26l85 -15v-22h-262v22l58 13q21 5 33.5 14.5t19.5 25.5l204 484l-31 76q29 1 51 11.5t34 25.5t12 26h13l262 -634q5 -13 16 -19.5t36 -11.5zM436 259l-99 248l-105 -248
h204zM64 732h11q37 0 56 3.5t28 11.5t14 24q9 31 37 59.5t71.5 46.5t95.5 18q51 0 94 -17.5t71.5 -46t38.5 -59.5q5 -17 14 -25.5t27.5 -11.5t56.5 -3h10v-14h-127q-1 24 -24.5 48t-65.5 39.5t-95 15.5t-95 -15.5t-65.5 -39.5t-24.5 -48h-128v14z" />
    <glyph glyph-name="AE" unicode="&#xc6;" horiz-adv-x="991" 
d="M961 180q-25 -105 -25 -180h-585v22l51 11q25 5 36 10.5t15 16t4 32.5v137h-185l-108 -153q-7 -10 -7 -17q0 -17 28 -22l82 -15v-22h-262v22l55 13q23 5 34 12t21 21l342 479v34q0 22 -4 32.5t-15 16t-36 10.5l-51 11v22h573q-5 -24 -5 -55q0 -35 6.5 -73.5t8.5 -48.5
h-22q-27 64 -73 104t-110 40h-134v-268h129q48 0 70.5 19t28.5 57l8 46h22v-277h-22l-9 48q-6 37 -28 55.5t-68 18.5h-131v-221q0 -36 3.5 -52t18 -24.5t47.5 -8.5h75q52 0 89.5 22t68.5 65l42 60h22zM457 262v231l-162 -231h162z" />
    <glyph glyph-name="B" unicode="B" horiz-adv-x="714" 
d="M30 22l52 11q24 5 35 10.5t15 16t4 32.5v489q0 22 -4 32.5t-15 16t-35 10.5l-52 11v22h369q68 0 119.5 -19.5t80 -54.5t28.5 -82q0 -61 -41.5 -96t-114.5 -45v-2q50 -3 94.5 -24.5t71.5 -59.5t27 -87q0 -106 -78.5 -154.5t-206.5 -48.5h-349v22zM364 386q51 0 82 38
t31 92q0 57 -36 90.5t-99 33.5h-68v-254h90zM361 33q67 0 106 46.5t39 122.5q0 151 -149 151h-83v-265q0 -33 12.5 -44t47.5 -11h27z" />
    <glyph glyph-name="C" unicode="C" horiz-adv-x="739" 
d="M230.5 35q-89.5 45 -140 122.5t-50.5 171.5q0 100 50.5 181t140 127t199.5 46q50 0 82.5 -7.5t61.5 -19.5q25 -12 39 -16.5t34 -4.5q16 0 38 5l4 -3q-7 -25 -7 -55q0 -44 19 -130h-27q-83 196 -248 196q-65 0 -118.5 -39.5t-85 -112t-31.5 -167.5q0 -90 29.5 -159
t83.5 -107.5t126 -38.5q87 0 151.5 54.5t100.5 144.5h31q-29 -99 -31 -194h-7q-24 0 -45.5 -4t-54.5 -13q-36 -11 -67 -16.5t-74 -5.5q-114 0 -203.5 45z" />
    <glyph glyph-name="Cacute" unicode="&#x106;" horiz-adv-x="739" 
d="M230.5 35q-89.5 45 -140 122.5t-50.5 171.5q0 100 50.5 181t140 127t199.5 46q50 0 82.5 -7.5t61.5 -19.5q25 -12 39 -16.5t34 -4.5q16 0 38 5l4 -3q-7 -25 -7 -55q0 -44 19 -130h-27q-83 196 -248 196q-65 0 -118.5 -39.5t-85 -112t-31.5 -167.5q0 -90 29.5 -159
t83.5 -107.5t126 -38.5q87 0 151.5 54.5t100.5 144.5h31q-29 -99 -31 -194h-7q-24 0 -45.5 -4t-54.5 -13q-36 -11 -67 -16.5t-74 -5.5q-114 0 -203.5 45zM358 754l159 103q17 11 32 11q10 0 18 -4q14 -6 21 -16.5t7 -22.5q0 -8 -3 -16q-10 -24 -38 -30l-185 -47z" />
    <glyph glyph-name="Ccaron" unicode="&#x10c;" horiz-adv-x="739" 
d="M230.5 35q-89.5 45 -140 122.5t-50.5 171.5q0 100 50.5 181t140 127t199.5 46q50 0 82.5 -7.5t61.5 -19.5q25 -12 39 -16.5t34 -4.5q16 0 38 5l4 -3q-7 -25 -7 -55q0 -44 19 -130h-27q-83 196 -248 196q-65 0 -118.5 -39.5t-85 -112t-31.5 -167.5q0 -90 29.5 -159
t83.5 -107.5t126 -38.5q87 0 151.5 54.5t100.5 144.5h31q-29 -99 -31 -194h-7q-24 0 -45.5 -4t-54.5 -13q-36 -11 -67 -16.5t-74 -5.5q-114 0 -203.5 45zM276 855l15 21l140 -75l141 75l14 -21l-134 -144h-41z" />
    <glyph glyph-name="Ccedilla" unicode="&#xc7;" horiz-adv-x="739" 
d="M713 223q-29 -99 -31 -194h-7q-24 0 -45.5 -4t-54.5 -13q-36 -11 -67 -16.5t-74 -5.5h-9l-6 -23q69 -1 107.5 -23.5t38.5 -60.5q0 -60 -68.5 -91t-160.5 -36v33q52 2 86 21t34 46q0 40 -94 43l24 93q-101 9 -180 56t-122.5 120.5t-43.5 160.5q0 100 50.5 181t140 127
t199.5 46q50 0 82.5 -7.5t61.5 -19.5q25 -12 39 -16.5t34 -4.5q16 0 38 5l4 -3q-7 -25 -7 -55q0 -44 19 -130h-27q-83 196 -248 196q-65 0 -118.5 -39.5t-85 -112t-31.5 -167.5q0 -90 29.5 -159t83.5 -107.5t126 -38.5q87 0 151.5 54.5t100.5 144.5h31z" />
    <glyph glyph-name="Cdotaccent" unicode="&#x10a;" horiz-adv-x="739" 
d="M230.5 35q-89.5 45 -140 122.5t-50.5 171.5q0 100 50.5 181t140 127t199.5 46q50 0 82.5 -7.5t61.5 -19.5q25 -12 39 -16.5t34 -4.5q16 0 38 5l4 -3q-7 -25 -7 -55q0 -44 19 -130h-27q-83 196 -248 196q-65 0 -118.5 -39.5t-85 -112t-31.5 -167.5q0 -90 29.5 -159
t83.5 -107.5t126 -38.5q87 0 151.5 54.5t100.5 144.5h31q-29 -99 -31 -194h-7q-24 0 -45.5 -4t-54.5 -13q-36 -11 -67 -16.5t-74 -5.5q-114 0 -203.5 45zM379.5 742q-21.5 21 -21.5 52t21.5 52t51.5 21q31 0 52.5 -21t21.5 -52t-21.5 -52t-52.5 -21q-30 0 -51.5 21z" />
    <glyph glyph-name="D" unicode="D" horiz-adv-x="786" 
d="M30 22l52 11q24 5 35 10.5t15 16t4 32.5v489q0 22 -4 32.5t-15 16t-35 10.5l-52 11v22h348q103 0 187.5 -44.5t132.5 -120.5t48 -167q0 -96 -46.5 -174t-129 -122.5t-185.5 -44.5h-355v22zM485.5 71q51.5 38 80 108t28.5 163q0 89 -28.5 157t-80.5 105.5t-121 37.5h-90
v-551q0 -58 91 -58q69 0 120.5 38z" />
    <glyph glyph-name="Eth" unicode="&#xd0;" horiz-adv-x="786" 
d="M565.5 628.5q84.5 -44.5 132.5 -120.5t48 -167q0 -96 -46.5 -174t-129 -122.5t-185.5 -44.5h-355v22l52 11q24 5 35 10.5t15 16t4 32.5v231h-106v54h106v204q0 22 -4 32.5t-15 16t-35 10.5l-52 11v22h348q103 0 187.5 -44.5zM485.5 71q51.5 38 80 108t28.5 163
q0 89 -28.5 157t-80.5 105.5t-121 37.5h-90v-265h114v-54h-114v-232q0 -58 91 -58q69 0 120.5 38z" />
    <glyph glyph-name="Dcaron" unicode="&#x10e;" horiz-adv-x="786" 
d="M30 22l52 11q24 5 35 10.5t15 16t4 32.5v489q0 22 -4 32.5t-15 16t-35 10.5l-52 11v22h348q103 0 187.5 -44.5t132.5 -120.5t48 -167q0 -96 -46.5 -174t-129 -122.5t-185.5 -44.5h-355v22zM485.5 71q51.5 38 80 108t28.5 163q0 89 -28.5 157t-80.5 105.5t-121 37.5h-90
v-551q0 -58 91 -58q69 0 120.5 38zM248 855l15 21l140 -75l141 75l14 -21l-134 -144h-41z" />
    <glyph glyph-name="Dcroat" unicode="&#x110;" horiz-adv-x="786" 
d="M565.5 628.5q84.5 -44.5 132.5 -120.5t48 -167q0 -96 -46.5 -174t-129 -122.5t-185.5 -44.5h-355v22l52 11q24 5 35 10.5t15 16t4 32.5v231h-106v54h106v204q0 22 -4 32.5t-15 16t-35 10.5l-52 11v22h348q103 0 187.5 -44.5zM485.5 71q51.5 38 80 108t28.5 163
q0 89 -28.5 157t-80.5 105.5t-121 37.5h-90v-265h114v-54h-114v-232q0 -58 91 -58q69 0 120.5 38z" />
    <glyph glyph-name="E" unicode="E" horiz-adv-x="671" 
d="M30 22l52 11q24 5 35 10.5t15 16t4 32.5v489q0 22 -4 32.5t-15 16t-35 10.5l-52 11v22h573q-5 -24 -5 -55q0 -35 6.5 -73.5t8.5 -48.5h-22q-27 64 -73 104t-109 40h-135v-268h129q49 0 71 19t28 57l8 46h22v-277h-22l-9 48q-6 37 -27.5 55.5t-68.5 18.5h-131v-221
q0 -35 3.5 -51.5t18.5 -25t48 -8.5h74q52 0 90 22t68 65l42 60h22q-25 -105 -25 -180h-585v22z" />
    <glyph glyph-name="Eacute" unicode="&#xc9;" horiz-adv-x="671" 
d="M30 22l52 11q24 5 35 10.5t15 16t4 32.5v489q0 22 -4 32.5t-15 16t-35 10.5l-52 11v22h573q-5 -24 -5 -55q0 -35 6.5 -73.5t8.5 -48.5h-22q-27 64 -73 104t-109 40h-135v-268h129q49 0 71 19t28 57l8 46h22v-277h-22l-9 48q-6 37 -27.5 55.5t-68.5 18.5h-131v-221
q0 -35 3.5 -51.5t18.5 -25t48 -8.5h74q52 0 90 22t68 65l42 60h22q-25 -105 -25 -180h-585v22zM271 754l159 103q17 11 32 11q10 0 18 -4q14 -6 21 -16.5t7 -22.5q0 -8 -3 -16q-10 -24 -38 -30l-185 -47z" />
    <glyph glyph-name="Ecaron" unicode="&#x11a;" horiz-adv-x="671" 
d="M30 22l52 11q24 5 35 10.5t15 16t4 32.5v489q0 22 -4 32.5t-15 16t-35 10.5l-52 11v22h573q-5 -24 -5 -55q0 -35 6.5 -73.5t8.5 -48.5h-22q-27 64 -73 104t-109 40h-135v-268h129q49 0 71 19t28 57l8 46h22v-277h-22l-9 48q-6 37 -27.5 55.5t-68.5 18.5h-131v-221
q0 -35 3.5 -51.5t18.5 -25t48 -8.5h74q52 0 90 22t68 65l42 60h22q-25 -105 -25 -180h-585v22zM190 855l15 21l140 -75l141 75l14 -21l-134 -144h-41z" />
    <glyph glyph-name="Ecircumflex" unicode="&#xca;" horiz-adv-x="671" 
d="M30 22l52 11q24 5 35 10.5t15 16t4 32.5v489q0 22 -4 32.5t-15 16t-35 10.5l-52 11v22h573q-5 -24 -5 -55q0 -35 6.5 -73.5t8.5 -48.5h-22q-27 64 -73 104t-109 40h-135v-268h129q49 0 71 19t28 57l8 46h22v-277h-22l-9 48q-6 37 -27.5 55.5t-68.5 18.5h-131v-221
q0 -35 3.5 -51.5t18.5 -25t48 -8.5h74q52 0 90 22t68 65l42 60h22q-25 -105 -25 -180h-585v22zM366 876l134 -144l-14 -21l-141 75l-140 -75l-15 21l135 144h41z" />
    <glyph glyph-name="Edieresis" unicode="&#xcb;" horiz-adv-x="671" 
d="M30 22l52 11q24 5 35 10.5t15 16t4 32.5v489q0 22 -4 32.5t-15 16t-35 10.5l-52 11v22h573q-5 -24 -5 -55q0 -35 6.5 -73.5t8.5 -48.5h-22q-27 64 -73 104t-109 40h-135v-268h129q49 0 71 19t28 57l8 46h22v-277h-22l-9 48q-6 37 -27.5 55.5t-68.5 18.5h-131v-221
q0 -35 3.5 -51.5t18.5 -25t48 -8.5h74q52 0 90 22t68 65l42 60h22q-25 -105 -25 -180h-585v22zM188.5 753.5q-19.5 19.5 -19.5 45.5q0 27 19.5 46t46.5 19q26 0 45.5 -19.5t19.5 -45.5q0 -27 -19.5 -46t-45.5 -19q-27 0 -46.5 19.5zM409.5 753.5q-19.5 19.5 -19.5 45.5
q0 27 19.5 46t46.5 19q26 0 45.5 -19.5t19.5 -45.5q0 -27 -19.5 -46t-45.5 -19q-27 0 -46.5 19.5z" />
    <glyph glyph-name="Edotaccent" unicode="&#x116;" horiz-adv-x="671" 
d="M30 22l52 11q24 5 35 10.5t15 16t4 32.5v489q0 22 -4 32.5t-15 16t-35 10.5l-52 11v22h573q-5 -24 -5 -55q0 -35 6.5 -73.5t8.5 -48.5h-22q-27 64 -73 104t-109 40h-135v-268h129q49 0 71 19t28 57l8 46h22v-277h-22l-9 48q-6 37 -27.5 55.5t-68.5 18.5h-131v-221
q0 -35 3.5 -51.5t18.5 -25t48 -8.5h74q52 0 90 22t68 65l42 60h22q-25 -105 -25 -180h-585v22zM293.5 742q-21.5 21 -21.5 52t21.5 52t51.5 21q31 0 52.5 -21t21.5 -52t-21.5 -52t-52.5 -21q-30 0 -51.5 21z" />
    <glyph glyph-name="Egrave" unicode="&#xc8;" horiz-adv-x="671" 
d="M30 22l52 11q24 5 35 10.5t15 16t4 32.5v489q0 22 -4 32.5t-15 16t-35 10.5l-52 11v22h573q-5 -24 -5 -55q0 -35 6.5 -73.5t8.5 -48.5h-22q-27 64 -73 104t-109 40h-135v-268h129q49 0 71 19t28 57l8 46h22v-277h-22l-9 48q-6 37 -27.5 55.5t-68.5 18.5h-131v-221
q0 -35 3.5 -51.5t18.5 -25t48 -8.5h74q52 0 90 22t68 65l42 60h22q-25 -105 -25 -180h-585v22zM247 779q-14 3 -23.5 11t-13.5 19q-3 8 -3 16q0 13 7 23.5t20 15.5q9 4 19 4q14 0 31 -11l160 -103l-11 -22z" />
    <glyph glyph-name="Emacron" unicode="&#x112;" horiz-adv-x="671" 
d="M30 22l52 11q24 5 35 10.5t15 16t4 32.5v489q0 22 -4 32.5t-15 16t-35 10.5l-52 11v22h573q-5 -24 -5 -55q0 -35 6.5 -73.5t8.5 -48.5h-22q-27 64 -73 104t-109 40h-135v-268h129q49 0 71 19t28 57l8 46h22v-277h-22l-9 48q-6 37 -27.5 55.5t-68.5 18.5h-131v-221
q0 -35 3.5 -51.5t18.5 -25t48 -8.5h74q52 0 90 22t68 65l42 60h22q-25 -105 -25 -180h-585v22zM179 837h334v-55h-334v55z" />
    <glyph glyph-name="Eogonek" unicode="&#x118;" horiz-adv-x="671" 
d="M621 -136l19 -22q-29 -31 -62.5 -50t-61.5 -19q-32 0 -61 17.5t-46.5 45.5t-17.5 59q0 30 37 58t88 47h-486v22l52 11q24 5 35 10.5t15 16t4 32.5v489q0 22 -4 32.5t-15 16t-35 10.5l-52 11v22h573q-5 -24 -5 -55q0 -35 6.5 -73.5t8.5 -48.5h-22q-27 64 -73 104t-109 40
h-135v-268h129q49 0 71 19t28 57l8 46h22v-277h-22l-9 48q-6 37 -27.5 55.5t-68.5 18.5h-131v-221q0 -35 3.5 -51.5t18.5 -25t48 -8.5h74q52 0 90 22t68 65l42 60h22q-25 -105 -25 -180h-38q-30 -12 -53.5 -37.5t-23.5 -58.5q0 -36 13.5 -53t36.5 -17q30 0 71 30z" />
    <glyph glyph-name="F" unicode="F" horiz-adv-x="647" 
d="M30 22l52 11q24 5 35 10.5t15 16t4 32.5v489q0 22 -4 32.5t-15 16t-35 10.5l-52 11v22h572q-5 -24 -5 -55q0 -35 6.5 -73.5t8.5 -48.5h-22q-26 64 -72.5 104t-109.5 40h-134v-288h128q48 0 71 18.5t29 57.5l8 46h22v-277h-22l-9 48q-6 38 -28.5 56t-68.5 18h-130v-227
q0 -22 4 -32.5t15 -16t36 -10.5l58 -11v-22h-357v22z" />
    <glyph glyph-name="G" unicode="G" horiz-adv-x="796" 
d="M233 30.5q-87 41.5 -140 120t-53 184.5q0 99 50 178.5t136 124.5t189 45q56 0 91.5 -8.5t70.5 -22.5q23 -9 36.5 -13t29.5 -4q15 0 35 5l4 -3q-1 -4 -4 -17.5t-3 -25.5q0 -54 9 -89.5t9 -36.5h-34q-32 87 -93 134t-146 47q-70 0 -122 -41.5t-79.5 -113t-27.5 -159.5
q0 -139 58.5 -225t183.5 -86q34 0 67.5 8.5t63.5 34.5v150q0 31 -10 41t-45 18l-51 11v22h333v-22l-35 -7q-35 -8 -44.5 -19t-9.5 -42v-189l-3 -2q-11 3 -20.5 4.5t-24.5 1.5q-16 0 -38 -6t-46 -13q-39 -12 -74 -19t-78 -7q-98 0 -185 41.5z" />
    <glyph glyph-name="Gbreve" unicode="&#x11e;" horiz-adv-x="796" 
d="M233 30.5q-87 41.5 -140 120t-53 184.5q0 99 50 178.5t136 124.5t189 45q56 0 91.5 -8.5t70.5 -22.5q23 -9 36.5 -13t29.5 -4q15 0 35 5l4 -3q-1 -4 -4 -17.5t-3 -25.5q0 -54 9 -89.5t9 -36.5h-34q-32 87 -93 134t-146 47q-70 0 -122 -41.5t-79.5 -113t-27.5 -159.5
q0 -139 58.5 -225t183.5 -86q34 0 67.5 8.5t63.5 34.5v150q0 31 -10 41t-45 18l-51 11v22h333v-22l-35 -7q-35 -8 -44.5 -19t-9.5 -42v-189l-3 -2q-11 3 -20.5 4.5t-24.5 1.5q-16 0 -38 -6t-46 -13q-39 -12 -74 -19t-78 -7q-98 0 -185 41.5zM303 763q-43 46 -44 119h35
q4 -40 38.5 -66.5t81.5 -26.5t81 26.5t39 66.5h35q-1 -74 -43.5 -119.5t-111.5 -45.5q-68 0 -111 46z" />
    <glyph glyph-name="uni0122" unicode="&#x122;" horiz-adv-x="796" 
d="M233 30.5q-87 41.5 -140 120t-53 184.5q0 99 50 178.5t136 124.5t189 45q56 0 91.5 -8.5t70.5 -22.5q23 -9 36.5 -13t29.5 -4q15 0 35 5l4 -3q-1 -4 -4 -17.5t-3 -25.5q0 -54 9 -89.5t9 -36.5h-34q-32 87 -93 134t-146 47q-70 0 -122 -41.5t-79.5 -113t-27.5 -159.5
q0 -139 58.5 -225t183.5 -86q34 0 67.5 8.5t63.5 34.5v150q0 31 -10 41t-45 18l-51 11v22h333v-22l-35 -7q-35 -8 -44.5 -19t-9.5 -42v-189l-3 -2q-11 3 -20.5 4.5t-24.5 1.5q-16 0 -38 -6t-46 -13q-39 -12 -74 -19t-78 -7q-98 0 -185 41.5zM336 -215q32 3 52 20t20 41
q0 17 -19 31t-51 15h-10v27q27 12 43.5 24.5t32.5 33.5q48 -9 78.5 -35t30.5 -60q0 -55 -47.5 -91t-129.5 -40v34z" />
    <glyph glyph-name="Gdotaccent" unicode="&#x120;" horiz-adv-x="796" 
d="M233 30.5q-87 41.5 -140 120t-53 184.5q0 99 50 178.5t136 124.5t189 45q56 0 91.5 -8.5t70.5 -22.5q23 -9 36.5 -13t29.5 -4q15 0 35 5l4 -3q-1 -4 -4 -17.5t-3 -25.5q0 -54 9 -89.5t9 -36.5h-34q-32 87 -93 134t-146 47q-70 0 -122 -41.5t-79.5 -113t-27.5 -159.5
q0 -139 58.5 -225t183.5 -86q34 0 67.5 8.5t63.5 34.5v150q0 31 -10 41t-45 18l-51 11v22h333v-22l-35 -7q-35 -8 -44.5 -19t-9.5 -42v-189l-3 -2q-11 3 -20.5 4.5t-24.5 1.5q-16 0 -38 -6t-46 -13q-39 -12 -74 -19t-78 -7q-98 0 -185 41.5zM362.5 742q-21.5 21 -21.5 52
t21.5 52t51.5 21q31 0 52.5 -21t21.5 -52t-21.5 -52t-52.5 -21q-30 0 -51.5 21z" />
    <glyph glyph-name="H" unicode="H" horiz-adv-x="874" 
d="M757 629.5q-11 -5.5 -15 -16t-4 -32.5v-489q0 -22 4 -32.5t15 -16t36 -10.5l51 -11v-22h-350v22l52 11q24 5 35 10.5t15 16t4 32.5v249h-326v-249q0 -22 4 -32.5t15 -16t36 -10.5l51 -11v-22h-350v22l52 11q24 5 35 10.5t15 16t4 32.5v489q0 22 -4 32.5t-15 16t-35 10.5
l-52 11v22h350v-22l-51 -11q-25 -5 -36 -10.5t-15 -16t-4 -32.5v-207h326v207q0 22 -4 32.5t-15 16t-35 10.5l-52 11v22h350v-22l-51 -11q-25 -5 -36 -10.5z" />
    <glyph glyph-name="Hbar" unicode="&#x126;" horiz-adv-x="874" 
d="M757 629.5q-11 -5.5 -15 -16t-4 -32.5v-48h71v-55h-71v-386q0 -22 4 -32.5t15 -16t36 -10.5l51 -11v-22h-350v22l52 11q24 5 35 10.5t15 16t4 32.5v249h-326v-249q0 -22 4 -32.5t15 -16t36 -10.5l51 -11v-22h-350v22l52 11q24 5 35 10.5t15 16t4 32.5v386h-71v55h71v48
q0 22 -4 32.5t-15 16t-35 10.5l-52 11v22h350v-22l-51 -11q-25 -5 -36 -10.5t-15 -16t-4 -32.5v-48h326v48q0 22 -4 32.5t-15 16t-35 10.5l-52 11v22h350v-22l-51 -11q-25 -5 -36 -10.5zM600 478h-326v-104h326v104z" />
    <glyph glyph-name="I" unicode="I" horiz-adv-x="410" 
d="M30 22l52 11q24 5 35 10.5t15 16t4 32.5v489q0 22 -4 32.5t-15 16t-35 10.5l-52 11v22h350v-22l-51 -11q-25 -5 -36 -10.5t-15 -16t-4 -32.5v-489q0 -22 4 -32.5t15 -16t36 -10.5l51 -11v-22h-350v22z" />
    <glyph glyph-name="Iacute" unicode="&#xcd;" horiz-adv-x="410" 
d="M30 22l52 11q24 5 35 10.5t15 16t4 32.5v489q0 22 -4 32.5t-15 16t-35 10.5l-52 11v22h350v-22l-51 -11q-25 -5 -36 -10.5t-15 -16t-4 -32.5v-489q0 -22 4 -32.5t15 -16t36 -10.5l51 -11v-22h-350v22zM132 754l159 103q17 11 32 11q10 0 18 -4q14 -6 21 -16.5t7 -22.5
q0 -8 -3 -16q-10 -24 -38 -30l-185 -47z" />
    <glyph glyph-name="Icircumflex" unicode="&#xce;" horiz-adv-x="410" 
d="M30 22l52 11q24 5 35 10.5t15 16t4 32.5v489q0 22 -4 32.5t-15 16t-35 10.5l-52 11v22h350v-22l-51 -11q-25 -5 -36 -10.5t-15 -16t-4 -32.5v-489q0 -22 4 -32.5t15 -16t36 -10.5l51 -11v-22h-350v22zM226 876l134 -144l-14 -21l-141 75l-140 -75l-15 21l135 144h41z" />
    <glyph glyph-name="Idieresis" unicode="&#xcf;" horiz-adv-x="410" 
d="M30 22l52 11q24 5 35 10.5t15 16t4 32.5v489q0 22 -4 32.5t-15 16t-35 10.5l-52 11v22h350v-22l-51 -11q-25 -5 -36 -10.5t-15 -16t-4 -32.5v-489q0 -22 4 -32.5t15 -16t36 -10.5l51 -11v-22h-350v22zM48.5 753.5q-19.5 19.5 -19.5 45.5q0 27 19.5 46t46.5 19
q26 0 45.5 -19.5t19.5 -45.5q0 -27 -19.5 -46t-45.5 -19q-27 0 -46.5 19.5zM269.5 753.5q-19.5 19.5 -19.5 45.5q0 27 19.5 46t46.5 19q26 0 45.5 -19.5t19.5 -45.5q0 -27 -19.5 -46t-45.5 -19q-27 0 -46.5 19.5z" />
    <glyph glyph-name="Idotaccent" unicode="&#x130;" horiz-adv-x="410" 
d="M30 22l52 11q24 5 35 10.5t15 16t4 32.5v489q0 22 -4 32.5t-15 16t-35 10.5l-52 11v22h350v-22l-51 -11q-25 -5 -36 -10.5t-15 -16t-4 -32.5v-489q0 -22 4 -32.5t15 -16t36 -10.5l51 -11v-22h-350v22zM153.5 742q-21.5 21 -21.5 52t21.5 52t51.5 21q31 0 52.5 -21
t21.5 -52t-21.5 -52t-52.5 -21q-30 0 -51.5 21z" />
    <glyph glyph-name="Igrave" unicode="&#xcc;" horiz-adv-x="410" 
d="M30 22l52 11q24 5 35 10.5t15 16t4 32.5v489q0 22 -4 32.5t-15 16t-35 10.5l-52 11v22h350v-22l-51 -11q-25 -5 -36 -10.5t-15 -16t-4 -32.5v-489q0 -22 4 -32.5t15 -16t36 -10.5l51 -11v-22h-350v22zM107 779q-14 3 -23.5 11t-13.5 19q-3 8 -3 16q0 13 7 23.5t20 15.5
q9 4 19 4q14 0 31 -11l160 -103l-11 -22z" />
    <glyph glyph-name="Imacron" unicode="&#x12a;" horiz-adv-x="410" 
d="M30 22l52 11q24 5 35 10.5t15 16t4 32.5v489q0 22 -4 32.5t-15 16t-35 10.5l-52 11v22h350v-22l-51 -11q-25 -5 -36 -10.5t-15 -16t-4 -32.5v-489q0 -22 4 -32.5t15 -16t36 -10.5l51 -11v-22h-350v22zM39 837h334v-55h-334v55z" />
    <glyph glyph-name="Iogonek" unicode="&#x12e;" horiz-adv-x="410" 
d="M293 629.5q-11 -5.5 -15 -16t-4 -32.5v-489q0 -22 4 -32.5t15 -16t36 -10.5l51 -11v-22h-118q-30 -12 -53.5 -37.5t-23.5 -58.5q0 -36 13.5 -53t36.5 -17q30 0 71 30l19 -22q-29 -31 -62.5 -50t-61.5 -19q-32 0 -61 17.5t-46.5 45.5t-17.5 59q0 30 37 58t88 47h-171v22
l52 11q24 5 35 10.5t15 16t4 32.5v489q0 22 -4 32.5t-15 16t-35 10.5l-52 11v22h350v-22l-51 -11q-25 -5 -36 -10.5z" />
    <glyph glyph-name="J" unicode="J" horiz-adv-x="443" 
d="M29.5 -185.5q-29.5 16.5 -47 42t-17.5 49.5q0 39 22.5 61t52.5 22q37 0 55 -19.5t18 -49.5q0 -24 -18 -43.5t-42 -19.5q-7 0 -7 -5q0 -6 13 -12t30 -6q41 0 65.5 27.5t24.5 87.5v632q0 22 -4 32.5t-15 16t-36 10.5l-51 11v22h350v-22l-52 -11q-24 -5 -35 -10.5t-15 -16
t-4 -32.5v-647h-9q-13 0 -21.5 -8.5t-16 -20.5t-11.5 -17q-26 -43 -63.5 -66.5t-102.5 -23.5q-34 0 -63.5 16.5z" />
    <glyph glyph-name="Jcircumflex" unicode="&#x134;" horiz-adv-x="443" 
d="M29.5 -185.5q-29.5 16.5 -47 42t-17.5 49.5q0 39 22.5 61t52.5 22q37 0 55 -19.5t18 -49.5q0 -24 -18 -43.5t-42 -19.5q-7 0 -7 -5q0 -6 13 -12t30 -6q41 0 65.5 27.5t24.5 87.5v632q0 22 -4 32.5t-15 16t-36 10.5l-51 11v22h350v-22l-52 -11q-24 -5 -35 -10.5t-15 -16
t-4 -32.5v-647h-9q-13 0 -21.5 -8.5t-16 -20.5t-11.5 -17q-26 -43 -63.5 -66.5t-102.5 -23.5q-34 0 -63.5 16.5zM266 876l134 -144l-14 -21l-141 75l-140 -75l-15 21l135 144h41z" />
    <glyph glyph-name="K" unicode="K" horiz-adv-x="770" 
d="M30 22l52 11q24 5 35 10.5t15 16t4 32.5v489q0 22 -4 32.5t-15 16t-35 10.5l-52 11v22h350v-22l-51 -11q-25 -5 -36 -10.5t-15 -16t-4 -32.5v-266l293 282q11 11 11 20q0 15 -25 19l-78 15v22h269v-22l-31 -7q-31 -7 -53.5 -19.5t-53.5 -43.5l-188 -181l260 -336
q20 -22 38 -31.5t44 -9.5v-23h-119q-42 0 -70 11.5t-54 39.5l-199 253l-44 -43v-169q0 -22 4 -32.5t15 -16t36 -10.5l51 -11v-22h-350v22z" />
    <glyph glyph-name="uni0136" unicode="&#x136;" horiz-adv-x="770" 
d="M30 22l52 11q24 5 35 10.5t15 16t4 32.5v489q0 22 -4 32.5t-15 16t-35 10.5l-52 11v22h350v-22l-51 -11q-25 -5 -36 -10.5t-15 -16t-4 -32.5v-266l293 282q11 11 11 20q0 15 -25 19l-78 15v22h269v-22l-31 -7q-31 -7 -53.5 -19.5t-53.5 -43.5l-188 -181l260 -336
q20 -22 38 -31.5t44 -9.5v-23h-119q-42 0 -70 11.5t-54 39.5l-199 253l-44 -43v-169q0 -22 4 -32.5t15 -16t36 -10.5l51 -11v-22h-350v22zM355 -215q32 3 52 20t20 41q0 17 -19 31t-51 15h-10v27q27 12 43.5 24.5t32.5 33.5q48 -9 78.5 -35t30.5 -60q0 -55 -47.5 -91
t-129.5 -40v34z" />
    <glyph glyph-name="L" unicode="L" horiz-adv-x="701" 
d="M30 22l52 11q24 5 35 10.5t15 16t4 32.5v489q0 22 -4 32.5t-15 16t-35 10.5l-52 11v22h350v-22l-51 -11q-25 -5 -36 -10.5t-15 -16t-4 -32.5v-489q0 -29 15.5 -44t54.5 -15h126q56 0 93.5 21.5t64.5 65.5l46 76h22q-29 -122 -29 -196h-637v22z" />
    <glyph glyph-name="Lacute" unicode="&#x139;" horiz-adv-x="701" 
d="M30 22l52 11q24 5 35 10.5t15 16t4 32.5v489q0 22 -4 32.5t-15 16t-35 10.5l-52 11v22h350v-22l-51 -11q-25 -5 -36 -10.5t-15 -16t-4 -32.5v-489q0 -29 15.5 -44t54.5 -15h126q56 0 93.5 21.5t64.5 65.5l46 76h22q-29 -122 -29 -196h-637v22zM137 754l159 103
q17 11 32 11q10 0 18 -4q14 -6 21 -16.5t7 -22.5q0 -8 -3 -16q-10 -24 -38 -30l-185 -47z" />
    <glyph glyph-name="Lcaron" unicode="&#x13d;" horiz-adv-x="701" 
d="M30 22l52 11q24 5 35 10.5t15 16t4 32.5v489q0 22 -4 32.5t-15 16t-35 10.5l-52 11v22h350v-22l-51 -11q-25 -5 -36 -10.5t-15 -16t-4 -32.5v-489q0 -29 15.5 -44t54.5 -15h126q56 0 93.5 21.5t64.5 65.5l46 76h22q-29 -122 -29 -196h-637v22zM483 479l31 188
q10 45 49 45q18 0 29.5 -12t11.5 -30q0 -14 -8 -29l-89 -168z" />
    <glyph glyph-name="uni013B" unicode="&#x13b;" horiz-adv-x="701" 
d="M30 22l52 11q24 5 35 10.5t15 16t4 32.5v489q0 22 -4 32.5t-15 16t-35 10.5l-52 11v22h350v-22l-51 -11q-25 -5 -36 -10.5t-15 -16t-4 -32.5v-489q0 -29 15.5 -44t54.5 -15h126q56 0 93.5 21.5t64.5 65.5l46 76h22q-29 -122 -29 -196h-637v22zM286 -215q32 3 52 20t20 41
q0 17 -19 31t-51 15h-10v27q27 12 43.5 24.5t32.5 33.5q48 -9 78.5 -35t30.5 -60q0 -55 -47.5 -91t-129.5 -40v34z" />
    <glyph glyph-name="Lslash" unicode="&#x141;" horiz-adv-x="701" 
d="M696 196q-29 -122 -29 -196h-637v22l52 11q24 5 35 10.5t15 16t4 32.5v144l-106 -34v57l106 33v289q0 22 -4 32.5t-15 16t-35 10.5l-52 11v22h350v-22l-51 -11q-25 -5 -36 -10.5t-15 -16t-4 -32.5v-245l288 91v-56l-288 -91v-188q0 -29 15.5 -44t54.5 -15h126
q56 0 93.5 21.5t64.5 65.5l46 76h22z" />
    <glyph glyph-name="M" unicode="M" horiz-adv-x="991" 
d="M207 538l-29 -446q-1 -24 12.5 -37t42.5 -18l72 -15v-22h-275v22l58 13q29 6 41.5 18.5t13.5 38.5l29 489q2 31 -8 41t-46 18l-51 11v22l234 -1l211 -465l188 466h241v-22l-52 -11q-36 -8 -45.5 -18t-8.5 -41l20 -489q1 -22 5 -32.5t14.5 -16t34.5 -10.5l52 -11v-22h-349
v22l52 11q35 8 44.5 18t8.5 40l-22 468l-227 -565h-15z" />
    <glyph glyph-name="N" unicode="N" horiz-adv-x="832" 
d="M179 546v-454q0 -24 13 -37t41 -18l73 -15v-22h-276v22l59 13q29 6 41.5 18.5t12.5 38.5v489q0 22 -4 32.5t-15 16t-36 10.5l-51 11v22h210l421 -464v372q0 24 -13 37t-41 18l-73 15v22h276v-22l-59 -13q-28 -6 -41 -18.5t-13 -38.5v-598h-17z" />
    <glyph glyph-name="Nacute" unicode="&#x143;" horiz-adv-x="832" 
d="M179 546v-454q0 -24 13 -37t41 -18l73 -15v-22h-276v22l59 13q29 6 41.5 18.5t12.5 38.5v489q0 22 -4 32.5t-15 16t-36 10.5l-51 11v22h210l421 -464v372q0 24 -13 37t-41 18l-73 15v22h276v-22l-59 -13q-28 -6 -41 -18.5t-13 -38.5v-598h-17zM344 754l159 103
q17 11 32 11q10 0 18 -4q14 -6 21 -16.5t7 -22.5q0 -8 -3 -16q-10 -24 -38 -30l-185 -47z" />
    <glyph glyph-name="Ncaron" unicode="&#x147;" horiz-adv-x="832" 
d="M179 546v-454q0 -24 13 -37t41 -18l73 -15v-22h-276v22l59 13q29 6 41.5 18.5t12.5 38.5v489q0 22 -4 32.5t-15 16t-36 10.5l-51 11v22h210l421 -464v372q0 24 -13 37t-41 18l-73 15v22h276v-22l-59 -13q-28 -6 -41 -18.5t-13 -38.5v-598h-17zM262 855l15 21l140 -75
l141 75l14 -21l-134 -144h-41z" />
    <glyph glyph-name="uni0145" unicode="&#x145;" horiz-adv-x="832" 
d="M179 546v-454q0 -24 13 -37t41 -18l73 -15v-22h-276v22l59 13q29 6 41.5 18.5t12.5 38.5v489q0 22 -4 32.5t-15 16t-36 10.5l-51 11v22h210l421 -464v372q0 24 -13 37t-41 18l-73 15v22h276v-22l-59 -13q-28 -6 -41 -18.5t-13 -38.5v-598h-17zM360 -215q32 3 52 20t20 41
q0 17 -19 31t-51 15h-10v27q27 12 43.5 24.5t32.5 33.5q48 -9 78.5 -35t30.5 -60q0 -55 -47.5 -91t-129.5 -40v34z" />
    <glyph glyph-name="Eng" unicode="&#x14a;" horiz-adv-x="837" 
d="M515 -211.5q-29 16.5 -44.5 41.5t-15.5 50q0 39 23 61t55 22q35 0 52.5 -20t17.5 -49q0 -25 -17.5 -44t-42.5 -19q-7 0 -7 -5q0 -6 13 -12t30 -6q41 0 65 27.5t24 87.5v81l-489 542v-454q0 -24 13 -37t41 -18l73 -15v-22h-276v22l59 13q29 6 41.5 18.5t12.5 38.5v489
q0 22 -4 32.5t-15 16t-36 10.5l-51 11v22h210l421 -465v373q0 24 -13 37t-41 18l-73 15v22h276v-22l-59 -13q-28 -6 -41 -18.5t-13 -38.5v-737q-7 0 -12 -5.5t-16 -20.5q-16 -21 -37 -33.5t-58 -12.5t-66 16.5z" />
    <glyph glyph-name="Ntilde" unicode="&#xd1;" horiz-adv-x="832" 
d="M179 546v-454q0 -24 13 -37t41 -18l73 -15v-22h-276v22l59 13q29 6 41.5 18.5t12.5 38.5v489q0 22 -4 32.5t-15 16t-36 10.5l-51 11v22h210l421 -464v372q0 24 -13 37t-41 18l-73 15v22h276v-22l-59 -13q-28 -6 -41 -18.5t-13 -38.5v-598h-17zM105 732h11q37 0 56 3.5
t28 11.5t14 24q9 31 37 59.5t71.5 46.5t95.5 18q51 0 94 -17.5t71.5 -46t38.5 -59.5q5 -17 14 -25.5t27.5 -11.5t56.5 -3h10v-14h-127q-1 24 -24.5 48t-65.5 39.5t-95 15.5t-95 -15.5t-65.5 -39.5t-24.5 -48h-128v14z" />
    <glyph glyph-name="O" unicode="O" horiz-adv-x="796" 
d="M214 34.5q-82 45.5 -128 123.5t-46 171q0 100 46 181t127.5 127t183.5 46t184 -45.5t128.5 -124t46.5 -171.5q0 -100 -46 -180.5t-128 -126.5t-185 -46q-101 0 -183 45.5zM506.5 63q47.5 39 73 110.5t25.5 167.5q0 90 -26 160t-73 108.5t-109 38.5q-61 0 -107.5 -39
t-72.5 -111.5t-26 -168.5q0 -89 26 -158.5t72.5 -108t107.5 -38.5q62 0 109.5 39z" />
    <glyph glyph-name="Oacute" unicode="&#xd3;" horiz-adv-x="796" 
d="M214 34.5q-82 45.5 -128 123.5t-46 171q0 100 46 181t127.5 127t183.5 46t184 -45.5t128.5 -124t46.5 -171.5q0 -100 -46 -180.5t-128 -126.5t-185 -46q-101 0 -183 45.5zM506.5 63q47.5 39 73 110.5t25.5 167.5q0 90 -26 160t-73 108.5t-109 38.5q-61 0 -107.5 -39
t-72.5 -111.5t-26 -168.5q0 -89 26 -158.5t72.5 -108t107.5 -38.5q62 0 109.5 39zM324 754l159 103q17 11 32 11q10 0 18 -4q14 -6 21 -16.5t7 -22.5q0 -8 -3 -16q-10 -24 -38 -30l-185 -47z" />
    <glyph glyph-name="Ocircumflex" unicode="&#xd4;" horiz-adv-x="796" 
d="M214 34.5q-82 45.5 -128 123.5t-46 171q0 100 46 181t127.5 127t183.5 46t184 -45.5t128.5 -124t46.5 -171.5q0 -100 -46 -180.5t-128 -126.5t-185 -46q-101 0 -183 45.5zM506.5 63q47.5 39 73 110.5t25.5 167.5q0 90 -26 160t-73 108.5t-109 38.5q-61 0 -107.5 -39
t-72.5 -111.5t-26 -168.5q0 -89 26 -158.5t72.5 -108t107.5 -38.5q62 0 109.5 39zM418 876l134 -144l-14 -21l-141 75l-140 -75l-15 21l135 144h41z" />
    <glyph glyph-name="Odieresis" unicode="&#xd6;" horiz-adv-x="796" 
d="M214 34.5q-82 45.5 -128 123.5t-46 171q0 100 46 181t127.5 127t183.5 46t184 -45.5t128.5 -124t46.5 -171.5q0 -100 -46 -180.5t-128 -126.5t-185 -46q-101 0 -183 45.5zM506.5 63q47.5 39 73 110.5t25.5 167.5q0 90 -26 160t-73 108.5t-109 38.5q-61 0 -107.5 -39
t-72.5 -111.5t-26 -168.5q0 -89 26 -158.5t72.5 -108t107.5 -38.5q62 0 109.5 39zM240.5 753.5q-19.5 19.5 -19.5 45.5q0 27 19.5 46t46.5 19q26 0 45.5 -19.5t19.5 -45.5q0 -27 -19.5 -46t-45.5 -19q-27 0 -46.5 19.5zM461.5 753.5q-19.5 19.5 -19.5 45.5q0 27 19.5 46
t46.5 19q26 0 45.5 -19.5t19.5 -45.5q0 -27 -19.5 -46t-45.5 -19q-27 0 -46.5 19.5z" />
    <glyph glyph-name="Ograve" unicode="&#xd2;" horiz-adv-x="796" 
d="M214 34.5q-82 45.5 -128 123.5t-46 171q0 100 46 181t127.5 127t183.5 46t184 -45.5t128.5 -124t46.5 -171.5q0 -100 -46 -180.5t-128 -126.5t-185 -46q-101 0 -183 45.5zM506.5 63q47.5 39 73 110.5t25.5 167.5q0 90 -26 160t-73 108.5t-109 38.5q-61 0 -107.5 -39
t-72.5 -111.5t-26 -168.5q0 -89 26 -158.5t72.5 -108t107.5 -38.5q62 0 109.5 39zM299 779q-14 3 -23.5 11t-13.5 19q-3 8 -3 16q0 13 7 23.5t20 15.5q9 4 19 4q14 0 31 -11l160 -103l-11 -22z" />
    <glyph glyph-name="Ohungarumlaut" unicode="&#x150;" horiz-adv-x="796" 
d="M214 34.5q-82 45.5 -128 123.5t-46 171q0 100 46 181t127.5 127t183.5 46t184 -45.5t128.5 -124t46.5 -171.5q0 -100 -46 -180.5t-128 -126.5t-185 -46q-101 0 -183 45.5zM506.5 63q47.5 39 73 110.5t25.5 167.5q0 90 -26 160t-73 108.5t-109 38.5q-61 0 -107.5 -39
t-72.5 -111.5t-26 -168.5q0 -89 26 -158.5t72.5 -108t107.5 -38.5q62 0 109.5 39zM200 727l148 118q17 15 35 15q21 0 33.5 -12.5t12.5 -30.5q0 -3 -2 -11q-9 -26 -35 -34l-179 -66zM423 727l148 118q18 15 36 15q21 0 33 -12.5t12 -30.5q0 -14 -9.5 -26.5t-26.5 -18.5
l-180 -66z" />
    <glyph glyph-name="Omacron" unicode="&#x14c;" horiz-adv-x="796" 
d="M214 34.5q-82 45.5 -128 123.5t-46 171q0 100 46 181t127.5 127t183.5 46t184 -45.5t128.5 -124t46.5 -171.5q0 -100 -46 -180.5t-128 -126.5t-185 -46q-101 0 -183 45.5zM506.5 63q47.5 39 73 110.5t25.5 167.5q0 90 -26 160t-73 108.5t-109 38.5q-61 0 -107.5 -39
t-72.5 -111.5t-26 -168.5q0 -89 26 -158.5t72.5 -108t107.5 -38.5q62 0 109.5 39zM231 837h334v-55h-334v55z" />
    <glyph glyph-name="Oslash" unicode="&#xd8;" horiz-adv-x="796" 
d="M674 563q39 -45 60.5 -102t21.5 -119q0 -100 -46 -180.5t-128 -126.5t-185 -46q-68 0 -127 21t-107 59l-84 -82l-38 39l83 80q-40 46 -62 103t-22 120q0 100 46 181t127.5 127t183.5 46q69 0 129 -21t108 -60l85 82l38 -40zM210 190l355 344q-27 55 -70.5 84.5
t-97.5 29.5q-61 0 -107.5 -39t-72.5 -111.5t-26 -168.5q0 -74 19 -139zM587 479l-355 -343q27 -53 69.5 -82.5t95.5 -29.5q62 0 109.5 39t73 110.5t25.5 167.5q0 77 -18 138z" />
    <glyph glyph-name="Otilde" unicode="&#xd5;" horiz-adv-x="796" 
d="M214 34.5q-82 45.5 -128 123.5t-46 171q0 100 46 181t127.5 127t183.5 46t184 -45.5t128.5 -124t46.5 -171.5q0 -100 -46 -180.5t-128 -126.5t-185 -46q-101 0 -183 45.5zM506.5 63q47.5 39 73 110.5t25.5 167.5q0 90 -26 160t-73 108.5t-109 38.5q-61 0 -107.5 -39
t-72.5 -111.5t-26 -168.5q0 -89 26 -158.5t72.5 -108t107.5 -38.5q62 0 109.5 39zM85 732h11q37 0 56 3.5t28 11.5t14 24q9 31 37 59.5t71.5 46.5t95.5 18q51 0 94 -17.5t71.5 -46t38.5 -59.5q5 -17 14 -25.5t27.5 -11.5t56.5 -3h10v-14h-127q-1 24 -24.5 48t-65.5 39.5
t-95 15.5t-95 -15.5t-65.5 -39.5t-24.5 -48h-128v14z" />
    <glyph glyph-name="OE" unicode="&#x152;" horiz-adv-x="1092" 
d="M1037 0h-545q-47 -11 -95 -11q-101 0 -183 45.5t-128 123.5t-46 171q0 100 46 181t127.5 127t183.5 46q50 0 90 -10h538q-5 -24 -5 -55q0 -35 6.5 -73.5t8.5 -48.5h-22q-27 64 -73 104t-110 40h-134v-268h129q48 0 70.5 19t28.5 57l8 46h22v-277h-22l-9 48
q-6 37 -28 55.5t-68 18.5h-131v-221q0 -36 3.5 -52t18 -24.5t47.5 -8.5h75q52 0 89.5 22t67.5 65l43 60h22q-25 -98 -25 -180zM217 170.5q26 -69.5 72.5 -108t107.5 -38.5q51 0 92.5 27t68.5 77v418q-27 49 -68.5 75.5t-92.5 26.5q-61 0 -107.5 -39t-72.5 -111.5t-26 -168.5
q0 -89 26 -158.5z" />
    <glyph glyph-name="P" unicode="P" horiz-adv-x="658" 
d="M30 22l52 11q24 5 35 10.5t15 16t4 32.5v489q0 22 -4 32.5t-15 16t-36 10.5l-51 11v22h313q89 0 154.5 -26t100.5 -72t35 -107q0 -65 -37.5 -110t-95 -67.5t-116.5 -22.5q-35 0 -60 7l-1 7q77 5 124 48t47 135q0 91 -47 133t-135 42h-38v-548q0 -32 10 -42.5t45 -16.5
l60 -11v-22h-359v22z" />
    <glyph glyph-name="Thorn" unicode="&#xde;" horiz-adv-x="648" 
d="M30 22l52 11q24 5 35 10.5t15 16t4 32.5v489q0 22 -4 32.5t-15 16t-35 10.5l-52 11v22h350v-22l-51 -11q-25 -5 -36 -10.5t-15 -16t-4 -32.5v-33h69q89 0 154.5 -26t100.5 -72t35 -107q0 -65 -37.5 -110.5t-95 -68t-115.5 -22.5q-32 0 -61 8l-1 7q77 5 124 48t47 135
q0 91 -47 133t-135 42h-38v-423q0 -32 10 -42.5t45 -16.5l60 -11v-22h-359v22z" />
    <glyph glyph-name="Q" unicode="Q" horiz-adv-x="799" 
d="M726 -150q-114 0 -208 34.5t-171 107.5q-89 11 -159 58t-109 120t-39 159q0 100 46 181t127.5 127t183.5 46t184 -45.5t128.5 -124t46.5 -171.5q0 -114 -59.5 -201.5t-160.5 -126.5q26 -32 83 -62t127 -48.5t132 -18.5l7 -20q-74 -15 -159 -15zM217 170.5
q26 -69.5 72.5 -108t107.5 -38.5q62 0 109.5 39t73 110.5t25.5 167.5q0 90 -26 160t-73 108.5t-109 38.5q-61 0 -107.5 -39t-72.5 -111.5t-26 -168.5q0 -89 26 -158.5z" />
    <glyph glyph-name="R" unicode="R" horiz-adv-x="791" 
d="M589.5 20q-53.5 35 -106.5 114l-17 25q-30 45 -51.5 72t-50.5 45t-66 18h-24v-202q0 -22 4 -32.5t15 -16t36 -10.5l51 -11v-22h-350v22l52 11q24 5 35 10.5t15 16t4 32.5v489q0 22 -4 32.5t-15 16t-35 10.5l-52 11v22h280q150 0 234 -48t84 -136q0 -45 -28 -82.5t-75 -61
t-103 -29.5v-2q62 -3 107 -42.5t95 -112.5q47 -68 84.5 -104t77.5 -36v-24q-39 -10 -78 -10q-65 0 -118.5 35zM310 327q77 0 127.5 39t50.5 113q0 78 -50 119.5t-141 41.5h-23v-313h36z" />
    <glyph glyph-name="Racute" unicode="&#x154;" horiz-adv-x="791" 
d="M589.5 20q-53.5 35 -106.5 114l-17 25q-30 45 -51.5 72t-50.5 45t-66 18h-24v-202q0 -22 4 -32.5t15 -16t36 -10.5l51 -11v-22h-350v22l52 11q24 5 35 10.5t15 16t4 32.5v489q0 22 -4 32.5t-15 16t-35 10.5l-52 11v22h280q150 0 234 -48t84 -136q0 -45 -28 -82.5t-75 -61
t-103 -29.5v-2q62 -3 107 -42.5t95 -112.5q47 -68 84.5 -104t77.5 -36v-24q-39 -10 -78 -10q-65 0 -118.5 35zM310 327q77 0 127.5 39t50.5 113q0 78 -50 119.5t-141 41.5h-23v-313h36zM266 754l159 103q17 11 32 11q10 0 18 -4q14 -6 21 -16.5t7 -22.5q0 -8 -3 -16
q-10 -24 -38 -30l-185 -47z" />
    <glyph glyph-name="Rcaron" unicode="&#x158;" horiz-adv-x="791" 
d="M589.5 20q-53.5 35 -106.5 114l-17 25q-30 45 -51.5 72t-50.5 45t-66 18h-24v-202q0 -22 4 -32.5t15 -16t36 -10.5l51 -11v-22h-350v22l52 11q24 5 35 10.5t15 16t4 32.5v489q0 22 -4 32.5t-15 16t-35 10.5l-52 11v22h280q150 0 234 -48t84 -136q0 -45 -28 -82.5t-75 -61
t-103 -29.5v-2q62 -3 107 -42.5t95 -112.5q47 -68 84.5 -104t77.5 -36v-24q-39 -10 -78 -10q-65 0 -118.5 35zM310 327q77 0 127.5 39t50.5 113q0 78 -50 119.5t-141 41.5h-23v-313h36zM184 855l15 21l140 -75l141 75l14 -21l-134 -144h-41z" />
    <glyph glyph-name="uni0156" unicode="&#x156;" horiz-adv-x="791" 
d="M589.5 20q-53.5 35 -106.5 114l-17 25q-30 45 -51.5 72t-50.5 45t-66 18h-24v-202q0 -22 4 -32.5t15 -16t36 -10.5l51 -11v-22h-350v22l52 11q24 5 35 10.5t15 16t4 32.5v489q0 22 -4 32.5t-15 16t-35 10.5l-52 11v22h280q150 0 234 -48t84 -136q0 -45 -28 -82.5t-75 -61
t-103 -29.5v-2q62 -3 107 -42.5t95 -112.5q47 -68 84.5 -104t77.5 -36v-24q-39 -10 -78 -10q-65 0 -118.5 35zM310 327q77 0 127.5 39t50.5 113q0 78 -50 119.5t-141 41.5h-23v-313h36zM341 -215q32 3 52 20t20 41q0 17 -19 31t-51 15h-10v27q27 12 43.5 24.5t32.5 33.5
q48 -9 78.5 -35t30.5 -60q0 -55 -47.5 -91t-129.5 -40v34z" />
    <glyph glyph-name="S" unicode="S" horiz-adv-x="582" 
d="M165.5 6.5q-59.5 17.5 -110.5 43.5q8 42 8 82q0 55 -13 104h35q8 -96 64.5 -155t151.5 -59q52 0 93 29.5t41 87.5q0 37 -15.5 61t-53.5 44t-113 46q-97 33 -142 77t-45 120q0 53 26 97.5t77 71.5t122 27q35 0 60 -7t48 -18q5 -2 16.5 -7.5t20 -8t16.5 -2.5l31 6l3 -2
q-4 -19 -4 -50q0 -53 9 -89.5t9 -37.5h-26q-24 86 -72.5 134.5t-112.5 48.5q-56 0 -89.5 -34t-33.5 -80q0 -36 13 -57.5t47.5 -39t107.5 -41.5q74 -25 116 -52.5t60 -63t18 -86.5q0 -62 -28.5 -109t-80 -72.5t-119.5 -25.5q-75 0 -134.5 17.5z" />
    <glyph glyph-name="Sacute" unicode="&#x15a;" horiz-adv-x="582" 
d="M165.5 6.5q-59.5 17.5 -110.5 43.5q8 42 8 82q0 55 -13 104h35q8 -96 64.5 -155t151.5 -59q52 0 93 29.5t41 87.5q0 37 -15.5 61t-53.5 44t-113 46q-97 33 -142 77t-45 120q0 53 26 97.5t77 71.5t122 27q35 0 60 -7t48 -18q5 -2 16.5 -7.5t20 -8t16.5 -2.5l31 6l3 -2
q-4 -19 -4 -50q0 -53 9 -89.5t9 -37.5h-26q-24 86 -72.5 134.5t-112.5 48.5q-56 0 -89.5 -34t-33.5 -80q0 -36 13 -57.5t47.5 -39t107.5 -41.5q74 -25 116 -52.5t60 -63t18 -86.5q0 -62 -28.5 -109t-80 -72.5t-119.5 -25.5q-75 0 -134.5 17.5zM217 754l159 103q17 11 32 11
q10 0 18 -4q14 -6 21 -16.5t7 -22.5q0 -8 -3 -16q-10 -24 -38 -30l-185 -47z" />
    <glyph glyph-name="Scaron" unicode="&#x160;" horiz-adv-x="582" 
d="M165.5 6.5q-59.5 17.5 -110.5 43.5q8 42 8 82q0 55 -13 104h35q8 -96 64.5 -155t151.5 -59q52 0 93 29.5t41 87.5q0 37 -15.5 61t-53.5 44t-113 46q-97 33 -142 77t-45 120q0 53 26 97.5t77 71.5t122 27q35 0 60 -7t48 -18q5 -2 16.5 -7.5t20 -8t16.5 -2.5l31 6l3 -2
q-4 -19 -4 -50q0 -53 9 -89.5t9 -37.5h-26q-24 86 -72.5 134.5t-112.5 48.5q-56 0 -89.5 -34t-33.5 -80q0 -36 13 -57.5t47.5 -39t107.5 -41.5q74 -25 116 -52.5t60 -63t18 -86.5q0 -62 -28.5 -109t-80 -72.5t-119.5 -25.5q-75 0 -134.5 17.5zM136 855l15 21l140 -75l141 75
l14 -21l-134 -144h-41z" />
    <glyph glyph-name="Scedilla" unicode="&#x15e;" horiz-adv-x="582" 
d="M259 -9l-7 -27q69 -1 107.5 -23.5t38.5 -60.5q0 -60 -68.5 -91t-160.5 -36v33q52 2 86.5 21t34.5 46q0 40 -94 43l26 99q-81 12 -167 55q8 42 8 82q0 55 -13 104h35q8 -96 64.5 -155t151.5 -59q52 0 93 29.5t41 87.5q0 37 -15.5 61t-53.5 44t-113 46q-97 33 -142 77
t-45 120q0 53 26 97.5t77 71.5t122 27q35 0 60 -7t48 -18q5 -2 16.5 -7.5t20 -8t16.5 -2.5l31 6l3 -2q-4 -19 -4 -50q0 -53 9 -89.5t9 -37.5h-26q-24 86 -72.5 134.5t-112.5 48.5q-56 0 -89.5 -34t-33.5 -80q0 -36 13 -57.5t47.5 -39t107.5 -41.5q74 -25 116 -52.5t60 -63
t18 -86.5q0 -62 -28.5 -109t-80 -72.5t-119.5 -25.5q-15 0 -41 2z" />
    <glyph glyph-name="uni0218" unicode="&#x218;" horiz-adv-x="582" 
d="M165.5 6.5q-59.5 17.5 -110.5 43.5q8 42 8 82q0 55 -13 104h35q8 -96 64.5 -155t151.5 -59q52 0 93 29.5t41 87.5q0 37 -15.5 61t-53.5 44t-113 46q-97 33 -142 77t-45 120q0 53 26 97.5t77 71.5t122 27q35 0 60 -7t48 -18q5 -2 16.5 -7.5t20 -8t16.5 -2.5l31 6l3 -2
q-4 -19 -4 -50q0 -53 9 -89.5t9 -37.5h-26q-24 86 -72.5 134.5t-112.5 48.5q-56 0 -89.5 -34t-33.5 -80q0 -36 13 -57.5t47.5 -39t107.5 -41.5q74 -25 116 -52.5t60 -63t18 -86.5q0 -62 -28.5 -109t-80 -72.5t-119.5 -25.5q-75 0 -134.5 17.5zM191 -215q32 3 52 20t20 41
q0 17 -19 31t-51 15h-10v27q27 12 43.5 24.5t32.5 33.5q48 -9 78.5 -35t30.5 -60q0 -55 -47.5 -91t-129.5 -40v34z" />
    <glyph glyph-name="T" unicode="T" horiz-adv-x="704" 
d="M177 22l51 11q25 5 36 10.5t15 16t4 32.5v548h-74q-63 0 -108.5 -46.5t-63.5 -116.5h-27q16 80 16 142q0 31 -4 54h659q-3 -24 -3 -53q0 -68 15 -143h-26q-17 70 -63.5 116.5t-108.5 46.5h-74v-548q0 -22 4 -32.5t15 -16t35 -10.5l52 -11v-22h-350v22z" />
    <glyph glyph-name="Tbar" unicode="&#x166;" horiz-adv-x="704" 
d="M678 620q0 -68 15 -143h-26q-17 70 -63.5 116.5t-108.5 46.5h-74v-273h126v-55h-126v-220q0 -22 4 -32.5t15 -16t35 -10.5l52 -11v-22h-350v22l51 11q25 5 36 10.5t15 16t4 32.5v220h-127v55h127v273h-74q-63 0 -108.5 -46.5t-63.5 -116.5h-27q16 80 16 142q0 31 -4 54
h659q-3 -24 -3 -53z" />
    <glyph glyph-name="Tcaron" unicode="&#x164;" horiz-adv-x="704" 
d="M177 22l51 11q25 5 36 10.5t15 16t4 32.5v548h-74q-63 0 -108.5 -46.5t-63.5 -116.5h-27q16 80 16 142q0 31 -4 54h659q-3 -24 -3 -53q0 -68 15 -143h-26q-17 70 -63.5 116.5t-108.5 46.5h-74v-548q0 -22 4 -32.5t15 -16t35 -10.5l52 -11v-22h-350v22zM189 855l15 21
l140 -75l141 75l14 -21l-134 -144h-41z" />
    <glyph glyph-name="uni0162" unicode="&#x162;" horiz-adv-x="704" 
d="M177 22l51 11q25 5 36 10.5t15 16t4 32.5v548h-74q-63 0 -108.5 -46.5t-63.5 -116.5h-27q16 80 16 142q0 31 -4 54h659q-3 -24 -3 -53q0 -68 15 -143h-26q-17 70 -63.5 116.5t-108.5 46.5h-74v-548q0 -22 4 -32.5t15 -16t35 -10.5l52 -11v-22h-350v22zM261 -214
q52 2 86 21t34 46q0 40 -94 43l27 104h40l-10 -36q69 -1 107.5 -23.5t38.5 -60.5q0 -60 -68.5 -91t-160.5 -36v33z" />
    <glyph glyph-name="uni021A" unicode="&#x21a;" horiz-adv-x="704" 
d="M177 22l51 11q25 5 36 10.5t15 16t4 32.5v548h-74q-63 0 -108.5 -46.5t-63.5 -116.5h-27q16 80 16 142q0 31 -4 54h659q-3 -24 -3 -53q0 -68 15 -143h-26q-17 70 -63.5 116.5t-108.5 46.5h-74v-548q0 -22 4 -32.5t15 -16t35 -10.5l52 -11v-22h-350v22zM280 -215
q32 3 52 20t20 41q0 17 -19 31t-51 15h-10v27q27 12 43.5 24.5t32.5 33.5q48 -9 78.5 -35t30.5 -60q0 -55 -47.5 -91t-129.5 -40v34z" />
    <glyph glyph-name="U" unicode="U" horiz-adv-x="766" 
d="M251.5 18q-58.5 29 -94.5 81t-36 117v365q0 22 -4 32.5t-15 16t-35 10.5l-52 11v22h350v-22l-51 -11q-25 -5 -36 -10.5t-15 -16t-4 -32.5v-361q0 -77 44.5 -120.5t127.5 -43.5q48 0 86 21t59.5 57.5t21.5 82.5v364q0 24 -13.5 37t-41.5 18l-72 15v22h275v-22l-58 -13
q-29 -6 -42 -18.5t-13 -38.5v-472q-12 0 -22.5 -8t-21 -19t-14.5 -15q-33 -35 -76.5 -56.5t-123.5 -21.5q-65 0 -123.5 29z" />
    <glyph glyph-name="Uacute" unicode="&#xda;" horiz-adv-x="766" 
d="M251.5 18q-58.5 29 -94.5 81t-36 117v365q0 22 -4 32.5t-15 16t-35 10.5l-52 11v22h350v-22l-51 -11q-25 -5 -36 -10.5t-15 -16t-4 -32.5v-361q0 -77 44.5 -120.5t127.5 -43.5q48 0 86 21t59.5 57.5t21.5 82.5v364q0 24 -13.5 37t-41.5 18l-72 15v22h275v-22l-58 -13
q-29 -6 -42 -18.5t-13 -38.5v-472q-12 0 -22.5 -8t-21 -19t-14.5 -15q-33 -35 -76.5 -56.5t-123.5 -21.5q-65 0 -123.5 29zM346 754l159 103q17 11 32 11q10 0 18 -4q14 -6 21 -16.5t7 -22.5q0 -8 -3 -16q-10 -24 -38 -30l-185 -47z" />
    <glyph glyph-name="Ucircumflex" unicode="&#xdb;" horiz-adv-x="766" 
d="M251.5 18q-58.5 29 -94.5 81t-36 117v365q0 22 -4 32.5t-15 16t-35 10.5l-52 11v22h350v-22l-51 -11q-25 -5 -36 -10.5t-15 -16t-4 -32.5v-361q0 -77 44.5 -120.5t127.5 -43.5q48 0 86 21t59.5 57.5t21.5 82.5v364q0 24 -13.5 37t-41.5 18l-72 15v22h275v-22l-58 -13
q-29 -6 -42 -18.5t-13 -38.5v-472q-12 0 -22.5 -8t-21 -19t-14.5 -15q-33 -35 -76.5 -56.5t-123.5 -21.5q-65 0 -123.5 29zM440 876l134 -144l-14 -21l-141 75l-140 -75l-15 21l135 144h41z" />
    <glyph glyph-name="Udieresis" unicode="&#xdc;" horiz-adv-x="766" 
d="M251.5 18q-58.5 29 -94.5 81t-36 117v365q0 22 -4 32.5t-15 16t-35 10.5l-52 11v22h350v-22l-51 -11q-25 -5 -36 -10.5t-15 -16t-4 -32.5v-361q0 -77 44.5 -120.5t127.5 -43.5q48 0 86 21t59.5 57.5t21.5 82.5v364q0 24 -13.5 37t-41.5 18l-72 15v22h275v-22l-58 -13
q-29 -6 -42 -18.5t-13 -38.5v-472q-12 0 -22.5 -8t-21 -19t-14.5 -15q-33 -35 -76.5 -56.5t-123.5 -21.5q-65 0 -123.5 29zM262.5 753.5q-19.5 19.5 -19.5 45.5q0 27 19.5 46t46.5 19q26 0 45.5 -19.5t19.5 -45.5q0 -27 -19.5 -46t-45.5 -19q-27 0 -46.5 19.5zM483.5 753.5
q-19.5 19.5 -19.5 45.5q0 27 19.5 46t46.5 19q26 0 45.5 -19.5t19.5 -45.5q0 -27 -19.5 -46t-45.5 -19q-27 0 -46.5 19.5z" />
    <glyph glyph-name="Ugrave" unicode="&#xd9;" horiz-adv-x="766" 
d="M251.5 18q-58.5 29 -94.5 81t-36 117v365q0 22 -4 32.5t-15 16t-35 10.5l-52 11v22h350v-22l-51 -11q-25 -5 -36 -10.5t-15 -16t-4 -32.5v-361q0 -77 44.5 -120.5t127.5 -43.5q48 0 86 21t59.5 57.5t21.5 82.5v364q0 24 -13.5 37t-41.5 18l-72 15v22h275v-22l-58 -13
q-29 -6 -42 -18.5t-13 -38.5v-472q-12 0 -22.5 -8t-21 -19t-14.5 -15q-33 -35 -76.5 -56.5t-123.5 -21.5q-65 0 -123.5 29zM321 779q-14 3 -23.5 11t-13.5 19q-3 8 -3 16q0 13 7 23.5t20 15.5q9 4 19 4q14 0 31 -11l160 -103l-11 -22z" />
    <glyph glyph-name="Uhungarumlaut" unicode="&#x170;" horiz-adv-x="766" 
d="M251.5 18q-58.5 29 -94.5 81t-36 117v365q0 22 -4 32.5t-15 16t-35 10.5l-52 11v22h350v-22l-51 -11q-25 -5 -36 -10.5t-15 -16t-4 -32.5v-361q0 -77 44.5 -120.5t127.5 -43.5q48 0 86 21t59.5 57.5t21.5 82.5v364q0 24 -13.5 37t-41.5 18l-72 15v22h275v-22l-58 -13
q-29 -6 -42 -18.5t-13 -38.5v-472q-12 0 -22.5 -8t-21 -19t-14.5 -15q-33 -35 -76.5 -56.5t-123.5 -21.5q-65 0 -123.5 29zM223 727l148 118q17 15 35 15q21 0 33.5 -12.5t12.5 -30.5q0 -3 -2 -11q-9 -26 -35 -34l-179 -66zM446 727l148 118q18 15 36 15q21 0 33 -12.5
t12 -30.5q0 -14 -9.5 -26.5t-26.5 -18.5l-180 -66z" />
    <glyph glyph-name="Umacron" unicode="&#x16a;" horiz-adv-x="766" 
d="M251.5 18q-58.5 29 -94.5 81t-36 117v365q0 22 -4 32.5t-15 16t-35 10.5l-52 11v22h350v-22l-51 -11q-25 -5 -36 -10.5t-15 -16t-4 -32.5v-361q0 -77 44.5 -120.5t127.5 -43.5q48 0 86 21t59.5 57.5t21.5 82.5v364q0 24 -13.5 37t-41.5 18l-72 15v22h275v-22l-58 -13
q-29 -6 -42 -18.5t-13 -38.5v-472q-12 0 -22.5 -8t-21 -19t-14.5 -15q-33 -35 -76.5 -56.5t-123.5 -21.5q-65 0 -123.5 29zM253 837h334v-55h-334v55z" />
    <glyph glyph-name="Uogonek" unicode="&#x172;" horiz-adv-x="766" 
d="M746 673v-22l-58 -13q-29 -6 -42 -18.5t-13 -38.5v-472q-12 0 -22.5 -8t-21 -19t-14.5 -15q-21 -22 -43.5 -38t-56.5 -27h1q-31 -12 -56.5 -38t-25.5 -60q0 -36 13.5 -53t36.5 -17q30 0 71 30l19 -22q-29 -31 -62.5 -50t-61.5 -19q-32 0 -61 17.5t-46.5 45.5t-17.5 59
q0 26 27.5 50t70.5 44h-8q-65 0 -123.5 29t-94.5 81t-36 117v365q0 22 -4 32.5t-15 16t-35 10.5l-52 11v22h350v-22l-51 -11q-25 -5 -36 -10.5t-15 -16t-4 -32.5v-361q0 -77 44.5 -120.5t127.5 -43.5q48 0 86 21t59.5 57.5t21.5 82.5v364q0 24 -13.5 37t-41.5 18l-72 15v22
h275z" />
    <glyph glyph-name="Uring" unicode="&#x16e;" horiz-adv-x="766" 
d="M251.5 18q-58.5 29 -94.5 81t-36 117v365q0 22 -4 32.5t-15 16t-35 10.5l-52 11v22h350v-22l-51 -11q-25 -5 -36 -10.5t-15 -16t-4 -32.5v-361q0 -77 44.5 -120.5t127.5 -43.5q48 0 86 21t59.5 57.5t21.5 82.5v364q0 24 -13.5 37t-41.5 18l-72 15v22h275v-22l-58 -13
q-29 -6 -42 -18.5t-13 -38.5v-472q-12 0 -22.5 -8t-21 -19t-14.5 -15q-33 -35 -76.5 -56.5t-123.5 -21.5q-65 0 -123.5 29zM347.5 857.5q29.5 29.5 71.5 29.5t72 -29.5t30 -70.5q0 -42 -30 -72t-72 -30t-71.5 30t-29.5 72q0 41 29.5 70.5zM375.5 742.5
q18.5 -18.5 44.5 -18.5t44 18.5t18 44.5q0 25 -18.5 43.5t-43.5 18.5q-26 0 -44.5 -18.5t-18.5 -43.5q0 -26 18.5 -44.5z" />
    <glyph glyph-name="V" unicode="V" horiz-adv-x="779" 
d="M774 673v-22l-62 -13q-22 -4 -34.5 -12t-18.5 -25l-250 -616h-46l-265 628q-8 21 -39 26l-54 12v22h358v-22l-51 -11q-26 -5 -37.5 -13.5t-11.5 -22.5q0 -9 5 -22l167 -428l175 431q1 2 3 7.5t2 9.5q0 12 -11 19.5t-34 12.5l-74 17v22h278z" />
    <glyph glyph-name="W" unicode="W" horiz-adv-x="1141" 
d="M104 606q-6 14 -14.5 21.5t-27.5 11.5l-54 12v22h358v-22l-51 -11q-26 -5 -37.5 -13.5t-11.5 -22.5q0 -7 5 -22l140 -417l145 425q3 9 3 15q0 26 -35 33l-70 13v22h316v-22l-64 -13q-35 -7 -35 -32q0 -7 3 -16l145 -430l154 435q3 8 3 13q0 9 -12.5 15t-46.5 14l-62 14
v22h279v-22l-63 -14q-43 -8 -54 -41l-224 -611h-47l-186 490l-173 -490h-47z" />
    <glyph glyph-name="Wacute" unicode="&#x1e82;" horiz-adv-x="1141" 
d="M104 606q-6 14 -14.5 21.5t-27.5 11.5l-54 12v22h358v-22l-51 -11q-26 -5 -37.5 -13.5t-11.5 -22.5q0 -7 5 -22l140 -417l145 425q3 9 3 15q0 26 -35 33l-70 13v22h316v-22l-64 -13q-35 -7 -35 -32q0 -7 3 -16l145 -430l154 435q3 8 3 13q0 9 -12.5 15t-46.5 14l-62 14
v22h279v-22l-63 -14q-43 -8 -54 -41l-224 -611h-47l-186 490l-173 -490h-47zM530 754l159 103q17 11 32 11q10 0 18 -4q14 -6 21 -16.5t7 -22.5q0 -8 -3 -16q-10 -24 -38 -30l-185 -47z" />
    <glyph glyph-name="Wcircumflex" unicode="&#x174;" horiz-adv-x="1141" 
d="M104 606q-6 14 -14.5 21.5t-27.5 11.5l-54 12v22h358v-22l-51 -11q-26 -5 -37.5 -13.5t-11.5 -22.5q0 -7 5 -22l140 -417l145 425q3 9 3 15q0 26 -35 33l-70 13v22h316v-22l-64 -13q-35 -7 -35 -32q0 -7 3 -16l145 -430l154 435q3 8 3 13q0 9 -12.5 15t-46.5 14l-62 14
v22h279v-22l-63 -14q-43 -8 -54 -41l-224 -611h-47l-186 490l-173 -490h-47zM624 876l134 -144l-14 -21l-141 75l-140 -75l-15 21l135 144h41z" />
    <glyph glyph-name="Wdieresis" unicode="&#x1e84;" horiz-adv-x="1141" 
d="M104 606q-6 14 -14.5 21.5t-27.5 11.5l-54 12v22h358v-22l-51 -11q-26 -5 -37.5 -13.5t-11.5 -22.5q0 -7 5 -22l140 -417l145 425q3 9 3 15q0 26 -35 33l-70 13v22h316v-22l-64 -13q-35 -7 -35 -32q0 -7 3 -16l145 -430l154 435q3 8 3 13q0 9 -12.5 15t-46.5 14l-62 14
v22h279v-22l-63 -14q-43 -8 -54 -41l-224 -611h-47l-186 490l-173 -490h-47zM446.5 753.5q-19.5 19.5 -19.5 45.5q0 27 19.5 46t46.5 19q26 0 45.5 -19.5t19.5 -45.5q0 -27 -19.5 -46t-45.5 -19q-27 0 -46.5 19.5zM667.5 753.5q-19.5 19.5 -19.5 45.5q0 27 19.5 46t46.5 19
q26 0 45.5 -19.5t19.5 -45.5q0 -27 -19.5 -46t-45.5 -19q-27 0 -46.5 19.5z" />
    <glyph glyph-name="Wgrave" unicode="&#x1e80;" horiz-adv-x="1141" 
d="M104 606q-6 14 -14.5 21.5t-27.5 11.5l-54 12v22h358v-22l-51 -11q-26 -5 -37.5 -13.5t-11.5 -22.5q0 -7 5 -22l140 -417l145 425q3 9 3 15q0 26 -35 33l-70 13v22h316v-22l-64 -13q-35 -7 -35 -32q0 -7 3 -16l145 -430l154 435q3 8 3 13q0 9 -12.5 15t-46.5 14l-62 14
v22h279v-22l-63 -14q-43 -8 -54 -41l-224 -611h-47l-186 490l-173 -490h-47zM505 779q-14 3 -23.5 11t-13.5 19q-3 8 -3 16q0 13 7 23.5t20 15.5q9 4 19 4q14 0 31 -11l160 -103l-11 -22z" />
    <glyph glyph-name="X" unicode="X" horiz-adv-x="797" 
d="M10 22l62 13q44 8 69 36l192 234l-217 301q-10 15 -21 23t-31 12l-47 10v22h379v-22l-84 -18q-22 -5 -22 -20q0 -9 7 -17l141 -197l142 189q11 12 11 24q0 16 -23 22l-75 17v22h279v-22l-62 -13q-45 -8 -69 -37l-175 -231l218 -298q14 -19 27 -28t29 -12l47 -10v-22h-385
v22l52 11q21 4 36 13.5t15 23.5q0 10 -8 21l-137 186l-158 -192q-11 -12 -11 -24q0 -16 23 -22l75 -17v-22h-279v22z" />
    <glyph glyph-name="Y" unicode="Y" horiz-adv-x="746" 
d="M732 673v-22l-62 -13q-22 -4 -34.5 -12t-19.5 -25l-183 -268v-241q0 -22 4 -32.5t15 -16t35 -10.5l52 -11v-22h-350v22l52 11q24 5 35 10.5t15 16t4 32.5v228l-190 294q-14 21 -38 25l-52 12v22h358v-22l-51 -11q-42 -9 -42 -31q0 -10 9 -24l126 -200l146 211q6 8 6 15
q0 14 -29 21l-84 19v22h278z" />
    <glyph glyph-name="Yacute" unicode="&#xdd;" horiz-adv-x="746" 
d="M732 673v-22l-62 -13q-22 -4 -34.5 -12t-19.5 -25l-183 -268v-241q0 -22 4 -32.5t15 -16t35 -10.5l52 -11v-22h-350v22l52 11q24 5 35 10.5t15 16t4 32.5v228l-190 294q-14 21 -38 25l-52 12v22h358v-22l-51 -11q-42 -9 -42 -31q0 -10 9 -24l126 -200l146 211q6 8 6 15
q0 14 -29 21l-84 19v22h278zM339 754l159 103q17 11 32 11q10 0 18 -4q14 -6 21 -16.5t7 -22.5q0 -8 -3 -16q-10 -24 -38 -30l-185 -47z" />
    <glyph glyph-name="Ycircumflex" unicode="&#x176;" horiz-adv-x="746" 
d="M732 673v-22l-62 -13q-22 -4 -34.5 -12t-19.5 -25l-183 -268v-241q0 -22 4 -32.5t15 -16t35 -10.5l52 -11v-22h-350v22l52 11q24 5 35 10.5t15 16t4 32.5v228l-190 294q-14 21 -38 25l-52 12v22h358v-22l-51 -11q-42 -9 -42 -31q0 -10 9 -24l126 -200l146 211q6 8 6 15
q0 14 -29 21l-84 19v22h278zM433 876l134 -144l-14 -21l-141 75l-140 -75l-15 21l135 144h41z" />
    <glyph glyph-name="Ydieresis" unicode="&#x178;" horiz-adv-x="746" 
d="M732 673v-22l-62 -13q-22 -4 -34.5 -12t-19.5 -25l-183 -268v-241q0 -22 4 -32.5t15 -16t35 -10.5l52 -11v-22h-350v22l52 11q24 5 35 10.5t15 16t4 32.5v228l-190 294q-14 21 -38 25l-52 12v22h358v-22l-51 -11q-42 -9 -42 -31q0 -10 9 -24l126 -200l146 211q6 8 6 15
q0 14 -29 21l-84 19v22h278zM255.5 753.5q-19.5 19.5 -19.5 45.5q0 27 19.5 46t46.5 19q26 0 45.5 -19.5t19.5 -45.5q0 -27 -19.5 -46t-45.5 -19q-27 0 -46.5 19.5zM476.5 753.5q-19.5 19.5 -19.5 45.5q0 27 19.5 46t46.5 19q26 0 45.5 -19.5t19.5 -45.5q0 -27 -19.5 -46
t-45.5 -19q-27 0 -46.5 19.5z" />
    <glyph glyph-name="Ygrave" unicode="&#x1ef2;" horiz-adv-x="746" 
d="M732 673v-22l-62 -13q-22 -4 -34.5 -12t-19.5 -25l-183 -268v-241q0 -22 4 -32.5t15 -16t35 -10.5l52 -11v-22h-350v22l52 11q24 5 35 10.5t15 16t4 32.5v228l-190 294q-14 21 -38 25l-52 12v22h358v-22l-51 -11q-42 -9 -42 -31q0 -10 9 -24l126 -200l146 211q6 8 6 15
q0 14 -29 21l-84 19v22h278zM314 779q-14 3 -23.5 11t-13.5 19q-3 8 -3 16q0 13 7 23.5t20 15.5q9 4 19 4q14 0 31 -11l160 -103l-11 -22z" />
    <glyph glyph-name="Z" unicode="Z" horiz-adv-x="666" 
d="M25 18l427 622h-157q-84 0 -132 -39t-83 -129h-21q16 72 16 144q0 14 -2 31.5t-3 25.5h555v-21l-422 -619h186q83 0 147.5 47.5t92.5 122.5h22q-27 -111 -27 -203h-599v18z" />
    <glyph glyph-name="Zacute" unicode="&#x179;" horiz-adv-x="666" 
d="M25 18l427 622h-157q-84 0 -132 -39t-83 -129h-21q16 72 16 144q0 14 -2 31.5t-3 25.5h555v-21l-422 -619h186q83 0 147.5 47.5t92.5 122.5h22q-27 -111 -27 -203h-599v18zM289 754l159 103q17 11 32 11q10 0 18 -4q14 -6 21 -16.5t7 -22.5q0 -8 -3 -16q-10 -24 -38 -30
l-185 -47z" />
    <glyph glyph-name="Zcaron" unicode="&#x17d;" horiz-adv-x="666" 
d="M25 18l427 622h-157q-84 0 -132 -39t-83 -129h-21q16 72 16 144q0 14 -2 31.5t-3 25.5h555v-21l-422 -619h186q83 0 147.5 47.5t92.5 122.5h22q-27 -111 -27 -203h-599v18zM207 855l15 21l140 -75l141 75l14 -21l-134 -144h-41z" />
    <glyph glyph-name="Zdotaccent" unicode="&#x17b;" horiz-adv-x="666" 
d="M25 18l427 622h-157q-84 0 -132 -39t-83 -129h-21q16 72 16 144q0 14 -2 31.5t-3 25.5h555v-21l-422 -619h186q83 0 147.5 47.5t92.5 122.5h22q-27 -111 -27 -203h-599v18zM310.5 742q-21.5 21 -21.5 52t21.5 52t51.5 21q31 0 52.5 -21t21.5 -52t-21.5 -52t-52.5 -21
q-30 0 -51.5 21z" />
    <glyph glyph-name="a" unicode="a" horiz-adv-x="484" 
d="M474 59v-25q-26 -15 -56.5 -27.5t-52.5 -12.5q-54 0 -64 58q-76 -59 -128 -59q-37 0 -67.5 20t-47.5 54t-17 72q0 18 3.5 25.5t11.5 10.5l205 77q18 7 24 15t6 24v36q0 44 -21 68t-63 24q-27 0 -44.5 -11.5t-17.5 -26.5q0 -10 13 -27q18 -23 18 -42q0 -24 -17 -37.5
t-44 -13.5q-26 0 -41 15t-15 42q0 35 26 66t67.5 49t84.5 18q72 0 120.5 -35t48.5 -103v-216q0 -24 5 -35.5t21 -11.5q17 0 42 9zM291 219q0 7 -6 4l-121 -44q-6 -2 -8.5 -8.5t-2.5 -21.5q0 -37 22.5 -66.5t52.5 -29.5q13 0 24 4.5t27 14.5q12 8 12 29v118z" />
    <glyph glyph-name="aacute" unicode="&#xe1;" horiz-adv-x="484" 
d="M474 59v-25q-26 -15 -56.5 -27.5t-52.5 -12.5q-54 0 -64 58q-76 -59 -128 -59q-37 0 -67.5 20t-47.5 54t-17 72q0 18 3.5 25.5t11.5 10.5l205 77q18 7 24 15t6 24v36q0 44 -21 68t-63 24q-27 0 -44.5 -11.5t-17.5 -26.5q0 -10 13 -27q18 -23 18 -42q0 -24 -17 -37.5
t-44 -13.5q-26 0 -41 15t-15 42q0 35 26 66t67.5 49t84.5 18q72 0 120.5 -35t48.5 -103v-216q0 -24 5 -35.5t21 -11.5q17 0 42 9zM291 219q0 7 -6 4l-121 -44q-6 -2 -8.5 -8.5t-2.5 -21.5q0 -37 22.5 -66.5t52.5 -29.5q13 0 24 4.5t27 14.5q12 8 12 29v118zM161 557l110 155
q18 26 43 26q20 0 32 -12.5t12 -29.5q0 -26 -24 -43l-155 -112z" />
    <glyph glyph-name="abreve" unicode="&#x103;" horiz-adv-x="484" 
d="M474 59v-25q-26 -15 -56.5 -27.5t-52.5 -12.5q-54 0 -64 58q-76 -59 -128 -59q-37 0 -67.5 20t-47.5 54t-17 72q0 18 3.5 25.5t11.5 10.5l205 77q18 7 24 15t6 24v36q0 44 -21 68t-63 24q-27 0 -44.5 -11.5t-17.5 -26.5q0 -10 13 -27q18 -23 18 -42q0 -24 -17 -37.5
t-44 -13.5q-26 0 -41 15t-15 42q0 35 26 66t67.5 49t84.5 18q72 0 120.5 -35t48.5 -103v-216q0 -24 5 -35.5t21 -11.5q17 0 42 9zM291 219q0 7 -6 4l-121 -44q-6 -2 -8.5 -8.5t-2.5 -21.5q0 -37 22.5 -66.5t52.5 -29.5q13 0 24 4.5t27 14.5q12 8 12 29v118zM185 624
q-28 15 -45 40t-17 53h-33q0 -83 43 -133t111 -50q69 0 112 50t43 133h-34q0 -28 -17 -53t-45 -40t-59 -15t-59 15z" />
    <glyph glyph-name="acircumflex" unicode="&#xe2;" horiz-adv-x="484" 
d="M474 59v-25q-26 -15 -56.5 -27.5t-52.5 -12.5q-54 0 -64 58q-76 -59 -128 -59q-37 0 -67.5 20t-47.5 54t-17 72q0 18 3.5 25.5t11.5 10.5l205 77q18 7 24 15t6 24v36q0 44 -21 68t-63 24q-27 0 -44.5 -11.5t-17.5 -26.5q0 -10 13 -27q18 -23 18 -42q0 -24 -17 -37.5
t-44 -13.5q-26 0 -41 15t-15 42q0 35 26 66t67.5 49t84.5 18q72 0 120.5 -35t48.5 -103v-216q0 -24 5 -35.5t21 -11.5q17 0 42 9zM291 219q0 7 -6 4l-121 -44q-6 -2 -8.5 -8.5t-2.5 -21.5q0 -37 22.5 -66.5t52.5 -29.5q13 0 24 4.5t27 14.5q12 8 12 29v118zM402 539l-17 -16
l-141 96l-140 -96l-18 16l138 180h41z" />
    <glyph glyph-name="adieresis" unicode="&#xe4;" horiz-adv-x="484" 
d="M474 59v-25q-26 -15 -56.5 -27.5t-52.5 -12.5q-54 0 -64 58q-76 -59 -128 -59q-37 0 -67.5 20t-47.5 54t-17 72q0 18 3.5 25.5t11.5 10.5l205 77q18 7 24 15t6 24v36q0 44 -21 68t-63 24q-27 0 -44.5 -11.5t-17.5 -26.5q0 -10 13 -27q18 -23 18 -42q0 -24 -17 -37.5
t-44 -13.5q-26 0 -41 15t-15 42q0 35 26 66t67.5 49t84.5 18q72 0 120.5 -35t48.5 -103v-216q0 -24 5 -35.5t21 -11.5q17 0 42 9zM291 219q0 7 -6 4l-121 -44q-6 -2 -8.5 -8.5t-2.5 -21.5q0 -37 22.5 -66.5t52.5 -29.5q13 0 24 4.5t27 14.5q12 8 12 29v118zM87.5 576.5
q-19.5 19.5 -19.5 45.5q0 27 19.5 46t46.5 19q26 0 45.5 -19.5t19.5 -45.5q0 -27 -19.5 -46t-45.5 -19q-27 0 -46.5 19.5zM308.5 576.5q-19.5 19.5 -19.5 45.5q0 27 19.5 46t46.5 19q26 0 45.5 -19.5t19.5 -45.5q0 -27 -19.5 -46t-45.5 -19q-27 0 -46.5 19.5z" />
    <glyph glyph-name="agrave" unicode="&#xe0;" horiz-adv-x="484" 
d="M474 59v-25q-26 -15 -56.5 -27.5t-52.5 -12.5q-54 0 -64 58q-76 -59 -128 -59q-37 0 -67.5 20t-47.5 54t-17 72q0 18 3.5 25.5t11.5 10.5l205 77q18 7 24 15t6 24v36q0 44 -21 68t-63 24q-27 0 -44.5 -11.5t-17.5 -26.5q0 -10 13 -27q18 -23 18 -42q0 -24 -17 -37.5
t-44 -13.5q-26 0 -41 15t-15 42q0 35 26 66t67.5 49t84.5 18q72 0 120.5 -35t48.5 -103v-216q0 -24 5 -35.5t21 -11.5q17 0 42 9zM291 219q0 7 -6 4l-121 -44q-6 -2 -8.5 -8.5t-2.5 -21.5q0 -37 22.5 -66.5t52.5 -29.5q13 0 24 4.5t27 14.5q12 8 12 29v118zM162 655
q-21 17 -21 41q0 17 11.5 29.5t29.5 12.5q15 0 26 -6.5t20 -20.5l102 -161l-19 -15z" />
    <glyph glyph-name="amacron" unicode="&#x101;" horiz-adv-x="484" 
d="M474 59v-25q-26 -15 -56.5 -27.5t-52.5 -12.5q-54 0 -64 58q-76 -59 -128 -59q-37 0 -67.5 20t-47.5 54t-17 72q0 18 3.5 25.5t11.5 10.5l205 77q18 7 24 15t6 24v36q0 44 -21 68t-63 24q-27 0 -44.5 -11.5t-17.5 -26.5q0 -10 13 -27q18 -23 18 -42q0 -24 -17 -37.5
t-44 -13.5q-26 0 -41 15t-15 42q0 35 26 66t67.5 49t84.5 18q72 0 120.5 -35t48.5 -103v-216q0 -24 5 -35.5t21 -11.5q17 0 42 9zM291 219q0 7 -6 4l-121 -44q-6 -2 -8.5 -8.5t-2.5 -21.5q0 -37 22.5 -66.5t52.5 -29.5q13 0 24 4.5t27 14.5q12 8 12 29v118zM77 645h334v-55
h-334v55z" />
    <glyph glyph-name="aogonek" unicode="&#x105;" horiz-adv-x="484" 
d="M341.5 -39.5q-21.5 -24.5 -21.5 -56.5q0 -36 13.5 -53t36.5 -17q30 0 71 30l19 -22q-29 -31 -62.5 -50t-61.5 -19q-32 0 -61 17.5t-46.5 45.5t-17.5 59q0 30 36.5 58t87.5 47q-27 13 -34 52q-76 -59 -128 -59q-37 0 -67.5 20t-47.5 54t-17 72q0 18 3.5 25.5t11.5 10.5
l205 77q18 7 24 15t6 24v36q0 44 -21 68t-63 24q-27 0 -44.5 -11.5t-17.5 -26.5q0 -10 13 -27q18 -23 18 -42q0 -24 -17 -37.5t-44 -13.5q-26 0 -41 15t-15 42q0 35 26 66t67.5 49t84.5 18q72 0 120.5 -35t48.5 -103v-216q0 -24 5 -35.5t21 -11.5q17 0 42 9v-25
q-42 -25 -81 -36q-30 -13 -51.5 -37.5zM291 219q0 7 -6 4l-121 -44q-6 -2 -8.5 -8.5t-2.5 -21.5q0 -37 22.5 -66.5t52.5 -29.5q13 0 24 4.5t27 14.5q12 8 12 29v118z" />
    <glyph glyph-name="aring" unicode="&#xe5;" horiz-adv-x="484" 
d="M474 59v-25q-26 -15 -56.5 -27.5t-52.5 -12.5q-54 0 -64 58q-76 -59 -128 -59q-37 0 -67.5 20t-47.5 54t-17 72q0 18 3.5 25.5t11.5 10.5l205 77q18 7 24 15t6 24v36q0 44 -21 68t-63 24q-27 0 -44.5 -11.5t-17.5 -26.5q0 -10 13 -27q18 -23 18 -42q0 -24 -17 -37.5
t-44 -13.5q-26 0 -41 15t-15 42q0 35 26 66t67.5 49t84.5 18q72 0 120.5 -35t48.5 -103v-216q0 -24 5 -35.5t21 -11.5q17 0 42 9zM291 219q0 7 -6 4l-121 -44q-6 -2 -8.5 -8.5t-2.5 -21.5q0 -37 22.5 -66.5t52.5 -29.5q13 0 24 4.5t27 14.5q12 8 12 29v118zM137 691.5
q17 28.5 45.5 45.5t61.5 17q52 0 88.5 -36.5t36.5 -88.5q0 -33 -17 -61.5t-45.5 -45.5t-62.5 -17q-33 0 -61.5 17t-45.5 45.5t-17 61.5q0 34 17 62.5zM193 578q22 -21 52 -21t51 21t21 51t-21 51.5t-51 21.5t-52 -21.5t-22 -51.5t22 -51z" />
    <glyph glyph-name="atilde" unicode="&#xe3;" horiz-adv-x="484" 
d="M474 59v-25q-26 -15 -56.5 -27.5t-52.5 -12.5q-54 0 -64 58q-76 -59 -128 -59q-37 0 -67.5 20t-47.5 54t-17 72q0 18 3.5 25.5t11.5 10.5l205 77q18 7 24 15t6 24v36q0 44 -21 68t-63 24q-27 0 -44.5 -11.5t-17.5 -26.5q0 -10 13 -27q18 -23 18 -42q0 -24 -17 -37.5
t-44 -13.5q-26 0 -41 15t-15 42q0 35 26 66t67.5 49t84.5 18q72 0 120.5 -35t48.5 -103v-216q0 -24 5 -35.5t21 -11.5q17 0 42 9zM291 219q0 7 -6 4l-121 -44q-6 -2 -8.5 -8.5t-2.5 -21.5q0 -37 22.5 -66.5t52.5 -29.5q13 0 24 4.5t27 14.5q12 8 12 29v118zM86 531l66 98
l180 16q10 1 15 2.5t12 7.5l24 22l22 -18l-67 -99l-179 -14q-10 -1 -15 -3t-12 -8l-24 -22z" />
    <glyph glyph-name="ae" unicode="&#xe6;" horiz-adv-x="723" 
d="M680 115l17 -16q-78 -107 -187 -107q-52 0 -96 21t-74 58q-41 -34 -85 -56t-82 -22q-37 0 -67.5 20t-47.5 54t-17 72q0 18 3.5 25.5t11.5 10.5l205 77q18 7 24 15t6 24v36q0 44 -21 68t-63 24q-27 0 -44.5 -11.5t-17.5 -26.5q0 -10 13 -27q18 -23 18 -42q0 -24 -17 -37.5
t-44 -13.5q-26 0 -41 15t-15 42q0 35 26 66t67.5 49t84.5 18q42 0 78 -12.5t59 -37.5q61 50 148 50q51 0 91 -24t62 -66.5t22 -95.5q0 -11 -6 -18t-17 -7h-258v-1q0 -55 19.5 -94.5t53 -60t73.5 -20.5q60 0 118 51zM450 382q-26 -38 -32 -103l150 6q14 0 14 21q0 52 -18 83
t-49 31q-39 0 -65 -38zM291 219q0 7 -6 4l-121 -44q-6 -2 -8.5 -8.5t-2.5 -21.5q0 -37 22.5 -66.5t52.5 -29.5q13 0 24 4.5t27 14.5q12 8 12 29v118z" />
    <glyph glyph-name="b" unicode="b" horiz-adv-x="557" 
d="M80 -9v617q0 20 -6.5 27.5t-20.5 10.5l-33 8v18q64 9 101.5 16t77.5 22l10 -8q-14 -21 -14 -85v-224l80 45q20 11 38 11q72 0 121.5 -30t73.5 -80t24 -110q0 -61 -26.5 -115.5t-79.5 -88.5t-130 -34q-42 0 -83.5 16t-68.5 41q-21 -22 -44 -60zM378 74q28 48 28 117
q0 79 -31.5 133.5t-92.5 54.5q-40 0 -63.5 -25t-23.5 -62v-137q0 -34 14 -64t37 -47.5t50 -17.5q54 0 82 48z" />
    <glyph glyph-name="c" unicode="c" horiz-adv-x="453" 
d="M132 21.5q-50 29.5 -78 80.5t-28 113q0 68 30 122t83 84t118 30q77 0 122 -33.5t45 -87.5q0 -31 -15.5 -46.5t-39.5 -15.5q-27 0 -43 14.5t-16 39.5q0 16 8 31q1 2 4 8.5t3 14.5q0 20 -19 32t-48 12q-47 0 -76.5 -50t-29.5 -131q0 -82 41.5 -128.5t103.5 -46.5
q60 0 118 51l17 -16q-78 -107 -187 -107q-63 0 -113 29.5z" />
    <glyph glyph-name="cacute" unicode="&#x107;" horiz-adv-x="453" 
d="M132 21.5q-50 29.5 -78 80.5t-28 113q0 68 30 122t83 84t118 30q77 0 122 -33.5t45 -87.5q0 -31 -15.5 -46.5t-39.5 -15.5q-27 0 -43 14.5t-16 39.5q0 16 8 31q1 2 4 8.5t3 14.5q0 20 -19 32t-48 12q-47 0 -76.5 -50t-29.5 -131q0 -82 41.5 -128.5t103.5 -46.5
q60 0 118 51l17 -16q-78 -107 -187 -107q-63 0 -113 29.5zM173 557l110 155q18 26 43 26q20 0 32 -12.5t12 -29.5q0 -26 -24 -43l-155 -112z" />
    <glyph glyph-name="ccaron" unicode="&#x10d;" horiz-adv-x="453" 
d="M132 21.5q-50 29.5 -78 80.5t-28 113q0 68 30 122t83 84t118 30q77 0 122 -33.5t45 -87.5q0 -31 -15.5 -46.5t-39.5 -15.5q-27 0 -43 14.5t-16 39.5q0 16 8 31q1 2 4 8.5t3 14.5q0 20 -19 32t-48 12q-47 0 -76.5 -50t-29.5 -131q0 -82 41.5 -128.5t103.5 -46.5
q60 0 118 51l17 -16q-78 -107 -187 -107q-63 0 -113 29.5zM98 707l18 16l140 -96l141 96l17 -16l-137 -180h-41z" />
    <glyph glyph-name="ccedilla" unicode="&#xe7;" horiz-adv-x="453" 
d="M215 -6l-7 -27q69 -1 107.5 -23.5t38.5 -60.5q0 -60 -68.5 -91t-160.5 -36v33q52 2 86 21t34 46q0 40 -94 43l27 103q-69 21 -110.5 79t-41.5 134q0 68 30 122t83 84t118 30q77 0 122 -33.5t45 -87.5q0 -31 -15.5 -46.5t-39.5 -15.5q-27 0 -43 14.5t-16 39.5q0 16 8 31
q1 2 4 8.5t3 14.5q0 20 -19 32t-48 12q-47 0 -76.5 -50t-29.5 -131q0 -82 41.5 -128.5t103.5 -46.5q60 0 118 51l17 -16q-78 -107 -187 -107q-10 0 -30 2z" />
    <glyph glyph-name="cdotaccent" unicode="&#x10b;" horiz-adv-x="453" 
d="M132 21.5q-50 29.5 -78 80.5t-28 113q0 68 30 122t83 84t118 30q77 0 122 -33.5t45 -87.5q0 -31 -15.5 -46.5t-39.5 -15.5q-27 0 -43 14.5t-16 39.5q0 16 8 31q1 2 4 8.5t3 14.5q0 20 -19 32t-48 12q-47 0 -76.5 -50t-29.5 -131q0 -82 41.5 -128.5t103.5 -46.5
q60 0 118 51l17 -16q-78 -107 -187 -107q-63 0 -113 29.5zM204.5 567q-21.5 21 -21.5 52t21.5 52t51.5 21q31 0 52.5 -21t21.5 -52t-21.5 -52t-52.5 -21q-30 0 -51.5 21z" />
    <glyph glyph-name="d" unicode="d" horiz-adv-x="565" 
d="M123.5 22q-49.5 30 -73.5 80.5t-24 110.5q0 61 25 115t75 88t122 34q32 0 62.5 -7t52.5 -18v183q0 20 -6.5 27.5t-20.5 10.5l-33 8v18q64 9 101.5 16t77.5 22l10 -8q-14 -23 -14 -85v-522q0 -33 17 -47t57 -13v-26q-56 -3 -120 -12l-40 -5l-10 5l-8 55h-4l-88 -49
q-20 -11 -38 -11q-71 0 -120.5 30zM339 87q24 25 24 62v137q0 35 -14 65t-37.5 47.5t-49.5 17.5q-54 0 -82.5 -48t-28.5 -118q0 -79 32 -133.5t93 -54.5q39 0 63 25z" />
    <glyph glyph-name="eth" unicode="&#xf0;" horiz-adv-x="546" 
d="M478 565q22 -60 22 -152q0 -125 -34 -220.5t-100 -149.5t-159 -54q-48 0 -89.5 20t-67 60t-25.5 97q0 114 56.5 181t155.5 67q57 0 95.5 -31.5t46.5 -84.5q6 50 6 104q0 69 -6 118l-124 -55l-18 38l134 59q-20 85 -72 85q-15 0 -24.5 -13.5t-20.5 -40.5
q-9 -24 -20.5 -38.5t-29.5 -14.5q-23 0 -37.5 12t-14.5 35q0 40 43.5 67.5t113.5 27.5q104 0 152 -80l62 28l18 -37zM297.5 52.5q27.5 35.5 41 85.5t13.5 93q0 56 -23 99t-74 43q-54 0 -83 -54t-29 -161q0 -141 86 -141q41 0 68.5 35.5z" />
    <glyph glyph-name="dcaron" unicode="&#x10f;" horiz-adv-x="662" 
d="M123.5 22q-49.5 30 -73.5 80.5t-24 110.5q0 61 25 115t75 88t122 34q32 0 62.5 -7t52.5 -18v183q0 20 -6.5 27.5t-20.5 10.5l-33 8v18q64 9 101.5 16t77.5 22l10 -8q-14 -23 -14 -85v-522q0 -33 17 -47t57 -13v-26q-56 -3 -120 -12l-40 -5l-10 5l-8 55h-4l-88 -49
q-20 -11 -38 -11q-71 0 -120.5 30zM339 87q24 25 24 62v137q0 35 -14 65t-37.5 47.5t-49.5 17.5q-54 0 -82.5 -48t-28.5 -118q0 -79 32 -133.5t93 -54.5q39 0 63 25zM537 479l31 188q10 45 49 45q18 0 29.5 -12t11.5 -30q0 -14 -8 -29l-89 -168z" />
    <glyph glyph-name="dcroat" unicode="&#x111;" horiz-adv-x="565" 
d="M495 48q17 -14 57 -13v-26q-56 -3 -120 -12l-40 -5l-10 5l-8 55h-4l-88 -49q-20 -11 -38 -11q-71 0 -120.5 29.5t-73.5 78.5t-24 108q0 60 25 113t75 86t122 33q32 0 62.5 -7t52.5 -18v111h-163v47h163v35q0 20 -6.5 27.5t-20.5 10.5l-33 8v18q64 9 101.5 16t77.5 22
l10 -8q-14 -23 -14 -85v-44h59v-47h-59v-431q0 -33 17 -47zM363 283q0 33 -14 61t-37.5 45t-49.5 17q-54 0 -82.5 -47t-28.5 -114q0 -77 32 -130t93 -53q39 0 63 25t24 62v134z" />
    <glyph glyph-name="e" unicode="e" horiz-adv-x="458" 
d="M415 115l17 -16q-78 -107 -187 -107q-63 0 -113 29.5t-78 81t-28 113.5q0 68 30 121.5t82.5 83.5t118.5 30q51 0 91 -24t62 -66.5t22 -95.5q0 -11 -6 -18t-17 -7h-257v-1q0 -82 41.5 -128.5t103.5 -46.5q60 0 118 51zM185.5 382q-25.5 -38 -31.5 -103l149 6q14 0 14 21
q0 52 -18 83t-48 31q-40 0 -65.5 -38z" />
    <glyph glyph-name="eacute" unicode="&#xe9;" horiz-adv-x="458" 
d="M415 115l17 -16q-78 -107 -187 -107q-63 0 -113 29.5t-78 81t-28 113.5q0 68 30 121.5t82.5 83.5t118.5 30q51 0 91 -24t62 -66.5t22 -95.5q0 -11 -6 -18t-17 -7h-257v-1q0 -82 41.5 -128.5t103.5 -46.5q60 0 118 51zM185.5 382q-25.5 -38 -31.5 -103l149 6q14 0 14 21
q0 52 -18 83t-48 31q-40 0 -65.5 -38zM179 557l110 155q18 26 43 26q20 0 32 -12.5t12 -29.5q0 -26 -24 -43l-155 -112z" />
    <glyph glyph-name="ecaron" unicode="&#x11b;" horiz-adv-x="458" 
d="M415 115l17 -16q-78 -107 -187 -107q-63 0 -113 29.5t-78 81t-28 113.5q0 68 30 121.5t82.5 83.5t118.5 30q51 0 91 -24t62 -66.5t22 -95.5q0 -11 -6 -18t-17 -7h-257v-1q0 -82 41.5 -128.5t103.5 -46.5q60 0 118 51zM185.5 382q-25.5 -38 -31.5 -103l149 6q14 0 14 21
q0 52 -18 83t-48 31q-40 0 -65.5 -38zM104 707l18 16l140 -96l141 96l17 -16l-137 -180h-41z" />
    <glyph glyph-name="ecircumflex" unicode="&#xea;" horiz-adv-x="458" 
d="M415 115l17 -16q-78 -107 -187 -107q-63 0 -113 29.5t-78 81t-28 113.5q0 68 30 121.5t82.5 83.5t118.5 30q51 0 91 -24t62 -66.5t22 -95.5q0 -11 -6 -18t-17 -7h-257v-1q0 -82 41.5 -128.5t103.5 -46.5q60 0 118 51zM185.5 382q-25.5 -38 -31.5 -103l149 6q14 0 14 21
q0 52 -18 83t-48 31q-40 0 -65.5 -38zM420 539l-17 -16l-141 96l-140 -96l-18 16l138 180h41z" />
    <glyph glyph-name="edieresis" unicode="&#xeb;" horiz-adv-x="458" 
d="M415 115l17 -16q-78 -107 -187 -107q-63 0 -113 29.5t-78 81t-28 113.5q0 68 30 121.5t82.5 83.5t118.5 30q51 0 91 -24t62 -66.5t22 -95.5q0 -11 -6 -18t-17 -7h-257v-1q0 -82 41.5 -128.5t103.5 -46.5q60 0 118 51zM185.5 382q-25.5 -38 -31.5 -103l149 6q14 0 14 21
q0 52 -18 83t-48 31q-40 0 -65.5 -38zM105.5 576.5q-19.5 19.5 -19.5 45.5q0 27 19.5 46t46.5 19q26 0 45.5 -19.5t19.5 -45.5q0 -27 -19.5 -46t-45.5 -19q-27 0 -46.5 19.5zM326.5 576.5q-19.5 19.5 -19.5 45.5q0 27 19.5 46t46.5 19q26 0 45.5 -19.5t19.5 -45.5
q0 -27 -19.5 -46t-45.5 -19q-27 0 -46.5 19.5z" />
    <glyph glyph-name="edotaccent" unicode="&#x117;" horiz-adv-x="458" 
d="M415 115l17 -16q-78 -107 -187 -107q-63 0 -113 29.5t-78 81t-28 113.5q0 68 30 121.5t82.5 83.5t118.5 30q51 0 91 -24t62 -66.5t22 -95.5q0 -11 -6 -18t-17 -7h-257v-1q0 -82 41.5 -128.5t103.5 -46.5q60 0 118 51zM185.5 382q-25.5 -38 -31.5 -103l149 6q14 0 14 21
q0 52 -18 83t-48 31q-40 0 -65.5 -38zM210.5 567q-21.5 21 -21.5 52t21.5 52t51.5 21q31 0 52.5 -21t21.5 -52t-21.5 -52t-52.5 -21q-30 0 -51.5 21z" />
    <glyph glyph-name="egrave" unicode="&#xe8;" horiz-adv-x="458" 
d="M415 115l17 -16q-78 -107 -187 -107q-63 0 -113 29.5t-78 81t-28 113.5q0 68 30 121.5t82.5 83.5t118.5 30q51 0 91 -24t62 -66.5t22 -95.5q0 -11 -6 -18t-17 -7h-257v-1q0 -82 41.5 -128.5t103.5 -46.5q60 0 118 51zM185.5 382q-25.5 -38 -31.5 -103l149 6q14 0 14 21
q0 52 -18 83t-48 31q-40 0 -65.5 -38zM180 655q-21 17 -21 41q0 17 11.5 29.5t29.5 12.5q15 0 26 -6.5t20 -20.5l102 -161l-19 -15z" />
    <glyph glyph-name="emacron" unicode="&#x113;" horiz-adv-x="458" 
d="M415 115l17 -16q-78 -107 -187 -107q-63 0 -113 29.5t-78 81t-28 113.5q0 68 30 121.5t82.5 83.5t118.5 30q51 0 91 -24t62 -66.5t22 -95.5q0 -11 -6 -18t-17 -7h-257v-1q0 -82 41.5 -128.5t103.5 -46.5q60 0 118 51zM185.5 382q-25.5 -38 -31.5 -103l149 6q14 0 14 21
q0 52 -18 83t-48 31q-40 0 -65.5 -38zM95 645h334v-55h-334v55z" />
    <glyph glyph-name="eogonek" unicode="&#x119;" horiz-adv-x="458" 
d="M415 115l17 -16q-55 -75 -124 -97q-30 -13 -53 -38.5t-23 -57.5q0 -36 13.5 -53t36.5 -17q30 0 71 30l19 -22q-29 -31 -62.5 -50t-61.5 -19q-32 0 -61 17.5t-46.5 45.5t-17.5 59q0 27 29 51.5t73 44.5q-57 4 -102.5 35t-71 80t-25.5 108q0 68 30 121.5t82.5 83.5
t118.5 30q51 0 91 -24t62 -66.5t22 -95.5q0 -11 -6 -18t-17 -7h-257v-1q0 -82 41.5 -128.5t103.5 -46.5q60 0 118 51zM185.5 382q-25.5 -38 -31.5 -103l149 6q14 0 14 21q0 52 -18 83t-48 31q-40 0 -65.5 -38z" />
    <glyph glyph-name="f" unicode="f" horiz-adv-x="355" 
d="M30 17l33 12q15 6 21 15t6 25v340h-65v32h65v48q0 119 54 170.5t154 51.5q57 0 92.5 -22.5t35.5 -60.5q0 -28 -15.5 -44t-39.5 -16q-26 0 -42.5 14.5t-16.5 40.5q0 14 9 27q1 2 4 7t3 10q0 17 -37 17q-45 0 -65 -46t-20 -154v-43h115l-10 -32h-105v-347q0 -25 31 -33
l44 -12v-17h-251v17z" />
    <glyph glyph-name="g" unicode="g" horiz-adv-x="527" 
d="M463 33q55 -33 55 -106q0 -91 -78.5 -139t-202.5 -48q-91 0 -154 29t-63 85q0 40 38.5 69t92.5 37q-50 8 -79.5 30.5t-29.5 58.5q0 5 7 11q46 32 88 89v5q-40 22 -61.5 59.5t-21.5 76.5q0 71 50.5 115.5t131.5 44.5q25 0 47.5 -5t51.5 -15q18 -6 37 -11t34 -5q28 0 28 18
q0 15 -12 33q-12 17 -12 34q0 20 12 30.5t30 10.5q23 0 36.5 -17.5t13.5 -43.5q0 -54 -20 -79.5t-53 -25.5q-21 0 -41 10v-6q15 -26 21 -46.5t6 -47.5q0 -42 -21 -77t-60.5 -55.5t-92.5 -20.5q-46 0 -73 -10.5t-27 -26.5q0 -15 15.5 -23.5t41.5 -8.5l53 2q50 2 75 2
q82 0 137 -33zM174 298q0 -129 66 -129q30 0 46 29.5t16 89.5q0 62 -17 94t-49 32q-62 0 -62 -116zM395.5 -186.5q46.5 23.5 46.5 65.5q0 38 -34.5 59.5t-90.5 21.5q-20 0 -60 -2q-28 -2 -41 -2h1q-89 -14 -89 -77q0 -36 38.5 -62.5t108.5 -26.5q74 0 120.5 23.5z" />
    <glyph glyph-name="gbreve" unicode="&#x11f;" horiz-adv-x="527" 
d="M463 33q55 -33 55 -106q0 -91 -78.5 -139t-202.5 -48q-91 0 -154 29t-63 85q0 40 38.5 69t92.5 37q-50 8 -79.5 30.5t-29.5 58.5q0 5 7 11q46 32 88 89v5q-40 22 -61.5 59.5t-21.5 76.5q0 71 50.5 115.5t131.5 44.5q25 0 47.5 -5t51.5 -15q18 -6 37 -11t34 -5q28 0 28 18
q0 15 -12 33q-12 17 -12 34q0 20 12 30.5t30 10.5q23 0 36.5 -17.5t13.5 -43.5q0 -54 -20 -79.5t-53 -25.5q-21 0 -41 10v-6q15 -26 21 -46.5t6 -47.5q0 -42 -21 -77t-60.5 -55.5t-92.5 -20.5q-46 0 -73 -10.5t-27 -26.5q0 -15 15.5 -23.5t41.5 -8.5l53 2q50 2 75 2
q82 0 137 -33zM174 298q0 -129 66 -129q30 0 46 29.5t16 89.5q0 62 -17 94t-49 32q-62 0 -62 -116zM395.5 -186.5q46.5 23.5 46.5 65.5q0 38 -34.5 59.5t-90.5 21.5q-20 0 -60 -2q-28 -2 -41 -2h1q-89 -14 -89 -77q0 -36 38.5 -62.5t108.5 -26.5q74 0 120.5 23.5zM183 624
q-28 15 -45 40t-17 53h-33q0 -83 43 -133t111 -50q69 0 112 50t43 133h-34q0 -28 -17 -53t-45 -40t-59 -15t-59 15z" />
    <glyph glyph-name="uni0123" unicode="&#x123;" horiz-adv-x="527" 
d="M463 33q55 -33 55 -106q0 -91 -78.5 -139t-202.5 -48q-91 0 -154 29t-63 85q0 40 38.5 69t92.5 37q-50 8 -79.5 30.5t-29.5 58.5q0 5 7 11q46 32 88 89v5q-40 22 -61.5 59.5t-21.5 76.5q0 71 50.5 115.5t131.5 44.5q25 0 47.5 -5t51.5 -15q18 -6 37 -11t34 -5q28 0 28 18
q0 15 -12 33q-12 17 -12 34q0 20 12 30.5t30 10.5q23 0 36.5 -17.5t13.5 -43.5q0 -54 -20 -79.5t-53 -25.5q-21 0 -41 10v-6q15 -26 21 -46.5t6 -47.5q0 -42 -21 -77t-60.5 -55.5t-92.5 -20.5q-46 0 -73 -10.5t-27 -26.5q0 -15 15.5 -23.5t41.5 -8.5l53 2q50 2 75 2
q82 0 137 -33zM174 298q0 -129 66 -129q30 0 46 29.5t16 89.5q0 62 -17 94t-49 32q-62 0 -62 -116zM395.5 -186.5q46.5 23.5 46.5 65.5q0 38 -34.5 59.5t-90.5 21.5q-20 0 -60 -2q-28 -2 -41 -2h1q-89 -14 -89 -77q0 -36 38.5 -62.5t108.5 -26.5q74 0 120.5 23.5zM341 698
q-33 -2 -53 -19t-20 -41q0 -17 19 -31t51 -15h11v-27q-28 -13 -44.5 -25.5t-31.5 -33.5q-48 10 -78.5 36t-30.5 60q0 55 47 91t130 40v-35z" />
    <glyph glyph-name="gdotaccent" unicode="&#x121;" horiz-adv-x="527" 
d="M463 33q55 -33 55 -106q0 -91 -78.5 -139t-202.5 -48q-91 0 -154 29t-63 85q0 40 38.5 69t92.5 37q-50 8 -79.5 30.5t-29.5 58.5q0 5 7 11q46 32 88 89v5q-40 22 -61.5 59.5t-21.5 76.5q0 71 50.5 115.5t131.5 44.5q25 0 47.5 -5t51.5 -15q18 -6 37 -11t34 -5q28 0 28 18
q0 15 -12 33q-12 17 -12 34q0 20 12 30.5t30 10.5q23 0 36.5 -17.5t13.5 -43.5q0 -54 -20 -79.5t-53 -25.5q-21 0 -41 10v-6q15 -26 21 -46.5t6 -47.5q0 -42 -21 -77t-60.5 -55.5t-92.5 -20.5q-46 0 -73 -10.5t-27 -26.5q0 -15 15.5 -23.5t41.5 -8.5l53 2q50 2 75 2
q82 0 137 -33zM174 298q0 -129 66 -129q30 0 46 29.5t16 89.5q0 62 -17 94t-49 32q-62 0 -62 -116zM395.5 -186.5q46.5 23.5 46.5 65.5q0 38 -34.5 59.5t-90.5 21.5q-20 0 -60 -2q-28 -2 -41 -2h1q-89 -14 -89 -77q0 -36 38.5 -62.5t108.5 -26.5q74 0 120.5 23.5zM190.5 567
q-21.5 21 -21.5 52t21.5 52t51.5 21q31 0 52.5 -21t21.5 -52t-21.5 -52t-52.5 -21q-30 0 -51.5 21z" />
    <glyph glyph-name="h" unicode="h" horiz-adv-x="569" 
d="M558 17v-17h-233v17l32 12q27 11 27 40v209q0 44 -23 67.5t-66 23.5q-42 0 -66 -26t-24 -68v-213q0 -13 8 -21t19 -12l32 -12v-17h-234v17l33 12q27 11 27 40v539q0 20 -6.5 27.5t-20.5 10.5l-33 8v18q64 9 101.5 16t77.5 22l10 -8q-14 -21 -14 -85v-237q44 20 120 64
q9 6 25 6q71 0 110 -36t39 -103v-249q0 -13 8 -21t19 -12z" />
    <glyph glyph-name="hbar" unicode="&#x127;" horiz-adv-x="569" 
d="M558 17v-17h-233v17l32 12q27 11 27 40v199q0 44 -23 67.5t-66 23.5q-42 0 -66 -26t-24 -68v-203q0 -13 8 -21t19 -12l32 -12v-17h-234v17l33 12q27 11 27 40v457h-60v47h60v35q0 20 -6.5 27.5t-20.5 10.5l-33 8v18q64 9 101.5 16t77.5 22l10 -8q-14 -21 -14 -85v-44h163
v-47h-163v-156q44 20 120 64q9 6 25 6q71 0 110 -36t39 -103v-239q0 -13 8 -21t19 -12z" />
    <glyph glyph-name="i" unicode="i" horiz-adv-x="279" 
d="M30 17l33 12q27 11 27 40v285q0 20 -6.5 27.5t-20.5 10.5l-33 8v18q65 9 102 16t77 22l9 -8q-13 -22 -13 -84v-302q0 -13 8 -21t18 -12l33 -12v-17h-234v17zM93.5 567q-21.5 21 -21.5 52t21.5 52t51.5 21q31 0 52.5 -21t21.5 -52t-21.5 -52t-52.5 -21q-30 0 -51.5 21z
" />
    <glyph glyph-name="dotlessi" unicode="&#x131;" horiz-adv-x="279" 
d="M30 17l33 12q27 11 27 40v285q0 20 -6.5 27.5t-20.5 10.5l-33 8v18q65 9 102 16t77 22l9 -8q-13 -22 -13 -84v-302q0 -13 8 -21t18 -12l33 -12v-17h-234v17z" />
    <glyph glyph-name="iacute" unicode="&#xed;" horiz-adv-x="279" 
d="M30 17l33 12q27 11 27 40v285q0 20 -6.5 27.5t-20.5 10.5l-33 8v18q65 9 102 16t77 22l9 -8q-13 -22 -13 -84v-302q0 -13 8 -21t18 -12l33 -12v-17h-234v17zM62 557l110 155q18 26 43 26q20 0 32 -12.5t12 -29.5q0 -26 -24 -43l-155 -112z" />
    <glyph glyph-name="icircumflex" unicode="&#xee;" horiz-adv-x="279" 
d="M30 17l33 12q27 11 27 40v285q0 20 -6.5 27.5t-20.5 10.5l-33 8v18q65 9 102 16t77 22l9 -8q-13 -22 -13 -84v-302q0 -13 8 -21t18 -12l33 -12v-17h-234v17zM303 539l-17 -16l-141 96l-140 -96l-18 16l138 180h41z" />
    <glyph glyph-name="idieresis" unicode="&#xef;" horiz-adv-x="279" 
d="M30 17l33 12q27 11 27 40v285q0 20 -6.5 27.5t-20.5 10.5l-33 8v18q65 9 102 16t77 22l9 -8q-13 -22 -13 -84v-302q0 -13 8 -21t18 -12l33 -12v-17h-234v17zM-11.5 576.5q-19.5 19.5 -19.5 45.5q0 27 19.5 46t46.5 19q26 0 45.5 -19.5t19.5 -45.5q0 -27 -19.5 -46
t-45.5 -19q-27 0 -46.5 19.5zM209.5 576.5q-19.5 19.5 -19.5 45.5q0 27 19.5 46t46.5 19q26 0 45.5 -19.5t19.5 -45.5q0 -27 -19.5 -46t-45.5 -19q-27 0 -46.5 19.5z" />
    <glyph glyph-name="i.loclTRK" horiz-adv-x="279" 
d="M30 17l33 12q27 11 27 40v285q0 20 -6.5 27.5t-20.5 10.5l-33 8v18q65 9 102 16t77 22l9 -8q-13 -22 -13 -84v-302q0 -13 8 -21t18 -12l33 -12v-17h-234v17zM93.5 567q-21.5 21 -21.5 52t21.5 52t51.5 21q31 0 52.5 -21t21.5 -52t-21.5 -52t-52.5 -21q-30 0 -51.5 21z
" />
    <glyph glyph-name="igrave" unicode="&#xec;" horiz-adv-x="279" 
d="M30 17l33 12q27 11 27 40v285q0 20 -6.5 27.5t-20.5 10.5l-33 8v18q65 9 102 16t77 22l9 -8q-13 -22 -13 -84v-302q0 -13 8 -21t18 -12l33 -12v-17h-234v17zM64 655q-21 17 -21 41q0 17 11.5 29.5t29.5 12.5q15 0 26 -6.5t20 -20.5l102 -161l-19 -15z" />
    <glyph glyph-name="imacron" unicode="&#x12b;" horiz-adv-x="279" 
d="M30 17l33 12q27 11 27 40v285q0 20 -6.5 27.5t-20.5 10.5l-33 8v18q65 9 102 16t77 22l9 -8q-13 -22 -13 -84v-302q0 -13 8 -21t18 -12l33 -12v-17h-234v17zM-22 645h334v-55h-334v55z" />
    <glyph glyph-name="iogonek" unicode="&#x12f;" horiz-adv-x="279" 
d="M93.5 567q-21.5 21 -21.5 52t21.5 52t51.5 21q31 0 52.5 -21t21.5 -52t-21.5 -52t-52.5 -21q-30 0 -51.5 21zM269 -156q-29 -31 -62.5 -50t-61.5 -19q-32 0 -61 17.5t-46.5 45.5t-17.5 59q0 30 35 57t85 46h-110v17l33 12q27 11 27 40v285q0 20 -6.5 27.5t-20.5 10.5
l-33 8v18q65 9 102 16t77 22l9 -8q-13 -22 -13 -84v-302q0 -13 8 -21t18 -12l33 -12v-17h-63q-29 -13 -50.5 -37.5t-21.5 -56.5q0 -36 13.5 -53t36.5 -17q30 0 71 30z" />
    <glyph glyph-name="j" unicode="j" horiz-adv-x="268" 
d="M-56 -243q-22 17 -22 45q0 29 18 46t43 17q27 0 43.5 -17t16.5 -42q0 -5 -1.5 -9.5t-1.5 -8.5q0 -9 6 -9q15 0 26 25.5t11 87.5v462q0 20 -6.5 27.5t-20.5 10.5l-33 8v18q64 9 101.5 16t77.5 22l10 -8q-7 -11 -10.5 -33.5t-3.5 -50.5v-460q-6 0 -11.5 -3.5t-8.5 -10.5
q-33 -76 -71.5 -113t-100.5 -37q-40 0 -62 17zM87.5 567q-21.5 21 -21.5 52t21.5 52t51.5 21q31 0 52.5 -21t21.5 -52t-21.5 -52t-52.5 -21q-30 0 -51.5 21z" />
    <glyph glyph-name="uni0237" unicode="&#x237;" horiz-adv-x="268" 
d="M-56 -243q-22 17 -22 45q0 29 18 46t43 17q27 0 43.5 -17t16.5 -42q0 -5 -1.5 -9.5t-1.5 -8.5q0 -9 6 -9q15 0 26 25.5t11 87.5v462q0 20 -6.5 27.5t-20.5 10.5l-33 8v18q64 9 101.5 16t77.5 22l10 -8q-7 -11 -10.5 -33.5t-3.5 -50.5v-460q-6 0 -11.5 -3.5t-8.5 -10.5
q-33 -76 -71.5 -113t-100.5 -37q-40 0 -62 17z" />
    <glyph glyph-name="jcircumflex" unicode="&#x135;" horiz-adv-x="268" 
d="M-56 -243q-22 17 -22 45q0 29 18 46t43 17q27 0 43.5 -17t16.5 -42q0 -5 -1.5 -9.5t-1.5 -8.5q0 -9 6 -9q15 0 26 25.5t11 87.5v462q0 20 -6.5 27.5t-20.5 10.5l-33 8v18q64 9 101.5 16t77.5 22l10 -8q-7 -11 -10.5 -33.5t-3.5 -50.5v-460q-6 0 -11.5 -3.5t-8.5 -10.5
q-33 -76 -71.5 -113t-100.5 -37q-40 0 -62 17zM297 539l-17 -16l-141 96l-140 -96l-18 16l138 180h41z" />
    <glyph glyph-name="k" unicode="k" horiz-adv-x="577" 
d="M566 17v-17h-255v17l22 5q26 7 26 24q0 9 -7 19l-93 140l-54 -50v-93q0 -13 8 -21t19 -12l32 -12v-17h-234v17l33 12q27 11 27 40v539q0 20 -6.5 27.5t-20.5 10.5l-33 8v18q64 9 101.5 16t77.5 22l10 -8q-14 -21 -14 -85v-411l190 183q7 6 7 13q0 10 -16 13l-46 9v17h202
v-17l-50 -10q-12 -4 -18.5 -7.5t-14.5 -11.5l-117 -111l153 -227q10 -14 20.5 -22t29.5 -13z" />
    <glyph glyph-name="uni0137" unicode="&#x137;" horiz-adv-x="577" 
d="M566 17v-17h-255v17l22 5q26 7 26 24q0 9 -7 19l-93 140l-54 -50v-93q0 -13 8 -21t19 -12l32 -12v-17h-234v17l33 12q27 11 27 40v539q0 20 -6.5 27.5t-20.5 10.5l-33 8v18q64 9 101.5 16t77.5 22l10 -8q-14 -21 -14 -85v-411l190 183q7 6 7 13q0 10 -16 13l-46 9v17h202
v-17l-50 -10q-12 -4 -18.5 -7.5t-14.5 -11.5l-117 -111l153 -227q10 -14 20.5 -22t29.5 -13zM200 -215q32 3 52 20t20 41q0 17 -19 31t-51 15h-10v27q27 12 43.5 24.5t32.5 33.5q48 -9 78.5 -35t30.5 -60q0 -55 -47.5 -91t-129.5 -40v34z" />
    <glyph glyph-name="l" unicode="l" horiz-adv-x="280" 
d="M30 17l33 12q27 11 27 40v539q0 20 -6.5 27.5t-20.5 10.5l-33 8v18q64 9 101.5 16t77.5 22l10 -8q-14 -21 -14 -85v-555q0 -13 8 -21t19 -12l32 -12v-17h-234v17z" />
    <glyph glyph-name="lacute" unicode="&#x13a;" horiz-adv-x="280" 
d="M30 17l33 12q27 11 27 40v539q0 20 -6.5 27.5t-20.5 10.5l-33 8v18q64 9 101.5 16t77.5 22l10 -8q-14 -21 -14 -85v-555q0 -13 8 -21t19 -12l32 -12v-17h-234v17zM67 754l159 103q17 11 32 11q10 0 18 -4q14 -6 21 -16.5t7 -22.5q0 -8 -3 -16q-10 -24 -38 -30l-185 -47z
" />
    <glyph glyph-name="lcaron" unicode="&#x13e;" horiz-adv-x="388" 
d="M30 17l33 12q27 11 27 40v539q0 20 -6.5 27.5t-20.5 10.5l-33 8v18q64 9 101.5 16t77.5 22l10 -8q-14 -21 -14 -85v-555q0 -13 8 -21t19 -12l32 -12v-17h-234v17zM262 479l31 188q10 45 49 45q18 0 29.5 -12t11.5 -30q0 -14 -8 -29l-89 -168z" />
    <glyph glyph-name="uni013C" unicode="&#x13c;" horiz-adv-x="280" 
d="M30 17l33 12q27 11 27 40v539q0 20 -6.5 27.5t-20.5 10.5l-33 8v18q64 9 101.5 16t77.5 22l10 -8q-14 -21 -14 -85v-555q0 -13 8 -21t19 -12l32 -12v-17h-234v17zM57 -215q32 3 52 20t20 41q0 17 -19 31t-51 15h-10v27q27 12 43.5 24.5t32.5 33.5q48 -9 78.5 -35
t30.5 -60q0 -55 -47.5 -91t-129.5 -40v34z" />
    <glyph glyph-name="lslash" unicode="&#x142;" horiz-adv-x="280" 
d="M205 310v-248q0 -13 8 -21t19 -12l32 -12v-17h-234v17l33 12q27 11 27 40v199l-60 -22v56l60 22v284q0 20 -6.5 27.5t-20.5 10.5l-33 8v18q64 9 101.5 16t77.5 22l10 -8q-14 -21 -14 -85v-251l59 21v-55z" />
    <glyph glyph-name="m" unicode="m" horiz-adv-x="827" 
d="M817 17v-17h-234v17l33 12q27 11 27 40v208q0 44 -21 68t-59 24t-60 -25t-22 -67v-215q0 -13 8 -21t19 -12l33 -12v-17h-234v17l32 12q27 11 27 40v208q0 44 -21 68t-59 24t-59.5 -25t-21.5 -67v-215q0 -13 8 -21t19 -12l32 -12v-17h-234v17l33 12q27 11 27 40v285
q0 20 -6.5 27.5t-20.5 10.5l-33 8v18q72 11 102.5 17.5t69.5 20.5l10 -8q-12 -20 -14 -68h6q60 28 120 64q9 6 17 6q47 0 79 -18t48 -52h12q59 27 121 64q9 6 17 6q66 0 103 -36t37 -103v-249q0 -13 8 -21t19 -12z" />
    <glyph glyph-name="n" unicode="n" horiz-adv-x="569" 
d="M558 17v-17h-233v17l32 12q27 11 27 40v209q0 44 -23 67.5t-66 23.5q-42 0 -66 -26t-24 -68v-213q0 -13 8 -21t19 -12l32 -12v-17h-234v17l33 12q27 11 27 40v285q0 20 -6.5 27.5t-20.5 10.5l-33 8v18q72 11 102.5 17.5t69.5 20.5l10 -8q-12 -20 -14 -68h6q49 23 121 64
q11 7 25 7q71 0 110 -36.5t39 -103.5v-249q0 -13 8 -21t19 -12z" />
    <glyph glyph-name="nacute" unicode="&#x144;" horiz-adv-x="569" 
d="M558 17v-17h-233v17l32 12q27 11 27 40v209q0 44 -23 67.5t-66 23.5q-42 0 -66 -26t-24 -68v-213q0 -13 8 -21t19 -12l32 -12v-17h-234v17l33 12q27 11 27 40v285q0 20 -6.5 27.5t-20.5 10.5l-33 8v18q72 11 102.5 17.5t69.5 20.5l10 -8q-12 -20 -14 -68h6q49 23 121 64
q11 7 25 7q71 0 110 -36.5t39 -103.5v-249q0 -13 8 -21t19 -12zM202 557l110 155q18 26 43 26q20 0 32 -12.5t12 -29.5q0 -26 -24 -43l-155 -112z" />
    <glyph glyph-name="ncaron" unicode="&#x148;" horiz-adv-x="569" 
d="M558 17v-17h-233v17l32 12q27 11 27 40v209q0 44 -23 67.5t-66 23.5q-42 0 -66 -26t-24 -68v-213q0 -13 8 -21t19 -12l32 -12v-17h-234v17l33 12q27 11 27 40v285q0 20 -6.5 27.5t-20.5 10.5l-33 8v18q72 11 102.5 17.5t69.5 20.5l10 -8q-12 -20 -14 -68h6q49 23 121 64
q11 7 25 7q71 0 110 -36.5t39 -103.5v-249q0 -13 8 -21t19 -12zM127 707l18 16l140 -96l141 96l17 -16l-137 -180h-41z" />
    <glyph glyph-name="uni0146" unicode="&#x146;" horiz-adv-x="569" 
d="M558 17v-17h-233v17l32 12q27 11 27 40v209q0 44 -23 67.5t-66 23.5q-42 0 -66 -26t-24 -68v-213q0 -13 8 -21t19 -12l32 -12v-17h-234v17l33 12q27 11 27 40v285q0 20 -6.5 27.5t-20.5 10.5l-33 8v18q72 11 102.5 17.5t69.5 20.5l10 -8q-12 -20 -14 -68h6q49 23 121 64
q11 7 25 7q71 0 110 -36.5t39 -103.5v-249q0 -13 8 -21t19 -12zM201 -215q32 3 52 20t20 41q0 17 -19 31t-51 15h-10v27q27 12 43.5 24.5t32.5 33.5q48 -9 78.5 -35t30.5 -60q0 -55 -47.5 -91t-129.5 -40v34z" />
    <glyph glyph-name="eng" unicode="&#x14b;" horiz-adv-x="544" 
d="M460 414q39 -36 39 -103v-407q-6 0 -11.5 -3.5t-8.5 -10.5q-32 -76 -70.5 -113t-101.5 -37q-40 0 -62 17t-22 45q0 29 18 46t43 17q27 0 43.5 -17t16.5 -42q0 -5 -1 -9.5t-1 -8.5q0 -9 6 -9q14 0 25 25.5t11 87.5v386q0 44 -23 67.5t-66 23.5q-42 0 -66 -26t-24 -68v-213
q0 -13 8 -21t19 -12l32 -12v-17h-234v17l33 12q27 11 27 40v285q0 20 -6.5 27.5t-20.5 10.5l-33 8v18q72 11 102.5 17.5t69.5 20.5l10 -8q-12 -20 -14 -68h6q49 23 121 64q9 6 25 6q71 0 110 -36z" />
    <glyph glyph-name="ntilde" unicode="&#xf1;" horiz-adv-x="569" 
d="M558 17v-17h-233v17l32 12q27 11 27 40v209q0 44 -23 67.5t-66 23.5q-42 0 -66 -26t-24 -68v-213q0 -13 8 -21t19 -12l32 -12v-17h-234v17l33 12q27 11 27 40v285q0 20 -6.5 27.5t-20.5 10.5l-33 8v18q72 11 102.5 17.5t69.5 20.5l10 -8q-12 -20 -14 -68h6q49 23 121 64
q11 7 25 7q71 0 110 -36.5t39 -103.5v-249q0 -13 8 -21t19 -12zM127 531l66 98l180 16q10 1 15 2.5t12 7.5l24 22l22 -18l-67 -99l-179 -14q-10 -1 -15 -3t-12 -8l-24 -22z" />
    <glyph glyph-name="o" unicode="o" horiz-adv-x="501" 
d="M133 21.5q-51 29.5 -79 81t-28 115.5q0 67 28 120t79 82.5t117 29.5q67 0 118 -29.5t79 -80.5t28 -114q0 -68 -28 -121t-79 -83t-118 -30q-66 0 -117 29.5zM350 215q0 101 -25.5 152.5t-75.5 51.5q-97 0 -97 -190q0 -205 99 -205t99 191z" />
    <glyph glyph-name="oacute" unicode="&#xf3;" horiz-adv-x="501" 
d="M133 21.5q-51 29.5 -79 81t-28 115.5q0 67 28 120t79 82.5t117 29.5q67 0 118 -29.5t79 -80.5t28 -114q0 -68 -28 -121t-79 -83t-118 -30q-66 0 -117 29.5zM350 215q0 101 -25.5 152.5t-75.5 51.5q-97 0 -97 -190q0 -205 99 -205t99 191zM167 557l110 155q18 26 43 26
q20 0 32 -12.5t12 -29.5q0 -26 -24 -43l-155 -112z" />
    <glyph glyph-name="ocircumflex" unicode="&#xf4;" horiz-adv-x="501" 
d="M133 21.5q-51 29.5 -79 81t-28 115.5q0 67 28 120t79 82.5t117 29.5q67 0 118 -29.5t79 -80.5t28 -114q0 -68 -28 -121t-79 -83t-118 -30q-66 0 -117 29.5zM350 215q0 101 -25.5 152.5t-75.5 51.5q-97 0 -97 -190q0 -205 99 -205t99 191zM408 539l-17 -16l-141 96
l-140 -96l-18 16l138 180h41z" />
    <glyph glyph-name="odieresis" unicode="&#xf6;" horiz-adv-x="501" 
d="M133 21.5q-51 29.5 -79 81t-28 115.5q0 67 28 120t79 82.5t117 29.5q67 0 118 -29.5t79 -80.5t28 -114q0 -68 -28 -121t-79 -83t-118 -30q-66 0 -117 29.5zM350 215q0 101 -25.5 152.5t-75.5 51.5q-97 0 -97 -190q0 -205 99 -205t99 191zM93.5 576.5
q-19.5 19.5 -19.5 45.5q0 27 19.5 46t46.5 19q26 0 45.5 -19.5t19.5 -45.5q0 -27 -19.5 -46t-45.5 -19q-27 0 -46.5 19.5zM314.5 576.5q-19.5 19.5 -19.5 45.5q0 27 19.5 46t46.5 19q26 0 45.5 -19.5t19.5 -45.5q0 -27 -19.5 -46t-45.5 -19q-27 0 -46.5 19.5z" />
    <glyph glyph-name="ograve" unicode="&#xf2;" horiz-adv-x="501" 
d="M133 21.5q-51 29.5 -79 81t-28 115.5q0 67 28 120t79 82.5t117 29.5q67 0 118 -29.5t79 -80.5t28 -114q0 -68 -28 -121t-79 -83t-118 -30q-66 0 -117 29.5zM350 215q0 101 -25.5 152.5t-75.5 51.5q-97 0 -97 -190q0 -205 99 -205t99 191zM168 655q-21 17 -21 41
q0 17 11.5 29.5t29.5 12.5q15 0 26 -6.5t20 -20.5l102 -161l-19 -15z" />
    <glyph glyph-name="ohungarumlaut" unicode="&#x151;" horiz-adv-x="501" 
d="M133 21.5q-51 29.5 -79 81t-28 115.5q0 67 28 120t79 82.5t117 29.5q67 0 118 -29.5t79 -80.5t28 -114q0 -68 -28 -121t-79 -83t-118 -30q-66 0 -117 29.5zM350 215q0 101 -25.5 152.5t-75.5 51.5q-97 0 -97 -190q0 -205 99 -205t99 191zM109 550l98 163q17 28 44 28
q20 0 32 -12t12 -30q0 -24 -21 -41l-146 -122zM281 557l110 155q17 26 43 26q20 0 32 -12.5t12 -29.5q0 -25 -24 -43l-155 -112z" />
    <glyph glyph-name="omacron" unicode="&#x14d;" horiz-adv-x="501" 
d="M133 21.5q-51 29.5 -79 81t-28 115.5q0 67 28 120t79 82.5t117 29.5q67 0 118 -29.5t79 -80.5t28 -114q0 -68 -28 -121t-79 -83t-118 -30q-66 0 -117 29.5zM350 215q0 101 -25.5 152.5t-75.5 51.5q-97 0 -97 -190q0 -205 99 -205t99 191zM83 645h334v-55h-334v55z" />
    <glyph glyph-name="oslash" unicode="&#xf8;" horiz-adv-x="501" 
d="M476 226q0 -68 -28 -121t-79.5 -83t-118.5 -30q-84 0 -143 48l-49 -51l-32 32l49 51q-49 62 -49 146q0 67 28 120t79 82.5t117 29.5q85 0 145 -47l45 47l34 -31l-47 -48q49 -60 49 -145zM156 156l179 185q-24 78 -86 78q-97 0 -97 -190q0 -44 4 -73zM350 215q0 43 -4 72
l-179 -185q24 -78 84 -78q99 0 99 191z" />
    <glyph glyph-name="otilde" unicode="&#xf5;" horiz-adv-x="501" 
d="M133 21.5q-51 29.5 -79 81t-28 115.5q0 67 28 120t79 82.5t117 29.5q67 0 118 -29.5t79 -80.5t28 -114q0 -68 -28 -121t-79 -83t-118 -30q-66 0 -117 29.5zM350 215q0 101 -25.5 152.5t-75.5 51.5q-97 0 -97 -190q0 -205 99 -205t99 191zM91 531l66 98l180 16
q10 1 15 2.5t12 7.5l24 22l22 -18l-67 -99l-179 -14q-10 -1 -15 -3t-12 -8l-24 -22z" />
    <glyph glyph-name="oe" unicode="&#x153;" horiz-adv-x="772" 
d="M729 114l17 -16q-78 -107 -187 -107q-46 0 -84.5 17t-67.5 48q-58 -64 -157 -64q-66 0 -117 29.5t-79 81t-28 115.5q0 67 28 120t79 82.5t117 29.5q51 0 92 -17.5t69 -48.5q29 32 70 49t90 17q51 0 91 -24t62 -66.5t22 -95.5q0 -11 -6 -18t-17 -7h-257v-1
q0 -82 41.5 -128.5t103.5 -46.5q58 0 118 51zM350 215q0 101 -25.5 152.5t-75.5 51.5q-97 0 -97 -190q0 -205 99 -205t99 191zM499.5 381q-25.5 -38 -31.5 -103l149 6q14 0 14 21q0 52 -18 83t-48 31q-40 0 -65.5 -38z" />
    <glyph glyph-name="p" unicode="p" horiz-adv-x="557" 
d="M20 -233l33 12q15 6 21 15t6 25v535q0 20 -6.5 27.5t-20.5 10.5l-33 8v18q72 11 102.5 17.5t69.5 20.5l10 -8q-11 -17 -14 -59h2l83 49q20 12 38 12q71 0 121 -30.5t75 -81t25 -109.5q0 -61 -25 -115.5t-75.5 -88.5t-122.5 -34q-32 0 -62.5 7t-51.5 18v-204
q0 -11 7.5 -19t23.5 -14l38 -12v-17h-244v17zM377.5 74q28.5 48 28.5 117q0 79 -32 133.5t-93 54.5q-39 0 -63 -25t-24 -62v-137q0 -34 14 -64t37.5 -47.5t50.5 -17.5q53 0 81.5 48z" />
    <glyph glyph-name="thorn" unicode="&#xfe;" horiz-adv-x="567" 
d="M30 -233l33 12q15 6 21 15t6 25v789q0 20 -6.5 27.5t-20.5 10.5l-33 8v18q64 9 101.5 16t77.5 22l10 -8q-14 -23 -14 -85v-224h2l76 45q20 12 38 12q71 0 121 -30.5t75 -81t25 -109.5q0 -61 -25 -115.5t-75.5 -88.5t-122.5 -34q-32 0 -62 7t-52 18v-204q0 -11 7.5 -19
t23.5 -14l38 -12v-17h-244v17zM388 74q28 48 28 117q0 79 -31.5 133.5t-92.5 54.5q-40 0 -63.5 -25t-23.5 -62v-137q0 -34 14 -64t37 -47.5t50 -17.5q54 0 82 48z" />
    <glyph glyph-name="q" unicode="q" horiz-adv-x="557" 
d="M294 -233l37 12q32 12 32 33v236l-81 -45q-20 -11 -38 -11q-71 0 -120.5 30t-73.5 80.5t-24 110.5q0 61 26.5 115t79.5 88t130 34q41 0 82.5 -16t68.5 -41q18 19 44 62l21 -3v-633q0 -16 6 -25t21 -15l32 -12v-17h-243v17zM339.5 87q23.5 25 23.5 62v137q0 35 -14 65
t-37.5 47.5t-49.5 17.5q-54 0 -82.5 -48t-28.5 -118q0 -79 32 -133.5t93 -54.5q40 0 63.5 25z" />
    <glyph glyph-name="r" unicode="r" horiz-adv-x="429" 
d="M399 429q20 -21 20 -51q0 -25 -20 -45t-50 -20t-56 28q-3 3 -9 9.5t-12 10t-11 3.5q-20 0 -38 -23t-18 -81v-198q0 -11 7.5 -19t23.5 -14l38 -12v-17h-244v17l33 12q15 6 21 15t6 25v285q0 20 -6.5 27.5t-20.5 10.5l-33 8v18q72 11 102.5 17.5t69.5 20.5l10 -8
q-14 -23 -14 -81l108 68q26 15 47 15q26 0 46 -21z" />
    <glyph glyph-name="racute" unicode="&#x155;" horiz-adv-x="429" 
d="M399 429q20 -21 20 -51q0 -25 -20 -45t-50 -20t-56 28q-3 3 -9 9.5t-12 10t-11 3.5q-20 0 -38 -23t-18 -81v-198q0 -11 7.5 -19t23.5 -14l38 -12v-17h-244v17l33 12q15 6 21 15t6 25v285q0 20 -6.5 27.5t-20.5 10.5l-33 8v18q72 11 102.5 17.5t69.5 20.5l10 -8
q-14 -23 -14 -81l108 68q26 15 47 15q26 0 46 -21zM145 557l110 155q18 26 43 26q20 0 32 -12.5t12 -29.5q0 -26 -24 -43l-155 -112z" />
    <glyph glyph-name="rcaron" unicode="&#x159;" horiz-adv-x="429" 
d="M399 429q20 -21 20 -51q0 -25 -20 -45t-50 -20t-56 28q-3 3 -9 9.5t-12 10t-11 3.5q-20 0 -38 -23t-18 -81v-198q0 -11 7.5 -19t23.5 -14l38 -12v-17h-244v17l33 12q15 6 21 15t6 25v285q0 20 -6.5 27.5t-20.5 10.5l-33 8v18q72 11 102.5 17.5t69.5 20.5l10 -8
q-14 -23 -14 -81l108 68q26 15 47 15q26 0 46 -21zM70 707l18 16l140 -96l141 96l17 -16l-137 -180h-41z" />
    <glyph glyph-name="uni0157" unicode="&#x157;" horiz-adv-x="429" 
d="M399 429q20 -21 20 -51q0 -25 -20 -45t-50 -20t-56 28q-3 3 -9 9.5t-12 10t-11 3.5q-20 0 -38 -23t-18 -81v-198q0 -11 7.5 -19t23.5 -14l38 -12v-17h-244v17l33 12q15 6 21 15t6 25v285q0 20 -6.5 27.5t-20.5 10.5l-33 8v18q72 11 102.5 17.5t69.5 20.5l10 -8
q-14 -23 -14 -81l108 68q26 15 47 15q26 0 46 -21zM90 -215q32 3 52 20t20 41q0 17 -19 31t-51 15h-10v27q27 12 43.5 24.5t32.5 33.5q48 -9 78.5 -35t30.5 -60q0 -55 -47.5 -91t-129.5 -40v34z" />
    <glyph glyph-name="s" unicode="s" horiz-adv-x="409" 
d="M116.5 5q-41.5 13 -71.5 29q2 34 2 57q0 48 -7 76h38q9 -62 44 -103t86 -41q30 0 49 17t19 47q0 25 -9 40t-31.5 28t-68.5 31q-61 24 -87.5 56t-26.5 85q0 33 20.5 61.5t57.5 45.5t84 17q30 0 50 -5t48 -17h25q-2 -30 -2 -40q0 -37 9 -82h-29q-15 56 -43.5 85.5
t-68.5 29.5q-27 0 -43.5 -16t-16.5 -41q0 -24 9.5 -39t30.5 -25.5t63 -24.5q61 -22 91.5 -54t30.5 -91q0 -36 -18.5 -68t-56.5 -51.5t-92 -19.5q-44 0 -85.5 13z" />
    <glyph glyph-name="sacute" unicode="&#x15b;" horiz-adv-x="409" 
d="M116.5 5q-41.5 13 -71.5 29q2 34 2 57q0 48 -7 76h38q9 -62 44 -103t86 -41q30 0 49 17t19 47q0 25 -9 40t-31.5 28t-68.5 31q-61 24 -87.5 56t-26.5 85q0 33 20.5 61.5t57.5 45.5t84 17q30 0 50 -5t48 -17h25q-2 -30 -2 -40q0 -37 9 -82h-29q-15 56 -43.5 85.5
t-68.5 29.5q-27 0 -43.5 -16t-16.5 -41q0 -24 9.5 -39t30.5 -25.5t63 -24.5q61 -22 91.5 -54t30.5 -91q0 -36 -18.5 -68t-56.5 -51.5t-92 -19.5q-44 0 -85.5 13zM131 557l110 155q18 26 43 26q20 0 32 -12.5t12 -29.5q0 -26 -24 -43l-155 -112z" />
    <glyph glyph-name="scaron" unicode="&#x161;" horiz-adv-x="409" 
d="M116.5 5q-41.5 13 -71.5 29q2 34 2 57q0 48 -7 76h38q9 -62 44 -103t86 -41q30 0 49 17t19 47q0 25 -9 40t-31.5 28t-68.5 31q-61 24 -87.5 56t-26.5 85q0 33 20.5 61.5t57.5 45.5t84 17q30 0 50 -5t48 -17h25q-2 -30 -2 -40q0 -37 9 -82h-29q-15 56 -43.5 85.5
t-68.5 29.5q-27 0 -43.5 -16t-16.5 -41q0 -24 9.5 -39t30.5 -25.5t63 -24.5q61 -22 91.5 -54t30.5 -91q0 -36 -18.5 -68t-56.5 -51.5t-92 -19.5q-44 0 -85.5 13zM56 707l18 16l140 -96l141 96l17 -16l-137 -180h-41z" />
    <glyph glyph-name="scedilla" unicode="&#x15f;" horiz-adv-x="409" 
d="M178 -7l-8 -29q69 -1 107.5 -23.5t38.5 -60.5q0 -60 -68.5 -91t-160.5 -36v33q52 2 86.5 21t34.5 46q0 40 -95 43l27 103q-49 11 -95 35q2 34 2 57q0 48 -7 76h38q9 -62 44 -103t86 -41q30 0 49 17t19 47q0 25 -9 40t-31.5 28t-68.5 31q-61 24 -87.5 56t-26.5 85
q0 33 20.5 61.5t57.5 45.5t84 17q30 0 50 -5t48 -17h25q-2 -30 -2 -40q0 -37 9 -82h-29q-15 56 -43.5 85.5t-68.5 29.5q-27 0 -43.5 -16t-16.5 -41q0 -24 9.5 -39t30.5 -25.5t63 -24.5q61 -22 91.5 -54t30.5 -91q0 -36 -18.5 -68t-56.5 -51.5t-92 -19.5q-16 0 -24 1z" />
    <glyph glyph-name="uni0219" unicode="&#x219;" horiz-adv-x="409" 
d="M116.5 5q-41.5 13 -71.5 29q2 34 2 57q0 48 -7 76h38q9 -62 44 -103t86 -41q30 0 49 17t19 47q0 25 -9 40t-31.5 28t-68.5 31q-61 24 -87.5 56t-26.5 85q0 33 20.5 61.5t57.5 45.5t84 17q30 0 50 -5t48 -17h25q-2 -30 -2 -40q0 -37 9 -82h-29q-15 56 -43.5 85.5
t-68.5 29.5q-27 0 -43.5 -16t-16.5 -41q0 -24 9.5 -39t30.5 -25.5t63 -24.5q61 -22 91.5 -54t30.5 -91q0 -36 -18.5 -68t-56.5 -51.5t-92 -19.5q-44 0 -85.5 13zM120 -215q32 3 52 20t20 41q0 17 -19 31t-51 15h-10v27q27 12 43.5 24.5t32.5 33.5q48 -9 78.5 -35t30.5 -60
q0 -55 -47.5 -91t-129.5 -40v34z" />
    <glyph glyph-name="germandbls" unicode="&#xdf;" horiz-adv-x="625" 
d="M347 5q-42 13 -71 29q2 34 2 57q0 48 -7 76h37q9 -62 44.5 -103t86.5 -41q30 0 48.5 17t18.5 47q0 26 -14 45t-33 31t-57 32q-37 20 -61 38.5t-40.5 47.5t-16.5 71q0 22 8 38t17 26t33 32q28 25 43.5 52.5t15.5 71.5q0 56 -22 84t-69 28q-39 0 -61.5 -20t-32.5 -63
t-10 -117v-484h-176v17l33 12q15 6 21 15t6 25v340h-65v32h65v48q0 119 54.5 170.5t178.5 51.5q57 0 101 -17.5t68 -47t24 -63.5q0 -30 -10.5 -50t-26 -32t-40.5 -26q-33 -20 -49 -37.5t-16 -48.5q0 -24 13.5 -42t32.5 -29.5t55 -29.5q39 -20 64.5 -37.5t43 -47t17.5 -72.5
q0 -36 -19 -68t-56.5 -51.5t-91.5 -19.5q-44 0 -86 13z" />
    <glyph glyph-name="longs" unicode="&#x17f;" horiz-adv-x="330" 
d="M30 17l33 12q15 6 21 15t6 25v339h-65v33h65v48q0 119 54 170.5t154 51.5q57 0 92 -22.5t35 -60.5q0 -28 -15.5 -44t-38.5 -16q-26 0 -43 15t-17 41q0 13 9 26q1 2 4.5 6.5t3.5 10.5q0 9 -10.5 13t-26.5 4q-45 0 -65 -46t-20 -154v-422q0 -25 31 -33l43 -12v-17h-250v17z
" />
    <glyph glyph-name="t" unicode="t" horiz-adv-x="357" 
d="M109 22q-25 30 -25 91v296h-64v26q68 10 104.5 46.5t49.5 105.5h25v-146h116l-10 -32h-106v-288q0 -36 11 -50t33 -14q28 0 70 25l14 -25q-39 -31 -77 -48t-66 -17q-50 0 -75 30z" />
    <glyph glyph-name="tbar" unicode="&#x167;" horiz-adv-x="371" 
d="M334 57q-39 -31 -77 -48t-66 -17q-50 0 -75 30t-25 91v101h-64v55h64v140h-64v26q68 10 104.5 46.5t49.5 105.5h25v-146h116l-10 -32h-106v-140h115v-55h-115v-93q0 -36 11 -50t33 -14q28 0 70 25z" />
    <glyph glyph-name="tcaron" unicode="&#x165;" horiz-adv-x="385" 
d="M109 22q-25 30 -25 91v296h-64v26q68 10 104.5 46.5t49.5 105.5h25v-146h116l-10 -32h-106v-288q0 -36 11 -50t33 -14q28 0 70 25l14 -25q-39 -31 -77 -48t-66 -17q-50 0 -75 30zM259 479l31 188q10 45 49 45q18 0 29.5 -12t11.5 -30q0 -14 -8 -29l-89 -168z" />
    <glyph glyph-name="uni0163" unicode="&#x163;" horiz-adv-x="357" 
d="M275.5 -59.5q38.5 -22.5 38.5 -60.5q0 -60 -68.5 -91t-160.5 -36v33q52 2 86.5 21t34.5 46q0 40 -95 43l27 104h1q-55 22 -55 113v296h-64v26q68 10 104.5 46.5t49.5 105.5h25v-146h116l-10 -32h-106v-288q0 -36 11 -50t33 -14q28 0 70 25l14 -25q-39 -31 -77 -48
t-66 -17h-8l-8 -28q69 -1 107.5 -23.5z" />
    <glyph glyph-name="uni021B" unicode="&#x21b;" horiz-adv-x="357" 
d="M109 22q-25 30 -25 91v296h-64v26q68 10 104.5 46.5t49.5 105.5h25v-146h116l-10 -32h-106v-288q0 -36 11 -50t33 -14q28 0 70 25l14 -25q-39 -31 -77 -48t-66 -17q-50 0 -75 30zM104 -215q32 3 52 20t20 41q0 17 -19 31t-51 15h-10v27q27 12 43.5 24.5t32.5 33.5
q48 -9 78.5 -35t30.5 -60q0 -55 -47.5 -91t-129.5 -40v34z" />
    <glyph glyph-name="u" unicode="u" horiz-adv-x="573" 
d="M486 48q17 -14 57 -13v-26q-56 -3 -120 -12l-40 -5l-10 5l-10 66h-8q-54 -22 -127 -66q-8 -5 -15 -5q-68 0 -105.5 36t-37.5 103v236q0 20 -6.5 28t-20.5 12l-33 8v18q59 4 95 9t83 16l10 -8q-6 -11 -9.5 -34t-3.5 -49v-200q0 -44 21.5 -68t61.5 -24t63 25t23 67v200
q0 20 -6.5 28t-20.5 12l-32 8v18q59 4 95 9t83 16l10 -8q-7 -11 -10.5 -33.5t-3.5 -49.5v-272q0 -33 17 -47z" />
    <glyph glyph-name="uacute" unicode="&#xfa;" horiz-adv-x="573" 
d="M486 48q17 -14 57 -13v-26q-56 -3 -120 -12l-40 -5l-10 5l-10 66h-8q-54 -22 -127 -66q-8 -5 -15 -5q-68 0 -105.5 36t-37.5 103v236q0 20 -6.5 28t-20.5 12l-33 8v18q59 4 95 9t83 16l10 -8q-6 -11 -9.5 -34t-3.5 -49v-200q0 -44 21.5 -68t61.5 -24t63 25t23 67v200
q0 20 -6.5 28t-20.5 12l-32 8v18q59 4 95 9t83 16l10 -8q-7 -11 -10.5 -33.5t-3.5 -49.5v-272q0 -33 17 -47zM178 557l110 155q18 26 43 26q20 0 32 -12.5t12 -29.5q0 -26 -24 -43l-155 -112z" />
    <glyph glyph-name="ucircumflex" unicode="&#xfb;" horiz-adv-x="573" 
d="M486 48q17 -14 57 -13v-26q-56 -3 -120 -12l-40 -5l-10 5l-10 66h-8q-54 -22 -127 -66q-8 -5 -15 -5q-68 0 -105.5 36t-37.5 103v236q0 20 -6.5 28t-20.5 12l-33 8v18q59 4 95 9t83 16l10 -8q-6 -11 -9.5 -34t-3.5 -49v-200q0 -44 21.5 -68t61.5 -24t63 25t23 67v200
q0 20 -6.5 28t-20.5 12l-32 8v18q59 4 95 9t83 16l10 -8q-7 -11 -10.5 -33.5t-3.5 -49.5v-272q0 -33 17 -47zM419 539l-17 -16l-141 96l-140 -96l-18 16l138 180h41z" />
    <glyph glyph-name="udieresis" unicode="&#xfc;" horiz-adv-x="573" 
d="M486 48q17 -14 57 -13v-26q-56 -3 -120 -12l-40 -5l-10 5l-10 66h-8q-54 -22 -127 -66q-8 -5 -15 -5q-68 0 -105.5 36t-37.5 103v236q0 20 -6.5 28t-20.5 12l-33 8v18q59 4 95 9t83 16l10 -8q-6 -11 -9.5 -34t-3.5 -49v-200q0 -44 21.5 -68t61.5 -24t63 25t23 67v200
q0 20 -6.5 28t-20.5 12l-32 8v18q59 4 95 9t83 16l10 -8q-7 -11 -10.5 -33.5t-3.5 -49.5v-272q0 -33 17 -47zM104.5 576.5q-19.5 19.5 -19.5 45.5q0 27 19.5 46t46.5 19q26 0 45.5 -19.5t19.5 -45.5q0 -27 -19.5 -46t-45.5 -19q-27 0 -46.5 19.5zM325.5 576.5
q-19.5 19.5 -19.5 45.5q0 27 19.5 46t46.5 19q26 0 45.5 -19.5t19.5 -45.5q0 -27 -19.5 -46t-45.5 -19q-27 0 -46.5 19.5z" />
    <glyph glyph-name="ugrave" unicode="&#xf9;" horiz-adv-x="573" 
d="M486 48q17 -14 57 -13v-26q-56 -3 -120 -12l-40 -5l-10 5l-10 66h-8q-54 -22 -127 -66q-8 -5 -15 -5q-68 0 -105.5 36t-37.5 103v236q0 20 -6.5 28t-20.5 12l-33 8v18q59 4 95 9t83 16l10 -8q-6 -11 -9.5 -34t-3.5 -49v-200q0 -44 21.5 -68t61.5 -24t63 25t23 67v200
q0 20 -6.5 28t-20.5 12l-32 8v18q59 4 95 9t83 16l10 -8q-7 -11 -10.5 -33.5t-3.5 -49.5v-272q0 -33 17 -47zM179 655q-21 17 -21 41q0 17 11.5 29.5t29.5 12.5q15 0 26 -6.5t20 -20.5l102 -161l-19 -15z" />
    <glyph glyph-name="uhungarumlaut" unicode="&#x171;" horiz-adv-x="573" 
d="M486 48q17 -14 57 -13v-26q-56 -3 -120 -12l-40 -5l-10 5l-10 66h-8q-54 -22 -127 -66q-8 -5 -15 -5q-68 0 -105.5 36t-37.5 103v236q0 20 -6.5 28t-20.5 12l-33 8v18q59 4 95 9t83 16l10 -8q-6 -11 -9.5 -34t-3.5 -49v-200q0 -44 21.5 -68t61.5 -24t63 25t23 67v200
q0 20 -6.5 28t-20.5 12l-32 8v18q59 4 95 9t83 16l10 -8q-7 -11 -10.5 -33.5t-3.5 -49.5v-272q0 -33 17 -47zM120 550l98 163q17 28 44 28q20 0 32 -12t12 -30q0 -24 -21 -41l-146 -122zM292 557l110 155q17 26 43 26q20 0 32 -12.5t12 -29.5q0 -25 -24 -43l-155 -112z" />
    <glyph glyph-name="umacron" unicode="&#x16b;" horiz-adv-x="573" 
d="M486 48q17 -14 57 -13v-26q-56 -3 -120 -12l-40 -5l-10 5l-10 66h-8q-54 -22 -127 -66q-8 -5 -15 -5q-68 0 -105.5 36t-37.5 103v236q0 20 -6.5 28t-20.5 12l-33 8v18q59 4 95 9t83 16l10 -8q-6 -11 -9.5 -34t-3.5 -49v-200q0 -44 21.5 -68t61.5 -24t63 25t23 67v200
q0 20 -6.5 28t-20.5 12l-32 8v18q59 4 95 9t83 16l10 -8q-7 -11 -10.5 -33.5t-3.5 -49.5v-272q0 -33 17 -47zM94 645h334v-55h-334v55z" />
    <glyph glyph-name="uogonek" unicode="&#x173;" horiz-adv-x="573" 
d="M400 -37q-25 -26 -25 -59q0 -36 13.5 -53t36.5 -17q30 0 71 30l19 -22q-29 -31 -62.5 -50t-61.5 -19q-32 0 -61 17.5t-46.5 45.5t-17.5 59q0 28 32 54t80 46l-5 2l-10 66h-8q-54 -22 -127 -66q-8 -5 -15 -5q-68 0 -105.5 36t-37.5 103v236q0 20 -6.5 28t-20.5 12l-33 8
v18q59 4 95 9t83 16l10 -8q-6 -11 -9.5 -34t-3.5 -49v-200q0 -44 21.5 -68t61.5 -24t63 25t23 67v200q0 20 -6.5 28t-20.5 12l-32 8v18q59 4 95 9t83 16l10 -8q-7 -11 -10.5 -33.5t-3.5 -49.5v-272q0 -33 17 -47t57 -13v-26q-39 -1 -88 -8q-30 -12 -55 -38z" />
    <glyph glyph-name="uring" unicode="&#x16f;" horiz-adv-x="573" 
d="M486 48q17 -14 57 -13v-26q-56 -3 -120 -12l-40 -5l-10 5l-10 66h-8q-54 -22 -127 -66q-8 -5 -15 -5q-68 0 -105.5 36t-37.5 103v236q0 20 -6.5 28t-20.5 12l-33 8v18q59 4 95 9t83 16l10 -8q-6 -11 -9.5 -34t-3.5 -49v-200q0 -44 21.5 -68t61.5 -24t63 25t23 67v200
q0 20 -6.5 28t-20.5 12l-32 8v18q59 4 95 9t83 16l10 -8q-7 -11 -10.5 -33.5t-3.5 -49.5v-272q0 -33 17 -47zM154 691.5q17 28.5 45.5 45.5t61.5 17q52 0 88.5 -36.5t36.5 -88.5q0 -33 -17 -61.5t-45.5 -45.5t-62.5 -17q-33 0 -61.5 17t-45.5 45.5t-17 61.5q0 34 17 62.5z
M210 578q22 -21 52 -21t51 21t21 51t-21 51.5t-51 21.5t-52 -21.5t-22 -51.5t22 -51z" />
    <glyph glyph-name="v" unicode="v" horiz-adv-x="520" 
d="M515 441v-17l-41 -11q-13 -4 -19 -8.5t-10 -14.5l-171 -398h-29l-179 404q-4 9 -10.5 13.5t-19.5 7.5l-31 7v17h246v-17l-23 -5q-15 -4 -23 -10.5t-8 -17.5q0 -6 3 -15l99 -234l96 243q4 12 4 14q0 13 -22 17l-45 8v17h183z" />
    <glyph glyph-name="w" unicode="w" horiz-adv-x="757" 
d="M69 396q-4 9 -10.5 13.5t-19.5 7.5l-31 7v17h246v-17l-30 -8q-24 -6 -24 -24q0 -7 3 -16l88 -230l87 239q4 12 4 14q0 13 -22 17l-45 8v17h191v-17l-43 -8q-16 -4 -16 -16q0 -6 5 -19l91 -235l86 239q4 8 4 14q0 13 -21 17l-46 8v17h183v-17l-41 -11q-13 -4 -19 -8.5
t-10 -14.5l-161 -398h-29l-113 271l-109 -271h-29z" />
    <glyph glyph-name="wacute" unicode="&#x1e83;" horiz-adv-x="757" 
d="M69 396q-4 9 -10.5 13.5t-19.5 7.5l-31 7v17h246v-17l-30 -8q-24 -6 -24 -24q0 -7 3 -16l88 -230l87 239q4 12 4 14q0 13 -22 17l-45 8v17h191v-17l-43 -8q-16 -4 -16 -16q0 -6 5 -19l91 -235l86 239q4 8 4 14q0 13 -21 17l-46 8v17h183v-17l-41 -11q-13 -4 -19 -8.5
t-10 -14.5l-161 -398h-29l-113 271l-109 -271h-29zM324 557l110 155q18 26 43 26q20 0 32 -12.5t12 -29.5q0 -26 -24 -43l-155 -112z" />
    <glyph glyph-name="wcircumflex" unicode="&#x175;" horiz-adv-x="757" 
d="M69 396q-4 9 -10.5 13.5t-19.5 7.5l-31 7v17h246v-17l-30 -8q-24 -6 -24 -24q0 -7 3 -16l88 -230l87 239q4 12 4 14q0 13 -22 17l-45 8v17h191v-17l-43 -8q-16 -4 -16 -16q0 -6 5 -19l91 -235l86 239q4 8 4 14q0 13 -21 17l-46 8v17h183v-17l-41 -11q-13 -4 -19 -8.5
t-10 -14.5l-161 -398h-29l-113 271l-109 -271h-29zM565 539l-17 -16l-141 96l-140 -96l-18 16l138 180h41z" />
    <glyph glyph-name="wdieresis" unicode="&#x1e85;" horiz-adv-x="757" 
d="M69 396q-4 9 -10.5 13.5t-19.5 7.5l-31 7v17h246v-17l-30 -8q-24 -6 -24 -24q0 -7 3 -16l88 -230l87 239q4 12 4 14q0 13 -22 17l-45 8v17h191v-17l-43 -8q-16 -4 -16 -16q0 -6 5 -19l91 -235l86 239q4 8 4 14q0 13 -21 17l-46 8v17h183v-17l-41 -11q-13 -4 -19 -8.5
t-10 -14.5l-161 -398h-29l-113 271l-109 -271h-29zM250.5 576.5q-19.5 19.5 -19.5 45.5q0 27 19.5 46t46.5 19q26 0 45.5 -19.5t19.5 -45.5q0 -27 -19.5 -46t-45.5 -19q-27 0 -46.5 19.5zM471.5 576.5q-19.5 19.5 -19.5 45.5q0 27 19.5 46t46.5 19q26 0 45.5 -19.5
t19.5 -45.5q0 -27 -19.5 -46t-45.5 -19q-27 0 -46.5 19.5z" />
    <glyph glyph-name="wgrave" unicode="&#x1e81;" horiz-adv-x="757" 
d="M69 396q-4 9 -10.5 13.5t-19.5 7.5l-31 7v17h246v-17l-30 -8q-24 -6 -24 -24q0 -7 3 -16l88 -230l87 239q4 12 4 14q0 13 -22 17l-45 8v17h191v-17l-43 -8q-16 -4 -16 -16q0 -6 5 -19l91 -235l86 239q4 8 4 14q0 13 -21 17l-46 8v17h183v-17l-41 -11q-13 -4 -19 -8.5
t-10 -14.5l-161 -398h-29l-113 271l-109 -271h-29zM325 655q-21 17 -21 41q0 17 11.5 29.5t29.5 12.5q15 0 26 -6.5t20 -20.5l102 -161l-19 -15z" />
    <glyph glyph-name="x" unicode="x" horiz-adv-x="511" 
d="M506 17v-17h-261v17l22 5q35 8 35 25q0 8 -5 15l-79 121l-84 -125q-9 -12 -9 -20q0 -9 16 -12l44 -9v-17h-180v17l37 9q21 6 37 25l115 159l-117 186q-6 9 -13 13.5t-18 7.5l-31 7v17h258v-17l-31 -8q-25 -6 -25 -21q0 -3 4 -11l69 -115l75 114q9 12 9 20q0 9 -16 12
l-44 9v17h174v-17l-32 -9q-26 -7 -37 -24l-108 -152l128 -189q15 -21 36 -26z" />
    <glyph glyph-name="y" unicode="y" horiz-adv-x="519" 
d="M514 441v-17l-41 -11q-13 -4 -19 -8.5t-10 -14.5l-246 -545q-26 -59 -55.5 -82t-62.5 -23t-51.5 19.5t-18.5 45.5q0 27 16.5 46.5t41.5 19.5q27 0 45 -18q13 -13 22 -13q8 0 14.5 7t13.5 22l63 142l-161 385q-4 9 -10.5 13.5t-19.5 7.5l-31 7v17h246v-17l-23 -5
q-31 -9 -31 -29q0 -6 3 -14l90 -233l105 242q4 12 4 14q0 13 -22 17l-45 8v17h183z" />
    <glyph glyph-name="yacute" unicode="&#xfd;" horiz-adv-x="519" 
d="M514 441v-17l-41 -11q-13 -4 -19 -8.5t-10 -14.5l-246 -545q-26 -59 -55.5 -82t-62.5 -23t-51.5 19.5t-18.5 45.5q0 27 16.5 46.5t41.5 19.5q27 0 45 -18q13 -13 22 -13q8 0 14.5 7t13.5 22l63 142l-161 385q-4 9 -10.5 13.5t-19.5 7.5l-31 7v17h246v-17l-23 -5
q-31 -9 -31 -29q0 -6 3 -14l90 -233l105 242q4 12 4 14q0 13 -22 17l-45 8v17h183zM208 557l110 155q18 26 43 26q20 0 32 -12.5t12 -29.5q0 -26 -24 -43l-155 -112z" />
    <glyph glyph-name="ycircumflex" unicode="&#x177;" horiz-adv-x="519" 
d="M514 441v-17l-41 -11q-13 -4 -19 -8.5t-10 -14.5l-246 -545q-26 -59 -55.5 -82t-62.5 -23t-51.5 19.5t-18.5 45.5q0 27 16.5 46.5t41.5 19.5q27 0 45 -18q13 -13 22 -13q8 0 14.5 7t13.5 22l63 142l-161 385q-4 9 -10.5 13.5t-19.5 7.5l-31 7v17h246v-17l-23 -5
q-31 -9 -31 -29q0 -6 3 -14l90 -233l105 242q4 12 4 14q0 13 -22 17l-45 8v17h183zM450 539l-17 -16l-141 96l-140 -96l-18 16l138 180h41z" />
    <glyph glyph-name="ydieresis" unicode="&#xff;" horiz-adv-x="519" 
d="M514 441v-17l-41 -11q-13 -4 -19 -8.5t-10 -14.5l-246 -545q-26 -59 -55.5 -82t-62.5 -23t-51.5 19.5t-18.5 45.5q0 27 16.5 46.5t41.5 19.5q27 0 45 -18q13 -13 22 -13q8 0 14.5 7t13.5 22l63 142l-161 385q-4 9 -10.5 13.5t-19.5 7.5l-31 7v17h246v-17l-23 -5
q-31 -9 -31 -29q0 -6 3 -14l90 -233l105 242q4 12 4 14q0 13 -22 17l-45 8v17h183zM135.5 576.5q-19.5 19.5 -19.5 45.5q0 27 19.5 46t46.5 19q26 0 45.5 -19.5t19.5 -45.5q0 -27 -19.5 -46t-45.5 -19q-27 0 -46.5 19.5zM356.5 576.5q-19.5 19.5 -19.5 45.5q0 27 19.5 46
t46.5 19q26 0 45.5 -19.5t19.5 -45.5q0 -27 -19.5 -46t-45.5 -19q-27 0 -46.5 19.5z" />
    <glyph glyph-name="ygrave" unicode="&#x1ef3;" horiz-adv-x="519" 
d="M514 441v-17l-41 -11q-13 -4 -19 -8.5t-10 -14.5l-246 -545q-26 -59 -55.5 -82t-62.5 -23t-51.5 19.5t-18.5 45.5q0 27 16.5 46.5t41.5 19.5q27 0 45 -18q13 -13 22 -13q8 0 14.5 7t13.5 22l63 142l-161 385q-4 9 -10.5 13.5t-19.5 7.5l-31 7v17h246v-17l-23 -5
q-31 -9 -31 -29q0 -6 3 -14l90 -233l105 242q4 12 4 14q0 13 -22 17l-45 8v17h183zM209 655q-21 17 -21 41q0 17 11.5 29.5t29.5 12.5q15 0 26 -6.5t20 -20.5l102 -161l-19 -15z" />
    <glyph glyph-name="z" unicode="z" horiz-adv-x="424" 
d="M11 6l248 406h-72q-53 0 -84.5 -31.5t-40.5 -87.5h-27q14 47 14 99q0 22 -5 49h364v-6l-251 -405h100q55 0 87.5 33.5t45.5 87.5h24q-9 -37 -12 -68.5t-3 -73.5v-9h-388v6z" />
    <glyph glyph-name="zacute" unicode="&#x17a;" horiz-adv-x="424" 
d="M11 6l248 406h-72q-53 0 -84.5 -31.5t-40.5 -87.5h-27q14 47 14 99q0 22 -5 49h364v-6l-251 -405h100q55 0 87.5 33.5t45.5 87.5h24q-9 -37 -12 -68.5t-3 -73.5v-9h-388v6zM143 557l110 155q18 26 43 26q20 0 32 -12.5t12 -29.5q0 -26 -24 -43l-155 -112z" />
    <glyph glyph-name="zcaron" unicode="&#x17e;" horiz-adv-x="424" 
d="M11 6l248 406h-72q-53 0 -84.5 -31.5t-40.5 -87.5h-27q14 47 14 99q0 22 -5 49h364v-6l-251 -405h100q55 0 87.5 33.5t45.5 87.5h24q-9 -37 -12 -68.5t-3 -73.5v-9h-388v6zM68 707l18 16l140 -96l141 96l17 -16l-137 -180h-41z" />
    <glyph glyph-name="zdotaccent" unicode="&#x17c;" horiz-adv-x="424" 
d="M11 6l248 406h-72q-53 0 -84.5 -31.5t-40.5 -87.5h-27q14 47 14 99q0 22 -5 49h364v-6l-251 -405h100q55 0 87.5 33.5t45.5 87.5h24q-9 -37 -12 -68.5t-3 -73.5v-9h-388v6zM174.5 567q-21.5 21 -21.5 52t21.5 52t51.5 21q31 0 52.5 -21t21.5 -52t-21.5 -52t-52.5 -21
q-30 0 -51.5 21z" />
    <glyph glyph-name="c_t" horiz-adv-x="810" 
d="M780 57q-40 -31 -77.5 -48t-66.5 -17q-99 0 -99 121v296h-64v26q39 6 66 19v71q0 82 -28 124t-95 42q-61 0 -96 -37t-35 -112q0 -41 17 -62.5t51 -43.5q3 -2 18.5 -12.5t26.5 -23.5q26 -31 26 -70v-3v-5q-2 -27 -17.5 -40.5t-37.5 -13.5q-27 0 -43 14.5t-16 39.5
q0 16 8 31q1 2 4 8.5t3 14.5q0 20 -19 32t-48 12q-47 0 -76.5 -50t-29.5 -131q0 -82 41.5 -128.5t103.5 -46.5q60 0 118 51l17 -16q-78 -107 -187 -107q-63 0 -113 29.5t-78 80.5t-28 113q0 68 30 122t83 84t118 30h3q-86 39 -86 104q0 50 33 86t88 54t120 18
q88 0 148.5 -31t79.5 -95h9v-146h116l-10 -32h-106v-288q0 -36 11 -50t32 -14q28 0 71 25z" />
    <glyph glyph-name="s_t" unicode="&#xfb06;" horiz-adv-x="766" 
d="M736 57q-40 -32 -77.5 -48.5t-65.5 -16.5q-50 0 -75 30t-25 91v296h-64v26q38 6 65 19v71q0 82 -28 124t-95 42q-61 0 -96 -37t-35 -112q0 -42 16.5 -66t48.5 -44l8 -3h25q-2 -30 -2 -40q0 -37 9 -82h-29q-15 56 -43.5 85.5t-68.5 29.5q-27 0 -43.5 -16t-16.5 -41
q0 -24 9.5 -39t30.5 -25.5t63 -24.5q61 -22 91.5 -54t30.5 -91q0 -36 -18.5 -68t-56.5 -51.5t-92 -19.5q-44 0 -85.5 13t-71.5 29q2 34 2 57q0 48 -7 76h38q9 -62 44 -103t86 -41q30 0 49 17t19 47q0 25 -9 40t-31.5 28t-68.5 31q-61 24 -87.5 56t-26.5 85q0 33 20.5 61.5
t57.5 45.5t84 17h1q-86 39 -86 104q0 75 69.5 116.5t170.5 41.5q88 0 148.5 -31t79.5 -95h10v-146h116l-10 -32h-106v-288q0 -36 11.5 -50t32.5 -14q28 0 70 25z" />
    <glyph glyph-name="a.sc" horiz-adv-x="679" 
d="M663 19v-19h-301v19l43 9q34 8 34 28q0 6 -3 13l-48 116h-192l-55 -126q-1 -2 -1 -6q0 -17 24 -21l76 -13v-19h-224v19l52 12q16 4 25 10.5t14 18.5l174 393l-28 67q27 1 47 9.5t31 20.5t11 21h12l226 -528q1 -4 9 -7t28 -7zM377 212l-82 198l-87 -198h169z" />
    <glyph glyph-name="aacute.sc" horiz-adv-x="679" 
d="M663 19v-19h-301v19l43 9q34 8 34 28q0 6 -3 13l-48 116h-192l-55 -126q-1 -2 -1 -6q0 -17 24 -21l76 -13v-19h-224v19l52 12q16 4 25 10.5t14 18.5l174 393l-28 67q27 1 47 9.5t31 20.5t11 21h12l226 -528q1 -4 9 -7t28 -7zM377 212l-82 198l-87 -198h169zM249 652
l110 155q18 26 43 26q20 0 32 -12.5t12 -29.5q0 -26 -24 -43l-155 -112z" />
    <glyph glyph-name="abreve.sc" horiz-adv-x="679" 
d="M663 19v-19h-301v19l43 9q34 8 34 28q0 6 -3 13l-48 116h-192l-55 -126q-1 -2 -1 -6q0 -17 24 -21l76 -13v-19h-224v19l52 12q16 4 25 10.5t14 18.5l174 393l-28 67q27 1 47 9.5t31 20.5t11 21h12l226 -528q1 -4 9 -7t28 -7zM377 212l-82 198l-87 -198h169zM273 719
q-28 15 -45 40t-17 53h-33q0 -83 43 -133t111 -50q69 0 112 50t43 133h-34q0 -28 -17 -53t-45 -40t-59 -15t-59 15z" />
    <glyph glyph-name="acircumflex.sc" horiz-adv-x="679" 
d="M663 19v-19h-301v19l43 9q34 8 34 28q0 6 -3 13l-48 116h-192l-55 -126q-1 -2 -1 -6q0 -17 24 -21l76 -13v-19h-224v19l52 12q16 4 25 10.5t14 18.5l174 393l-28 67q27 1 47 9.5t31 20.5t11 21h12l226 -528q1 -4 9 -7t28 -7zM377 212l-82 198l-87 -198h169zM490 634
l-17 -16l-141 96l-140 -96l-18 16l138 180h41z" />
    <glyph glyph-name="adieresis.sc" horiz-adv-x="679" 
d="M663 19v-19h-301v19l43 9q34 8 34 28q0 6 -3 13l-48 116h-192l-55 -126q-1 -2 -1 -6q0 -17 24 -21l76 -13v-19h-224v19l52 12q16 4 25 10.5t14 18.5l174 393l-28 67q27 1 47 9.5t31 20.5t11 21h12l226 -528q1 -4 9 -7t28 -7zM377 212l-82 198l-87 -198h169zM175.5 671.5
q-19.5 19.5 -19.5 45.5q0 27 19.5 46t46.5 19q26 0 45.5 -19.5t19.5 -45.5q0 -27 -19.5 -46t-45.5 -19q-27 0 -46.5 19.5zM396.5 671.5q-19.5 19.5 -19.5 45.5q0 27 19.5 46t46.5 19q26 0 45.5 -19.5t19.5 -45.5q0 -27 -19.5 -46t-45.5 -19q-27 0 -46.5 19.5z" />
    <glyph glyph-name="agrave.sc" horiz-adv-x="679" 
d="M663 19v-19h-301v19l43 9q34 8 34 28q0 6 -3 13l-48 116h-192l-55 -126q-1 -2 -1 -6q0 -17 24 -21l76 -13v-19h-224v19l52 12q16 4 25 10.5t14 18.5l174 393l-28 67q27 1 47 9.5t31 20.5t11 21h12l226 -528q1 -4 9 -7t28 -7zM377 212l-82 198l-87 -198h169zM249 750
q-21 17 -21 41q0 17 11.5 29.5t29.5 12.5q15 0 26 -6.5t20 -20.5l102 -161l-19 -15z" />
    <glyph glyph-name="amacron.sc" horiz-adv-x="679" 
d="M663 19v-19h-301v19l43 9q34 8 34 28q0 6 -3 13l-48 116h-192l-55 -126q-1 -2 -1 -6q0 -17 24 -21l76 -13v-19h-224v19l52 12q16 4 25 10.5t14 18.5l174 393l-28 67q27 1 47 9.5t31 20.5t11 21h12l226 -528q1 -4 9 -7t28 -7zM377 212l-82 198l-87 -198h169zM165 740h334
v-55h-334v55z" />
    <glyph glyph-name="aogonek.sc" horiz-adv-x="679" 
d="M544.5 -37.5q-21.5 -24.5 -21.5 -56.5q0 -36 13.5 -53t36.5 -17q30 0 71 30l19 -22q-29 -31 -62.5 -50t-61.5 -19q-32 0 -61.5 17.5t-47 45.5t-17.5 59q0 30 35 57t85 46h-171v19l43 9q34 8 34 28q0 6 -3 13l-48 116h-192l-55 -126q-1 -2 -1 -6q0 -17 24 -21l76 -13v-19
h-224v19l52 12q16 4 25 10.5t14 18.5l174 393l-28 67q27 1 47 9.5t31 20.5t11 21h12l226 -528q1 -4 9 -7t28 -7l46 -10v-19h-68q-29 -13 -50.5 -37.5zM377 212l-82 198l-87 -198h169z" />
    <glyph glyph-name="aring.sc" horiz-adv-x="679" 
d="M663 19v-19h-301v19l43 9q34 8 34 28q0 6 -3 13l-48 116h-192l-55 -126q-1 -2 -1 -6q0 -17 24 -21l76 -13v-19h-224v19l52 12q16 4 25 10.5t14 18.5l174 393l-28 67q27 1 47 9.5t31 20.5t11 21h12l226 -528q1 -4 9 -7t28 -7zM377 212l-82 198l-87 -198h169zM225 786.5
q17 28.5 45.5 45.5t61.5 17q52 0 88.5 -36.5t36.5 -88.5q0 -33 -17 -61.5t-45.5 -45.5t-62.5 -17q-33 0 -61.5 17t-45.5 45.5t-17 61.5q0 34 17 62.5zM281 673q22 -21 52 -21t51 21t21 51t-21 51.5t-51 21.5t-52 -21.5t-22 -51.5t22 -51z" />
    <glyph glyph-name="atilde.sc" horiz-adv-x="679" 
d="M663 19v-19h-301v19l43 9q34 8 34 28q0 6 -3 13l-48 116h-192l-55 -126q-1 -2 -1 -6q0 -17 24 -21l76 -13v-19h-224v19l52 12q16 4 25 10.5t14 18.5l174 393l-28 67q27 1 47 9.5t31 20.5t11 21h12l226 -528q1 -4 9 -7t28 -7zM377 212l-82 198l-87 -198h169zM49 648h10
q49 0 65.5 7t23.5 28q8 28 33.5 54t64.5 42.5t86 16.5q46 0 85 -16t65 -42t35 -54q4 -16 12 -23t25.5 -10t51.5 -3h10v-13h-116q-1 22 -22.5 43t-59.5 35t-86 14t-86 -14t-59 -35t-22 -43h-116v13z" />
    <glyph glyph-name="ae.sc" horiz-adv-x="861" 
d="M837 148q-10 -44 -15.5 -78.5t-5.5 -69.5h-498v19l42 9q29 6 36.5 14.5t7.5 33.5v112h-168l-85 -127q-5 -8 -5 -13q0 -13 21 -16l73 -13v-19h-224v18l51 13q18 4 25 8t13 13l298 438q-1 16 -9.5 22.5t-33.5 11.5l-42 9v18h488q-4 -16 -4 -45q0 -27 5.5 -58.5t6.5 -40.5
h-19q-22 51 -63.5 83.5t-93.5 32.5h-107v-217h104q40 0 59.5 15.5t24.5 46.5l6 37h21v-227h-21l-7 40q-5 29 -24 44.5t-57 15.5h-106v-175q0 -32 2.5 -45.5t14.5 -21t40 -7.5h60q44 0 73.5 15.5t57.5 51.5l39 52h19zM404 215v223l-150 -223h150z" />
    <glyph glyph-name="b.sc" horiz-adv-x="635" 
d="M37 19l41 9q29 6 36.5 14.5t7.5 33.5v400q0 25 -7.5 33.5t-36.5 14.5l-41 9v18h320q88 0 141.5 -34.5t53.5 -92.5q0 -50 -35 -79t-96 -36v-2q43 -2 80 -20t59.5 -49t22.5 -70q0 -89 -66.5 -128.5t-176.5 -39.5h-303v19zM323 317q41 0 65.5 30.5t24.5 75.5t-29.5 72.5
t-81.5 27.5h-53v-206h74zM321 29q56 0 86.5 38t30.5 101q0 61 -28 91t-93 30h-68v-217q0 -26 10 -34.5t38 -8.5h24z" />
    <glyph glyph-name="c.sc" horiz-adv-x="653" 
d="M211 31.5q-78 36.5 -122 99t-44 137.5q0 82 43.5 149t121 105t174.5 38q43 0 70 -6t50 -17q3 -2 15.5 -7t23.5 -7.5t23 -2.5q11 0 33 4l3 -2q-6 -24 -6 -48q0 -32 7.5 -66.5t8.5 -41.5h-24q-35 80 -85 122t-124 42q-55 0 -99.5 -32t-70.5 -92t-26 -138q0 -73 24.5 -128
t70 -85.5t105.5 -30.5q140 0 213 163h28q-25 -78 -27 -162h-5q-21 0 -43 -4.5t-41 -9.5q-29 -8 -55 -12t-66 -4q-98 0 -176 36.5z" />
    <glyph glyph-name="cacute.sc" horiz-adv-x="653" 
d="M211 31.5q-78 36.5 -122 99t-44 137.5q0 82 43.5 149t121 105t174.5 38q43 0 70 -6t50 -17q3 -2 15.5 -7t23.5 -7.5t23 -2.5q11 0 33 4l3 -2q-6 -24 -6 -48q0 -32 7.5 -66.5t8.5 -41.5h-24q-35 80 -85 122t-124 42q-55 0 -99.5 -32t-70.5 -92t-26 -138q0 -73 24.5 -128
t70 -85.5t105.5 -30.5q140 0 213 163h28q-25 -78 -27 -162h-5q-21 0 -43 -4.5t-41 -9.5q-29 -8 -55 -12t-66 -4q-98 0 -176 36.5zM299 652l110 155q18 26 43 26q20 0 32 -12.5t12 -29.5q0 -26 -24 -43l-155 -112z" />
    <glyph glyph-name="ccaron.sc" horiz-adv-x="653" 
d="M211 31.5q-78 36.5 -122 99t-44 137.5q0 82 43.5 149t121 105t174.5 38q43 0 70 -6t50 -17q3 -2 15.5 -7t23.5 -7.5t23 -2.5q11 0 33 4l3 -2q-6 -24 -6 -48q0 -32 7.5 -66.5t8.5 -41.5h-24q-35 80 -85 122t-124 42q-55 0 -99.5 -32t-70.5 -92t-26 -138q0 -73 24.5 -128
t70 -85.5t105.5 -30.5q140 0 213 163h28q-25 -78 -27 -162h-5q-21 0 -43 -4.5t-41 -9.5q-29 -8 -55 -12t-66 -4q-98 0 -176 36.5zM224 802l18 16l140 -96l141 96l17 -16l-137 -180h-41z" />
    <glyph glyph-name="ccedilla.sc" horiz-adv-x="653" 
d="M624 187q-25 -78 -27 -162h-5q-21 0 -43 -4.5t-41 -9.5q-29 -8 -55 -12t-66 -4h-15l-5 -19q69 -1 107.5 -23.5t38.5 -60.5q0 -60 -68.5 -91t-160.5 -36v33q52 2 86 21t34 46q0 40 -94 43l23 90q-84 10 -149.5 48t-102 96t-36.5 126q0 82 43.5 149t121 105t174.5 38
q43 0 70 -6t50 -17q3 -2 15.5 -7t23.5 -7.5t23 -2.5q11 0 33 4l3 -2q-6 -24 -6 -48q0 -32 7.5 -66.5t8.5 -41.5h-24q-35 80 -85 122t-124 42q-55 0 -99.5 -32t-70.5 -92t-26 -138q0 -73 24.5 -128t70 -85.5t105.5 -30.5q140 0 213 163h28z" />
    <glyph glyph-name="cdotaccent.sc" horiz-adv-x="653" 
d="M211 31.5q-78 36.5 -122 99t-44 137.5q0 82 43.5 149t121 105t174.5 38q43 0 70 -6t50 -17q3 -2 15.5 -7t23.5 -7.5t23 -2.5q11 0 33 4l3 -2q-6 -24 -6 -48q0 -32 7.5 -66.5t8.5 -41.5h-24q-35 80 -85 122t-124 42q-55 0 -99.5 -32t-70.5 -92t-26 -138q0 -73 24.5 -128
t70 -85.5t105.5 -30.5q140 0 213 163h28q-25 -78 -27 -162h-5q-21 0 -43 -4.5t-41 -9.5q-29 -8 -55 -12t-66 -4q-98 0 -176 36.5zM330.5 662q-21.5 21 -21.5 52t21.5 52t51.5 21q31 0 52.5 -21t21.5 -52t-21.5 -52t-52.5 -21q-30 0 -51.5 21z" />
    <glyph glyph-name="d.sc" horiz-adv-x="689" 
d="M37 19l41 9q29 6 36.5 14.5t7.5 33.5v400q0 25 -7.5 33.5t-36.5 14.5l-41 9v18h300q85 0 155 -36t111 -98.5t41 -136.5q0 -77 -38.5 -141t-106.5 -101.5t-154 -37.5h-308v19zM455.5 98q48.5 69 48.5 183q0 70 -22 125.5t-62 87t-93 31.5h-78v-447q0 -24 19.5 -36.5
t55.5 -12.5q83 0 131.5 69z" />
    <glyph glyph-name="eth.sc" horiz-adv-x="689" 
d="M492 515q70 -36 111 -98.5t41 -136.5q0 -77 -38.5 -141t-106.5 -101.5t-154 -37.5h-308v19l41 9q29 6 36.5 14.5t7.5 33.5v189h-85v49h85v162q0 25 -7.5 33.5t-36.5 14.5l-41 9v18h300q85 0 155 -36zM455.5 98q48.5 69 48.5 183q0 70 -22 125.5t-62 87t-93 31.5h-78v-211
h94v-49h-94v-187q0 -24 19.5 -36.5t55.5 -12.5q83 0 131.5 69z" />
    <glyph glyph-name="dcaron.sc" horiz-adv-x="689" 
d="M37 19l41 9q29 6 36.5 14.5t7.5 33.5v400q0 25 -7.5 33.5t-36.5 14.5l-41 9v18h300q85 0 155 -36t111 -98.5t41 -136.5q0 -77 -38.5 -141t-106.5 -101.5t-154 -37.5h-308v19zM455.5 98q48.5 69 48.5 183q0 70 -22 125.5t-62 87t-93 31.5h-78v-447q0 -24 19.5 -36.5
t55.5 -12.5q83 0 131.5 69zM198 802l18 16l140 -96l141 96l17 -16l-137 -180h-41z" />
    <glyph glyph-name="dcroat.sc" horiz-adv-x="689" 
d="M492 515q70 -36 111 -98.5t41 -136.5q0 -77 -38.5 -141t-106.5 -101.5t-154 -37.5h-308v19l41 9q29 6 36.5 14.5t7.5 33.5v189h-85v49h85v162q0 25 -7.5 33.5t-36.5 14.5l-41 9v18h300q85 0 155 -36zM455.5 98q48.5 69 48.5 183q0 70 -22 125.5t-62 87t-93 31.5h-78v-211
h94v-49h-94v-187q0 -24 19.5 -36.5t55.5 -12.5q83 0 131.5 69z" />
    <glyph glyph-name="e.sc" horiz-adv-x="592" 
d="M37 19l41 9q29 6 36.5 14.5t7.5 33.5v400q0 25 -7.5 33.5t-36.5 14.5l-41 9v18h487q-4 -16 -4 -45q0 -27 5.5 -58.5t6.5 -40.5h-19q-22 51 -63.5 83.5t-93.5 32.5h-107v-217h105q40 0 59 15.5t24 46.5l6 37h21v-227h-21l-7 40q-5 29 -23.5 44.5t-57.5 15.5h-106v-175
q0 -32 2.5 -45.5t14.5 -21t41 -7.5h59q44 0 74 16t57 51l39 52h19q-10 -44 -15.5 -78.5t-5.5 -69.5h-497v19z" />
    <glyph glyph-name="eacute.sc" horiz-adv-x="592" 
d="M37 19l41 9q29 6 36.5 14.5t7.5 33.5v400q0 25 -7.5 33.5t-36.5 14.5l-41 9v18h487q-4 -16 -4 -45q0 -27 5.5 -58.5t6.5 -40.5h-19q-22 51 -63.5 83.5t-93.5 32.5h-107v-217h105q40 0 59 15.5t24 46.5l6 37h21v-227h-21l-7 40q-5 29 -23.5 44.5t-57.5 15.5h-106v-175
q0 -32 2.5 -45.5t14.5 -21t41 -7.5h59q44 0 74 16t57 51l39 52h19q-10 -44 -15.5 -78.5t-5.5 -69.5h-497v19zM242 652l110 155q18 26 43 26q20 0 32 -12.5t12 -29.5q0 -26 -24 -43l-155 -112z" />
    <glyph glyph-name="ecaron.sc" horiz-adv-x="592" 
d="M37 19l41 9q29 6 36.5 14.5t7.5 33.5v400q0 25 -7.5 33.5t-36.5 14.5l-41 9v18h487q-4 -16 -4 -45q0 -27 5.5 -58.5t6.5 -40.5h-19q-22 51 -63.5 83.5t-93.5 32.5h-107v-217h105q40 0 59 15.5t24 46.5l6 37h21v-227h-21l-7 40q-5 29 -23.5 44.5t-57.5 15.5h-106v-175
q0 -32 2.5 -45.5t14.5 -21t41 -7.5h59q44 0 74 16t57 51l39 52h19q-10 -44 -15.5 -78.5t-5.5 -69.5h-497v19zM167 802l18 16l140 -96l141 96l17 -16l-137 -180h-41z" />
    <glyph glyph-name="ecircumflex.sc" horiz-adv-x="592" 
d="M37 19l41 9q29 6 36.5 14.5t7.5 33.5v400q0 25 -7.5 33.5t-36.5 14.5l-41 9v18h487q-4 -16 -4 -45q0 -27 5.5 -58.5t6.5 -40.5h-19q-22 51 -63.5 83.5t-93.5 32.5h-107v-217h105q40 0 59 15.5t24 46.5l6 37h21v-227h-21l-7 40q-5 29 -23.5 44.5t-57.5 15.5h-106v-175
q0 -32 2.5 -45.5t14.5 -21t41 -7.5h59q44 0 74 16t57 51l39 52h19q-10 -44 -15.5 -78.5t-5.5 -69.5h-497v19zM483 634l-17 -16l-141 96l-140 -96l-18 16l138 180h41z" />
    <glyph glyph-name="edieresis.sc" horiz-adv-x="592" 
d="M37 19l41 9q29 6 36.5 14.5t7.5 33.5v400q0 25 -7.5 33.5t-36.5 14.5l-41 9v18h487q-4 -16 -4 -45q0 -27 5.5 -58.5t6.5 -40.5h-19q-22 51 -63.5 83.5t-93.5 32.5h-107v-217h105q40 0 59 15.5t24 46.5l6 37h21v-227h-21l-7 40q-5 29 -23.5 44.5t-57.5 15.5h-106v-175
q0 -32 2.5 -45.5t14.5 -21t41 -7.5h59q44 0 74 16t57 51l39 52h19q-10 -44 -15.5 -78.5t-5.5 -69.5h-497v19zM168.5 671.5q-19.5 19.5 -19.5 45.5q0 27 19.5 46t46.5 19q26 0 45.5 -19.5t19.5 -45.5q0 -27 -19.5 -46t-45.5 -19q-27 0 -46.5 19.5zM389.5 671.5
q-19.5 19.5 -19.5 45.5q0 27 19.5 46t46.5 19q26 0 45.5 -19.5t19.5 -45.5q0 -27 -19.5 -46t-45.5 -19q-27 0 -46.5 19.5z" />
    <glyph glyph-name="edotaccent.sc" horiz-adv-x="592" 
d="M37 19l41 9q29 6 36.5 14.5t7.5 33.5v400q0 25 -7.5 33.5t-36.5 14.5l-41 9v18h487q-4 -16 -4 -45q0 -27 5.5 -58.5t6.5 -40.5h-19q-22 51 -63.5 83.5t-93.5 32.5h-107v-217h105q40 0 59 15.5t24 46.5l6 37h21v-227h-21l-7 40q-5 29 -23.5 44.5t-57.5 15.5h-106v-175
q0 -32 2.5 -45.5t14.5 -21t41 -7.5h59q44 0 74 16t57 51l39 52h19q-10 -44 -15.5 -78.5t-5.5 -69.5h-497v19zM273.5 662q-21.5 21 -21.5 52t21.5 52t51.5 21q31 0 52.5 -21t21.5 -52t-21.5 -52t-52.5 -21q-30 0 -51.5 21z" />
    <glyph glyph-name="egrave.sc" horiz-adv-x="592" 
d="M37 19l41 9q29 6 36.5 14.5t7.5 33.5v400q0 25 -7.5 33.5t-36.5 14.5l-41 9v18h487q-4 -16 -4 -45q0 -27 5.5 -58.5t6.5 -40.5h-19q-22 51 -63.5 83.5t-93.5 32.5h-107v-217h105q40 0 59 15.5t24 46.5l6 37h21v-227h-21l-7 40q-5 29 -23.5 44.5t-57.5 15.5h-106v-175
q0 -32 2.5 -45.5t14.5 -21t41 -7.5h59q44 0 74 16t57 51l39 52h19q-10 -44 -15.5 -78.5t-5.5 -69.5h-497v19zM243 750q-21 17 -21 41q0 17 11.5 29.5t29.5 12.5q15 0 26 -6.5t20 -20.5l102 -161l-19 -15z" />
    <glyph glyph-name="emacron.sc" horiz-adv-x="592" 
d="M37 19l41 9q29 6 36.5 14.5t7.5 33.5v400q0 25 -7.5 33.5t-36.5 14.5l-41 9v18h487q-4 -16 -4 -45q0 -27 5.5 -58.5t6.5 -40.5h-19q-22 51 -63.5 83.5t-93.5 32.5h-107v-217h105q40 0 59 15.5t24 46.5l6 37h21v-227h-21l-7 40q-5 29 -23.5 44.5t-57.5 15.5h-106v-175
q0 -32 2.5 -45.5t14.5 -21t41 -7.5h59q44 0 74 16t57 51l39 52h19q-10 -44 -15.5 -78.5t-5.5 -69.5h-497v19zM158 740h334v-55h-334v55z" />
    <glyph glyph-name="eogonek.sc" horiz-adv-x="592" 
d="M536 -134l19 -22q-29 -31 -62.5 -50t-61.5 -19q-32 0 -61 17.5t-46.5 45.5t-17.5 59q0 30 35 57t85 46h-389v19l41 9q29 6 36.5 14.5t7.5 33.5v400q0 25 -7.5 33.5t-36.5 14.5l-41 9v18h487q-4 -16 -4 -45q0 -27 5.5 -58.5t6.5 -40.5h-19q-22 51 -63.5 83.5t-93.5 32.5
h-107v-217h105q40 0 59 15.5t24 46.5l6 37h21v-227h-21l-7 40q-5 29 -23.5 44.5t-57.5 15.5h-106v-175q0 -32 2.5 -45.5t14.5 -21t41 -7.5h59q44 0 74 16t57 51l39 52h19q-10 -44 -15.5 -78.5t-5.5 -69.5h-47q-29 -13 -50.5 -37.5t-21.5 -56.5q0 -36 14 -53t37 -17
q29 0 70 30z" />
    <glyph glyph-name="f.sc" horiz-adv-x="575" 
d="M37 19l41 9q29 6 36.5 14.5t7.5 33.5v400q0 25 -7.5 33.5t-36.5 14.5l-41 9v18h486q-4 -16 -4 -45q0 -27 5.5 -58.5t6.5 -40.5h-19q-24 54 -64 85t-94 31h-105v-234h108q40 0 57.5 16t22.5 46l7 38h20v-228l-20 1l-8 40q-5 28 -22 43.5t-55 15.5h-110v-185q0 -25 8 -34
t37 -14l47 -9l1 -19h-305v19z" />
    <glyph glyph-name="g.sc" horiz-adv-x="702" 
d="M213 24q-75 33 -121.5 97.5t-46.5 152.5q0 82 42.5 147t116 102t163.5 37q48 0 77 -7t60 -19q17 -7 29 -10.5t26 -3.5t29 4l4 -3q-6 -24 -6 -34q0 -41 7.5 -71.5t7.5 -31.5h-31q-56 147 -198 147q-59 0 -102 -34t-65 -92.5t-22 -130.5q0 -117 48 -184.5t155 -67.5
q29 0 53 4.5t50 25.5v127q0 25 -8 33.5t-37 14.5l-41 9v18h282v-18l-26 -5q-28 -6 -36 -15.5t-8 -35.5v-155l-3 -2q-3 1 -12.5 3.5t-26.5 2.5q-18 0 -40.5 -7t-29.5 -9q-34 -10 -64 -16t-68 -6q-83 0 -158 33z" />
    <glyph glyph-name="gbreve.sc" horiz-adv-x="702" 
d="M213 24q-75 33 -121.5 97.5t-46.5 152.5q0 82 42.5 147t116 102t163.5 37q48 0 77 -7t60 -19q17 -7 29 -10.5t26 -3.5t29 4l4 -3q-6 -24 -6 -34q0 -41 7.5 -71.5t7.5 -31.5h-31q-56 147 -198 147q-59 0 -102 -34t-65 -92.5t-22 -130.5q0 -117 48 -184.5t155 -67.5
q29 0 53 4.5t50 25.5v127q0 25 -8 33.5t-37 14.5l-41 9v18h282v-18l-26 -5q-28 -6 -36 -15.5t-8 -35.5v-155l-3 -2q-3 1 -12.5 3.5t-26.5 2.5q-18 0 -40.5 -7t-29.5 -9q-34 -10 -64 -16t-68 -6q-83 0 -158 33zM313 719q-28 15 -45 40t-17 53h-33q0 -83 43 -133t111 -50
q69 0 112 50t43 133h-34q0 -28 -17 -53t-45 -40t-59 -15t-59 15z" />
    <glyph glyph-name="uni0123.sc" horiz-adv-x="702" 
d="M213 24q-75 33 -121.5 97.5t-46.5 152.5q0 82 42.5 147t116 102t163.5 37q48 0 77 -7t60 -19q17 -7 29 -10.5t26 -3.5t29 4l4 -3q-6 -24 -6 -34q0 -41 7.5 -71.5t7.5 -31.5h-31q-56 147 -198 147q-59 0 -102 -34t-65 -92.5t-22 -130.5q0 -117 48 -184.5t155 -67.5
q29 0 53 4.5t50 25.5v127q0 25 -8 33.5t-37 14.5l-41 9v18h282v-18l-26 -5q-28 -6 -36 -15.5t-8 -35.5v-155l-3 -2q-3 1 -12.5 3.5t-26.5 2.5q-18 0 -40.5 -7t-29.5 -9q-34 -10 -64 -16t-68 -6q-83 0 -158 33zM273 -215q32 3 52 20t20 41q0 17 -19 31t-51 15h-10v27
q27 12 43.5 24.5t32.5 33.5q48 -9 78.5 -35t30.5 -60q0 -55 -47.5 -91t-129.5 -40v34z" />
    <glyph glyph-name="gdotaccent.sc" horiz-adv-x="702" 
d="M213 24q-75 33 -121.5 97.5t-46.5 152.5q0 82 42.5 147t116 102t163.5 37q48 0 77 -7t60 -19q17 -7 29 -10.5t26 -3.5t29 4l4 -3q-6 -24 -6 -34q0 -41 7.5 -71.5t7.5 -31.5h-31q-56 147 -198 147q-59 0 -102 -34t-65 -92.5t-22 -130.5q0 -117 48 -184.5t155 -67.5
q29 0 53 4.5t50 25.5v127q0 25 -8 33.5t-37 14.5l-41 9v18h282v-18l-26 -5q-28 -6 -36 -15.5t-8 -35.5v-155l-3 -2q-3 1 -12.5 3.5t-26.5 2.5q-18 0 -40.5 -7t-29.5 -9q-34 -10 -64 -16t-68 -6q-83 0 -158 33zM320.5 662q-21.5 21 -21.5 52t21.5 52t51.5 21q31 0 52.5 -21
t21.5 -52t-21.5 -52t-52.5 -21q-30 0 -51.5 21z" />
    <glyph glyph-name="h.sc" horiz-adv-x="774" 
d="M660.5 509.5q-7.5 -8.5 -7.5 -33.5v-400q0 -25 7.5 -33.5t35.5 -14.5l43 -9v-19h-299l-1 19l43 9q29 6 36.5 14.5t7.5 33.5v204h-277v-204q0 -25 8 -33.5t37 -14.5l41 -9v-19h-298v19l41 9q29 6 36.5 14.5t7.5 33.5v400q0 25 -7.5 33.5t-36.5 14.5l-41 9v18h298v-18
l-41 -9q-29 -6 -37 -14.5t-8 -33.5v-169h277v169q0 25 -7.5 33.5t-36.5 14.5l-43 9l1 18h299v-18l-43 -9q-28 -6 -35.5 -14.5z" />
    <glyph glyph-name="hbar.sc" horiz-adv-x="774" 
d="M660.5 509.5q-7.5 -8.5 -7.5 -33.5v-39h55v-47h-55v-314q0 -25 7.5 -33.5t35.5 -14.5l43 -9v-19h-299l-1 19l43 9q29 6 36.5 14.5t7.5 33.5v204h-277v-204q0 -25 8 -33.5t37 -14.5l41 -9v-19h-298v19l41 9q29 6 36.5 14.5t7.5 33.5v314h-54v47h54v39q0 25 -7.5 33.5
t-36.5 14.5l-41 9v18h298v-18l-41 -9q-29 -6 -37 -14.5t-8 -33.5v-39h277v39q0 25 -7.5 33.5t-36.5 14.5l-43 9l1 18h299v-18l-43 -9q-28 -6 -35.5 -14.5zM526 390h-277v-83h277v83z" />
    <glyph glyph-name="i.sc" horiz-adv-x="372" 
d="M37 19l41 9q29 6 36.5 14.5t7.5 33.5v400q0 25 -7.5 33.5t-36.5 14.5l-41 9v18h298v-18l-41 -9q-29 -6 -37 -14.5t-8 -33.5v-400q0 -25 8 -33.5t37 -14.5l41 -9v-19h-298v19z" />
    <glyph glyph-name="iacute.sc" horiz-adv-x="372" 
d="M37 19l41 9q29 6 36.5 14.5t7.5 33.5v400q0 25 -7.5 33.5t-36.5 14.5l-41 9v18h298v-18l-41 -9q-29 -6 -37 -14.5t-8 -33.5v-400q0 -25 8 -33.5t37 -14.5l41 -9v-19h-298v19zM103 652l110 155q18 26 43 26q20 0 32 -12.5t12 -29.5q0 -26 -24 -43l-155 -112z" />
    <glyph glyph-name="icircumflex.sc" horiz-adv-x="372" 
d="M37 19l41 9q29 6 36.5 14.5t7.5 33.5v400q0 25 -7.5 33.5t-36.5 14.5l-41 9v18h298v-18l-41 -9q-29 -6 -37 -14.5t-8 -33.5v-400q0 -25 8 -33.5t37 -14.5l41 -9v-19h-298v19zM344 634l-17 -16l-141 96l-140 -96l-18 16l138 180h41z" />
    <glyph glyph-name="idieresis.sc" horiz-adv-x="372" 
d="M37 19l41 9q29 6 36.5 14.5t7.5 33.5v400q0 25 -7.5 33.5t-36.5 14.5l-41 9v18h298v-18l-41 -9q-29 -6 -37 -14.5t-8 -33.5v-400q0 -25 8 -33.5t37 -14.5l41 -9v-19h-298v19zM29.5 671.5q-19.5 19.5 -19.5 45.5q0 27 19.5 46t46.5 19q26 0 45.5 -19.5t19.5 -45.5
q0 -27 -19.5 -46t-45.5 -19q-27 0 -46.5 19.5zM250.5 671.5q-19.5 19.5 -19.5 45.5q0 27 19.5 46t46.5 19q26 0 45.5 -19.5t19.5 -45.5q0 -27 -19.5 -46t-45.5 -19q-27 0 -46.5 19.5z" />
    <glyph glyph-name="i.sc.loclTRK" horiz-adv-x="372" 
d="M37 19l41 9q29 6 36.5 14.5t7.5 33.5v400q0 25 -7.5 33.5t-36.5 14.5l-41 9v18h298v-18l-41 -9q-29 -6 -37 -14.5t-8 -33.5v-400q0 -25 8 -33.5t37 -14.5l41 -9v-19h-298v19zM134.5 662q-21.5 21 -21.5 52t21.5 52t51.5 21q31 0 52.5 -21t21.5 -52t-21.5 -52t-52.5 -21
q-30 0 -51.5 21z" />
    <glyph glyph-name="igrave.sc" horiz-adv-x="372" 
d="M37 19l41 9q29 6 36.5 14.5t7.5 33.5v400q0 25 -7.5 33.5t-36.5 14.5l-41 9v18h298v-18l-41 -9q-29 -6 -37 -14.5t-8 -33.5v-400q0 -25 8 -33.5t37 -14.5l41 -9v-19h-298v19zM104 750q-21 17 -21 41q0 17 11.5 29.5t29.5 12.5q15 0 26 -6.5t20 -20.5l102 -161l-19 -15z
" />
    <glyph glyph-name="imacron.sc" horiz-adv-x="372" 
d="M37 19l41 9q29 6 36.5 14.5t7.5 33.5v400q0 25 -7.5 33.5t-36.5 14.5l-41 9v18h298v-18l-41 -9q-29 -6 -37 -14.5t-8 -33.5v-400q0 -25 8 -33.5t37 -14.5l41 -9v-19h-298v19zM19 740h334v-55h-334v55z" />
    <glyph glyph-name="iogonek.sc" horiz-adv-x="372" 
d="M257 509.5q-8 -8.5 -8 -33.5v-400q0 -25 8 -33.5t37 -14.5l41 -9v-19h-68q-29 -13 -50.5 -37.5t-21.5 -56.5q0 -36 14 -53t37 -17q29 0 70 30l19 -22q-29 -31 -62.5 -50t-61.5 -19q-32 0 -61 17.5t-46.5 45.5t-17.5 59q0 30 35 57t85 46h-169v19l41 9q29 6 36.5 14.5
t7.5 33.5v400q0 25 -7.5 33.5t-36.5 14.5l-41 9v18h298v-18l-41 -9q-29 -6 -37 -14.5z" />
    <glyph glyph-name="j.sc" horiz-adv-x="385" 
d="M18 -162q-26 14 -41.5 34.5t-15.5 40.5q0 35 21 54.5t50 19.5q32 0 47 -17t15 -42q0 -21 -15.5 -38t-38.5 -17q-6 0 -6 -4t10.5 -8.5t25.5 -4.5q34 0 54 21.5t20 69.5v529q0 25 -8 33.5t-37 14.5l-42 9v18h300l-1 -18l-42 -9q-28 -6 -36 -14.5t-8 -33.5v-542h-8
q-12 0 -19.5 -7t-14.5 -17t-9 -13q-24 -37 -56.5 -55t-88.5 -18q-30 0 -56 14z" />
    <glyph glyph-name="jcircumflex.sc" horiz-adv-x="385" 
d="M18 -162q-26 14 -41.5 34.5t-15.5 40.5q0 35 21 54.5t50 19.5q32 0 47 -17t15 -42q0 -21 -15.5 -38t-38.5 -17q-6 0 -6 -4t10.5 -8.5t25.5 -4.5q34 0 54 21.5t20 69.5v529q0 25 -8 33.5t-37 14.5l-42 9v18h300l-1 -18l-42 -9q-28 -6 -36 -14.5t-8 -33.5v-542h-8
q-12 0 -19.5 -7t-14.5 -17t-9 -13q-24 -37 -56.5 -55t-88.5 -18q-30 0 -56 14zM368 634l-17 -16l-141 96l-140 -96l-18 16l138 180h41z" />
    <glyph glyph-name="k.sc" horiz-adv-x="674" 
d="M37 19l41 9q29 6 36.5 14.5t7.5 33.5v400q0 25 -7.5 33.5t-36.5 14.5l-41 9v18h298v-18l-41 -9q-29 -6 -37 -14.5t-8 -33.5v-217l245 231q6 6 6 13q0 13 -17 16l-73 13v19h230v-18l-24 -5q-25 -7 -42.5 -16t-42.5 -32l-160 -153l212 -273q17 -18 33 -26.5t38 -7.5v-20
h-109q-36 0 -60 9.5t-46 32.5l-157 201l-33 -31v-136q0 -25 8 -33.5t37 -14.5l41 -9v-19h-298v19z" />
    <glyph glyph-name="uni0137.sc" horiz-adv-x="674" 
d="M37 19l41 9q29 6 36.5 14.5t7.5 33.5v400q0 25 -7.5 33.5t-36.5 14.5l-41 9v18h298v-18l-41 -9q-29 -6 -37 -14.5t-8 -33.5v-217l245 231q6 6 6 13q0 13 -17 16l-73 13v19h230v-18l-24 -5q-25 -7 -42.5 -16t-42.5 -32l-160 -153l212 -273q17 -18 33 -26.5t38 -7.5v-20
h-109q-36 0 -60 9.5t-46 32.5l-157 201l-33 -31v-136q0 -25 8 -33.5t37 -14.5l41 -9v-19h-298v19zM280 -215q32 3 52 20t20 41q0 17 -19 31t-51 15h-10v27q27 12 43.5 24.5t32.5 33.5q48 -9 78.5 -35t30.5 -60q0 -55 -47.5 -91t-129.5 -40v34z" />
    <glyph glyph-name="l.sc" horiz-adv-x="619" 
d="M37 19l41 9q29 6 36.5 14.5t7.5 33.5v400q0 25 -7.5 33.5t-36.5 14.5l-41 9v18h298v-18l-41 -9q-29 -6 -37 -14.5t-8 -33.5v-400q0 -47 58 -47h104q48 0 78 15.5t53 51.5l43 68h19q-25 -107 -25 -164h-542v19z" />
    <glyph glyph-name="lacute.sc" horiz-adv-x="619" 
d="M37 19l41 9q29 6 36.5 14.5t7.5 33.5v400q0 25 -7.5 33.5t-36.5 14.5l-41 9v18h298v-18l-41 -9q-29 -6 -37 -14.5t-8 -33.5v-400q0 -47 58 -47h104q48 0 78 15.5t53 51.5l43 68h19q-25 -107 -25 -164h-542v19zM107 652l110 155q18 26 43 26q20 0 32 -12.5t12 -29.5
q0 -26 -24 -43l-155 -112z" />
    <glyph glyph-name="lcaron.sc" horiz-adv-x="619" 
d="M37 19l41 9q29 6 36.5 14.5t7.5 33.5v400q0 25 -7.5 33.5t-36.5 14.5l-41 9v18h298v-18l-41 -9q-29 -6 -37 -14.5t-8 -33.5v-400q0 -47 58 -47h104q48 0 78 15.5t53 51.5l43 68h19q-25 -107 -25 -164h-542v19zM410 359l31 188q10 45 49 45q18 0 29.5 -12t11.5 -30
q0 -14 -8 -29l-89 -168z" />
    <glyph glyph-name="uni013C.sc" horiz-adv-x="619" 
d="M37 19l41 9q29 6 36.5 14.5t7.5 33.5v400q0 25 -7.5 33.5t-36.5 14.5l-41 9v18h298v-18l-41 -9q-29 -6 -37 -14.5t-8 -33.5v-400q0 -47 58 -47h104q48 0 78 15.5t53 51.5l43 68h19q-25 -107 -25 -164h-542v19zM248 -215q32 3 52 20t20 41q0 17 -19 31t-51 15h-10v27
q27 12 43.5 24.5t32.5 33.5q48 -9 78.5 -35t30.5 -60q0 -55 -47.5 -91t-129.5 -40v34z" />
    <glyph glyph-name="lslash.sc" horiz-adv-x="619" 
d="M604 164q-25 -107 -25 -164h-542v19l41 9q29 6 36.5 14.5t7.5 33.5v119l-85 -26v49l85 26v232q0 25 -7.5 33.5t-36.5 14.5l-41 9v18h298v-18l-41 -9q-29 -6 -37 -14.5t-8 -33.5v-194l233 71v-49l-233 -71v-157q0 -47 58 -47h104q48 0 78 15.5t53 51.5l43 68h19z" />
    <glyph glyph-name="m.sc" horiz-adv-x="872" 
d="M187 431l-25 -355q-1 -36 44 -44l64 -13v-19h-233v19l49 11q21 5 32 15.5t12 30.5l28 400q1 24 -7.5 32.5t-38.5 14.5l-44 10l1 18l206 -1l177 -368l154 369h212l-1 -18l-42 -9q-28 -6 -36.5 -14.5t-7.5 -32.5l18 -401q2 -26 9 -34t35 -14l42 -9v-19h-301l-1 19l41 9
q23 6 33 10.5t13.5 13.5t2.5 28l-21 378l-191 -462h-14z" />
    <glyph glyph-name="n.sc" horiz-adv-x="727" 
d="M161 446v-371q0 -35 44 -43l64 -13v-19h-233v19l49 11q22 5 33 15t11 30v401q0 26 -7.5 34t-34.5 13l-44 10v18h187l348 -368v293q0 36 -44 44l-64 13v18h234v-18l-50 -11q-22 -5 -33 -15t-11 -31v-490h-16z" />
    <glyph glyph-name="nacute.sc" horiz-adv-x="727" 
d="M161 446v-371q0 -35 44 -43l64 -13v-19h-233v19l49 11q22 5 33 15t11 30v401q0 26 -7.5 34t-34.5 13l-44 10v18h187l348 -368v293q0 36 -44 44l-64 13v18h234v-18l-50 -11q-22 -5 -33 -15t-11 -31v-490h-16zM278 652l110 155q18 26 43 26q20 0 32 -12.5t12 -29.5
q0 -26 -24 -43l-155 -112z" />
    <glyph glyph-name="ncaron.sc" horiz-adv-x="727" 
d="M161 446v-371q0 -35 44 -43l64 -13v-19h-233v19l49 11q22 5 33 15t11 30v401q0 26 -7.5 34t-34.5 13l-44 10v18h187l348 -368v293q0 36 -44 44l-64 13v18h234v-18l-50 -11q-22 -5 -33 -15t-11 -31v-490h-16zM203 802l18 16l140 -96l141 96l17 -16l-137 -180h-41z" />
    <glyph glyph-name="uni0146.sc" horiz-adv-x="727" 
d="M161 446v-371q0 -35 44 -43l64 -13v-19h-233v19l49 11q22 5 33 15t11 30v401q0 26 -7.5 34t-34.5 13l-44 10v18h187l348 -368v293q0 36 -44 44l-64 13v18h234v-18l-50 -11q-22 -5 -33 -15t-11 -31v-490h-16zM286 -215q32 3 52 20t20 41q0 17 -19 31t-51 15h-10v27
q27 12 43.5 24.5t32.5 33.5q48 -9 78.5 -35t30.5 -60q0 -55 -47.5 -91t-129.5 -40v34z" />
    <glyph glyph-name="eng.sc" horiz-adv-x="732" 
d="M447 -173.5q-25 13.5 -38.5 34.5t-13.5 42q0 35 21 54.5t49 19.5q32 0 47.5 -17t15.5 -43q0 -20 -16 -37t-38 -17q-6 0 -6 -5q0 -3 11 -7.5t24 -4.5q75 0 75 89v69l-417 441v-370q0 -35 44 -43l64 -13v-19h-233v19l49 11q22 5 33 15t11 30v401q0 26 -7.5 34t-34.5 13
l-44 10v18h187l348 -366v291q0 36 -44 44l-64 13v18h234v-18l-50 -11q-22 -5 -33 -15t-11 -31v-607q-5 0 -10.5 -4.5t-9 -8.5t-4.5 -6q-14 -17 -31.5 -27t-49.5 -10q-33 0 -58 13.5z" />
    <glyph glyph-name="ntilde.sc" horiz-adv-x="727" 
d="M161 446v-371q0 -35 44 -43l64 -13v-19h-233v19l49 11q22 5 33 15t11 30v401q0 26 -7.5 34t-34.5 13l-44 10v18h187l348 -368v293q0 36 -44 44l-64 13v18h234v-18l-50 -11q-22 -5 -33 -15t-11 -31v-490h-16zM78 648h10q49 0 65.5 7t23.5 28q8 28 33.5 54t64.5 42.5
t86 16.5q46 0 85 -16t65 -42t35 -54q4 -16 12 -23t25.5 -10t51.5 -3h10v-13h-116q-1 22 -22.5 43t-59.5 35t-86 14t-86 -14t-59 -35t-22 -43h-116v13z" />
    <glyph glyph-name="o.sc" horiz-adv-x="700" 
d="M192.5 28.5q-69.5 37.5 -108.5 101.5t-39 140q0 82 39 148.5t108.5 104t156.5 37.5t156.5 -37.5t109 -101.5t39.5 -140q0 -82 -39.5 -148t-109 -104t-156.5 -38t-156.5 37.5zM471 91q45 69 45 189q0 74 -20.5 131t-58.5 88t-88 31t-87.5 -31.5t-58 -90.5t-20.5 -138
q0 -74 20.5 -130t58.5 -87t87 -31q77 0 122 69z" />
    <glyph glyph-name="oacute.sc" horiz-adv-x="700" 
d="M192.5 28.5q-69.5 37.5 -108.5 101.5t-39 140q0 82 39 148.5t108.5 104t156.5 37.5t156.5 -37.5t109 -101.5t39.5 -140q0 -82 -39.5 -148t-109 -104t-156.5 -38t-156.5 37.5zM471 91q45 69 45 189q0 74 -20.5 131t-58.5 88t-88 31t-87.5 -31.5t-58 -90.5t-20.5 -138
q0 -74 20.5 -130t58.5 -87t87 -31q77 0 122 69zM270 652l110 155q18 26 43 26q20 0 32 -12.5t12 -29.5q0 -26 -24 -43l-155 -112z" />
    <glyph glyph-name="ocircumflex.sc" horiz-adv-x="700" 
d="M192.5 28.5q-69.5 37.5 -108.5 101.5t-39 140q0 82 39 148.5t108.5 104t156.5 37.5t156.5 -37.5t109 -101.5t39.5 -140q0 -82 -39.5 -148t-109 -104t-156.5 -38t-156.5 37.5zM471 91q45 69 45 189q0 74 -20.5 131t-58.5 88t-88 31t-87.5 -31.5t-58 -90.5t-20.5 -138
q0 -74 20.5 -130t58.5 -87t87 -31q77 0 122 69zM511 634l-17 -16l-141 96l-140 -96l-18 16l138 180h41z" />
    <glyph glyph-name="odieresis.sc" horiz-adv-x="700" 
d="M192.5 28.5q-69.5 37.5 -108.5 101.5t-39 140q0 82 39 148.5t108.5 104t156.5 37.5t156.5 -37.5t109 -101.5t39.5 -140q0 -82 -39.5 -148t-109 -104t-156.5 -38t-156.5 37.5zM471 91q45 69 45 189q0 74 -20.5 131t-58.5 88t-88 31t-87.5 -31.5t-58 -90.5t-20.5 -138
q0 -74 20.5 -130t58.5 -87t87 -31q77 0 122 69zM196.5 671.5q-19.5 19.5 -19.5 45.5q0 27 19.5 46t46.5 19q26 0 45.5 -19.5t19.5 -45.5q0 -27 -19.5 -46t-45.5 -19q-27 0 -46.5 19.5zM417.5 671.5q-19.5 19.5 -19.5 45.5q0 27 19.5 46t46.5 19q26 0 45.5 -19.5t19.5 -45.5
q0 -27 -19.5 -46t-45.5 -19q-27 0 -46.5 19.5z" />
    <glyph glyph-name="ograve.sc" horiz-adv-x="700" 
d="M192.5 28.5q-69.5 37.5 -108.5 101.5t-39 140q0 82 39 148.5t108.5 104t156.5 37.5t156.5 -37.5t109 -101.5t39.5 -140q0 -82 -39.5 -148t-109 -104t-156.5 -38t-156.5 37.5zM471 91q45 69 45 189q0 74 -20.5 131t-58.5 88t-88 31t-87.5 -31.5t-58 -90.5t-20.5 -138
q0 -74 20.5 -130t58.5 -87t87 -31q77 0 122 69zM271 750q-21 17 -21 41q0 17 11.5 29.5t29.5 12.5q15 0 26 -6.5t20 -20.5l102 -161l-19 -15z" />
    <glyph glyph-name="ohungarumlaut.sc" horiz-adv-x="700" 
d="M192.5 28.5q-69.5 37.5 -108.5 101.5t-39 140q0 82 39 148.5t108.5 104t156.5 37.5t156.5 -37.5t109 -101.5t39.5 -140q0 -82 -39.5 -148t-109 -104t-156.5 -38t-156.5 37.5zM471 91q45 69 45 189q0 74 -20.5 131t-58.5 88t-88 31t-87.5 -31.5t-58 -90.5t-20.5 -138
q0 -74 20.5 -130t58.5 -87t87 -31q77 0 122 69zM212 645l98 163q17 28 44 28q20 0 32 -12t12 -30q0 -24 -21 -41l-146 -122zM384 652l110 155q17 26 43 26q20 0 32 -12.5t12 -29.5q0 -25 -24 -43l-155 -112z" />
    <glyph glyph-name="omacron.sc" horiz-adv-x="700" 
d="M192.5 28.5q-69.5 37.5 -108.5 101.5t-39 140q0 82 39 148.5t108.5 104t156.5 37.5t156.5 -37.5t109 -101.5t39.5 -140q0 -82 -39.5 -148t-109 -104t-156.5 -38t-156.5 37.5zM471 91q45 69 45 189q0 74 -20.5 131t-58.5 88t-88 31t-87.5 -31.5t-58 -90.5t-20.5 -138
q0 -74 20.5 -130t58.5 -87t87 -31q77 0 122 69zM186 740h334v-55h-334v55z" />
    <glyph glyph-name="oslash.sc" horiz-adv-x="710" 
d="M645.5 381q19.5 -48 19.5 -100q0 -82 -39.5 -148t-109 -104t-156.5 -38q-60 0 -112.5 18t-92.5 52l-76 -71l-34 35l75 70q-31 36 -47.5 81t-16.5 94q0 82 39 148.5t108.5 104t156.5 37.5q111 0 194 -61l67 62l33 -35l-64 -59q36 -38 55.5 -86zM205 174l288 268
q-22 42 -56 65t-77 23q-50 0 -87.5 -31.5t-58 -90.5t-20.5 -138q0 -52 11 -96zM482 91q45 69 45 189q0 65 -15 114l-290 -271q21 -48 57 -74.5t81 -26.5q77 0 122 69z" />
    <glyph glyph-name="otilde.sc" horiz-adv-x="700" 
d="M192.5 28.5q-69.5 37.5 -108.5 101.5t-39 140q0 82 39 148.5t108.5 104t156.5 37.5t156.5 -37.5t109 -101.5t39.5 -140q0 -82 -39.5 -148t-109 -104t-156.5 -38t-156.5 37.5zM471 91q45 69 45 189q0 74 -20.5 131t-58.5 88t-88 31t-87.5 -31.5t-58 -90.5t-20.5 -138
q0 -74 20.5 -130t58.5 -87t87 -31q77 0 122 69zM70 648h10q49 0 65.5 7t23.5 28q8 28 33.5 54t64.5 42.5t86 16.5q46 0 85 -16t65 -42t35 -54q4 -16 12 -23t25.5 -10t51.5 -3h10v-13h-116q-1 22 -22.5 43t-59.5 35t-86 14t-86 -14t-59 -35t-22 -43h-116v13z" />
    <glyph glyph-name="oe.sc" horiz-adv-x="957" 
d="M904.5 69.5q-5.5 -34.5 -5.5 -69.5h-470q-37 -9 -80 -9q-87 0 -156.5 37.5t-108.5 101.5t-39 140q0 82 39 148.5t108.5 104t156.5 37.5q41 0 80 -9h460q-4 -16 -4 -45q0 -27 7 -67q4 -19 5 -32h-19q-22 50 -63 83t-94 33h-107v-217h105q40 0 59.5 15.5t24.5 46.5l7 37h19
v-227h-19l-7 40q-6 30 -25 45t-57 15h-107v-175q0 -32 2.5 -45.5t14.5 -21t41 -7.5h60q43 0 73 16t57 51l39 52h19q-10 -44 -15.5 -78.5zM203.5 140q20.5 -56 58.5 -87t87 -31q45 0 80.5 24t59.5 70l-1 321q-23 45 -58.5 69t-80.5 24q-50 0 -87.5 -31.5t-58 -90.5
t-20.5 -138q0 -74 20.5 -130z" />
    <glyph glyph-name="p.sc" horiz-adv-x="582" 
d="M36 19l42 9q28 6 36 14.5t8 33.5v401q0 24 -7.5 32t-34.5 14l-43 10v18h264q78 0 134.5 -21.5t86 -60.5t29.5 -90q0 -54 -32.5 -91.5t-82.5 -56.5t-101 -19q-29 0 -53 6l-1 6q65 4 105 40t40 113q0 146 -155 146h-23v-447q0 -26 8.5 -35t36.5 -13l51 -9v-19h-308v19z" />
    <glyph glyph-name="thorn.sc" horiz-adv-x="583" 
d="M37 19l41 9q29 6 36.5 14.5t7.5 33.5v400q0 25 -7.5 33.5t-36.5 14.5l-41 9v18h298v-18l-41 -9q-29 -6 -37 -14.5t-8 -33.5v-27h52q117 0 183.5 -47t66.5 -125q0 -54 -33 -91.5t-82.5 -56.5t-100.5 -19q-29 0 -53 6l-1 6q65 4 105 40t40 112q0 77 -39.5 112t-114.5 35
h-23v-345q0 -25 8 -34t37 -14l50 -9l1 -19h-308v19z" />
    <glyph glyph-name="q.sc" horiz-adv-x="700" 
d="M625 -123q-203 0 -323 117q-75 10 -133.5 49t-91 98.5t-32.5 128.5q0 82 39 148.5t108.5 104t156.5 37.5t156.5 -37.5t109 -101.5t39.5 -140q0 -92 -49 -163t-132 -104q36 -43 120 -75t165 -32l6 -17q-61 -13 -139 -13zM203.5 140q20.5 -56 58.5 -87t87 -31q77 0 122 69
t45 189q0 74 -20.5 131t-58.5 88t-88 31t-87.5 -31.5t-58 -90.5t-20.5 -138q0 -74 20.5 -130z" />
    <glyph glyph-name="r.sc" horiz-adv-x="697" 
d="M507 14.5q-47 27.5 -92 93.5q-15 23 -17 26q-24 36 -40.5 57t-39.5 35t-51 14h-18v-164q0 -25 8 -33.5t37 -14.5l41 -9v-19h-298v19l41 9q29 6 36.5 14.5t7.5 33.5v400q0 25 -7.5 33.5t-36.5 14.5l-41 9v18h238q130 0 203 -39t73 -111q0 -37 -24 -68t-65 -50.5t-90 -24.5
v-1q53 -3 91 -35.5t80 -91.5q39 -54 71.5 -83.5t66.5 -29.5v-21q-37 -9 -72 -9q-55 0 -102 27.5zM275 268q64 0 106.5 31t42.5 93q0 63 -41.5 97t-118.5 34h-15v-255h26z" />
    <glyph glyph-name="racute.sc" horiz-adv-x="697" 
d="M507 14.5q-47 27.5 -92 93.5q-15 23 -17 26q-24 36 -40.5 57t-39.5 35t-51 14h-18v-164q0 -25 8 -33.5t37 -14.5l41 -9v-19h-298v19l41 9q29 6 36.5 14.5t7.5 33.5v400q0 25 -7.5 33.5t-36.5 14.5l-41 9v18h238q130 0 203 -39t73 -111q0 -37 -24 -68t-65 -50.5t-90 -24.5
v-1q53 -3 91 -35.5t80 -91.5q39 -54 71.5 -83.5t66.5 -29.5v-21q-37 -9 -72 -9q-55 0 -102 27.5zM275 268q64 0 106.5 31t42.5 93q0 63 -41.5 97t-118.5 34h-15v-255h26zM217 652l110 155q18 26 43 26q20 0 32 -12.5t12 -29.5q0 -26 -24 -43l-155 -112z" />
    <glyph glyph-name="rcaron.sc" horiz-adv-x="697" 
d="M507 14.5q-47 27.5 -92 93.5q-15 23 -17 26q-24 36 -40.5 57t-39.5 35t-51 14h-18v-164q0 -25 8 -33.5t37 -14.5l41 -9v-19h-298v19l41 9q29 6 36.5 14.5t7.5 33.5v400q0 25 -7.5 33.5t-36.5 14.5l-41 9v18h238q130 0 203 -39t73 -111q0 -37 -24 -68t-65 -50.5t-90 -24.5
v-1q53 -3 91 -35.5t80 -91.5q39 -54 71.5 -83.5t66.5 -29.5v-21q-37 -9 -72 -9q-55 0 -102 27.5zM275 268q64 0 106.5 31t42.5 93q0 63 -41.5 97t-118.5 34h-15v-255h26zM142 802l18 16l140 -96l141 96l17 -16l-137 -180h-41z" />
    <glyph glyph-name="uni0157.sc" horiz-adv-x="697" 
d="M507 14.5q-47 27.5 -92 93.5q-15 23 -17 26q-24 36 -40.5 57t-39.5 35t-51 14h-18v-164q0 -25 8 -33.5t37 -14.5l41 -9v-19h-298v19l41 9q29 6 36.5 14.5t7.5 33.5v400q0 25 -7.5 33.5t-36.5 14.5l-41 9v18h238q130 0 203 -39t73 -111q0 -37 -24 -68t-65 -50.5t-90 -24.5
v-1q53 -3 91 -35.5t80 -91.5q39 -54 71.5 -83.5t66.5 -29.5v-21q-37 -9 -72 -9q-55 0 -102 27.5zM275 268q64 0 106.5 31t42.5 93q0 63 -41.5 97t-118.5 34h-15v-255h26zM280 -215q32 3 52 20t20 41q0 17 -19 31t-51 15h-10v27q27 12 43.5 24.5t32.5 33.5q48 -9 78.5 -35
t30.5 -60q0 -55 -47.5 -91t-129.5 -40v34z" />
    <glyph glyph-name="s.sc" horiz-adv-x="523" 
d="M427 261q36 -37 36 -99q0 -79 -52.5 -125.5t-139.5 -46.5q-65 0 -114.5 14t-97.5 36q7 31 7 69q0 47 -11 85h31q5 -79 54 -127t130 -48q42 0 76.5 23t34.5 71q0 30 -13 49t-45 35t-96 37q-82 27 -120.5 63.5t-38.5 100.5q0 44 22.5 81t65.5 59t104 22q31 0 51.5 -5.5
t43.5 -15.5q5 -2 18.5 -8t25.5 -6l27 4l3 -2q-4 -15 -4 -40q0 -32 6 -64t10 -41h-23q-19 70 -62 109.5t-96 39.5q-48 0 -75.5 -28.5t-27.5 -63.5q0 -29 11.5 -46.5t40.5 -32t91 -33.5q91 -29 127 -66zM441 382z" />
    <glyph glyph-name="sacute.sc" horiz-adv-x="523" 
d="M427 261q36 -37 36 -99q0 -79 -52.5 -125.5t-139.5 -46.5q-65 0 -114.5 14t-97.5 36q7 31 7 69q0 47 -11 85h31q5 -79 54 -127t130 -48q42 0 76.5 23t34.5 71q0 30 -13 49t-45 35t-96 37q-82 27 -120.5 63.5t-38.5 100.5q0 44 22.5 81t65.5 59t104 22q31 0 51.5 -5.5
t43.5 -15.5q5 -2 18.5 -8t25.5 -6l27 4l3 -2q-4 -15 -4 -40q0 -32 6 -64t10 -41h-23q-19 70 -62 109.5t-96 39.5q-48 0 -75.5 -28.5t-27.5 -63.5q0 -29 11.5 -46.5t40.5 -32t91 -33.5q91 -29 127 -66zM441 382zM178 652l110 155q18 26 43 26q20 0 32 -12.5t12 -29.5
q0 -26 -24 -43l-155 -112z" />
    <glyph glyph-name="scaron.sc" horiz-adv-x="523" 
d="M427 261q36 -37 36 -99q0 -79 -52.5 -125.5t-139.5 -46.5q-65 0 -114.5 14t-97.5 36q7 31 7 69q0 47 -11 85h31q5 -79 54 -127t130 -48q42 0 76.5 23t34.5 71q0 30 -13 49t-45 35t-96 37q-82 27 -120.5 63.5t-38.5 100.5q0 44 22.5 81t65.5 59t104 22q31 0 51.5 -5.5
t43.5 -15.5q5 -2 18.5 -8t25.5 -6l27 4l3 -2q-4 -15 -4 -40q0 -32 6 -64t10 -41h-23q-19 70 -62 109.5t-96 39.5q-48 0 -75.5 -28.5t-27.5 -63.5q0 -29 11.5 -46.5t40.5 -32t91 -33.5q91 -29 127 -66zM441 382zM103 802l18 16l140 -96l141 96l17 -16l-137 -180h-41z" />
    <glyph glyph-name="scedilla.sc" horiz-adv-x="523" 
d="M260 -10l-7 -26q69 -1 107.5 -23.5t38.5 -60.5q0 -60 -68.5 -91t-160.5 -36v33q52 2 86 21t34 46q0 40 -94 43l25 97q-78 9 -162 47q7 31 7 69q0 47 -11 85h31q5 -79 54 -127t130 -48q42 0 76.5 23t34.5 71q0 30 -13 49t-45 35t-96 37q-82 27 -120.5 63.5t-38.5 100.5
q0 44 22.5 81t65.5 59t104 22q31 0 51.5 -5.5t43.5 -15.5q5 -2 18.5 -8t25.5 -6l27 4l3 -2q-4 -15 -4 -40q0 -32 6 -64t10 -41h-23q-19 70 -62 109.5t-96 39.5q-48 0 -75.5 -28.5t-27.5 -63.5q0 -29 11.5 -46.5t40.5 -32t91 -33.5q91 -29 127 -66t36 -99q0 -79 -52.5 -125.5
t-139.5 -46.5h-11zM441 382z" />
    <glyph glyph-name="uni0219.sc" horiz-adv-x="523" 
d="M427 261q36 -37 36 -99q0 -79 -52.5 -125.5t-139.5 -46.5q-65 0 -114.5 14t-97.5 36q7 31 7 69q0 47 -11 85h31q5 -79 54 -127t130 -48q42 0 76.5 23t34.5 71q0 30 -13 49t-45 35t-96 37q-82 27 -120.5 63.5t-38.5 100.5q0 44 22.5 81t65.5 59t104 22q31 0 51.5 -5.5
t43.5 -15.5q5 -2 18.5 -8t25.5 -6l27 4l3 -2q-4 -15 -4 -40q0 -32 6 -64t10 -41h-23q-19 70 -62 109.5t-96 39.5q-48 0 -75.5 -28.5t-27.5 -63.5q0 -29 11.5 -46.5t40.5 -32t91 -33.5q91 -29 127 -66zM441 382zM181 -215q32 3 52 20t20 41q0 17 -19 31t-51 15h-10v27
q27 12 43.5 24.5t32.5 33.5q48 -9 78.5 -35t30.5 -60q0 -55 -47.5 -91t-129.5 -40v34z" />
    <glyph glyph-name="t.sc" horiz-adv-x="625" 
d="M162 19l43 9q29 6 36.5 14.5t7.5 33.5v447h-59q-51 0 -91.5 -40t-54.5 -97h-24q6 24 10 57.5t4 63.5q0 25 -3 44h563q-4 -28 -4 -46q0 -30 4 -62.5t10 -56.5h-23q-15 58 -54.5 97.5t-91.5 39.5h-59v-447q0 -25 7.5 -33.5t35.5 -14.5l43 -9v-19h-299z" />
    <glyph glyph-name="tbar.sc" horiz-adv-x="625" 
d="M590 505q0 -30 4 -62.5t10 -56.5h-23q-15 58 -54.5 97.5t-91.5 39.5h-59v-222h100v-47h-100v-178q0 -25 7.5 -33.5t35.5 -14.5l43 -9v-19h-299l-1 19l43 9q29 6 36.5 14.5t7.5 33.5v178h-100v47h100v222h-59q-51 0 -91.5 -40t-54.5 -97h-24q6 24 10 57.5t4 63.5
q0 25 -3 44h563q-4 -28 -4 -46z" />
    <glyph glyph-name="tcaron.sc" horiz-adv-x="625" 
d="M162 19l43 9q29 6 36.5 14.5t7.5 33.5v447h-59q-51 0 -91.5 -40t-54.5 -97h-24q6 24 10 57.5t4 63.5q0 25 -3 44h563q-4 -28 -4 -46q0 -30 4 -62.5t10 -56.5h-23q-15 58 -54.5 97.5t-91.5 39.5h-59v-447q0 -25 7.5 -33.5t35.5 -14.5l43 -9v-19h-299zM146 802l18 16
l140 -96l141 96l17 -16l-137 -180h-41z" />
    <glyph glyph-name="uni0163.sc" horiz-adv-x="625" 
d="M162 19l43 9q29 6 36.5 14.5t7.5 33.5v447h-59q-51 0 -91.5 -40t-54.5 -97h-24q6 24 10 57.5t4 63.5q0 25 -3 44h563q-4 -28 -4 -46q0 -30 4 -62.5t10 -56.5h-23q-15 58 -54.5 97.5t-91.5 39.5h-59v-447q0 -25 7.5 -33.5t35.5 -14.5l43 -9v-19h-299zM233 -214q52 2 86 21
t34 46q0 40 -94 43l27 104h40l-10 -36q69 -1 107.5 -23.5t38.5 -60.5q0 -60 -68.5 -91t-160.5 -36v33z" />
    <glyph glyph-name="uni021B.sc" horiz-adv-x="625" 
d="M162 19l43 9q29 6 36.5 14.5t7.5 33.5v447h-59q-51 0 -91.5 -40t-54.5 -97h-24q6 24 10 57.5t4 63.5q0 25 -3 44h563q-4 -28 -4 -46q0 -30 4 -62.5t10 -56.5h-23q-15 58 -54.5 97.5t-91.5 39.5h-59v-447q0 -25 7.5 -33.5t35.5 -14.5l43 -9v-19h-299zM233 -215q32 3 52 20
t20 41q0 17 -19 31t-51 15h-10v27q27 12 43.5 24.5t32.5 33.5q48 -9 78.5 -35t30.5 -60q0 -55 -47.5 -91t-129.5 -40v34z" />
    <glyph glyph-name="u.sc" horiz-adv-x="670" 
d="M222.5 15q-50.5 24 -82 65.5t-31.5 92.5v303q0 25 -7.5 33.5t-36.5 14.5l-41 9v18h298v-18l-41 -9q-29 -6 -37 -14.5t-8 -33.5v-298q0 -60 36.5 -94t107.5 -34q59 0 98.5 35.5t39.5 88.5v302q0 36 -46 44l-63 13v18h233v-18l-49 -11q-23 -5 -34 -15t-11 -31v-387
q-11 0 -20.5 -7.5t-26.5 -25.5q-28 -29 -66 -47t-108 -18q-54 0 -104.5 24z" />
    <glyph glyph-name="uacute.sc" horiz-adv-x="670" 
d="M222.5 15q-50.5 24 -82 65.5t-31.5 92.5v303q0 25 -7.5 33.5t-36.5 14.5l-41 9v18h298v-18l-41 -9q-29 -6 -37 -14.5t-8 -33.5v-298q0 -60 36.5 -94t107.5 -34q59 0 98.5 35.5t39.5 88.5v302q0 36 -46 44l-63 13v18h233v-18l-49 -11q-23 -5 -34 -15t-11 -31v-387
q-11 0 -20.5 -7.5t-26.5 -25.5q-28 -29 -66 -47t-108 -18q-54 0 -104.5 24zM284 652l110 155q18 26 43 26q20 0 32 -12.5t12 -29.5q0 -26 -24 -43l-155 -112z" />
    <glyph glyph-name="ucircumflex.sc" horiz-adv-x="670" 
d="M222.5 15q-50.5 24 -82 65.5t-31.5 92.5v303q0 25 -7.5 33.5t-36.5 14.5l-41 9v18h298v-18l-41 -9q-29 -6 -37 -14.5t-8 -33.5v-298q0 -60 36.5 -94t107.5 -34q59 0 98.5 35.5t39.5 88.5v302q0 36 -46 44l-63 13v18h233v-18l-49 -11q-23 -5 -34 -15t-11 -31v-387
q-11 0 -20.5 -7.5t-26.5 -25.5q-28 -29 -66 -47t-108 -18q-54 0 -104.5 24zM525 634l-17 -16l-141 96l-140 -96l-18 16l138 180h41z" />
    <glyph glyph-name="udieresis.sc" horiz-adv-x="670" 
d="M222.5 15q-50.5 24 -82 65.5t-31.5 92.5v303q0 25 -7.5 33.5t-36.5 14.5l-41 9v18h298v-18l-41 -9q-29 -6 -37 -14.5t-8 -33.5v-298q0 -60 36.5 -94t107.5 -34q59 0 98.5 35.5t39.5 88.5v302q0 36 -46 44l-63 13v18h233v-18l-49 -11q-23 -5 -34 -15t-11 -31v-387
q-11 0 -20.5 -7.5t-26.5 -25.5q-28 -29 -66 -47t-108 -18q-54 0 -104.5 24zM210.5 671.5q-19.5 19.5 -19.5 45.5q0 27 19.5 46t46.5 19q26 0 45.5 -19.5t19.5 -45.5q0 -27 -19.5 -46t-45.5 -19q-27 0 -46.5 19.5zM431.5 671.5q-19.5 19.5 -19.5 45.5q0 27 19.5 46t46.5 19
q26 0 45.5 -19.5t19.5 -45.5q0 -27 -19.5 -46t-45.5 -19q-27 0 -46.5 19.5z" />
    <glyph glyph-name="ugrave.sc" horiz-adv-x="670" 
d="M222.5 15q-50.5 24 -82 65.5t-31.5 92.5v303q0 25 -7.5 33.5t-36.5 14.5l-41 9v18h298v-18l-41 -9q-29 -6 -37 -14.5t-8 -33.5v-298q0 -60 36.5 -94t107.5 -34q59 0 98.5 35.5t39.5 88.5v302q0 36 -46 44l-63 13v18h233v-18l-49 -11q-23 -5 -34 -15t-11 -31v-387
q-11 0 -20.5 -7.5t-26.5 -25.5q-28 -29 -66 -47t-108 -18q-54 0 -104.5 24zM285 750q-21 17 -21 41q0 17 11.5 29.5t29.5 12.5q15 0 26 -6.5t20 -20.5l102 -161l-19 -15z" />
    <glyph glyph-name="uhungarumlaut.sc" horiz-adv-x="670" 
d="M222.5 15q-50.5 24 -82 65.5t-31.5 92.5v303q0 25 -7.5 33.5t-36.5 14.5l-41 9v18h298v-18l-41 -9q-29 -6 -37 -14.5t-8 -33.5v-298q0 -60 36.5 -94t107.5 -34q59 0 98.5 35.5t39.5 88.5v302q0 36 -46 44l-63 13v18h233v-18l-49 -11q-23 -5 -34 -15t-11 -31v-387
q-11 0 -20.5 -7.5t-26.5 -25.5q-28 -29 -66 -47t-108 -18q-54 0 -104.5 24zM227 645l98 163q17 28 44 28q20 0 32 -12t12 -30q0 -24 -21 -41l-146 -122zM399 652l110 155q17 26 43 26q20 0 32 -12.5t12 -29.5q0 -25 -24 -43l-155 -112z" />
    <glyph glyph-name="umacron.sc" horiz-adv-x="670" 
d="M222.5 15q-50.5 24 -82 65.5t-31.5 92.5v303q0 25 -7.5 33.5t-36.5 14.5l-41 9v18h298v-18l-41 -9q-29 -6 -37 -14.5t-8 -33.5v-298q0 -60 36.5 -94t107.5 -34q59 0 98.5 35.5t39.5 88.5v302q0 36 -46 44l-63 13v18h233v-18l-49 -11q-23 -5 -34 -15t-11 -31v-387
q-11 0 -20.5 -7.5t-26.5 -25.5q-28 -29 -66 -47t-108 -18q-54 0 -104.5 24zM200 740h334v-55h-334v55z" />
    <glyph glyph-name="uogonek.sc" horiz-adv-x="670" 
d="M642 551v-18l-49 -11q-23 -5 -34 -15t-11 -31v-387q-11 0 -20.5 -7.5t-26.5 -25.5q-17 -17 -34.5 -30t-44.5 -22h3q-32 -12 -57.5 -38t-25.5 -60q0 -36 14 -53t37 -17q29 0 71 30l18 -22q-29 -31 -62.5 -50t-61.5 -19q-32 0 -61 17.5t-46.5 45.5t-17.5 59q0 26 28 50
t71 44h-5q-54 0 -104.5 24t-82 65.5t-31.5 92.5v303q0 25 -7.5 33.5t-36.5 14.5l-41 9v18h298v-18l-41 -9q-29 -6 -37 -14.5t-8 -33.5v-298q0 -60 36.5 -94t107.5 -34q59 0 98.5 35.5t39.5 88.5v302q0 36 -46 44l-63 13v18h233z" />
    <glyph glyph-name="uring.sc" horiz-adv-x="670" 
d="M222.5 15q-50.5 24 -82 65.5t-31.5 92.5v303q0 25 -7.5 33.5t-36.5 14.5l-41 9v18h298v-18l-41 -9q-29 -6 -37 -14.5t-8 -33.5v-298q0 -60 36.5 -94t107.5 -34q59 0 98.5 35.5t39.5 88.5v302q0 36 -46 44l-63 13v18h233v-18l-49 -11q-23 -5 -34 -15t-11 -31v-387
q-11 0 -20.5 -7.5t-26.5 -25.5q-28 -29 -66 -47t-108 -18q-54 0 -104.5 24zM260 786.5q17 28.5 45.5 45.5t61.5 17q52 0 88.5 -36.5t36.5 -88.5q0 -33 -17 -61.5t-45.5 -45.5t-62.5 -17q-33 0 -61.5 17t-45.5 45.5t-17 61.5q0 34 17 62.5zM316 673q22 -21 52 -21t51 21
t21 51t-21 51.5t-51 21.5t-52 -21.5t-22 -51.5t22 -51z" />
    <glyph glyph-name="v.sc" horiz-adv-x="690" 
d="M674 551v-18l-57 -11q-16 -3 -25.5 -8.5t-13.5 -16.5l-215 -509h-47l-226 522q-3 7 -24 12l-50 10v19h313v-19l-44 -9q-21 -4 -30 -11.5t-9 -18.5q0 -9 2 -14l137 -351l149 353q2 8 2 10q0 10 -9 16t-27 10l-68 15v19h242z" />
    <glyph glyph-name="w.sc" horiz-adv-x="996" 
d="M95 503q-5 14 -26 19l-50 10v19h311v-19l-40 -8q-23 -5 -33 -12t-10 -19q0 -7 3 -16l116 -339l120 349q4 12 -4.5 22t-22.5 13l-61 11v18h274v-18l-52 -11q-12 -3 -20.5 -9.5t-8.5 -16.5q0 -6 1 -9l122 -354l128 356l2 8q0 7 -10.5 11.5t-43.5 12.5l-52 12v18h239v-19
l-54 -12q-33 -7 -41 -26l-190 -508h-48l-157 390l-141 -390h-46z" />
    <glyph glyph-name="wacute.sc" horiz-adv-x="996" 
d="M95 503q-5 14 -26 19l-50 10v19h311v-19l-40 -8q-23 -5 -33 -12t-10 -19q0 -7 3 -16l116 -339l120 349q4 12 -4.5 22t-22.5 13l-61 11v18h274v-18l-52 -11q-12 -3 -20.5 -9.5t-8.5 -16.5q0 -6 1 -9l122 -354l128 356l2 8q0 7 -10.5 11.5t-43.5 12.5l-52 12v18h239v-19
l-54 -12q-33 -7 -41 -26l-190 -508h-48l-157 390l-141 -390h-46zM444 652l110 155q18 26 43 26q20 0 32 -12.5t12 -29.5q0 -26 -24 -43l-155 -112z" />
    <glyph glyph-name="wcircumflex.sc" horiz-adv-x="996" 
d="M95 503q-5 14 -26 19l-50 10v19h311v-19l-40 -8q-23 -5 -33 -12t-10 -19q0 -7 3 -16l116 -339l120 349q4 12 -4.5 22t-22.5 13l-61 11v18h274v-18l-52 -11q-12 -3 -20.5 -9.5t-8.5 -16.5q0 -6 1 -9l122 -354l128 356l2 8q0 7 -10.5 11.5t-43.5 12.5l-52 12v18h239v-19
l-54 -12q-33 -7 -41 -26l-190 -508h-48l-157 390l-141 -390h-46zM685 634l-17 -16l-141 96l-140 -96l-18 16l138 180h41z" />
    <glyph glyph-name="wdieresis.sc" horiz-adv-x="996" 
d="M95 503q-5 14 -26 19l-50 10v19h311v-19l-40 -8q-23 -5 -33 -12t-10 -19q0 -7 3 -16l116 -339l120 349q4 12 -4.5 22t-22.5 13l-61 11v18h274v-18l-52 -11q-12 -3 -20.5 -9.5t-8.5 -16.5q0 -6 1 -9l122 -354l128 356l2 8q0 7 -10.5 11.5t-43.5 12.5l-52 12v18h239v-19
l-54 -12q-33 -7 -41 -26l-190 -508h-48l-157 390l-141 -390h-46zM370.5 671.5q-19.5 19.5 -19.5 45.5q0 27 19.5 46t46.5 19q26 0 45.5 -19.5t19.5 -45.5q0 -27 -19.5 -46t-45.5 -19q-27 0 -46.5 19.5zM591.5 671.5q-19.5 19.5 -19.5 45.5q0 27 19.5 46t46.5 19
q26 0 45.5 -19.5t19.5 -45.5q0 -27 -19.5 -46t-45.5 -19q-27 0 -46.5 19.5z" />
    <glyph glyph-name="wgrave.sc" horiz-adv-x="996" 
d="M95 503q-5 14 -26 19l-50 10v19h311v-19l-40 -8q-23 -5 -33 -12t-10 -19q0 -7 3 -16l116 -339l120 349q4 12 -4.5 22t-22.5 13l-61 11v18h274v-18l-52 -11q-12 -3 -20.5 -9.5t-8.5 -16.5q0 -6 1 -9l122 -354l128 356l2 8q0 7 -10.5 11.5t-43.5 12.5l-52 12v18h239v-19
l-54 -12q-33 -7 -41 -26l-190 -508h-48l-157 390l-141 -390h-46zM445 750q-21 17 -21 41q0 17 11.5 29.5t29.5 12.5q15 0 26 -6.5t20 -20.5l102 -161l-19 -15z" />
    <glyph glyph-name="x.sc" horiz-adv-x="704" 
d="M22 19l56 12q35 7 50 25l164 190l-190 256q-7 9 -14.5 14t-19.5 8l-44 10v17h330v-18l-77 -18q-5 -1 -8.5 -4.5t-3.5 -8.5q0 -6 4 -10l121 -161l116 151q10 12 10 19q0 12 -19 17l-65 15v18h237l1 -18l-57 -12q-37 -7 -50 -26l-148 -191l194 -257q12 -15 32 -19l42 -9
v-19h-334v19l43 9q17 4 30.5 12t13.5 20q0 7 -5 13l-114 149l-133 -151q-9 -10 -9 -19q0 -14 19 -18l65 -15l-1 -19h-237z" />
    <glyph glyph-name="y.sc" horiz-adv-x="667" 
d="M640 551l-1 -18l-57 -12q-16 -3 -25 -8.5t-13 -16.5l-159 -226v-194q0 -25 8 -33.5t36 -14.5l42 -9l1 -19h-300v19l43 9q29 6 36.5 14.5t7.5 33.5v187l-158 242q-8 14 -26 17l-48 11v18h313l-1 -18l-43 -10q-34 -8 -34 -26q0 -6 6 -17l101 -160l125 170q4 5 4 10
q0 11 -24 16l-76 17v18h242z" />
    <glyph glyph-name="yacute.sc" horiz-adv-x="667" 
d="M640 551l-1 -18l-57 -12q-16 -3 -25 -8.5t-13 -16.5l-159 -226v-194q0 -25 8 -33.5t36 -14.5l42 -9l1 -19h-300v19l43 9q29 6 36.5 14.5t7.5 33.5v187l-158 242q-8 14 -26 17l-48 11v18h313l-1 -18l-43 -10q-34 -8 -34 -26q0 -6 6 -17l101 -160l125 170q4 5 4 10
q0 11 -24 16l-76 17v18h242zM280 652l110 155q18 26 43 26q20 0 32 -12.5t12 -29.5q0 -26 -24 -43l-155 -112z" />
    <glyph glyph-name="ycircumflex.sc" horiz-adv-x="667" 
d="M640 551l-1 -18l-57 -12q-16 -3 -25 -8.5t-13 -16.5l-159 -226v-194q0 -25 8 -33.5t36 -14.5l42 -9l1 -19h-300v19l43 9q29 6 36.5 14.5t7.5 33.5v187l-158 242q-8 14 -26 17l-48 11v18h313l-1 -18l-43 -10q-34 -8 -34 -26q0 -6 6 -17l101 -160l125 170q4 5 4 10
q0 11 -24 16l-76 17v18h242zM521 634l-17 -16l-141 96l-140 -96l-18 16l138 180h41z" />
    <glyph glyph-name="ydieresis.sc" horiz-adv-x="667" 
d="M640 551l-1 -18l-57 -12q-16 -3 -25 -8.5t-13 -16.5l-159 -226v-194q0 -25 8 -33.5t36 -14.5l42 -9l1 -19h-300v19l43 9q29 6 36.5 14.5t7.5 33.5v187l-158 242q-8 14 -26 17l-48 11v18h313l-1 -18l-43 -10q-34 -8 -34 -26q0 -6 6 -17l101 -160l125 170q4 5 4 10
q0 11 -24 16l-76 17v18h242zM206.5 671.5q-19.5 19.5 -19.5 45.5q0 27 19.5 46t46.5 19q26 0 45.5 -19.5t19.5 -45.5q0 -27 -19.5 -46t-45.5 -19q-27 0 -46.5 19.5zM427.5 671.5q-19.5 19.5 -19.5 45.5q0 27 19.5 46t46.5 19q26 0 45.5 -19.5t19.5 -45.5q0 -27 -19.5 -46
t-45.5 -19q-27 0 -46.5 19.5z" />
    <glyph glyph-name="ygrave.sc" horiz-adv-x="667" 
d="M640 551l-1 -18l-57 -12q-16 -3 -25 -8.5t-13 -16.5l-159 -226v-194q0 -25 8 -33.5t36 -14.5l42 -9l1 -19h-300v19l43 9q29 6 36.5 14.5t7.5 33.5v187l-158 242q-8 14 -26 17l-48 11v18h313l-1 -18l-43 -10q-34 -8 -34 -26q0 -6 6 -17l101 -160l125 170q4 5 4 10
q0 11 -24 16l-76 17v18h242zM280 750q-21 17 -21 41q0 17 11.5 29.5t29.5 12.5q15 0 26 -6.5t20 -20.5l102 -161l-19 -15z" />
    <glyph glyph-name="z.sc" horiz-adv-x="589" 
d="M32 16l355 507h-121q-73 0 -115 -33t-72 -108h-18q13 62 13 122q0 15 -4 47h474v-19l-351 -503h148q72 0 127 39t79 102h19q-23 -99 -23 -170h-511v16z" />
    <glyph glyph-name="zacute.sc" horiz-adv-x="589" 
d="M32 16l355 507h-121q-73 0 -115 -33t-72 -108h-18q13 62 13 122q0 15 -4 47h474v-19l-351 -503h148q72 0 127 39t79 102h19q-23 -99 -23 -170h-511v16zM221 652l110 155q18 26 43 26q20 0 32 -12.5t12 -29.5q0 -26 -24 -43l-155 -112z" />
    <glyph glyph-name="zcaron.sc" horiz-adv-x="589" 
d="M32 16l355 507h-121q-73 0 -115 -33t-72 -108h-18q13 62 13 122q0 15 -4 47h474v-19l-351 -503h148q72 0 127 39t79 102h19q-23 -99 -23 -170h-511v16zM146 802l18 16l140 -96l141 96l17 -16l-137 -180h-41z" />
    <glyph glyph-name="zdotaccent.sc" horiz-adv-x="589" 
d="M32 16l355 507h-121q-73 0 -115 -33t-72 -108h-18q13 62 13 122q0 15 -4 47h474v-19l-351 -503h148q72 0 127 39t79 102h19q-23 -99 -23 -170h-511v16zM252.5 662q-21.5 21 -21.5 52t21.5 52t51.5 21q31 0 52.5 -21t21.5 -52t-21.5 -52t-52.5 -21q-30 0 -51.5 21z" />
    <glyph glyph-name="ordfeminine" unicode="&#xaa;" horiz-adv-x="379" 
d="M359 421v-18q-20 -11 -43.5 -20.5t-40.5 -9.5q-41 0 -49 44q-56 -45 -99 -45q-44 0 -73 32.5t-29 77.5q0 13 2.5 19t8.5 8l159 57q14 5 18.5 11t4.5 18v27q0 68 -64 68q-21 0 -35 -8.5t-14 -18.5q0 -7 5 -13t6 -7q13 -19 13 -33q0 -18 -13 -28t-33 -10q-21 0 -33 11.5
t-12 31.5q0 27 20.5 50t52.5 36.5t65 13.5q56 0 93 -26.5t37 -77.5v-161q0 -18 4 -26.5t17 -8.5q6 0 32 6zM218 541q0 5 -5 3l-93 -33q-5 -2 -6.5 -6.5t-1.5 -16.5q0 -27 17.5 -49t39.5 -22q10 0 18.5 3t21.5 11q9 8 9 22v88z" />
    <glyph glyph-name="ordmasculine" unicode="&#xba;" horiz-adv-x="390" 
d="M102.5 393.5q-41.5 22.5 -64.5 61t-23 85.5q0 49 23 89t64 63t93 23q51 0 92.5 -22.5t64.5 -61.5t23 -85q0 -49 -23 -89t-64 -63t-93 -23q-51 0 -92.5 22.5zM260.5 441.5q22.5 36.5 22.5 103.5q0 64 -23 100t-65 36q-43 0 -65.5 -37t-22.5 -104q0 -64 22.5 -99.5
t65.5 -35.5t65.5 36.5z" />
    <glyph glyph-name="uni0394" unicode="&#x394;" horiz-adv-x="682" 
d="M676 0h-671l277 673h113zM98 85h388l-190 494z" />
    <glyph glyph-name="uni03A9" unicode="&#x3a9;" horiz-adv-x="839" 
d="M25 242h22l12 -50q8 -35 19.5 -44.5t42.5 -9.5h121q-44 25 -78.5 71.5t-53.5 99t-19 96.5q0 77 42 140.5t117 100.5t169 37q95 0 169.5 -37t116.5 -100.5t42 -140.5q0 -44 -19 -96.5t-53.5 -99t-78.5 -71.5h122q31 0 42 9.5t19 44.5l12 50h22l-33 -242h-296l-27 28
q68 73 104 153.5t36 191.5q0 122 -46.5 197.5t-131.5 75.5t-131.5 -75.5t-46.5 -197.5q0 -111 36 -192t105 -153l-28 -28h-296z" />
    <glyph glyph-name="uni03BC" unicode="&#x3bc;" horiz-adv-x="573" 
d="M486 48q17 -14 57 -13v-26q-56 -3 -120 -12l-40 -5l-10 5l-10 66h-8q-54 -20 -127 -66q-8 -5 -15 -5q-23 0 -39 4l13 -238l-118 -18l1 627q0 20 -6.5 28t-20.5 12l-33 8v18q59 4 95 9t83 16l10 -8q-6 -11 -9.5 -34t-3.5 -49v-201q0 -44 21.5 -67.5t61.5 -23.5
q41 0 63.5 25t22.5 68v199q0 20 -6.5 28t-20.5 12l-32 8v18q59 4 95 9t83 16l10 -8q-7 -11 -10.5 -33.5t-3.5 -49.5v-272q0 -33 17 -47z" />
    <glyph glyph-name="pi" unicode="&#x3c0;" horiz-adv-x="589" 
d="M452 96.5q14 -37.5 43 -37.5q19 0 46 9v-34q-22 -14 -65 -27.5t-70 -13.5q-32 0 -43 31t-11 108q0 63 15 198h-121q-4 -114 -14.5 -198t-36.5 -132h-112l-17 53q43 32 68.5 101.5t38.5 174.5q-36 -2 -65.5 -14t-65.5 -41l-22 26q35 69 86 104.5t106 35.5h272q13 0 21 8
t12 19l12 32h30l-28 -169h-89q-4 -49 -4 -97q0 -99 14 -136.5z" />
    <glyph glyph-name="zero" unicode="0" horiz-adv-x="604" 
d="M158.5 38.5q-57.5 46.5 -85 125.5t-27.5 178q0 152 64 246.5t192 94.5t192 -94.5t64 -246.5q0 -99 -27.5 -178t-85 -125.5t-143.5 -46.5t-143.5 46.5zM391 108.5q22 81.5 22 233.5q0 147 -22.5 226t-88.5 79t-88.5 -79t-22.5 -226q0 -151 22.5 -233t88.5 -82
q67 0 89 81.5z" />
    <glyph glyph-name="one" unicode="1" horiz-adv-x="396" 
d="M30 22l51 11q35 7 45 19.5t10 45.5v490q0 15 -7.5 21.5t-25.5 5.5l-72 -3v28l243 40v-582q0 -33 10 -45.5t45 -19.5l51 -11v-22h-350v22z" />
    <glyph glyph-name="two" unicode="2" horiz-adv-x="505" 
d="M26 19l154 193q63 78 94 148.5t31 147.5q0 137 -103 137q-35 0 -56 -12t-21 -30q0 -15 8 -29q11 -16 11 -34q0 -25 -16.5 -40t-41.5 -15t-41 17t-16 41q0 35 25 67.5t69.5 52.5t101.5 20q69 0 119 -23.5t76 -63.5t26 -87q0 -52 -22 -98t-54 -83.5t-87 -92.5l-34 -35
l-81 -83h206q25 0 37.5 13.5t24.5 44.5l6 17h22l-38 -192h-400v19z" />
    <glyph glyph-name="three" unicode="3" horiz-adv-x="510" 
d="M74 28q-54 36 -54 96q0 30 17.5 46.5t41.5 16.5q28 0 43.5 -14t15.5 -35q0 -26 -20 -44q-6 -6 -10.5 -11.5t-4.5 -12.5q0 -18 25.5 -29.5t60.5 -11.5q54 0 94 41.5t40 135.5q0 60 -35.5 101.5t-94.5 42.5q-21 -7 -25 -8q-5 -2 -29 -10l-13 22l22 11q51 28 89.5 73.5
t38.5 108.5q0 100 -87 100q-30 0 -46.5 -9.5t-16.5 -20.5q0 -15 9 -29q6 -10 8.5 -17.5t2.5 -19.5q0 -22 -17 -34.5t-41 -12.5q-23 0 -37.5 15.5t-14.5 42.5q0 29 22 57t63 46t93 18q87 0 140.5 -33.5t53.5 -97.5q0 -96 -122 -142v-2q54 -6 96 -33t64.5 -68t22.5 -88
q0 -63 -30 -115t-89 -82t-144 -30q-78 0 -132 36z" />
    <glyph glyph-name="four" unicode="4" horiz-adv-x="575" 
d="M437 53q10 -13 44 -20l51 -11v-22h-340v22l51 11q34 7 44 20t10 45v60h-282v48l380 477h32v-439h31q18 0 29 8.5t19 26.5l16 40h22l-38 -161h-79v-60q0 -32 10 -45zM297 244v253l-202 -253h202z" />
    <glyph glyph-name="five" unicode="5" horiz-adv-x="494" 
d="M64 27.5q-54 36.5 -54 96.5q0 29 17.5 45.5t40.5 16.5q28 0 44 -14t16 -35q0 -16 -5.5 -26t-15.5 -19q-8 -7 -11.5 -11.5t-3.5 -11.5q0 -18 25.5 -29.5t61.5 -11.5q57 0 96 46t39 130q0 70 -49.5 108.5t-127.5 38.5q-15 0 -41 -3l-12 7l37 331h238q31 0 44 32l11 29h26
l-31 -166h-257l-17 -140q17 2 47 2q77 0 138.5 -26.5t97.5 -77.5t36 -120q0 -61 -29 -113t-87 -83.5t-142 -31.5q-78 0 -132 36.5z" />
    <glyph glyph-name="six" unicode="6" horiz-adv-x="530" 
d="M413 392.5q45 -29.5 68 -76.5t23 -101q0 -71 -31 -121.5t-84 -76.5t-117 -26q-110 0 -173 70t-63 201q0 126 51.5 221.5t142.5 147.5t207 52l2 -22q-216 -20 -253 -285q22 22 52 34t66 12q64 0 109 -29.5zM342.5 74q21.5 46 21.5 140q0 78 -20.5 118t-66.5 40
q-39 0 -63.5 -25.5t-34.5 -71.5v-21q0 -111 26.5 -168.5t67.5 -57.5q48 0 69.5 46z" />
    <glyph glyph-name="seven" unicode="7" horiz-adv-x="518" 
d="M402 558h-296q-14 0 -27 -9t-20 -26l-16 -40h-23l41 191h413v-99l-222 -575h-147z" />
    <glyph glyph-name="eight" unicode="8" horiz-adv-x="564" 
d="M477 290.5q39 -47.5 39 -109.5q0 -56 -31 -100t-86 -68.5t-123 -24.5q-63 0 -115.5 20t-83.5 58.5t-31 91.5q0 58 39.5 107t98.5 76q-52 35 -82 76.5t-30 95.5q0 47 25 85.5t76 61.5t125 23q85 0 141 -40.5t56 -109.5q0 -49 -34 -90t-88 -65q65 -40 104 -87.5zM217.5 620
q-27.5 -23 -27.5 -72q0 -40 36 -73t100 -69l9 -5q21 26 31 60.5t10 69.5q0 55 -24 83.5t-70 28.5q-37 0 -64.5 -23zM365 56q23 32 23 90q0 37 -19.5 64t-44.5 44t-76 47l-22 13q-23 -26 -33.5 -61t-10.5 -72q0 -71 32 -114t79 -43q49 0 72 32z" />
    <glyph glyph-name="nine" unicode="9" horiz-adv-x="530" 
d="M431 614q63 -70 63 -201q0 -126 -51.5 -221.5t-142.5 -147.5t-207 -52l-2 22q118 11 176.5 87t75.5 197q-47 -45 -117 -45q-64 0 -109.5 29.5t-68.5 77t-23 100.5q0 71 31.5 121.5t84.5 76.5t117 26q110 0 173 -70zM350 395v26q0 111 -26 168.5t-68 57.5q-47 0 -69 -46.5
t-22 -139.5q0 -78 21 -118t66 -40q75 0 98 92z" />
    <glyph glyph-name="zero.onum" horiz-adv-x="500" 
d="M133.5 19q-50.5 30 -79 81.5t-28.5 112.5q0 68 30 122t81.5 84.5t114.5 30.5q62 0 113 -29.5t80 -81t29 -112.5q0 -68 -30 -122.5t-82.5 -85t-115.5 -30.5q-62 0 -112.5 30zM320.5 87.5q28.5 50.5 28.5 138.5q0 84 -27.5 130t-70.5 46q-45 0 -72.5 -48t-27.5 -140
q0 -80 27 -128.5t70 -48.5q44 0 72.5 50.5z" />
    <glyph glyph-name="one.onum" horiz-adv-x="373" 
d="M30 21l48 10q32 7 41.5 18.5t9.5 41.5v258q0 31 -9.5 42.5t-41.5 18.5l-48 11v20h312v-20l-47 -11q-32 -7 -41.5 -18.5t-9.5 -42.5v-258q0 -30 9.5 -41.5t41.5 -18.5l47 -10v-21h-312v21z" />
    <glyph glyph-name="two.onum" horiz-adv-x="488" 
d="M25 29q122 52 189.5 120.5t67.5 163.5q0 50 -24.5 75.5t-69.5 25.5q-26 0 -45.5 -12t-19.5 -31q0 -6 4 -14l6 -12q10 -17 10 -35q0 -22 -17 -34.5t-41 -12.5q-23 0 -37.5 15.5t-14.5 42.5q0 28 23 58.5t64 50.5t93 20q83 0 137.5 -34t54.5 -97q0 -59 -49.5 -119.5
t-128.5 -96.5v-3h131q25 0 37.5 13.5t24.5 43.5l6 16h22l-32 -173h-391v29z" />
    <glyph glyph-name="three.onum" horiz-adv-x="510" 
d="M74 -204.5q-54 36.5 -54 96.5q0 30 17.5 46t41.5 16q27 0 43 -14t16 -34q0 -16 -5.5 -26t-14.5 -19q-6 -6 -10.5 -11.5t-4.5 -12.5q0 -19 25.5 -32.5t60.5 -13.5q38 0 73 19t58 60.5t23 105.5q0 60 -41.5 100.5t-108.5 41.5l-54 -18l-13 21l22 12q69 35 104 79.5
t35 101.5q0 47 -25.5 74t-72.5 27q-30 0 -46.5 -11t-16.5 -24q0 -15 9 -29q11 -18 11 -36q0 -22 -17 -34.5t-41 -12.5q-23 0 -37.5 15t-14.5 42q0 29 22 58t63 48t93 19q87 0 140.5 -33.5t53.5 -97.5q0 -96 -122 -142v-2q55 -7 96.5 -33.5t64 -67.5t22.5 -88q0 -71 -33 -122
t-92.5 -78t-137.5 -27t-132 36.5z" />
    <glyph glyph-name="four.onum" horiz-adv-x="561" 
d="M492 -75h-71v-160l-115 -15v175h-291v48l374 477h32v-439h23q18 0 29 8.5t19 26.5l16 40h22zM306 11v270l-212 -270h212z" />
    <glyph glyph-name="five.onum" horiz-adv-x="504" 
d="M64 -223.5q-54 36.5 -54 96.5q0 29 17.5 45.5t40.5 16.5q28 0 44 -14t16 -35q0 -15 -5.5 -25t-15.5 -19q-6 -6 -10.5 -11.5t-4.5 -12.5q0 -18 27 -29.5t66 -11.5q65 0 104 39.5t39 107.5q0 77 -63 120t-162 66l-7 6l76 298l223 14q19 2 30 12.5t17 31.5h27l-23 -140
l-253 -16l-30 -118q129 -23 209.5 -80.5t80.5 -156.5q0 -57 -28.5 -107.5t-87 -82t-141.5 -31.5q-78 0 -132 36.5z" />
    <glyph glyph-name="six.onum" horiz-adv-x="515" 
d="M400 393.5q45 -29.5 67.5 -77t22.5 -100.5q0 -71 -30.5 -122t-82 -77t-114.5 -26q-105 0 -166 70t-61 201q0 126 50.5 221.5t139.5 147.5t203 52l2 -22q-126 -11 -186.5 -89.5t-76.5 -203.5q22 26 53.5 40.5t70.5 14.5q63 0 108 -29.5zM364 215q0 78 -21.5 118.5
t-68.5 40.5q-54 0 -81.5 -43.5t-29.5 -117.5q6 -92 33.5 -141t67.5 -49q100 0 100 192z" />
    <glyph glyph-name="seven.onum" horiz-adv-x="493" 
d="M231 -72q-12 -23 -12 -37q0 -11 7.5 -18t25.5 -18q17 -9 27.5 -21t10.5 -31q0 -22 -18 -41.5t-46 -19.5q-39 0 -57 25.5t-18 61.5q0 23 11 53.5t34 76.5l190 383h-277q-14 0 -27 -9t-20 -26l-16 -40h-23l38 174h393v-65z" />
    <glyph glyph-name="eight.onum" horiz-adv-x="575" 
d="M480.5 292.5q39.5 -45.5 39.5 -107.5q0 -56 -31.5 -100t-86 -68.5t-122.5 -24.5q-61 0 -112.5 20t-82 58.5t-30.5 91.5q0 58 42 107t103 77q-58 37 -90.5 77t-32.5 94q0 47 25 85.5t76 61.5t125 23q84 0 140 -40.5t56 -109.5q0 -51 -35.5 -93t-90.5 -65
q68 -41 107.5 -86.5zM222.5 629q-28.5 -25 -28.5 -74q0 -76 133 -150l7 -4q22 28 33.5 66.5t11.5 73.5q0 53 -23.5 83t-68.5 30q-36 0 -64.5 -25zM372.5 56.5q22.5 32.5 22.5 91.5q0 54 -35 89t-101 74l-18 10q-30 -25 -45 -61.5t-15 -75.5q0 -47 15.5 -83.5t42.5 -56.5
t60 -20q51 0 73.5 32.5z" />
    <glyph glyph-name="nine.onum" horiz-adv-x="515" 
d="M419 380q61 -70 61 -201q0 -125 -50.5 -221t-140 -148t-203.5 -52l-1 22q126 12 187 91t76 204q-21 -26 -53.5 -41t-71.5 -15q-63 0 -108 29.5t-67.5 77t-22.5 100.5q0 71 30.5 121.5t82 76.5t114.5 26q106 0 167 -70zM324.5 114q27.5 47 27.5 125q-7 87 -34.5 133.5
t-66.5 46.5q-50 0 -75 -49.5t-25 -142.5q0 -79 22 -119.5t69 -40.5q55 0 82.5 47z" />
    <glyph glyph-name="uni00B9" unicode="&#xb9;" horiz-adv-x="248" 
d="M25 369l30 5q20 4 26 10.5t6 22.5v228q0 8 -4.5 11t-15.5 3l-41 -2v23l140 20v-283q0 -16 6 -22.5t26 -10.5l30 -5v-19h-203v19z" />
    <glyph glyph-name="uni00B2" unicode="&#xb2;" horiz-adv-x="310" 
d="M275 461l-23 -112h-227v10l87 93q35 38 51.5 69.5t16.5 68.5q0 71 -52 71q-20 0 -32 -6t-12 -15q0 -6 4.5 -15.5t4.5 -14.5q0 -13 -10 -21.5t-23 -8.5q-14 0 -23.5 10t-9.5 23q0 28 30.5 50.5t80.5 22.5q59 0 92 -24.5t33 -63.5q0 -44 -27 -80t-77 -76l-28 -22h84
q14 0 21 6.5t13 21.5l5 13h21z" />
    <glyph glyph-name="uni00B3" unicode="&#xb3;" horiz-adv-x="308" 
d="M50.5 362q-32.5 18 -32.5 51q0 17 10 28.5t25 11.5q18 0 27.5 -9.5t9.5 -21.5q0 -8 -3 -12.5t-10 -10t-7 -10.5q0 -9 14.5 -14.5t35.5 -5.5q33 0 52 21t19 59q0 65 -67 66q-7 -2 -15 -4.5t-18 -4.5l-10 19l14 5q33 12 55 33.5t22 52.5q0 20 -13 33t-39 13q-18 0 -28 -5.5
t-10 -13.5q0 -7 6.5 -16t6.5 -19q0 -11 -10.5 -18.5t-25.5 -7.5q-13 0 -22 11.5t-9 28.5q0 25 30 44.5t78 19.5q52 0 83.5 -17.5t31.5 -49.5q0 -48 -71 -70v-1q49 -4 75.5 -30t26.5 -63q0 -48 -38 -79.5t-113 -31.5q-48 0 -80.5 18z" />
    <glyph glyph-name="uni2074" unicode="&#x2074;" horiz-adv-x="321" 
d="M237 383q5 -6 21 -10l27 -6v-18h-181v18l27 6q16 4 21 10.5t5 22.5v17h-151v31l205 235h21v-219h15q8 0 15 4.5t11 13.5l9 20h12l-22 -85h-40v-17q0 -17 5 -23zM157 470v120l-107 -120h107z" />
    <glyph glyph-name="fraction" unicode="&#x2044;" horiz-adv-x="427" 
d="M467 673l-442 -673h-65l443 673h64z" />
    <glyph glyph-name="onehalf" unicode="&#xbd;" horiz-adv-x="655" 
d="M25 369l30 5q20 4 26 10.5t6 22.5v228q0 8 -4.5 11t-15.5 3l-41 -2v23l140 20v-283q0 -16 6 -22.5t26 -10.5l30 -5v-19h-203v19zM565 673l-442 -673h-65l443 673h64zM619 112l-23 -112h-227v10l87 93q35 38 51.5 69.5t16.5 68.5q0 71 -52 71q-20 0 -32 -6t-12 -15
q0 -6 4.5 -15.5t4.5 -14.5q0 -13 -10 -21.5t-23 -8.5q-14 0 -23.5 10t-9.5 23q0 28 30.5 50.5t80.5 22.5q59 0 92 -24.5t33 -63.5q0 -44 -27 -80t-77 -76l-28 -22h84q14 0 21 6.5t13 21.5l5 13h21z" />
    <glyph glyph-name="onequarter" unicode="&#xbc;" horiz-adv-x="591" 
d="M228 350h-203v19l30 5q20 4 26 10.5t6 22.5v228q0 8 -4.5 11t-15.5 3l-41 -2v23l140 20v-283q0 -16 6 -22.5t26 -10.5l30 -5v-19zM566 673l-442 -673h-66l444 673h64zM553 157h11l-19 -99h-41v-58h-75v58h-145v36l197 241h23v-215h15q18 0 25 17zM429 120v115l-95 -115
h95z" />
    <glyph glyph-name="threequarters" unicode="&#xbe;" horiz-adv-x="608" 
d="M244 375.5q-38 -31.5 -113 -31.5q-48 0 -80.5 18t-32.5 51q0 17 10 28.5t25 11.5q18 0 27.5 -9.5t9.5 -21.5q0 -8 -3 -12.5t-10 -10t-7 -10.5q0 -9 14.5 -14.5t35.5 -5.5q33 0 52 21t19 59q0 65 -67 66q-7 -2 -15 -4.5t-18 -4.5l-10 19l14 5q33 12 55 33.5t22 52.5
q0 20 -13 33t-39 13q-18 0 -28 -5.5t-10 -13.5q0 -7 6.5 -16t6.5 -19q0 -11 -10.5 -18.5t-25.5 -7.5q-13 0 -22 11.5t-9 28.5q0 25 30 44.5t78 19.5q52 0 83.5 -17.5t31.5 -49.5q0 -48 -71 -70v-1q49 -4 75.5 -30t26.5 -63q0 -48 -38 -79.5zM582 673l-442 -673h-65l443 673
h64zM554 157h11l-20 -99h-41v-58h-74v58h-145v36l196 241h23v-215h16q18 0 25 17zM430 120v116l-95 -116h95z" />
    <glyph glyph-name="period" unicode="." horiz-adv-x="284" 
d="M85.5 15.5q-23.5 23.5 -23.5 56.5t23.5 56.5t56.5 23.5t56 -23.5t23 -55.5q0 -34 -23 -57.5t-56 -23.5t-56.5 23.5z" />
    <glyph glyph-name="comma" unicode="," horiz-adv-x="284" 
d="M44 -131q43 7 69.5 35t26.5 68q0 29 -22 49.5t-60 26.5v31q26 13 41.5 30.5t31.5 48.5q50 -16 79 -51t29 -83q0 -47 -24 -88.5t-68.5 -68t-102.5 -30.5v32z" />
    <glyph glyph-name="colon" unicode=":" horiz-adv-x="284" 
d="M85.5 14.5q-23.5 23.5 -23.5 56.5t23.5 56.5t56.5 23.5t56 -23.5t23 -55.5q0 -34 -23 -57.5t-56 -23.5t-56.5 23.5zM85.5 329.5q-23.5 23.5 -23.5 56.5t23.5 56.5t56.5 23.5t56 -23.5t23 -55.5q0 -34 -23 -57.5t-56 -23.5t-56.5 23.5z" />
    </font>
</defs>
</svg>
