<svg id="Capa_1" data-name="Capa 1" xmlns="http://www.w3.org/2000/svg" width="280" height="280" viewBox="0 0 280 280"><title>idv</title><path d="M63.76,115.39l35-18.25a2.08,2.08,0,0,1,2.78.82l36.79,64.82a2.36,2.36,0,0,0,4.08,0L217.91,35.1a6,6,0,0,1,5.19-3l39.56,0a2.82,2.82,0,0,1,2.44,4.25l-122,209.89a3.14,3.14,0,0,1-5.43,0L63,117.93A1.83,1.83,0,0,1,63.76,115.39Z" fill="#1d1d1b"/><path d="M123.16,113l26-45.18a2.2,2.2,0,0,0-1.91-3.29H97A5.51,5.51,0,0,1,92.34,62L74.71,34.93a1.63,1.63,0,0,1,1.36-2.52H204a2.58,2.58,0,0,1,2.23,3.87L143,145.59a2.46,2.46,0,0,1-4.28,0l-15.63-28.48A4.19,4.19,0,0,1,123.16,113Z" fill="#1d1d1b"/><path d="M60.77,32.18l33.57,53.6a2.64,2.64,0,0,1-1.06,3.76L60.42,105.88a3.65,3.65,0,0,1-4.77-1.43L15.81,35.8a2.37,2.37,0,0,1,2-3.55Z" fill="#1d1d1b"/></svg>