<?xml version="1.0" encoding="utf-8"?>
<!-- Generator: Adobe Illustrator 24.0.0, SVG Export Plug-In . SVG Version: 6.00 Build 0)  -->
<svg version="1.1" id="Capa_1" xmlns="http://www.w3.org/2000/svg" xmlns:xlink="http://www.w3.org/1999/xlink" x="0px" y="0px"
	 viewBox="0 0 600 600" style="enable-background:new 0 0 600 600;" xml:space="preserve">
<style type="text/css">
	.st0{opacity:0.43;}
	.st1{fill:#0A0A0A;stroke:#D4C3A4;stroke-width:0.5;stroke-miterlimit:10;}
	.st2{fill:none;stroke:#D4C3A4;stroke-width:3;}
</style>
<g id="Capa_1">
	<g>
		<g class="st0">
			<path class="st1" d="M143.9,264l71.2-37.1c2-1.1,4.5-0.3,5.6,1.7l74.8,131.9c1.9,3.2,6.4,3.2,8.3,0l153.6-259.8
				c2.2-3.7,6.2-6,10.6-6l80.5,0c4.4,0,7.2,4.8,5,8.6l-248.3,427c-2.5,4.2-8.6,4.2-11,0L142.4,269.1
				C141.4,267.3,142,264.9,143.9,264z"/>
			<path class="st1" d="M264.8,259l52.8-91.9c1.7-3-0.4-6.7-3.9-6.7l-102.3,0c-3.8,0-7.3-1.9-9.4-5.1l-35.9-55.1
				c-1.4-2.2,0.1-5.1,2.8-5.1h260.2c4,0,6.5,4.4,4.5,7.9L305.2,325.4c-2,3.4-6.8,3.3-8.7-0.1l-31.8-57.9
				C263.2,264.8,263.3,261.6,264.8,259z"/>
			<path class="st1" d="M137.8,94.7l68.3,109.1c1.7,2.7,0.7,6.2-2.2,7.6l-66.9,33.2c-3.5,1.7-7.7,0.5-9.7-2.9L46.3,102
				c-1.9-3.2,0.5-7.2,4.2-7.2L137.8,94.7z"/>
		</g>
	</g>
	<g>
		<g>
			<path class="st2" d="M143.9,264l71.2-37.1c2-1.1,4.5-0.3,5.6,1.7l74.8,131.9c1.9,3.2,6.4,3.2,8.3,0l153.6-259.8
				c2.2-3.7,6.2-6,10.6-6l80.5,0c4.4,0,7.2,4.8,5,8.6l-248.3,427c-2.5,4.2-8.6,4.2-11,0L142.4,269.1
				C141.4,267.3,142,264.9,143.9,264z"/>
			<path class="st2" d="M264.8,259l52.8-91.9c1.7-3-0.4-6.7-3.9-6.7l-102.3,0c-3.8,0-7.3-1.9-9.4-5.1l-35.9-55.1
				c-1.4-2.2,0.1-5.1,2.8-5.1h260.2c4,0,6.5,4.4,4.5,7.9L305.2,325.4c-2,3.4-6.8,3.3-8.7-0.1l-31.8-57.9
				C263.2,264.8,263.3,261.6,264.8,259z"/>
			<path class="st2" d="M137.8,94.7l68.3,109.1c1.7,2.7,0.7,6.2-2.2,7.6l-66.9,33.2c-3.5,1.7-7.7,0.5-9.7-2.9L46.3,102
				c-1.9-3.2,0.5-7.2,4.2-7.2L137.8,94.7z"/>
		</g>
	</g>
</g>
</svg>
