<?xml version="1.0" encoding="utf-8"?>
<!-- Generator: Adobe Illustrator 24.0.0, SVG Export Plug-In . SVG Version: 6.00 Build 0)  -->
<svg version="1.1" baseProfile="tiny" id="Capa_1" xmlns="http://www.w3.org/2000/svg" xmlns:xlink="http://www.w3.org/1999/xlink"
	 x="0px" y="0px" viewBox="0 0 600 600" xml:space="preserve">
<g>
	<path fill="#BEA373" d="M143.91,263.95l71.22-37.12c2.02-1.05,4.51-0.32,5.64,1.66l74.85,131.88c1.85,3.19,6.44,3.21,8.32,0.04
		L457.5,100.61c2.21-3.73,6.22-6.02,10.56-6.02l80.48,0.03c4.43,0,7.2,4.81,4.97,8.64l-248.3,427.01
		c-2.46,4.24-8.59,4.23-11.04-0.02L142.41,269.12C141.35,267.29,142.03,264.93,143.91,263.95z"/>
	<path fill="#BEA373" d="M264.75,259.04l52.83-91.9c1.71-2.98-0.44-6.7-3.87-6.7l-102.25,0.01c-3.8,0-7.34-1.92-9.41-5.1
		l-35.86-55.09c-1.43-2.2,0.15-5.12,2.78-5.12h260.18c4.03,0,6.55,4.37,4.54,7.86L305.17,325.4c-1.95,3.37-6.83,3.32-8.7-0.1
		l-31.8-57.93C263.24,264.77,263.27,261.61,264.75,259.04z"/>
	<path fill="#BEA373" d="M137.82,94.67l68.29,109.05c1.68,2.69,0.68,6.24-2.16,7.65L137.1,244.6c-3.49,1.74-7.73,0.46-9.69-2.91
		L46.35,102.04c-1.86-3.21,0.45-7.22,4.16-7.23L137.82,94.67z"/>
</g>
<g>
</g>
<g>
</g>
<g>
</g>
<g>
</g>
<g>
</g>
<g>
</g>
</svg>
